<svg width="311" height="259" viewBox="0 0 311 259" fill="none" xmlns="http://www.w3.org/2000/svg">
<path d="M13.7097 49L14.5508 48.4592L13.7097 49ZM294.269 257.183C294.646 257.586 295.279 257.608 295.683 257.231L302.26 251.087C302.663 250.71 302.685 250.078 302.308 249.674C301.931 249.27 301.298 249.249 300.894 249.626L295.048 255.087L289.587 249.24C289.21 248.837 288.578 248.815 288.174 249.192C287.77 249.569 287.749 250.202 288.126 250.606L294.269 257.183ZM105 84L104.553 84.8944L105 84ZM2.50002 0.500093C2.50002 0.407358 2.51744 0.366038 2.49081 0.481469C2.47239 0.561284 2.44363 0.672825 2.40251 0.82815C2.32238 1.13089 2.20531 1.56262 2.07316 2.10065C1.80779 3.18103 1.47915 4.69875 1.22546 6.61107L3.20809 6.87409C3.45012 5.04962 3.76311 3.60495 4.01543 2.57772C4.14212 2.06194 4.25291 1.65355 4.33593 1.33991C4.37639 1.18705 4.41302 1.04633 4.43961 0.931083C4.45799 0.85145 4.50002 0.672255 4.50002 0.500093L2.50002 0.500093ZM1.26191 19.6041C1.74339 23.3668 2.67033 27.5912 4.2782 32.2059L6.16684 31.5478C4.60558 27.0669 3.70996 22.9782 3.24573 19.3502L1.26191 19.6041ZM9.56325 43.9907C10.5562 45.8016 11.6547 47.6526 12.8685 49.5407L14.5508 48.4592C13.3618 46.6096 12.2872 44.7985 11.3169 43.0291L9.56325 43.9907ZM12.8685 49.5407C14.5388 52.139 16.2775 54.3672 18.0978 56.2864L19.5489 54.91C17.8235 53.0909 16.1608 50.9636 14.5508 48.4592L12.8685 49.5407ZM32.4082 65.4766C37.3891 67.2477 42.8563 68.2169 48.8733 69.1294L49.1732 67.152C43.1602 66.2401 37.8616 65.293 33.0782 63.5922L32.4082 65.4766ZM65.3381 71.7449C70.338 72.6854 75.6941 73.9019 81.4551 75.6454L82.0345 73.7312C76.1901 71.9624 70.7619 70.73 65.7078 69.7794L65.3381 71.7449ZM97.0157 81.3718C99.4632 82.4357 101.975 83.6054 104.553 84.8944L105.447 83.1056C102.837 81.8006 100.293 80.6158 97.8131 79.5376L97.0157 81.3718ZM104.553 84.8944C107.173 86.2046 109.496 87.5794 111.556 89.0072L112.695 87.3636C110.551 85.877 108.145 84.4545 105.447 83.1056L104.553 84.8944ZM122.557 100.486C125.415 105.335 126.713 110.482 127.248 115.693L129.237 115.489C128.683 110.082 127.324 104.636 124.28 99.4705L122.557 100.486ZM127.333 132.014C127.121 137.989 127.03 143.768 128.569 148.707L130.478 148.113C129.056 143.549 129.118 138.111 129.332 132.085L127.333 132.014ZM140.157 160.754C142.473 161.693 145.177 162.442 148.33 162.985L148.67 161.015C145.629 160.49 143.067 159.776 140.908 158.901L140.157 160.754ZM148.33 162.985C150.985 163.443 153.417 163.822 155.659 164.13L155.931 162.148C153.715 161.844 151.305 161.469 148.67 161.015L148.33 162.985ZM170.505 165.275C176.598 165.24 180.738 164.388 185.288 163.486L184.899 161.524C180.354 162.426 176.378 163.241 170.494 163.275L170.505 165.275ZM199.745 161.473C203.691 161.218 208.429 161.133 214.364 161.341L214.434 159.342C208.443 159.132 203.637 159.217 199.616 159.477L199.745 161.473ZM229.023 162.279C231.346 162.483 233.8 162.72 236.395 162.994L236.605 161.006C234 160.73 231.534 160.491 229.198 160.286L229.023 162.279ZM236.395 162.994C238.993 163.269 241.472 163.691 243.836 164.247L244.294 162.3C241.845 161.724 239.284 161.289 236.605 161.006L236.395 162.994ZM257.764 169.66C262.225 172.189 266.138 175.301 269.573 178.83L271.006 177.435C267.451 173.782 263.389 170.55 258.751 167.92L257.764 169.66ZM278.678 190.782C281.281 195.117 283.446 199.712 285.248 204.382L287.114 203.662C285.278 198.902 283.064 194.201 280.393 189.753L278.678 190.782ZM289.734 218.862C291.006 224.09 291.905 229.158 292.539 233.794L294.52 233.523C293.879 228.831 292.968 223.694 291.677 218.389L289.734 218.862ZM293.897 248.929C293.997 251.285 294.023 253.175 294.024 254.472C294.024 255.121 294.018 255.622 294.012 255.96C294.009 256.129 294.006 256.256 294.004 256.341C294.003 256.384 294.002 256.416 294.001 256.437C294.001 256.447 294.001 256.455 294.001 256.46C294.001 256.462 294.001 256.464 294.001 256.465C294.001 256.465 294.001 256.466 294.001 256.466C294.001 256.466 294.001 256.466 294.001 256.466L294.001 256.466C294.001 256.466 294.001 256.466 295 256.5C295.999 256.534 295.999 256.534 295.999 256.534C295.999 256.534 295.999 256.534 295.999 256.534C295.999 256.534 295.999 256.533 295.999 256.533C295.999 256.533 295.999 256.532 296 256.531C296 256.529 296 256.527 296 256.524C296 256.517 296 256.508 296.001 256.497C296.001 256.473 296.002 256.439 296.003 256.393C296.006 256.303 296.009 256.169 296.012 255.995C296.018 255.646 296.024 255.133 296.024 254.471C296.023 253.148 295.997 251.231 295.895 248.844L293.897 248.929ZM13.7097 49L15.392 47.9185L13.7097 49ZM293.538 257.865C294.292 258.672 295.558 258.716 296.365 257.962L309.519 245.675C310.327 244.921 310.37 243.655 309.616 242.848C308.862 242.041 307.596 241.998 306.789 242.752L295.096 253.673L284.175 241.981C283.421 241.173 282.155 241.13 281.348 241.884C280.541 242.638 280.498 243.904 281.252 244.711L293.538 257.865ZM105 84L104.106 85.7889L105 84ZM1.50002 0.500093C1.50002 0.27491 1.54716 0.123332 1.5164 0.256663C1.50208 0.31876 1.47724 0.415713 1.43581 0.57227C1.35711 0.869568 1.23691 1.31296 1.10203 1.86211C0.830126 2.96907 0.493662 4.52332 0.234143 6.47957L4.1994 7.0056C4.43561 5.22506 4.74077 3.81691 4.98656 2.81626C5.11052 2.31159 5.21818 1.91487 5.30264 1.59579C5.34278 1.44416 5.38334 1.28886 5.41402 1.15589C5.42826 1.09416 5.50002 0.804704 5.50002 0.500093L1.50002 0.500093ZM0.269993 19.731C0.7601 23.5612 1.70271 27.8533 3.33388 32.5349L7.11116 31.2188C5.57321 26.8048 4.69325 22.7839 4.23764 19.2233L0.269993 19.731ZM8.68642 44.4715C9.69078 46.3031 10.8011 48.1741 12.0273 50.0815L15.392 47.9185C14.2153 46.088 13.1526 44.297 12.1937 42.5483L8.68642 44.4715ZM12.0273 50.0815C13.7278 52.7268 15.5044 55.0053 17.3723 56.9746L20.2745 54.2219C18.5966 52.4528 16.9718 50.3759 15.392 47.9185L12.0273 50.0815ZM32.0731 66.4188C37.1529 68.2251 42.7044 69.2053 48.7233 70.1181L49.3231 66.1633C43.3122 65.2517 38.0978 64.3157 33.4132 62.65L32.0731 66.4188ZM65.1533 72.7277C70.126 73.663 75.4461 74.8716 81.1655 76.6026L82.3241 72.774C76.4381 70.9927 70.9738 69.7524 65.8927 68.7966L65.1533 72.7277ZM96.617 82.2889C99.0481 83.3457 101.543 84.5078 104.106 85.7889L105.894 82.2111C103.268 80.8982 100.708 79.7058 98.2118 78.6205L96.617 82.2889ZM104.106 85.7889C106.687 87.0796 108.969 88.4305 110.986 89.829L113.265 86.5418C111.078 85.0258 108.631 83.5794 105.894 82.2111L104.106 85.7889ZM121.695 100.994C124.46 105.685 125.729 110.682 126.253 115.795L130.232 115.387C129.668 109.882 128.279 104.287 125.141 98.9627L121.695 100.994ZM126.333 131.979C126.122 137.927 126.016 143.877 127.614 149.005L131.433 147.815C130.07 143.44 130.116 138.172 130.331 132.121L126.333 131.979ZM139.781 161.681C142.176 162.652 144.951 163.418 148.16 163.971L148.84 160.029C145.855 159.514 143.364 158.817 141.284 157.974L139.781 161.681ZM148.16 163.971C150.825 164.43 153.269 164.81 155.523 165.12L156.068 161.158C153.864 160.855 151.465 160.482 148.84 160.029L148.16 163.971ZM170.511 166.275C176.707 166.239 180.93 165.37 185.483 164.467L184.704 160.543C180.162 161.444 176.268 162.242 170.488 162.275L170.511 166.275ZM199.809 162.471C203.718 162.218 208.422 162.133 214.329 162.341L214.469 158.343C208.449 158.132 203.611 158.217 199.551 158.479L199.809 162.471ZM228.935 163.275C231.253 163.478 233.701 163.715 236.29 163.989L236.71 160.011C234.099 159.735 231.628 159.496 229.285 159.29L228.935 163.275ZM236.29 163.989C238.847 164.259 241.285 164.674 243.607 165.22L244.523 161.326C242.032 160.741 239.43 160.299 236.71 160.011L236.29 163.989ZM257.271 170.53C261.642 173.009 265.482 176.061 268.857 179.528L271.723 176.738C268.107 173.023 263.971 169.731 259.244 167.05L257.271 170.53ZM277.821 191.297C280.389 195.575 282.531 200.117 284.314 204.742L288.047 203.303C286.194 198.498 283.955 193.743 281.25 189.238L277.821 191.297ZM288.762 219.098C290.025 224.288 290.918 229.322 291.548 233.929L295.511 233.387C294.866 228.667 293.949 223.496 292.649 218.153L288.762 219.098ZM292.898 248.972C292.997 251.313 293.023 253.188 293.024 254.473C293.024 255.116 293.018 255.611 293.012 255.942C293.01 256.108 293.007 256.233 293.004 256.315C293.003 256.357 293.003 256.387 293.002 256.406C293.002 256.416 293.001 256.423 293.001 256.427C293.001 256.43 293.001 256.431 293.001 256.432C293.001 256.432 293.001 256.432 293.001 256.432C293.001 256.432 293.001 256.432 293.001 256.432C293.001 256.432 293.001 256.432 293.001 256.432C293.001 256.432 293.001 256.432 295 256.5C296.999 256.568 296.999 256.568 296.999 256.568C296.999 256.568 296.999 256.568 296.999 256.568C296.999 256.567 296.999 256.567 296.999 256.567C296.999 256.566 296.999 256.565 296.999 256.564C296.999 256.562 296.999 256.559 296.999 256.556C296.999 256.549 297 256.539 297 256.527C297.001 256.502 297.002 256.466 297.003 256.419C297.006 256.326 297.009 256.19 297.012 256.012C297.018 255.658 297.024 255.139 297.024 254.471C297.023 253.135 296.996 251.204 296.894 248.802L292.898 248.972Z" fill="#A6EB54"/>
</svg>
