<svg width="154" height="153" viewBox="0 0 154 153" fill="none" xmlns="http://www.w3.org/2000/svg">
<path d="M36.9263 127.468C61.5011 142.324 101.342 142.324 125.913 127.468C150.485 112.611 150.485 88.5195 125.913 73.6629C101.342 58.8064 61.5011 58.8064 36.9263 73.6629C12.3515 88.5195 12.3545 112.608 36.9263 127.468Z" fill="#F0F0F0"/>
<path d="M128.206 110.649C130.454 112.008 134.096 112.008 136.343 110.649C138.591 109.29 138.587 107.09 136.343 105.731C134.099 104.372 130.454 104.372 128.206 105.731C125.959 107.09 125.962 109.284 128.206 110.649Z" fill="#E0E0E0"/>
<path d="M26.6458 92.7326C26.6458 92.7326 26.1281 88.1622 23.8594 84.6309C21.5907 81.0996 18.4755 78.8815 15.5673 78.656C12.6592 78.4305 10.3113 81.0935 13.4357 82.943C16.5601 84.7924 22.0749 86.654 24.6177 93.5308L26.6458 92.7326Z" fill="#007A8B"/>
<path d="M26.6458 92.7326C26.6458 92.7326 26.1281 88.1622 23.8594 84.6309C21.5907 81.0996 18.4755 78.8815 15.5673 78.656C12.6592 78.4305 10.3113 81.0935 13.4357 82.943C16.5601 84.7924 22.0749 86.654 24.6177 93.5308L26.6458 92.7326Z" fill="#263238"/>
<path d="M25.7931 91.5474C25.803 91.5505 25.8136 91.5505 25.8236 91.5474C25.8425 91.54 25.8598 91.5289 25.8745 91.5148C25.8891 91.5006 25.9007 91.4836 25.9086 91.4649C25.9166 91.4461 25.9207 91.426 25.9207 91.4056C25.9208 91.3853 25.9167 91.3651 25.9088 91.3463C22.8423 83.787 17.0016 80.6274 14.337 80.015C14.317 80.0105 14.2964 80.01 14.2762 80.0136C14.256 80.0171 14.2367 80.0247 14.2194 80.0357C14.2022 80.0468 14.1873 80.0611 14.1756 80.0779C14.1639 80.0948 14.1556 80.1138 14.1513 80.1338C14.143 80.1737 14.1503 80.2153 14.1719 80.25C14.1935 80.2846 14.2275 80.3096 14.267 80.3197C16.8737 80.929 22.5987 84.0216 25.6195 91.4621C25.6341 91.4942 25.6594 91.5203 25.691 91.5359C25.7227 91.5514 25.7588 91.5555 25.7931 91.5474Z" fill="white"/>
<path d="M10.2624 91.6383C10.5243 92.2324 11.176 92.5524 11.785 92.7839C12.3941 93.0155 13.0427 93.2867 13.3686 93.8473C14.0233 94.9838 12.9483 96.5895 13.6518 97.6802C13.8163 97.9012 14.0239 98.0864 14.2621 98.2246C14.5002 98.3629 14.764 98.4514 15.0373 98.4846C15.4886 98.5495 15.9429 98.5902 16.3985 98.6065C16.6156 98.6042 16.8322 98.588 17.0472 98.5578C17.6772 98.416 18.3364 98.4855 18.923 98.7558C19.8366 99.2646 20.1015 100.401 20.6466 101.279C20.9859 101.798 21.434 102.237 21.9599 102.566C22.4857 102.895 23.0766 103.105 23.6918 103.183C24.0968 103.238 24.849 103.311 25.2601 103.079C25.2897 103.064 25.3182 103.047 25.3453 103.028C25.4032 102.964 25.4732 102.881 25.5037 102.839C25.5099 102.83 25.515 102.821 25.5189 102.811C25.6803 102.223 25.4184 101.611 25.4093 101.004C25.4062 100.968 25.4062 100.931 25.4093 100.895C25.4337 100.188 25.455 99.487 25.4702 98.7802C25.5027 97.4863 25.5159 96.1893 25.5098 94.8893C25.5098 94.0453 25.6011 93.1252 25.2449 92.3299C24.852 91.4585 23.8684 91.4372 23.5 90.581C23.3507 90.2398 23.2716 89.8742 23.1284 89.5299C22.9051 89.0241 22.5473 88.5894 22.0942 88.273C21.641 87.9565 21.1098 87.7706 20.5583 87.7352C18.8469 87.6469 17.309 89.0363 15.5976 88.9083C15.1569 88.8492 14.7198 88.7658 14.2882 88.6585C12.8996 88.3995 11.2978 88.7956 10.5182 89.9686C10.3426 90.2049 10.2275 90.4806 10.1829 90.7716C10.1383 91.0627 10.1656 91.3602 10.2624 91.6383Z" fill="#37474F"/>
<path d="M25.6589 100.103C25.6774 100.099 25.6948 100.09 25.7101 100.079C25.7254 100.068 25.7382 100.053 25.7479 100.037C25.7575 100.02 25.7638 100.002 25.7663 99.9831C25.7688 99.9641 25.7675 99.9449 25.7624 99.9265C23.3994 91.0388 14.0445 89.756 11.855 89.9297C11.8359 89.9309 11.8172 89.9358 11.8001 89.9443C11.783 89.9528 11.7677 89.9646 11.7552 89.9791C11.7427 89.9936 11.7333 90.0104 11.7274 90.0286C11.7215 90.0468 11.7193 90.066 11.721 90.0851C11.7241 90.1234 11.7421 90.1589 11.7712 90.184C11.8003 90.209 11.838 90.2217 11.8763 90.2192C14.008 90.0668 23.1679 91.3221 25.4823 100.012C25.4948 100.047 25.5199 100.075 25.5527 100.092C25.5854 100.109 25.6234 100.113 25.6589 100.103Z" fill="white"/>
<path d="M15.2565 95.6021C15.2858 95.5966 15.3125 95.5816 15.3326 95.5595C16.1975 94.8115 17.2163 94.263 18.3167 93.9529C19.4171 93.6428 20.5722 93.5786 21.7001 93.7649C21.7202 93.7709 21.7413 93.7725 21.762 93.7696C21.7828 93.7667 21.8027 93.7594 21.8203 93.7481C21.838 93.7369 21.853 93.7219 21.8644 93.7044C21.8758 93.6868 21.8833 93.667 21.8864 93.6463C21.8895 93.6255 21.8881 93.6044 21.8823 93.5843C21.8765 93.5641 21.8665 93.5455 21.8529 93.5296C21.8392 93.5136 21.8223 93.5009 21.8033 93.492C21.7843 93.4832 21.7637 93.4786 21.7427 93.4785C20.5697 93.2842 19.3682 93.3518 18.2243 93.6762C17.0803 94.0007 16.0222 94.5741 15.1255 95.3553C15.0987 95.3832 15.0837 95.4203 15.0837 95.4589C15.0837 95.4976 15.0987 95.5347 15.1255 95.5625C15.1423 95.5795 15.1631 95.5921 15.1859 95.599C15.2088 95.6059 15.2331 95.607 15.2565 95.6021Z" fill="white"/>
<path d="M100.449 16.6336L117.28 26.3592C117.444 26.4661 117.58 26.61 117.678 26.7794C117.776 26.9488 117.833 27.1388 117.843 27.3342V73.6284C117.833 73.8238 117.776 74.0139 117.678 74.1832C117.58 74.3526 117.444 74.4966 117.28 74.6034L100.449 84.3291C100.275 84.4177 100.082 84.4638 99.8858 84.4638C99.69 84.4638 99.497 84.4177 99.3224 84.3291L82.4916 74.6034C82.3274 74.4969 82.1908 74.3531 82.0929 74.1836C81.995 74.0141 81.9386 73.8239 81.9282 73.6284V27.3342C81.939 27.1388 81.9957 26.9488 82.0935 26.7794C82.1914 26.61 82.3278 26.4661 82.4916 26.3592L99.3224 16.6336C99.4974 16.5464 99.6903 16.501 99.8858 16.501C100.081 16.501 100.274 16.5464 100.449 16.6336Z" fill="#37474F"/>
<path d="M81.9282 27.3352V73.6294C81.9389 73.8244 81.9952 74.0142 82.0925 74.1836C82.1898 74.3529 82.3255 74.497 82.4885 74.6044L99.3224 84.33C99.4954 84.4228 99.6896 84.469 99.8858 84.4641V36.8658C99.6897 36.8692 99.496 36.8231 99.3224 36.7317L82.4885 27.0092L82.3363 26.8812L82.1353 26.7136C82.0087 26.8969 81.9368 27.1125 81.9282 27.3352Z" fill="#263238"/>
<path d="M115.167 31.8901L102.56 39.1722C102.396 39.2795 102.259 39.424 102.161 39.5939C102.063 39.7638 102.007 39.9544 101.996 40.1502V44.949C101.996 45.3086 102.246 45.4548 102.557 45.275L115.164 37.993C115.328 37.8862 115.464 37.7422 115.562 37.5728C115.66 37.4034 115.716 37.2134 115.727 37.018V32.2161C115.73 31.8566 115.493 31.7104 115.167 31.8901Z" fill="#455A64"/>
<path d="M114.673 34.0082C114.659 34.1972 114.6 34.3801 114.502 34.5425C114.405 34.7049 114.27 34.8422 114.11 34.9436L103.616 41.0038C103.312 41.1835 103.053 41.0556 103.053 40.7204C103.068 40.5314 103.126 40.3484 103.224 40.1861C103.322 40.0237 103.456 39.8864 103.616 39.785L114.11 33.7218C114.421 33.542 114.673 33.67 114.673 34.0082Z" fill="#007A8B"/>
<path d="M114.673 36.4481C114.659 36.6371 114.6 36.8201 114.502 36.9825C114.405 37.1449 114.27 37.2822 114.11 37.3835L103.616 43.4437C103.312 43.6235 103.053 43.4955 103.053 43.1604C103.068 42.9714 103.126 42.7884 103.224 42.626C103.322 42.4636 103.456 42.3263 103.616 42.225L114.11 36.1617C114.421 35.9819 114.673 36.1099 114.673 36.4481Z" fill="#263238"/>
<path d="M114.11 36.1618L108.324 39.5134V40.7321L114.11 37.3805C114.27 37.2792 114.404 37.1419 114.502 36.9795C114.6 36.8171 114.659 36.6342 114.673 36.4451C114.673 36.11 114.42 35.982 114.11 36.1618Z" fill="#007A8B"/>
<path d="M115.167 40.4334L102.56 47.7154C102.396 47.8224 102.26 47.9664 102.162 48.1358C102.064 48.3051 102.007 48.4951 101.996 48.6904V53.4923C101.996 53.8518 102.246 53.9981 102.557 53.8183L115.164 46.5363C115.328 46.4294 115.464 46.2855 115.562 46.1161C115.66 45.9467 115.716 45.7566 115.727 45.5613V40.7594C115.73 40.3998 115.493 40.2658 115.167 40.4334Z" fill="#455A64"/>
<path d="M114.673 42.548C114.659 42.7376 114.601 42.9212 114.503 43.0841C114.405 43.247 114.271 43.3848 114.11 43.4865L103.616 49.5467C103.312 49.7265 103.053 49.5985 103.053 49.2633C103.067 49.0738 103.126 48.8902 103.223 48.7273C103.321 48.5643 103.456 48.4265 103.616 48.3249L114.11 42.2647C114.421 42.0941 114.673 42.2129 114.673 42.548Z" fill="#007A8B"/>
<path d="M114.673 44.9918C114.659 45.1808 114.6 45.3638 114.502 45.5262C114.405 45.6885 114.27 45.8259 114.11 45.9272L103.616 51.9874C103.312 52.1672 103.053 52.0392 103.053 51.7041C103.068 51.515 103.126 51.3321 103.224 51.1697C103.322 51.0073 103.456 50.87 103.616 50.7687L114.11 44.7054C114.421 44.5317 114.673 44.6536 114.673 44.9918Z" fill="#263238"/>
<path d="M114.11 44.7055L105.166 49.8852V51.104L114.11 45.9395C114.27 45.8382 114.404 45.7009 114.502 45.5385C114.6 45.3761 114.658 45.1931 114.673 45.0041C114.673 44.6537 114.42 44.5319 114.11 44.7055Z" fill="#007A8B"/>
<path d="M115.167 48.9773L102.56 56.2593C102.396 56.3662 102.26 56.5101 102.162 56.6795C102.064 56.8489 102.007 57.039 101.996 57.2343V62.0362C101.996 62.3957 102.246 62.542 102.557 62.3622L115.164 55.0802C115.328 54.9728 115.464 54.8284 115.562 54.6584C115.66 54.4885 115.717 54.298 115.727 54.1021V49.3033C115.73 48.9438 115.493 48.7975 115.167 48.9773Z" fill="#455A64"/>
<path d="M114.673 51.0918C114.659 51.2808 114.6 51.4637 114.502 51.6261C114.405 51.7885 114.27 51.9258 114.11 52.0271L103.616 58.0904C103.312 58.2702 103.053 58.1422 103.053 57.804C103.068 57.615 103.126 57.432 103.224 57.2697C103.322 57.1073 103.456 56.97 103.616 56.8686L114.11 50.8084C114.421 50.6256 114.673 50.7566 114.673 51.0918Z" fill="#007A8B"/>
<path d="M114.673 53.5328C114.659 53.7218 114.6 53.9048 114.502 54.0672C114.405 54.2295 114.27 54.3669 114.11 54.4682L103.616 60.5315C103.312 60.7112 103.053 60.5833 103.053 60.2451C103.068 60.0561 103.126 59.8731 103.224 59.7107C103.322 59.5483 103.456 59.411 103.616 59.3097L114.11 53.2494C114.421 53.0636 114.673 53.1976 114.673 53.5328Z" fill="#263238"/>
<path d="M114.11 53.249L110.456 55.3636V56.5823L114.11 54.4647C114.27 54.3634 114.405 54.2261 114.502 54.0637C114.6 53.9013 114.659 53.7184 114.673 53.5294C114.673 53.1972 114.421 53.0632 114.11 53.249Z" fill="#007A8B"/>
<path d="M115.167 57.5207L102.56 64.8027C102.396 64.9096 102.26 65.0535 102.162 65.2229C102.064 65.3923 102.007 65.5824 101.996 65.7777V70.5796C101.996 70.9391 102.246 71.0854 102.557 70.9056L115.164 63.6236C115.328 63.5163 115.464 63.3718 115.562 63.2019C115.66 63.032 115.717 62.8414 115.727 62.6456V57.8467C115.73 57.4872 115.493 57.3288 115.167 57.5207Z" fill="#455A64"/>
<path d="M114.673 59.6351C114.659 59.8241 114.6 60.0071 114.502 60.1695C114.405 60.3318 114.27 60.4691 114.11 60.5705L103.616 66.6338C103.312 66.8135 103.053 66.6856 103.053 66.3474C103.068 66.1584 103.126 65.9754 103.224 65.813C103.322 65.6506 103.456 65.5133 103.616 65.412L114.11 59.3517C114.421 59.172 114.673 59.2999 114.673 59.6351Z" fill="#007A8B"/>
<path d="M114.673 62.0755C114.659 62.2645 114.6 62.4475 114.502 62.6099C114.405 62.7723 114.27 62.9096 114.11 63.0109L103.616 69.0742C103.312 69.254 103.053 69.126 103.053 68.7878C103.068 68.5988 103.126 68.4158 103.224 68.2534C103.322 68.091 103.456 67.9537 103.616 67.8524L114.11 61.7922C114.421 61.6124 114.673 61.7404 114.673 62.0755Z" fill="#263238"/>
<path d="M114.11 61.7922L108.324 65.1285V66.3472L114.11 63.0109C114.27 62.9096 114.404 62.7723 114.502 62.6099C114.6 62.4475 114.659 62.2645 114.673 62.0755C114.673 61.7404 114.42 61.6124 114.11 61.7922Z" fill="#007A8B"/>
<path d="M115.167 66.0641L102.56 73.3461C102.396 73.453 102.26 73.5969 102.162 73.7663C102.064 73.9357 102.007 74.1258 101.996 74.3211V79.123C101.996 79.4825 102.246 79.6257 102.557 79.446L115.164 72.1639C115.328 72.0571 115.464 71.9131 115.562 71.7437C115.66 71.5744 115.716 71.3843 115.727 71.1889V66.3871C115.73 66.0275 115.493 65.8843 115.167 66.0641Z" fill="#455A64"/>
<path d="M114.673 68.1787C114.659 68.3677 114.6 68.5507 114.502 68.7131C114.405 68.8754 114.27 69.0127 114.11 69.1141L103.616 75.1774C103.312 75.3541 103.053 75.2292 103.053 74.891C103.068 74.702 103.126 74.519 103.224 74.3566C103.322 74.1942 103.456 74.0569 103.616 73.9556L114.11 67.8923C114.421 67.7156 114.673 67.8405 114.673 68.1787Z" fill="#007A8B"/>
<path d="M114.673 70.6193C114.659 70.8083 114.6 70.9913 114.502 71.1537C114.405 71.3161 114.27 71.4534 114.11 71.5547L103.616 77.618C103.312 77.7978 103.053 77.6698 103.053 77.3316C103.068 77.1426 103.126 76.9596 103.224 76.7972C103.322 76.6349 103.456 76.4975 103.616 76.3962L114.11 70.336C114.421 70.1562 114.673 70.2811 114.673 70.6193Z" fill="#263238"/>
<path d="M114.11 70.3359L106.223 74.891V76.1098L114.11 71.5395C114.27 71.4381 114.404 71.3008 114.502 71.1384C114.6 70.976 114.659 70.7931 114.673 70.6041C114.673 70.2811 114.421 70.1562 114.11 70.3359Z" fill="#007A8B"/>
<path d="M97.2457 39.8065C96.661 39.4683 96.189 39.7761 96.189 40.4951V68.4075C96.2041 68.7868 96.3074 69.1572 96.4909 69.4894C96.6744 69.8216 96.9328 70.1064 97.2457 70.321C97.8273 70.6592 98.2993 70.3515 98.2993 69.6324V41.72C98.2846 41.341 98.1816 40.9707 97.9987 40.6385C97.8158 40.3064 97.5579 40.0215 97.2457 39.8065Z" fill="#37474F"/>
<path d="M97.246 69.702C97.0892 69.5948 96.9596 69.4525 96.8675 69.2864C96.7755 69.1203 96.7235 68.935 96.7158 68.7452V40.7567C96.7158 40.3971 96.9535 40.2417 97.246 40.4124C97.4018 40.5195 97.5306 40.6615 97.6221 40.827C97.7135 40.9925 97.7653 41.1771 97.7731 41.366V69.3577C97.7731 69.7141 97.5263 69.8695 97.246 69.702Z" fill="#263238"/>
<path d="M97.246 69.7024C97.0892 69.5952 96.9596 69.4529 96.8675 69.2868C96.7755 69.1207 96.7235 68.9354 96.7158 68.7456V55.3638L97.7731 55.9731V69.355C97.7731 69.7146 97.5263 69.8699 97.246 69.7024Z" fill="#007A8B"/>
<path d="M94.0755 37.9745C93.4908 37.6363 93.0188 37.944 93.0188 38.6631V66.5755C93.0325 66.9551 93.1352 67.3261 93.3188 67.6585C93.5024 67.9909 93.7616 68.2754 94.0755 68.489C94.6571 68.8272 95.1322 68.5194 95.1322 67.8004V39.8879C95.1171 39.5087 95.0137 39.1382 94.8302 38.8061C94.6468 38.4739 94.3883 38.1891 94.0755 37.9745Z" fill="#37474F"/>
<path d="M94.0758 67.8703C93.919 67.7632 93.7894 67.6209 93.6974 67.4548C93.6053 67.2887 93.5534 67.1034 93.5457 66.9136V38.925C93.5457 38.5655 93.7833 38.4131 94.0758 38.5807C94.232 38.6882 94.361 38.8306 94.4525 38.9967C94.5441 39.1628 94.5955 39.3479 94.6029 39.5374V67.526C94.6029 67.8856 94.3683 68.0379 94.0758 67.8703Z" fill="#007A8B"/>
<path d="M90.9053 36.1468C90.3237 35.8055 89.8486 36.1163 89.8486 36.8323V64.7447C89.8637 65.124 89.9671 65.4944 90.1506 65.8266C90.334 66.1588 90.5925 66.4436 90.9053 66.6582C91.49 66.9964 91.962 66.6887 91.962 65.9696V38.0602C91.9483 37.6807 91.8456 37.3097 91.662 36.9773C91.4784 36.6449 91.2192 36.3604 90.9053 36.1468Z" fill="#37474F"/>
<path d="M90.9058 66.0393C90.7489 65.9331 90.6194 65.7914 90.5278 65.6257C90.4362 65.4599 90.3851 65.2749 90.3787 65.0856V37.0939C90.3787 36.7375 90.6133 36.5821 90.9058 36.7496C91.0626 36.8568 91.1922 36.9991 91.2842 37.1652C91.3763 37.3313 91.4282 37.5166 91.4359 37.7064V65.695C91.4359 66.0545 91.1983 66.2099 90.9058 66.0393Z" fill="#263238"/>
<path d="M90.9058 66.0391C90.7489 65.933 90.6194 65.7913 90.5278 65.6255C90.4362 65.4598 90.3851 65.2747 90.3787 65.0854V43.4526L91.4359 44.062V65.6948C91.4359 66.0544 91.1983 66.2097 90.9058 66.0391Z" fill="#007A8B"/>
<path d="M87.7383 34.3156C87.1536 33.9774 86.6816 34.2851 86.6816 35.0042V62.9135C86.6953 63.2931 86.7981 63.6641 86.9816 63.9965C87.1652 64.3289 87.4244 64.6134 87.7383 64.827C88.32 65.1652 88.792 64.8574 88.792 64.1384V36.229C88.7772 35.85 88.6743 35.4797 88.4914 35.1476C88.3085 34.8154 88.0506 34.5305 87.7383 34.3156Z" fill="#37474F"/>
<path d="M87.7386 64.2081C87.5823 64.1013 87.4529 63.9595 87.3609 63.7939C87.2689 63.6284 87.2167 63.4437 87.2085 63.2545V35.2659C87.2085 34.9063 87.4461 34.7509 87.7386 34.9185C87.8949 35.026 88.0239 35.1684 88.1154 35.3345C88.2069 35.5006 88.2584 35.6858 88.2658 35.8752V63.8638C88.2658 64.2234 88.0281 64.3788 87.7386 64.2081Z" fill="#263238"/>
<path d="M87.7386 64.2089C87.5823 64.1021 87.4529 63.9603 87.3609 63.7947C87.2689 63.6292 87.2167 63.4445 87.2085 63.2552V58.5295L88.2658 59.1389V63.8616C88.2658 64.2242 88.0281 64.3795 87.7386 64.2089Z" fill="#007A8B"/>
<path d="M84.5687 32.4845C83.984 32.1463 83.512 32.4541 83.512 33.1731V61.0825C83.5256 61.462 83.6284 61.833 83.812 62.1654C83.9955 62.4979 84.2548 62.7824 84.5687 62.9959C85.1503 63.3372 85.6253 63.0264 85.6253 62.3104V34.398C85.6103 34.0187 85.5069 33.6483 85.3234 33.3161C85.14 32.9839 84.8815 32.6991 84.5687 32.4845Z" fill="#37474F"/>
<path d="M84.5685 62.3802C84.4117 62.273 84.2821 62.1307 84.1901 61.9646C84.098 61.7985 84.0461 61.6132 84.0383 61.4235V33.4349C84.0383 33.0753 84.276 32.92 84.5685 33.0906C84.7253 33.1967 84.8549 33.3384 84.9465 33.5042C85.0381 33.6699 85.0892 33.855 85.0956 34.0442V62.0328C85.0956 62.3924 84.861 62.5478 84.5685 62.3802Z" fill="#263238"/>
<path d="M84.5685 62.3805C84.4117 62.2733 84.2821 62.131 84.1901 61.9649C84.098 61.7988 84.0461 61.6135 84.0383 61.4237V46.8201L85.0956 47.4294V62.0301C85.0956 62.3926 84.861 62.548 84.5685 62.3805Z" fill="#007A8B"/>
<path d="M97.8488 73.7151L83.9626 65.6927C83.7129 65.5495 83.512 65.6653 83.512 65.9547V71.0156C83.5203 71.1719 83.5655 71.3241 83.6438 71.4596C83.7222 71.5952 83.8314 71.7103 83.9626 71.7956L97.8488 79.818C98.0985 79.9612 98.2995 79.8454 98.2995 79.559V74.4951C98.2911 74.3387 98.2459 74.1866 98.1676 74.051C98.0893 73.9155 97.98 73.8004 97.8488 73.7151Z" fill="#37474F"/>
<path d="M97.2792 75.2171C97.2792 75.5522 97.0265 75.6802 96.7159 75.5004L85.0953 68.7973C84.9352 68.696 84.8009 68.5587 84.7031 68.3963C84.6053 68.2339 84.5467 68.0509 84.532 67.8619C84.532 67.5237 84.7847 67.3957 85.0953 67.5755L96.7159 74.2786C96.8764 74.3803 97.011 74.5181 97.1088 74.681C97.2066 74.844 97.265 75.0275 97.2792 75.2171Z" fill="#263238"/>
<path d="M97.2792 75.2169C97.2792 75.552 97.0264 75.68 96.7158 75.5002L88.2654 70.6252V69.4065L96.7158 74.2815C96.876 74.3828 97.0103 74.5201 97.1081 74.6825C97.2059 74.8449 97.2645 75.0279 97.2792 75.2169Z" fill="#007A8B"/>
<path d="M97.2792 77.6575C97.2792 77.9927 97.0265 78.1206 96.7159 77.9409L85.0953 71.2377C84.9352 71.1364 84.8009 70.9991 84.7031 70.8367C84.6053 70.6743 84.5467 70.4914 84.532 70.3024C84.532 69.9641 84.7847 69.8362 85.0953 70.0159L96.7159 76.7191C96.8764 76.8207 97.011 76.9585 97.1088 77.1214C97.2066 77.2844 97.265 77.468 97.2792 77.6575Z" fill="#263238"/>
<path d="M97.2791 77.6573C97.2791 77.9925 97.0263 78.1205 96.7157 77.9407L93.5457 76.1126V74.8938L96.7157 76.7219C96.8759 76.8233 97.0102 76.9606 97.108 77.123C97.2058 77.2853 97.2644 77.4683 97.2791 77.6573Z" fill="#007A8B"/>
<path d="M82.4916 26.3604L99.3225 16.6348C99.4975 16.5476 99.6903 16.5022 99.8858 16.5022C100.081 16.5022 100.274 16.5476 100.449 16.6348L117.28 26.3604C117.348 26.3827 117.408 26.4261 117.45 26.4844C117.493 26.5427 117.516 26.6129 117.516 26.6849C117.516 26.7569 117.493 26.8271 117.45 26.8854C117.408 26.9437 117.348 26.9871 117.28 27.0094L100.449 36.732C100.275 36.8206 100.082 36.8667 99.8858 36.8667C99.6901 36.8667 99.497 36.8206 99.3225 36.732L82.4916 27.0094C82.4231 26.9871 82.3635 26.9437 82.3212 26.8854C82.2789 26.8271 82.2561 26.7569 82.2561 26.6849C82.2561 26.6129 82.2789 26.5427 82.3212 26.4844C82.3635 26.4261 82.4231 26.3827 82.4916 26.3604Z" fill="#455A64"/>
<path d="M100.224 34.422L113.279 26.878C113.377 26.8145 113.46 26.7283 113.518 26.6265C113.577 26.5247 113.611 26.4104 113.617 26.293V25.8542C113.611 25.7368 113.577 25.6225 113.518 25.5207C113.46 25.4189 113.377 25.3327 113.279 25.2692L100.224 17.7191C100.119 17.6665 100.003 17.6392 99.8857 17.6392C99.7684 17.6392 99.6527 17.6665 99.5477 17.7191L86.4899 25.2692C86.3915 25.3333 86.3097 25.4196 86.2509 25.5213C86.1922 25.6229 86.1582 25.737 86.1519 25.8542V26.293C86.1582 26.4102 86.1922 26.5243 86.2509 26.6259C86.3097 26.7276 86.3915 26.8139 86.4899 26.878L99.5477 34.422C99.6527 34.4746 99.7684 34.5019 99.8857 34.5019C100.003 34.5019 100.119 34.4746 100.224 34.422Z" fill="#263238"/>
<path d="M113.279 25.6594L100.224 33.2005C100.119 33.2544 100.003 33.2826 99.8857 33.2826C99.7681 33.2826 99.6522 33.2544 99.5477 33.2005L86.4899 25.6594C86.4497 25.645 86.415 25.6186 86.3905 25.5837C86.366 25.5487 86.3528 25.5071 86.3528 25.4644C86.3528 25.4218 86.366 25.3801 86.3905 25.3452C86.415 25.3103 86.4497 25.2839 86.4899 25.2694L99.5477 17.9874C99.6522 17.9334 99.7681 17.9053 99.8857 17.9053C100.003 17.9053 100.119 17.9334 100.224 17.9874L113.279 25.2694C113.32 25.2823 113.357 25.3082 113.382 25.3433C113.408 25.3784 113.422 25.4209 113.422 25.4644C113.422 25.508 113.408 25.5505 113.382 25.5856C113.357 25.6207 113.32 25.6465 113.279 25.6594Z" fill="#455A64"/>
<path d="M99.886 33.2826V34.5014C100.004 34.5045 100.12 34.4772 100.224 34.4222L113.279 26.8781C113.378 26.8146 113.46 26.7284 113.519 26.6266C113.578 26.5249 113.611 26.4105 113.617 26.2931V25.8544C113.612 25.7498 113.584 25.6476 113.537 25.5541C113.49 25.4607 113.424 25.3783 113.343 25.312C113.465 25.4187 113.443 25.5649 113.279 25.6594L100.224 33.2004C100.12 33.2564 100.004 33.2848 99.886 33.2826Z" fill="#37474F"/>
<path d="M100.224 30.7595L109.055 25.659C109.155 25.596 109.239 25.5101 109.299 25.4084C109.359 25.3067 109.395 25.1921 109.402 25.074V24.6322C109.395 24.5152 109.361 24.4014 109.302 24.2998C109.243 24.1983 109.162 24.1118 109.064 24.0472L103.391 20.7658C103.174 20.6296 102.981 20.4575 102.821 20.2569L100.117 16.6007C100.052 16.5157 99.9592 16.457 99.8546 16.4352C99.7501 16.4133 99.6411 16.4299 99.5478 16.4818L90.7167 21.5823C90.6182 21.6462 90.5362 21.7325 90.4774 21.8342C90.4186 21.9359 90.3848 22.05 90.3787 22.1673V25.0497C90.3851 25.1669 90.419 25.281 90.4777 25.3826C90.5365 25.4843 90.6183 25.5706 90.7167 25.6347L99.5478 30.7351C99.6503 30.7929 99.7652 30.8253 99.8828 30.8295C100 30.8338 100.117 30.8098 100.224 30.7595Z" fill="#263238"/>
<path d="M99.5477 29.5411L93.8714 26.2688C93.7634 26.2052 93.6615 26.1317 93.5669 26.0494C93.4653 25.9576 93.3735 25.8555 93.2929 25.7447L90.5887 22.0885C90.5579 22.0496 90.536 22.0044 90.5247 21.9561C90.5133 21.9078 90.5126 21.8576 90.5228 21.8091C90.533 21.7605 90.5537 21.7148 90.5835 21.6751C90.6133 21.6355 90.6515 21.6029 90.6953 21.5796L99.5264 16.4792C99.6197 16.4272 99.7287 16.4106 99.8332 16.4325C99.9378 16.4543 100.031 16.513 100.096 16.598L102.8 20.2542C102.942 20.4597 103.119 20.6382 103.324 20.7814L109.034 24.0324C109.074 24.0468 109.108 24.0733 109.133 24.1082C109.157 24.1431 109.171 24.1847 109.171 24.2274C109.171 24.27 109.157 24.3117 109.133 24.3466C109.108 24.3815 109.074 24.4079 109.034 24.4224L100.202 29.5259C100.101 29.5774 99.9901 29.6056 99.8768 29.6082C99.7635 29.6108 99.651 29.5879 99.5477 29.5411Z" fill="#455A64"/>
<path d="M90.7167 21.607L99.5478 16.5065C99.6411 16.4546 99.7501 16.438 99.8546 16.4598C99.9592 16.4816 100.052 16.5404 100.117 16.6253L102.821 20.2816C102.904 20.386 102.997 20.482 103.098 20.568C103.098 20.568 93.5944 26.0524 93.5914 26.0524C93.488 25.9614 93.3951 25.8592 93.3143 25.7477L90.6101 22.0914C90.5836 22.0532 90.5652 22.0098 90.5562 21.9641C90.5472 21.9185 90.5477 21.8714 90.5577 21.8259C90.5677 21.7804 90.587 21.7375 90.6144 21.6998C90.6417 21.6622 90.6766 21.6306 90.7167 21.607Z" fill="#37474F"/>
<path d="M106.912 24.1389C106.789 24.0759 106.653 24.043 106.515 24.043C106.378 24.043 106.242 24.0759 106.119 24.1389C105.9 24.2639 105.9 24.468 106.119 24.596C106.242 24.6576 106.378 24.6897 106.515 24.6897C106.653 24.6897 106.789 24.6576 106.912 24.596C107.131 24.468 107.131 24.2639 106.912 24.1389Z" fill="#007A8B"/>
<path d="M105.328 25.0527C105.205 24.9911 105.069 24.959 104.932 24.959C104.794 24.959 104.659 24.9911 104.536 25.0527C104.316 25.1807 104.316 25.3848 104.536 25.5098C104.658 25.5728 104.794 25.6057 104.932 25.6057C105.07 25.6057 105.206 25.5728 105.328 25.5098C105.547 25.3848 105.547 25.1807 105.328 25.0527Z" fill="#007A8B"/>
<path d="M103.745 25.9666C103.621 25.9049 103.485 25.8728 103.347 25.8728C103.209 25.8728 103.073 25.9049 102.949 25.9666C102.902 25.9833 102.86 26.0144 102.831 26.0556C102.802 26.0968 102.786 26.1461 102.786 26.1966C102.786 26.2472 102.802 26.2964 102.831 26.3376C102.86 26.3789 102.902 26.41 102.949 26.4267C103.073 26.4884 103.209 26.5205 103.347 26.5205C103.485 26.5205 103.621 26.4884 103.745 26.4267C103.792 26.41 103.834 26.3789 103.863 26.3376C103.892 26.2964 103.908 26.2472 103.908 26.1966C103.908 26.1461 103.892 26.0968 103.863 26.0556C103.834 26.0144 103.792 25.9833 103.745 25.9666Z" fill="#263238"/>
<path d="M102.158 26.8838C102.035 26.8207 101.9 26.7878 101.762 26.7878C101.624 26.7878 101.488 26.8207 101.366 26.8838C101.318 26.8997 101.276 26.9304 101.246 26.9714C101.217 27.0124 101.201 27.0617 101.201 27.1123C101.201 27.1629 101.217 27.2123 101.246 27.2533C101.276 27.2943 101.318 27.3249 101.366 27.3408C101.488 27.4039 101.624 27.4368 101.762 27.4368C101.9 27.4368 102.035 27.4039 102.158 27.3408C102.206 27.3249 102.248 27.2943 102.277 27.2533C102.307 27.2123 102.323 27.1629 102.323 27.1123C102.323 27.0617 102.307 27.0124 102.277 26.9714C102.248 26.9304 102.206 26.8997 102.158 26.8838Z" fill="#263238"/>
<path d="M105.724 23.4502C105.601 23.3885 105.465 23.3564 105.328 23.3564C105.19 23.3564 105.055 23.3885 104.932 23.4502C104.884 23.4669 104.843 23.498 104.813 23.5392C104.784 23.5804 104.769 23.6297 104.769 23.6802C104.769 23.7308 104.784 23.78 104.813 23.8213C104.843 23.8625 104.884 23.8936 104.932 23.9103C105.055 23.9719 105.19 24.004 105.328 24.004C105.465 24.004 105.601 23.9719 105.724 23.9103C105.772 23.8936 105.813 23.8625 105.842 23.8213C105.871 23.78 105.887 23.7308 105.887 23.6802C105.887 23.6297 105.871 23.5804 105.842 23.5392C105.813 23.498 105.772 23.4669 105.724 23.4502Z" fill="#007A8B"/>
<path d="M104.14 24.3675C104.017 24.3044 103.881 24.2715 103.743 24.2715C103.605 24.2715 103.468 24.3044 103.345 24.3675C103.297 24.3834 103.255 24.414 103.226 24.455C103.196 24.4961 103.18 24.5454 103.18 24.596C103.18 24.6466 103.196 24.6959 103.226 24.737C103.255 24.778 103.297 24.8086 103.345 24.8245C103.469 24.8862 103.605 24.9183 103.743 24.9183C103.881 24.9183 104.017 24.8862 104.14 24.8245C104.189 24.8086 104.23 24.778 104.26 24.737C104.29 24.6959 104.306 24.6466 104.306 24.596C104.306 24.5454 104.29 24.4961 104.26 24.455C104.23 24.414 104.189 24.3834 104.14 24.3675Z" fill="#263238"/>
<path d="M102.158 25.833C102.467 25.833 102.718 25.6884 102.718 25.51C102.718 25.3316 102.467 25.187 102.158 25.187C101.848 25.187 101.597 25.3316 101.597 25.51C101.597 25.6884 101.848 25.833 102.158 25.833Z" fill="#007A8B"/>
<path d="M100.97 26.1985C100.848 26.1354 100.712 26.1025 100.574 26.1025C100.437 26.1025 100.301 26.1354 100.178 26.1985C99.9588 26.3234 99.9588 26.5276 100.178 26.6556C100.301 26.7172 100.437 26.7493 100.574 26.7493C100.712 26.7493 100.847 26.7172 100.97 26.6556C101.181 26.5276 101.181 26.3234 100.97 26.1985Z" fill="#263238"/>
<path d="M104.53 22.7647C104.408 22.703 104.272 22.6709 104.134 22.6709C103.997 22.6709 103.861 22.703 103.738 22.7647C103.519 22.8926 103.519 23.0968 103.738 23.2217C103.861 23.2848 103.997 23.3177 104.134 23.3177C104.272 23.3177 104.408 23.2848 104.53 23.2217C104.756 23.0968 104.756 22.8987 104.53 22.7647Z" fill="#263238"/>
<path d="M102.95 23.6792C102.827 23.6176 102.691 23.5854 102.554 23.5854C102.416 23.5854 102.281 23.6176 102.158 23.6792C102.11 23.6959 102.069 23.727 102.04 23.7682C102.01 23.8094 101.995 23.8587 101.995 23.9092C101.995 23.9598 102.01 24.009 102.04 24.0503C102.069 24.0915 102.11 24.1226 102.158 24.1393C102.281 24.2009 102.416 24.233 102.554 24.233C102.691 24.233 102.827 24.2009 102.95 24.1393C102.998 24.1226 103.039 24.0915 103.068 24.0503C103.097 24.009 103.113 23.9598 103.113 23.9092C103.113 23.8587 103.097 23.8094 103.068 23.7682C103.039 23.727 102.998 23.6959 102.95 23.6792Z" fill="#007A8B"/>
<path d="M101.366 24.5957C101.244 24.5327 101.108 24.4998 100.97 24.4998C100.832 24.4998 100.697 24.5327 100.574 24.5957C100.526 24.6116 100.484 24.6423 100.455 24.6833C100.425 24.7243 100.409 24.7736 100.409 24.8242C100.409 24.8749 100.425 24.9242 100.455 24.9652C100.484 25.0062 100.526 25.0369 100.574 25.0528C100.697 25.1144 100.833 25.1465 100.97 25.1465C101.108 25.1465 101.243 25.1144 101.366 25.0528C101.414 25.0369 101.456 25.0062 101.486 24.9652C101.515 24.9242 101.531 24.8749 101.531 24.8242C101.531 24.7736 101.515 24.7243 101.486 24.6833C101.456 24.6423 101.414 24.6116 101.366 24.5957Z" fill="#263238"/>
<path d="M100.571 27.7737C100.449 27.712 100.313 27.6799 100.175 27.6799C100.038 27.6799 99.9022 27.712 99.7793 27.7737C99.5599 27.9017 99.5599 28.1058 99.7793 28.2307C99.9018 28.2938 100.038 28.3267 100.175 28.3267C100.313 28.3267 100.449 28.2938 100.571 28.2307C100.785 28.1119 100.785 27.9077 100.571 27.7737Z" fill="#007A8B"/>
<path d="M99.3779 27.0948C99.2554 27.0317 99.1196 26.9988 98.9818 26.9988C98.844 26.9988 98.7082 27.0317 98.5857 27.0948C98.5377 27.1107 98.4959 27.1413 98.4662 27.1823C98.4366 27.2233 98.4207 27.2727 98.4207 27.3233C98.4207 27.3739 98.4366 27.4232 98.4662 27.4642C98.4959 27.5053 98.5377 27.5359 98.5857 27.5518C98.7082 27.6149 98.844 27.6478 98.9818 27.6478C99.1196 27.6478 99.2554 27.6149 99.3779 27.5518C99.426 27.5359 99.4678 27.5053 99.4974 27.4642C99.5271 27.4232 99.543 27.3739 99.543 27.3233C99.543 27.2727 99.5271 27.2233 99.4974 27.1823C99.4678 27.1413 99.426 27.1107 99.3779 27.0948Z" fill="#263238"/>
<path d="M99.7827 25.5103C99.6598 25.4486 99.5242 25.4165 99.3866 25.4165C99.2491 25.4165 99.1135 25.4486 98.9905 25.5103C98.9429 25.527 98.9016 25.5581 98.8723 25.5993C98.8431 25.6405 98.8274 25.6898 98.8274 25.7403C98.8274 25.7908 98.8431 25.8401 98.8723 25.8813C98.9016 25.9225 98.9429 25.9536 98.9905 25.9703C99.1135 26.032 99.2491 26.0641 99.3866 26.0641C99.5242 26.0641 99.6598 26.032 99.7827 25.9703C99.8304 25.9536 99.8717 25.9225 99.9009 25.8813C99.9302 25.8401 99.9459 25.7908 99.9459 25.7403C99.9459 25.6898 99.9302 25.6405 99.9009 25.5993C99.8717 25.5581 99.8304 25.527 99.7827 25.5103Z" fill="#263238"/>
<path d="M103.349 22.0789C103.226 22.0158 103.09 21.9829 102.951 21.9829C102.813 21.9829 102.677 22.0158 102.554 22.0789C102.506 22.0948 102.464 22.1255 102.434 22.1665C102.405 22.2075 102.389 22.2568 102.389 22.3074C102.389 22.358 102.405 22.4074 102.434 22.4484C102.464 22.4894 102.506 22.52 102.554 22.5359C102.677 22.599 102.813 22.632 102.951 22.632C103.09 22.632 103.226 22.599 103.349 22.5359C103.397 22.52 103.439 22.4894 103.468 22.4484C103.498 22.4074 103.514 22.358 103.514 22.3074C103.514 22.2568 103.498 22.2075 103.468 22.1665C103.439 22.1255 103.397 22.0948 103.349 22.0789Z" fill="#007A8B"/>
<path d="M101.366 23.5444C101.676 23.5444 101.927 23.3998 101.927 23.2214C101.927 23.043 101.676 22.8984 101.366 22.8984C101.056 22.8984 100.805 23.043 100.805 23.2214C100.805 23.3998 101.056 23.5444 101.366 23.5444Z" fill="#263238"/>
<path d="M100.179 23.9099C100.056 23.8469 99.9204 23.814 99.7826 23.814C99.6448 23.814 99.509 23.8469 99.3865 23.9099C99.1671 24.0349 99.1671 24.239 99.3865 24.367C99.5094 24.4286 99.645 24.4607 99.7826 24.4607C99.9201 24.4607 100.056 24.4286 100.179 24.367C100.398 24.239 100.398 24.0349 100.179 23.9099Z" fill="#007A8B"/>
<path d="M98.5951 24.8248C98.4716 24.7631 98.3355 24.731 98.1975 24.731C98.0594 24.731 97.9233 24.7631 97.7998 24.8248C97.7518 24.8407 97.71 24.8713 97.6804 24.9123C97.6507 24.9533 97.6348 25.0027 97.6348 25.0533C97.6348 25.1039 97.6507 25.1532 97.6804 25.1942C97.71 25.2352 97.7518 25.2659 97.7998 25.2818C97.9229 25.3449 98.0592 25.3778 98.1975 25.3778C98.3357 25.3778 98.472 25.3449 98.5951 25.2818C98.6431 25.2659 98.6849 25.2352 98.7146 25.1942C98.7442 25.1532 98.7602 25.1039 98.7602 25.0533C98.7602 25.0027 98.7442 24.9533 98.7146 24.9123C98.6849 24.8713 98.6431 24.8407 98.5951 24.8248Z" fill="#263238"/>
<path d="M98.1903 26.409C98.0672 26.3459 97.931 26.313 97.7927 26.313C97.6544 26.313 97.5181 26.3459 97.3951 26.409C97.347 26.4249 97.3052 26.4555 97.2756 26.4966C97.2459 26.5376 97.23 26.5869 97.23 26.6375C97.23 26.6881 97.2459 26.7374 97.2756 26.7785C97.3052 26.8195 97.347 26.8501 97.3951 26.866C97.5181 26.9291 97.6544 26.962 97.7927 26.962C97.931 26.962 98.0672 26.9291 98.1903 26.866C98.2383 26.8501 98.2801 26.8195 98.3098 26.7785C98.3394 26.7374 98.3554 26.6881 98.3554 26.6375C98.3554 26.5869 98.3394 26.5376 98.3098 26.4966C98.2801 26.4555 98.2383 26.4249 98.1903 26.409Z" fill="#007A8B"/>
<path d="M96.9997 25.7234C96.8772 25.6603 96.7414 25.6274 96.6036 25.6274C96.4658 25.6274 96.33 25.6603 96.2075 25.7234C95.9881 25.8483 95.9881 26.0525 96.2075 26.1804C96.3304 26.2421 96.4661 26.2742 96.6036 26.2742C96.7411 26.2742 96.8767 26.2421 96.9997 26.1804C97.2221 26.0525 97.2221 25.8483 96.9997 25.7234Z" fill="#263238"/>
<path d="M99.8674 29.6208V30.8395C99.9911 30.8452 100.114 30.8179 100.224 30.7603L109.055 25.6598C109.155 25.5962 109.239 25.5097 109.299 25.4075C109.359 25.3053 109.395 25.1903 109.402 25.0718V24.633C109.396 24.5288 109.368 24.4271 109.32 24.3342C109.272 24.2414 109.206 24.1595 109.125 24.0938C109.247 24.2004 109.225 24.3436 109.064 24.438L100.233 29.5416C100.121 29.6008 99.9942 29.6281 99.8674 29.6208Z" fill="#37474F"/>
<path d="M101.655 20.1166C101.611 20.0611 101.549 20.0228 101.479 20.0083C101.41 19.9939 101.337 20.0042 101.274 20.0374L93.5823 24.4676C93.5529 24.4828 93.5273 24.5044 93.5073 24.5307C93.4873 24.5571 93.4735 24.5876 93.4668 24.62C93.4601 24.6524 93.4607 24.6859 93.4685 24.718C93.4764 24.7502 93.4913 24.7801 93.5123 24.8058C93.5565 24.8613 93.6188 24.8996 93.6883 24.9141C93.7578 24.9285 93.8302 24.9183 93.8929 24.885L101.582 20.4609C101.612 20.4458 101.639 20.424 101.659 20.3972C101.68 20.3705 101.694 20.3394 101.701 20.3063C101.708 20.2733 101.708 20.2391 101.7 20.2062C101.692 20.1734 101.677 20.1428 101.655 20.1166Z" fill="#263238"/>
<path d="M101.655 20.1166C101.611 20.0611 101.549 20.0228 101.479 20.0083C101.41 19.9939 101.337 20.0042 101.274 20.0374L95.5525 23.328L95.8722 23.7546L101.582 20.4609C101.612 20.4458 101.639 20.424 101.659 20.3972C101.68 20.3705 101.694 20.3394 101.701 20.3063C101.708 20.2733 101.708 20.2391 101.7 20.2062C101.692 20.1734 101.676 20.1428 101.655 20.1166Z" fill="#007A8B"/>
<path d="M101.019 19.264C100.974 19.2092 100.913 19.1713 100.844 19.1569C100.775 19.1424 100.703 19.1523 100.641 19.1847L92.958 23.6118C92.9289 23.6278 92.9037 23.6498 92.884 23.6765C92.8643 23.7032 92.8507 23.7338 92.844 23.7663C92.8374 23.7987 92.8378 23.8322 92.8454 23.8645C92.853 23.8968 92.8675 23.927 92.8879 23.9531C92.9322 24.0086 92.9945 24.0469 93.064 24.0614C93.1335 24.0759 93.2058 24.0656 93.2686 24.0323L100.952 19.593C100.979 19.577 101.003 19.5554 101.021 19.5296C101.039 19.5039 101.052 19.4745 101.059 19.4435C101.065 19.4124 101.065 19.3804 101.058 19.3494C101.051 19.3185 101.037 19.2894 101.019 19.264Z" fill="#263238"/>
<path d="M101.019 19.264C100.975 19.2091 100.913 19.1713 100.844 19.1569C100.775 19.1424 100.704 19.1523 100.641 19.1847L98.7288 20.2877L99.0485 20.7051L100.958 19.6022C100.986 19.5857 101.01 19.5634 101.029 19.5366C101.048 19.5098 101.061 19.4793 101.066 19.4471C101.072 19.415 101.071 19.3819 101.063 19.3503C101.055 19.3187 101.04 19.2892 101.019 19.264Z" fill="#007A8B"/>
<path d="M100.382 18.4113C100.338 18.3558 100.275 18.3175 100.206 18.303C100.136 18.2886 100.064 18.2988 100.001 18.3321L92.309 22.7592C92.28 22.7751 92.2547 22.7972 92.2351 22.8239C92.2154 22.8505 92.2018 22.8811 92.1951 22.9136C92.1884 22.9461 92.1889 22.9796 92.1965 23.0119C92.2041 23.0441 92.2186 23.0744 92.239 23.1005C92.2833 23.156 92.3455 23.1943 92.415 23.2088C92.4845 23.2232 92.5569 23.2129 92.6196 23.1797L100.303 18.7404C100.331 18.7254 100.356 18.7046 100.375 18.6793C100.395 18.6541 100.409 18.6249 100.417 18.5937C100.424 18.5626 100.425 18.5302 100.419 18.4988C100.413 18.4673 100.4 18.4375 100.382 18.4113Z" fill="#263238"/>
<path d="M100.382 18.4113C100.338 18.3558 100.276 18.3175 100.206 18.303C100.137 18.2886 100.064 18.2988 100.002 18.3321L96.0032 20.6264L96.3229 21.053L100.324 18.7495C100.352 18.7328 100.376 18.7103 100.395 18.6834C100.413 18.6565 100.426 18.6259 100.431 18.5938C100.437 18.5616 100.435 18.5287 100.427 18.4972C100.418 18.4657 100.403 18.4364 100.382 18.4113Z" fill="#007A8B"/>
<path d="M99.7488 17.5571C99.7045 17.5015 99.6423 17.4632 99.5728 17.4488C99.5033 17.4343 99.4309 17.4446 99.3682 17.4779L91.676 21.905C91.6469 21.9209 91.6217 21.943 91.602 21.9696C91.5823 21.9963 91.5687 22.0269 91.562 22.0594C91.5554 22.0918 91.5559 22.1254 91.5634 22.1576C91.571 22.1899 91.5855 22.2201 91.6059 22.2462C91.6502 22.3017 91.7125 22.34 91.782 22.3545C91.8515 22.369 91.9239 22.3587 91.9866 22.3254L99.6696 17.8861C99.6979 17.8712 99.7227 17.8504 99.7424 17.8251C99.762 17.7998 99.7761 17.7706 99.7835 17.7395C99.791 17.7084 99.7918 17.676 99.7858 17.6445C99.7798 17.6131 99.7672 17.5833 99.7488 17.5571Z" fill="#263238"/>
<path d="M99.7487 17.5571C99.7044 17.5015 99.6421 17.4632 99.5726 17.4488C99.5031 17.4343 99.4308 17.4446 99.368 17.4779L92.3823 21.4967L92.7021 21.9232L99.6756 17.8953C99.7048 17.8799 99.7303 17.8584 99.7503 17.8321C99.7702 17.8059 99.7842 17.7755 99.7912 17.7433C99.7981 17.711 99.7979 17.6776 99.7906 17.6454C99.7833 17.6133 99.7689 17.5831 99.7487 17.5571Z" fill="#007A8B"/>
<path d="M84.8395 74.4337C84.8628 74.4256 84.8877 74.4233 84.9121 74.427C84.9365 74.4307 84.9597 74.4403 84.9795 74.455C85.0415 74.4961 85.0931 74.5511 85.1301 74.6156C85.1671 74.6802 85.1885 74.7524 85.1927 74.8267C85.1944 74.8503 85.191 74.874 85.1826 74.8961C85.1742 74.9182 85.161 74.9382 85.144 74.9547L85.1196 74.9699L75.9657 80.2562L75.3567 79.9089L84.8395 74.4337Z" fill="#455A64"/>
<path d="M86.0758 75.1496C86.0988 75.1409 86.1237 75.138 86.1481 75.1411C86.1726 75.1443 86.1958 75.1535 86.2159 75.1679C86.2784 75.2087 86.3305 75.2636 86.3681 75.3281C86.4056 75.3927 86.4275 75.4651 86.4321 75.5396C86.4341 75.564 86.4305 75.5885 86.4215 75.6112C86.4126 75.634 86.3984 75.6543 86.3803 75.6707L86.3559 75.6859L77.2021 80.9722L76.593 80.6249L86.0758 75.1496Z" fill="#455A64"/>
<path d="M87.3121 75.8631C87.3354 75.855 87.3604 75.8528 87.3848 75.8565C87.4092 75.8602 87.4323 75.8698 87.4522 75.8844C87.5143 75.9247 87.5659 75.9791 87.603 76.0432C87.64 76.1073 87.6614 76.1792 87.6654 76.2531C87.6673 76.2772 87.664 76.3014 87.6556 76.324C87.6472 76.3467 87.6339 76.3672 87.6166 76.3841L87.5892 76.3994L78.4384 81.6857L77.8293 81.3384L87.3121 75.8631Z" fill="#455A64"/>
<path d="M88.5486 76.5751C88.5725 76.5677 88.5978 76.5658 88.6226 76.5695C88.6473 76.5731 88.6709 76.5823 88.6917 76.5964C88.7537 76.6375 88.8052 76.6925 88.8422 76.757C88.8792 76.8216 88.9007 76.8938 88.9049 76.9681C88.907 76.9917 88.9038 77.0156 88.8953 77.0377C88.8869 77.0599 88.8735 77.0799 88.8561 77.0961L88.8318 77.1113L79.6779 82.3976L79.0688 82.0503L88.5486 76.5751Z" fill="#455A64"/>
<path d="M25.9634 106.554C25.9939 106.974 26.1229 107.38 26.3398 107.741C26.5568 108.101 26.8555 108.405 27.2119 108.629L62.2318 128.851C62.6191 129.048 63.0474 129.15 63.4818 129.15C63.9162 129.15 64.3445 129.048 64.7319 128.851L112.627 101.182C113.004 100.983 113.32 100.684 113.54 100.318C113.76 99.9519 113.877 99.5329 113.877 99.1058C113.877 98.6787 113.76 98.2597 113.54 97.8938C113.32 97.528 113.004 97.2291 112.627 97.0294L77.6192 76.8073C77.2319 76.612 76.8043 76.5103 76.3707 76.5103C75.937 76.5103 75.5094 76.612 75.1221 76.8073L27.2241 104.476C26.865 104.698 26.5636 105.002 26.3445 105.364C26.1254 105.725 25.9948 106.133 25.9634 106.554Z" fill="#007A8B"/>
<path opacity="0.7" d="M63.4804 126.444V129.149C63.0441 129.156 62.6134 129.051 62.2288 128.845L27.2242 108.629C26.8571 108.436 26.5476 108.15 26.3275 107.798C26.1075 107.447 25.9846 107.044 25.9716 106.629C25.9586 106.215 26.0559 105.804 26.2535 105.44C26.4511 105.075 26.742 104.77 27.0963 104.555C26.536 104.957 26.5786 105.545 27.2242 105.917L62.244 126.139C62.6236 126.344 63.0491 126.449 63.4804 126.444Z" fill="black"/>
<path d="M24.8033 104.52C24.4534 104.283 24.1647 103.965 23.9609 103.595C23.7571 103.224 23.644 102.81 23.6309 102.387V60.6025C23.6546 60.1692 23.78 59.7475 23.9969 59.3717C24.2138 58.9959 24.5161 58.6764 24.8794 58.4393L72.7774 30.7706C73.1388 30.5439 73.5551 30.42 73.9816 30.4123C74.408 30.4045 74.8286 30.5131 75.198 30.7264C75.5674 30.9397 75.8718 31.2497 76.0784 31.623C76.285 31.9964 76.3861 32.419 76.3708 32.8455V74.6425C76.3475 75.076 76.2223 75.4979 76.0054 75.8738C75.7884 76.2497 75.4858 76.569 75.1222 76.8058L27.2242 104.474C26.8527 104.672 26.4399 104.779 26.0192 104.787C25.5985 104.795 25.1819 104.704 24.8033 104.52Z" fill="#007A8B"/>
<path opacity="0.7" d="M27.075 104.555C26.7171 104.716 26.3282 104.797 25.9358 104.792C25.5433 104.787 25.1568 104.695 24.8033 104.525C24.4535 104.287 24.165 103.97 23.9612 103.599C23.7575 103.228 23.6443 102.815 23.6309 102.392V60.604C23.6478 60.1734 23.7735 59.7541 23.9963 59.3853L26.3411 60.7381C26.1174 61.1067 25.9906 61.526 25.9726 61.9568V103.757C25.9635 104.494 26.4568 104.826 27.075 104.555Z" fill="black"/>
<path opacity="0.5" d="M25.9634 61.9597V103.757C25.9634 104.552 26.5207 104.875 27.2119 104.476L75.11 76.8071C75.4736 76.5703 75.7761 76.251 75.9931 75.8751C76.2101 75.4991 76.3353 75.0773 76.3585 74.6438V32.8468C76.3585 32.0485 75.7982 31.7256 75.11 32.1247L27.2241 59.7934C26.858 60.0293 26.5529 60.3486 26.3338 60.7251C26.1147 61.1016 25.9877 61.5247 25.9634 61.9597Z" fill="black"/>
<path d="M27.2243 105.92L62.2441 126.142C62.6315 126.339 63.0598 126.441 63.4942 126.441C63.9286 126.441 64.3569 126.339 64.7442 126.142L112.624 98.4614C113.315 98.0623 113.315 97.4163 112.624 97.0172L77.6194 76.8073C77.2321 76.612 76.8045 76.5103 76.3708 76.5103C75.9372 76.5103 75.5095 76.612 75.1223 76.8073L27.2243 104.476C26.533 104.875 26.533 105.521 27.2243 105.92Z" fill="#007A8B"/>
<path opacity="0.3" d="M27.2243 105.92L62.2441 126.142C62.6315 126.339 63.0598 126.441 63.4942 126.441C63.9286 126.441 64.3569 126.339 64.7442 126.142L112.624 98.4614C113.315 98.0623 113.315 97.4163 112.624 97.0172L77.6194 76.8073C77.2321 76.612 76.8045 76.5103 76.3708 76.5103C75.9372 76.5103 75.5095 76.612 75.1223 76.8073L27.2243 104.476C26.533 104.875 26.533 105.521 27.2243 105.92Z" fill="black"/>
<path d="M27.8972 62.1123L74.0777 35.443C74.4919 35.2054 74.8268 35.4004 74.8268 35.8787V72.0604C74.8127 72.3204 74.7374 72.5734 74.6073 72.7989C74.4771 73.0244 74.2957 73.2161 74.0777 73.3584L27.8972 100.028C27.483 100.265 27.145 100.073 27.145 99.595V63.4225C27.1584 63.1603 27.2335 62.9049 27.3642 62.6772C27.4949 62.4496 27.6775 62.256 27.8972 62.1123Z" fill="#FAFAFA"/>
<path d="M58.3645 56.4663L58.06 64.8209C58.06 68.2608 55.9009 74.4734 51.458 79.065C51.1392 79.37 50.7359 79.5718 50.3008 79.6439C50.0755 79.6652 49.8592 79.6744 49.6461 79.6744C48.6958 79.6885 47.7587 79.4509 46.9298 78.9858L46.9023 78.9706L46.8506 78.937C44.8742 77.7427 43.8998 75.3052 43.8998 73.0078L43.5952 65.022C43.5933 64.8063 43.6739 64.5981 43.8206 64.44C43.9296 64.3104 44.0658 64.2064 44.2195 64.1353C46.2537 63.2213 49.302 59.629 50.7332 56.0733C50.8368 55.8204 50.989 55.7381 51.1595 55.8173L51.1839 55.8326C51.2422 55.8654 51.2946 55.9076 51.3392 55.9575L51.3666 55.991C52.8892 57.7582 55.8705 57.7552 57.862 56.2317C58.0143 56.1159 58.1392 56.0794 58.2244 56.1159C58.328 56.1769 58.3706 56.2866 58.3645 56.4663Z" fill="#007A8B"/>
<path opacity="0.2" d="M50.986 55.8052C50.9285 55.8292 50.8771 55.8658 50.8355 55.9121C50.7939 55.9585 50.7631 56.0136 50.7454 56.0733C49.3142 59.629 46.2659 63.2335 44.2317 64.1353C44.078 64.2064 43.9418 64.3104 43.8328 64.44C43.6861 64.5981 43.6055 64.8063 43.6075 65.022L43.912 73.0078C43.912 75.3143 44.8864 77.7518 46.8719 78.9371L46.9237 78.9706L46.9511 78.9858C47.78 79.4509 48.7171 79.6885 49.6674 79.6744C49.8806 79.6744 50.0968 79.6744 50.3221 79.6439C50.5602 79.6107 50.7897 79.5321 50.9982 79.4124L50.986 55.8052Z" fill="black"/>
<path opacity="0.3" d="M31.2866 104.838L75.7466 79.156C75.9402 79.0583 76.154 79.0073 76.3709 79.0073C76.5877 79.0073 76.8016 79.0583 76.9952 79.156L79.2699 80.4692C79.3455 80.4946 79.4113 80.5431 79.4578 80.6079C79.5044 80.6727 79.5294 80.7505 79.5294 80.8303C79.5294 80.9101 79.5044 80.9878 79.4578 81.0526C79.4113 81.1174 79.3455 81.1659 79.2699 81.1913L34.7947 106.87C34.6011 106.968 34.3873 107.019 34.1704 107.019C33.9536 107.019 33.7398 106.968 33.5462 106.87L31.2775 105.56C31.2022 105.534 31.1371 105.485 31.0913 105.419C31.0456 105.354 31.0215 105.276 31.0225 105.196C31.0235 105.116 31.0495 105.039 31.0969 104.974C31.1443 104.91 31.2107 104.863 31.2866 104.838Z" fill="black"/>
<path opacity="0.3" d="M37.1487 108.211L81.6087 82.5293C81.8019 82.4301 82.0159 82.3784 82.233 82.3784C82.4501 82.3784 82.6641 82.4301 82.8572 82.5293L96.8439 90.6096C96.9195 90.635 96.9852 90.6836 97.0318 90.7483C97.0783 90.8131 97.1034 90.8909 97.1034 90.9707C97.1034 91.0505 97.0783 91.1283 97.0318 91.1931C96.9852 91.2578 96.9195 91.3064 96.8439 91.3318L52.4356 116.989C52.2414 117.087 52.0271 117.138 51.8098 117.138C51.5925 117.138 51.3782 117.087 51.184 116.989L37.1487 108.943C37.0678 108.922 36.9962 108.874 36.9451 108.808C36.8939 108.742 36.8662 108.661 36.8662 108.577C36.8662 108.493 36.8939 108.412 36.9451 108.346C36.9962 108.28 37.0678 108.232 37.1487 108.211Z" fill="black"/>
<path d="M77.0013 94.0946L78.3929 93.2902C78.4508 93.2567 78.4477 93.1988 78.3929 93.1623L76.785 92.233C76.7505 92.2158 76.7125 92.2069 76.6739 92.2069C76.6353 92.2069 76.5973 92.2158 76.5627 92.233L75.1711 93.0374C75.1102 93.0739 75.1132 93.1288 75.1711 93.1653L76.782 94.0977C76.8164 94.1139 76.854 94.122 76.892 94.1215C76.93 94.121 76.9673 94.1118 77.0013 94.0946ZM74.2606 90.9015L72.8598 91.7028C72.7989 91.7394 72.8019 91.7942 72.8598 91.8338L74.4707 92.7631C74.5052 92.7803 74.5433 92.7892 74.5818 92.7892C74.6204 92.7892 74.6585 92.7803 74.693 92.7631L76.0846 91.9588C76.1425 91.9252 76.1395 91.8673 76.0846 91.8308L74.4768 90.9015C74.4425 90.8836 74.4043 90.8743 74.3656 90.8743C74.3269 90.8743 74.2888 90.8836 74.2545 90.9015H74.2606ZM69.7628 93.4974L67.4058 94.8594C67.3479 94.8929 67.351 94.9508 67.4058 94.9873L69.0167 95.9014C69.0507 95.9186 69.0883 95.9275 69.1264 95.9275C69.1644 95.9275 69.202 95.9186 69.236 95.9014L71.593 94.5395C71.6508 94.5059 71.6478 94.448 71.593 94.4115L69.9851 93.4974C69.9498 93.4792 69.9106 93.4698 69.8709 93.4698C69.8312 93.4698 69.792 93.4792 69.7567 93.4974H69.7628ZM72.2203 92.0623L70.8256 92.8667C70.7677 92.9002 70.7708 92.9581 70.8256 92.9947L72.4365 93.9088C72.471 93.9259 72.5091 93.9349 72.5476 93.9349C72.5862 93.9349 72.6242 93.9259 72.6588 93.9088L74.0504 93.1044C74.1083 93.0709 74.1053 93.013 74.0504 92.9764L72.4426 92.0471C72.4069 92.0323 72.3682 92.0259 72.3296 92.0285C72.2911 92.0312 72.2536 92.0428 72.2203 92.0623ZM66.7694 95.2311L65.3655 96.0233C65.3077 96.0598 65.3107 96.1177 65.3655 96.1543L66.9734 97.0836C67.0079 97.1008 67.046 97.1097 67.0845 97.1097C67.1231 97.1097 67.1612 97.1008 67.1957 97.0836L68.5873 96.2792C68.6483 96.2457 68.6452 96.1878 68.5873 96.1513L66.9764 95.2372C66.9446 95.2208 66.9094 95.2118 66.8736 95.2107C66.8378 95.2096 66.8022 95.2166 66.7694 95.2311ZM64.7352 96.4041L63.3435 97.2085C63.2856 97.242 63.2887 97.2999 63.3435 97.3365L64.9514 98.2658C64.9857 98.2837 65.0238 98.293 65.0625 98.293C65.1012 98.293 65.1394 98.2837 65.1737 98.2658L66.5653 97.4614C66.6262 97.4279 66.6232 97.37 66.5653 97.3334L64.9422 96.4102C64.9086 96.3926 64.8713 96.3829 64.8333 96.3818C64.7953 96.3808 64.7576 96.3884 64.723 96.4041H64.7352ZM71.0661 100.185L72.4608 99.3809C72.5187 99.3474 72.5157 99.2895 72.4608 99.253L70.8499 98.3237C70.8156 98.3058 70.7775 98.2964 70.7388 98.2964C70.7001 98.2964 70.662 98.3058 70.6276 98.3237L69.2055 99.125C69.1477 99.1585 69.1507 99.2164 69.2055 99.253L70.8134 100.167C70.8487 100.19 70.8893 100.204 70.9313 100.207C70.9734 100.21 71.0156 100.203 71.054 100.185H71.0661ZM69.0319 101.361L70.4236 100.557C70.4845 100.524 70.4815 100.466 70.4236 100.429L68.8127 99.515C68.7782 99.4978 68.7401 99.4889 68.7015 99.4889C68.663 99.4889 68.6249 99.4978 68.5904 99.515L67.1805 100.289C67.1226 100.322 67.1257 100.38 67.1805 100.417L68.7883 101.349C68.8231 101.37 68.8622 101.382 68.9026 101.384C68.9429 101.386 68.9831 101.378 69.0198 101.361H69.0319ZM66.9978 102.538L68.3894 101.733C68.4503 101.7 68.4473 101.642 68.3894 101.605L66.7694 100.676C66.735 100.658 66.6969 100.649 66.6582 100.649C66.6195 100.649 66.5814 100.658 66.5471 100.676L65.1554 101.48C65.0975 101.514 65.1006 101.572 65.1554 101.608L66.7633 102.538C66.7978 102.555 66.8359 102.564 66.8744 102.564C66.913 102.564 66.951 102.555 66.9856 102.538H66.9978ZM64.9422 103.711L66.3339 102.909C66.3948 102.873 66.3887 102.815 66.3339 102.778L64.723 101.849C64.6884 101.832 64.6504 101.823 64.6118 101.823C64.5733 101.823 64.5352 101.832 64.5007 101.849L63.1151 102.65C63.0573 102.684 63.0603 102.742 63.1151 102.778L64.723 103.708C64.7567 103.725 64.7941 103.735 64.8322 103.735C64.8704 103.736 64.9081 103.727 64.9422 103.711ZM74.9579 95.2707L76.3496 94.4663C76.4074 94.4328 76.4044 94.3749 76.3496 94.3384L74.7417 93.4091C74.7072 93.3919 74.6691 93.383 74.6306 93.383C74.592 93.383 74.5539 93.3919 74.5194 93.4091L73.1278 94.1952C73.0668 94.2287 73.0699 94.2866 73.1278 94.3231L74.7387 95.2524C74.7725 95.2735 74.8109 95.2861 74.8506 95.2893C74.8904 95.2925 74.9303 95.2861 74.9671 95.2707H74.9579ZM73.079 99.0123L76.1851 97.2177C76.246 97.1841 76.2399 97.1263 76.1851 97.0897L72.2751 94.832C72.2406 94.8148 72.2025 94.8058 72.1639 94.8058C72.1254 94.8058 72.0873 94.8148 72.0528 94.832L70.448 95.7613C70.3871 95.7948 70.3901 95.8527 70.448 95.8892L72.5187 97.0836C72.5827 97.1202 72.5857 97.178 72.5187 97.2116L71.2336 97.955C71.1758 97.9885 71.1788 98.0464 71.2336 98.083L72.8445 99.0123C72.8816 99.0337 72.9236 99.0449 72.9664 99.0449C73.0091 99.0449 73.0511 99.0337 73.0882 99.0123H73.079ZM62.6797 97.5802L61.288 98.3846C61.2301 98.4181 61.2332 98.476 61.288 98.5126L62.8959 99.4419C62.9304 99.4591 62.9684 99.468 63.007 99.468C63.0456 99.468 63.0836 99.4591 63.1182 99.4419L64.5098 98.6375C64.5707 98.604 64.5677 98.5461 64.5098 98.5095L62.8989 97.5802C62.8662 97.5643 62.8302 97.5561 62.7938 97.5561C62.7575 97.5561 62.7215 97.5643 62.6888 97.5802H62.6797ZM60.6546 98.7655L59.2629 99.5699C59.2051 99.6034 59.2081 99.6613 59.2629 99.6978L60.8708 100.627C60.9051 100.645 60.9432 100.654 60.9819 100.654C61.0206 100.654 61.0588 100.645 61.0931 100.627L62.4848 99.8258C62.5457 99.7892 62.5396 99.7313 62.4848 99.6948L60.8738 98.7807C60.8409 98.7616 60.804 98.7503 60.766 98.7477C60.728 98.745 60.6899 98.7511 60.6546 98.7655ZM50.4897 111.943C50.524 111.961 50.5621 111.97 50.6008 111.97C50.6395 111.97 50.6777 111.961 50.712 111.943L52.1037 111.142C52.1615 111.105 52.1585 111.047 52.1037 111.011L50.4927 110.082C50.4588 110.064 50.4212 110.055 50.3831 110.055C50.345 110.055 50.3074 110.064 50.2735 110.082L48.8788 110.886C48.8209 110.919 48.824 110.977 48.8788 111.014L50.4897 111.943ZM44.378 108.168L42.9863 108.969C42.9285 109.006 42.9315 109.061 42.9863 109.1L44.5942 110.03C44.6287 110.047 44.6668 110.056 44.7053 110.056C44.7439 110.056 44.7819 110.047 44.8165 110.03L46.2081 109.225C46.269 109.192 46.266 109.134 46.2081 109.097L44.5972 108.168C44.564 108.149 44.5268 108.139 44.4887 108.137C44.4506 108.135 44.4126 108.143 44.378 108.159V108.168ZM47.6546 110.926C47.6891 110.943 47.7272 110.952 47.7658 110.952C47.8043 110.952 47.8424 110.943 47.8769 110.926L49.2686 110.121C49.3264 110.088 49.3234 110.03 49.2686 109.993L47.6607 109.064C47.6262 109.047 47.5881 109.038 47.5496 109.038C47.511 109.038 47.4729 109.047 47.4384 109.064L46.0467 109.868C45.9858 109.905 45.9889 109.96 46.0467 109.996L47.6546 110.926ZM54.08 112.656L55.4717 111.855C55.5326 111.818 55.5295 111.76 55.4717 111.724L53.8607 110.795C53.8262 110.777 53.7882 110.768 53.7496 110.768C53.711 110.768 53.673 110.777 53.6384 110.795L52.2468 111.599C52.1889 111.632 52.192 111.69 52.2468 111.727L53.8546 112.656C53.8901 112.673 53.9292 112.681 53.9685 112.68C54.0077 112.678 54.046 112.667 54.08 112.647V112.656ZM51.8235 113.829C51.858 113.846 51.8961 113.855 51.9346 113.855C51.9732 113.855 52.0113 113.846 52.0458 113.829L53.4375 113.025C53.4984 112.991 53.4923 112.933 53.4375 112.897L51.8265 111.968C51.792 111.95 51.754 111.941 51.7154 111.941C51.6768 111.941 51.6388 111.95 51.6042 111.968L50.2126 112.772C50.1547 112.809 50.1578 112.863 50.2126 112.9L51.8235 113.829ZM46.4122 106.992L45.0205 107.796C44.9627 107.83 44.9657 107.888 45.0205 107.924L46.6314 108.854C46.6652 108.872 46.7028 108.881 46.741 108.881C46.7793 108.881 46.8169 108.872 46.8507 108.854L48.2454 108.052C48.3032 108.016 48.3002 107.961 48.2454 107.921L46.6345 107.007C46.6011 106.988 46.5637 106.976 46.5251 106.973C46.4865 106.971 46.4479 106.977 46.4122 106.992ZM56.5862 101.115L55.1976 101.91C55.1367 101.943 55.1428 102.001 55.1976 102.038L56.8085 102.967C56.843 102.984 56.8811 102.993 56.9196 102.993C56.9582 102.993 56.9963 102.984 57.0308 102.967L58.4225 102.163C58.4803 102.129 58.4773 102.071 58.4225 102.035L56.8146 101.105C56.7793 101.087 56.7401 101.078 56.7004 101.078C56.6607 101.078 56.6215 101.087 56.5862 101.105V101.115ZM48.4494 105.816L47.0547 106.62C46.9968 106.654 46.9999 106.712 47.0547 106.748L48.6656 107.678C48.7002 107.695 48.7382 107.704 48.7768 107.704C48.8153 107.704 48.8534 107.695 48.8879 107.678L50.2796 106.873C50.3374 106.84 50.3344 106.782 50.2796 106.745L48.6687 105.816C48.6354 105.797 48.5982 105.787 48.5601 105.785C48.522 105.784 48.4841 105.791 48.4494 105.807V105.816ZM58.6204 99.9385L57.2287 100.743C57.1678 100.779 57.1739 100.834 57.2287 100.871L58.8397 101.803C58.8742 101.82 58.9122 101.829 58.9508 101.829C58.9894 101.829 59.0274 101.82 59.0619 101.803L60.4536 100.999C60.5145 100.965 60.5084 100.907 60.4536 100.871L58.8518 99.9355C58.8166 99.9158 58.7772 99.905 58.7369 99.904C58.6966 99.9029 58.6566 99.9116 58.6204 99.9294V99.9385ZM54.552 102.291L53.1603 103.095C53.0994 103.129 53.1025 103.186 53.1603 103.223L54.7713 104.137C54.8058 104.154 54.8438 104.163 54.8824 104.163C54.921 104.163 54.959 104.154 54.9936 104.137L56.3852 103.333C56.4431 103.296 56.44 103.241 56.3852 103.205L54.7773 102.272C54.7417 102.256 54.7027 102.249 54.6636 102.25C54.6244 102.252 54.5862 102.262 54.552 102.282V102.291ZM52.5178 103.467L51.1261 104.25C51.0652 104.283 51.0683 104.341 51.1261 104.378L52.7371 105.307C52.7714 105.325 52.8095 105.334 52.8482 105.334C52.8869 105.334 52.925 105.325 52.9594 105.307L54.351 104.503C54.4089 104.469 54.4058 104.411 54.351 104.375L52.7431 103.461C52.7087 103.442 52.6701 103.432 52.6309 103.431C52.5916 103.431 52.5528 103.44 52.5178 103.458V103.467ZM50.4836 104.64L49.1072 105.435C49.0463 105.469 49.0493 105.526 49.1072 105.563L50.7181 106.495C50.7526 106.513 50.7907 106.522 50.8292 106.522C50.8678 106.522 50.9059 106.513 50.9404 106.495L52.332 105.691C52.3899 105.658 52.3869 105.6 52.332 105.563L50.7242 104.634C50.6876 104.613 50.6463 104.602 50.6043 104.601C50.5622 104.601 50.5207 104.611 50.4836 104.631V104.64ZM60.883 106.072L62.2746 105.268C62.3325 105.234 62.3295 105.176 62.2746 105.14L60.6668 104.21C60.6322 104.193 60.5942 104.184 60.5556 104.184C60.5171 104.184 60.479 104.193 60.4445 104.21L59.0528 105.015C58.9919 105.048 58.998 105.106 59.0528 105.143L60.6637 106.072C60.6974 106.09 60.7347 106.099 60.7727 106.1C60.8106 106.101 60.8484 106.094 60.883 106.078V106.072ZM78.7522 88.3116L77.3575 89.116C77.2997 89.1495 77.3027 89.2074 77.3575 89.244L78.9685 90.1581C79.003 90.1752 79.041 90.1842 79.0796 90.1842C79.1182 90.1842 79.1562 90.1752 79.1908 90.1581L80.5824 89.3537C80.6403 89.3171 80.6372 89.2623 80.5824 89.2257L78.9715 88.2934C78.9368 88.2774 78.8989 88.2699 78.8608 88.2715C78.8226 88.2731 78.7854 88.2837 78.7522 88.3025V88.3116ZM76.2887 89.7345L74.897 90.5389C74.8361 90.5724 74.8392 90.6303 74.897 90.6669L76.5079 91.5962C76.5422 91.6141 76.5804 91.6234 76.6191 91.6234C76.6578 91.6234 76.6959 91.6141 76.7302 91.5962L78.1219 90.7948C78.1797 90.7583 78.1767 90.7004 78.1219 90.6638L76.514 89.7284C76.4793 89.7103 76.4409 89.7006 76.4017 89.7C76.3626 89.6995 76.3238 89.7082 76.2887 89.7254V89.7345ZM80.7773 87.1264L79.3856 87.9308C79.3247 87.9643 79.3278 88.0222 79.3856 88.0587L80.9966 88.9881C81.0311 89.0052 81.0691 89.0142 81.1077 89.0142C81.1463 89.0142 81.1843 89.0052 81.2189 88.9881L82.6105 88.1837C82.6684 88.1502 82.6653 88.0923 82.6105 88.0557L81.0027 87.1264C80.9677 87.1087 80.9291 87.0995 80.89 87.0995C80.8508 87.0995 80.8122 87.1087 80.7773 87.1264ZM70.247 97.9916L71.6386 97.1872C71.6965 97.1537 71.6935 97.0958 71.6386 97.0592L70.0308 96.1452C69.9962 96.128 69.9582 96.119 69.9196 96.119C69.8811 96.119 69.843 96.128 69.8085 96.1452L68.4138 96.9373C68.3559 96.9739 68.359 97.0288 68.4138 97.0653L70.0247 97.9977C70.0609 98.0154 70.1009 98.0241 70.1412 98.0231C70.1815 98.022 70.2209 98.0112 70.2561 97.9916H70.247ZM83.0368 85.9564C83.0023 85.9392 82.9643 85.9303 82.9257 85.9303C82.8871 85.9303 82.8491 85.9392 82.8145 85.9564L81.4229 86.7608C81.362 86.7973 81.365 86.8522 81.4229 86.8888L83.0338 87.8211C83.0683 87.8383 83.1064 87.8472 83.145 87.8472C83.1835 87.8472 83.2216 87.8383 83.2561 87.8211L84.6478 87.0167C84.7056 86.9832 84.7026 86.9253 84.6478 86.8888L83.0368 85.9564ZM62.9111 104.887L64.3027 104.082C64.3636 104.049 64.3576 103.991 64.3027 103.954L62.6918 103.04C62.6573 103.023 62.6192 103.014 62.5807 103.014C62.5421 103.014 62.5041 103.023 62.4695 103.04L61.0779 103.845C61.017 103.881 61.0231 103.936 61.0779 103.973L62.6857 104.905C62.7229 104.921 62.7634 104.928 62.8037 104.924C62.844 104.921 62.883 104.908 62.9172 104.887H62.9111ZM87.8605 90.4749L89.2521 89.6705C89.31 89.637 89.3069 89.5791 89.2521 89.5426L87.6442 88.6133C87.6097 88.5961 87.5717 88.5872 87.5331 88.5872C87.4945 88.5872 87.4565 88.5961 87.4219 88.6133L86.0303 89.4177C85.9694 89.4512 85.9755 89.5091 86.0303 89.5456L87.6412 90.4597C87.6746 90.4805 87.7127 90.4928 87.752 90.4954C87.7913 90.4981 87.8306 90.491 87.8665 90.4749H87.8605ZM83.5271 90.3226L84.9188 89.5182C84.9766 89.4847 84.9736 89.4268 84.9188 89.3902L83.3109 88.4609C83.2764 88.4438 83.2383 88.4348 83.1998 88.4348C83.1612 88.4348 83.1231 88.4438 83.0886 88.4609L81.6909 89.2592C81.63 89.2927 81.633 89.3506 81.6909 89.3872L83.3018 90.3013C83.3357 90.3233 83.3745 90.3368 83.4149 90.3405C83.4552 90.3442 83.4958 90.3381 83.5332 90.3226H83.5271ZM85.336 87.2757C85.3014 87.2585 85.2634 87.2496 85.2248 87.2496C85.1863 87.2496 85.1482 87.2585 85.1137 87.2757L83.722 88.0801C83.6611 88.1166 83.6642 88.1715 83.722 88.2081L85.3329 89.1404C85.3675 89.1576 85.4055 89.1665 85.4441 89.1665C85.4827 89.1665 85.5207 89.1576 85.5552 89.1404L86.9469 88.336C87.0048 88.3025 87.0017 88.2446 86.9469 88.2081L85.336 87.2757ZM85.7623 87.0289L89.6723 89.2866C89.7067 89.3045 89.7448 89.3139 89.7835 89.3139C89.8222 89.3139 89.8603 89.3045 89.8946 89.2866L91.2863 88.4823C91.3472 88.4488 91.3411 88.3909 91.2863 88.3543L87.3763 86.0966C87.3419 86.0787 87.3038 86.0693 87.2651 86.0693C87.2264 86.0693 87.1883 86.0787 87.154 86.0966L85.7623 86.9009C85.7014 86.9436 85.7075 87.0015 85.7684 87.0381L85.7623 87.0289ZM81.0514 89.6248L79.6597 90.4292C79.5988 90.4627 79.6019 90.5206 79.6597 90.5572L81.2706 91.4865C81.3049 91.5044 81.3431 91.5137 81.3818 91.5137C81.4205 91.5137 81.4586 91.5044 81.4929 91.4865L82.8846 90.6852C82.9424 90.6486 82.9394 90.5937 82.8846 90.5541L81.2737 89.6248C81.2391 89.6077 81.2011 89.5987 81.1625 89.5987C81.124 89.5987 81.0859 89.6077 81.0514 89.6248ZM65.737 98.4608L64.3332 99.2804C64.2753 99.3139 64.2784 99.3718 64.3332 99.4084L65.9411 100.338C65.9756 100.355 66.0136 100.364 66.0522 100.364C66.0908 100.364 66.1288 100.355 66.1634 100.338L67.555 99.5333C67.6159 99.4967 67.6129 99.4419 67.555 99.4053L65.9441 98.473C65.9114 98.4586 65.876 98.4515 65.8402 98.452C65.8045 98.4525 65.7693 98.4607 65.737 98.476V98.4608ZM85.61 91.6297C85.6446 91.6469 85.6826 91.6558 85.7212 91.6558C85.7598 91.6558 85.7978 91.6469 85.8323 91.6297L87.224 90.8253C87.2819 90.7918 87.2788 90.7339 87.224 90.6973L85.6161 89.7833C85.5818 89.7654 85.5437 89.7561 85.505 89.7561C85.4663 89.7561 85.4282 89.7654 85.3938 89.7833L84.0022 90.5877C83.9413 90.6212 83.9443 90.6791 84.0022 90.7156L85.61 91.6297ZM67.7712 97.2847L66.3796 98.0891C66.3217 98.1226 66.3248 98.1805 66.3796 98.217L67.9874 99.1616C68.0214 99.1787 68.059 99.1876 68.0971 99.1876C68.1351 99.1876 68.1727 99.1787 68.2067 99.1616L69.6014 98.3572C69.6593 98.3237 69.6562 98.2658 69.6014 98.2292L67.9874 97.306C67.9542 97.2888 67.9175 97.2794 67.88 97.2783C67.8426 97.2773 67.8054 97.2847 67.7712 97.2999V97.2847ZM52.5239 110.743C52.5584 110.76 52.5965 110.769 52.635 110.769C52.6736 110.769 52.7117 110.76 52.7462 110.743L54.1379 109.938C54.1957 109.905 54.1927 109.847 54.1379 109.81L52.53 108.881C52.4955 108.864 52.4574 108.855 52.4188 108.855C52.3803 108.855 52.3422 108.864 52.3077 108.881L50.916 109.685C50.8551 109.719 50.8582 109.777 50.916 109.813L52.5239 110.743ZM49.4635 107.863L48.0718 108.668C48.0109 108.701 48.0139 108.759 48.0718 108.796L49.6827 109.71C49.717 109.728 49.7552 109.737 49.7939 109.737C49.8326 109.737 49.8707 109.728 49.905 109.71L51.2967 108.905C51.3545 108.872 51.3515 108.814 51.2967 108.777L49.6888 107.848C49.6517 107.834 49.6116 107.83 49.5723 107.835C49.533 107.84 49.4956 107.855 49.4635 107.879V107.863ZM54.7804 109.573L56.172 108.768C56.2299 108.735 56.2269 108.677 56.172 108.64L54.5642 107.726C54.5296 107.709 54.4916 107.7 54.453 107.7C54.4145 107.7 54.3764 107.709 54.3419 107.726L52.9411 108.515C52.8802 108.549 52.8832 108.607 52.9411 108.643L54.552 109.576C54.5863 109.596 54.625 109.607 54.6647 109.61C54.7044 109.612 54.7441 109.604 54.7804 109.588V109.573ZM56.8146 108.397L58.2062 107.592C58.2641 107.559 58.2611 107.501 58.2062 107.464L56.5984 106.535C56.5641 106.517 56.5259 106.508 56.4872 106.508C56.4485 106.508 56.4104 106.517 56.3761 106.535L54.9844 107.339C54.9235 107.373 54.9266 107.431 54.9844 107.467L56.5953 108.381C56.6268 108.404 56.6631 108.418 56.7013 108.423C56.7394 108.429 56.7783 108.425 56.8146 108.412V108.397ZM58.8488 107.224L60.2404 106.419C60.2983 106.383 60.2953 106.328 60.2404 106.291L58.6326 105.359C58.598 105.342 58.56 105.333 58.5214 105.333C58.4829 105.333 58.4448 105.342 58.4103 105.359L57.0247 106.175C56.9638 106.209 56.9668 106.267 57.0247 106.303L58.6356 107.233C58.6689 107.25 58.7056 107.259 58.743 107.26C58.7805 107.261 58.8176 107.254 58.8518 107.239L58.8488 107.224ZM51.4977 106.687L50.106 107.492C50.0451 107.525 50.0481 107.583 50.106 107.62L51.7169 108.549C51.7515 108.566 51.7895 108.575 51.8281 108.575C51.8666 108.575 51.9047 108.566 51.9392 108.549L53.3309 107.745C53.3887 107.708 53.3857 107.653 53.3309 107.617L51.723 106.684C51.6867 106.669 51.6473 106.663 51.6081 106.666C51.569 106.67 51.5311 106.682 51.4977 106.703V106.687ZM53.5319 105.511L52.1524 106.331C52.0915 106.364 52.0945 106.422 52.1524 106.459L53.7633 107.388C53.7978 107.405 53.8359 107.414 53.8744 107.414C53.913 107.414 53.9511 107.405 53.9856 107.388L55.3773 106.584C55.4351 106.55 55.4321 106.492 55.3773 106.456L53.7694 105.526C53.7329 105.507 53.6921 105.496 53.6506 105.496C53.6092 105.496 53.5683 105.507 53.5319 105.526V105.511ZM61.6686 100.81L60.277 101.614C60.2191 101.648 60.2222 101.706 60.277 101.742L61.8849 102.672C61.9192 102.689 61.9573 102.699 61.996 102.699C62.0347 102.699 62.0728 102.689 62.1072 102.672L63.4988 101.867C63.5597 101.834 63.5567 101.776 63.4988 101.739L61.897 100.831C61.8622 100.812 61.8233 100.802 61.7836 100.801C61.7439 100.799 61.7045 100.808 61.6686 100.825V100.81ZM59.6344 101.986L58.2428 102.806C58.1849 102.839 58.188 102.897 58.2428 102.934L59.8507 103.863C59.8852 103.88 59.9232 103.889 59.9618 103.889C60.0004 103.889 60.0384 103.88 60.073 103.863L61.4646 103.059C61.5255 103.025 61.5225 102.967 61.4646 102.931L59.8537 102.001C59.8198 101.984 59.7822 101.975 59.7441 101.975C59.706 101.975 59.6684 101.984 59.6344 102.001V101.986ZM63.7028 99.6369L62.3112 100.438C62.2533 100.475 62.2564 100.533 62.3112 100.569L63.9191 101.483C63.9536 101.5 63.9916 101.509 64.0302 101.509C64.0688 101.509 64.1068 101.5 64.1413 101.483L65.533 100.679C65.5939 100.645 65.5909 100.587 65.533 100.551L63.9221 99.6216C63.8858 99.6088 63.8469 99.6048 63.8088 99.6101C63.7706 99.6155 63.7343 99.6298 63.7028 99.6521V99.6369ZM55.5661 104.335L54.1744 105.164C54.1135 105.2 54.1196 105.255 54.1744 105.292L55.7853 106.224C55.8198 106.241 55.8579 106.25 55.8965 106.25C55.935 106.25 55.9731 106.241 56.0076 106.224L57.3993 105.42C57.4571 105.386 57.4541 105.328 57.3993 105.292L55.7914 104.378C55.7587 104.356 55.7212 104.342 55.682 104.337C55.6429 104.332 55.6031 104.337 55.5661 104.35V104.335ZM57.6003 103.162L56.2086 103.966C56.1507 104 56.1538 104.058 56.2086 104.094L57.8165 105.009C57.8508 105.026 57.8889 105.036 57.9276 105.036C57.9663 105.036 58.0044 105.026 58.0388 105.009L59.4304 104.207C59.4913 104.171 59.4852 104.113 59.4304 104.076L57.8195 103.147C57.7831 103.135 57.7443 103.131 57.7063 103.136C57.6683 103.142 57.632 103.156 57.6003 103.177V103.162ZM56.1111 111.474L57.5028 110.67C57.5637 110.636 57.5607 110.578 57.5028 110.542L55.8919 109.628C55.8576 109.61 55.8194 109.6 55.7807 109.6C55.742 109.6 55.7039 109.61 55.6696 109.628L54.284 110.411C54.2262 110.444 54.2292 110.502 54.284 110.539L55.8919 111.468C55.9256 111.486 55.9628 111.495 56.0008 111.496C56.0388 111.497 56.0765 111.49 56.1111 111.474ZM44.1739 110.255L42.563 109.326C42.5285 109.309 42.4904 109.3 42.4519 109.3C42.4133 109.3 42.3753 109.309 42.3407 109.326L40.9491 110.13C40.8912 110.164 40.8943 110.222 40.9491 110.258L42.5569 111.188C42.5915 111.205 42.6295 111.214 42.6681 111.214C42.7067 111.214 42.7447 111.205 42.7792 111.188L44.1709 110.383C44.2348 110.362 44.2348 110.304 44.177 110.267L44.1739 110.255ZM47.2191 111.151L45.6082 110.222C45.5742 110.205 45.5367 110.196 45.4986 110.196C45.4605 110.196 45.423 110.205 45.389 110.222L43.2573 111.459C43.1995 111.492 43.2025 111.55 43.2573 111.587L44.8652 112.501C44.8997 112.518 44.9378 112.527 44.9764 112.527C45.0149 112.527 45.053 112.518 45.0875 112.501L47.2191 111.264C47.2801 111.258 47.2801 111.2 47.2252 111.163L47.2191 111.151ZM41.7012 108.458L40.0903 107.528C40.0558 107.511 40.0177 107.502 39.9792 107.502C39.9406 107.502 39.9026 107.511 39.868 107.528L38.1627 108.515C38.1018 108.549 38.1048 108.607 38.1627 108.643L39.7736 109.573C39.8082 109.59 39.8462 109.599 39.8848 109.599C39.9233 109.599 39.9614 109.59 39.9959 109.573L41.7073 108.583C41.7743 108.564 41.7713 108.515 41.7073 108.47L41.7012 108.458ZM43.0137 107.699C43.048 107.717 43.0862 107.726 43.1249 107.726C43.1636 107.726 43.2017 107.717 43.236 107.699L44.6277 106.895C44.6886 106.861 44.6825 106.803 44.6277 106.767L43.0168 105.853C42.9822 105.835 42.9442 105.826 42.9056 105.826C42.867 105.826 42.829 105.835 42.7945 105.853L41.4028 106.657C41.3449 106.69 41.348 106.748 41.4028 106.785L43.0137 107.699ZM50.0603 112.172L48.4494 111.258C48.4151 111.24 48.377 111.23 48.3383 111.23C48.2996 111.23 48.2614 111.24 48.2271 111.258L45.5504 112.781C45.4925 112.815 45.4956 112.873 45.5504 112.909L47.1613 113.838C47.1953 113.856 47.2328 113.864 47.2709 113.864C47.309 113.864 47.3465 113.856 47.3805 113.838L50.0603 112.291C50.1273 112.275 50.1243 112.217 50.0603 112.172ZM51.3972 114.058L49.7863 113.128C49.7517 113.111 49.7137 113.102 49.6751 113.102C49.6365 113.102 49.5985 113.111 49.564 113.128L47.8495 114.119C47.7916 114.152 47.7947 114.21 47.8495 114.247L49.4604 115.176C49.495 115.193 49.533 115.202 49.5716 115.202C49.6101 115.202 49.6482 115.193 49.6827 115.176L51.3941 114.186C51.4642 114.161 51.4581 114.103 51.3972 114.067V114.058ZM58.1453 98.9635C58.1799 98.9807 58.2179 98.9896 58.2565 98.9896C58.2951 98.9896 58.3331 98.9807 58.3676 98.9635L59.7593 98.1591C59.8202 98.1226 59.8172 98.0677 59.7593 98.0312L58.1484 97.0988C58.1138 97.0817 58.0758 97.0727 58.0372 97.0727C57.9987 97.0727 57.9606 97.0817 57.9261 97.0988L56.5344 97.9032C56.4766 97.9367 56.4796 97.9946 56.5344 98.0312L58.1453 98.9635ZM54.077 101.313C54.1113 101.331 54.1494 101.34 54.1881 101.34C54.2268 101.34 54.2649 101.331 54.2992 101.313L55.6909 100.508C55.7518 100.475 55.7488 100.417 55.6909 100.38L54.08 99.451C54.0455 99.4338 54.0074 99.4249 53.9688 99.4249C53.9303 99.4249 53.8922 99.4338 53.8577 99.451L52.4569 100.265C52.399 100.298 52.4021 100.356 52.4569 100.393L54.077 101.313ZM45.054 106.535C45.0885 106.552 45.1266 106.561 45.1652 106.561C45.2037 106.561 45.2418 106.552 45.2763 106.535L46.668 105.731C46.7289 105.697 46.7258 105.639 46.668 105.603L45.0571 104.67C45.0225 104.653 44.9845 104.644 44.9459 104.644C44.9073 104.644 44.8693 104.653 44.8348 104.67L43.437 105.469C43.3791 105.502 43.3822 105.56 43.437 105.597L45.054 106.535ZM56.1111 100.137C56.1457 100.154 56.1837 100.163 56.2223 100.163C56.2609 100.163 56.2989 100.154 56.3334 100.137L57.7251 99.3322C57.786 99.2987 57.783 99.2408 57.7251 99.2042L56.1111 98.2902C56.0768 98.2723 56.0387 98.2629 56 98.2629C55.9613 98.2629 55.9232 98.2723 55.8888 98.2902L54.4972 99.0915C54.4393 99.1281 54.4424 99.1859 54.4972 99.2225L56.1111 100.137ZM52.0428 102.486C52.0773 102.503 52.1153 102.512 52.1539 102.512C52.1925 102.512 52.2305 102.503 52.2651 102.486L53.6567 101.681C53.7176 101.648 53.7115 101.59 53.6567 101.553L52.0458 100.621C52.0113 100.604 51.9732 100.595 51.9346 100.595C51.8961 100.595 51.858 100.604 51.8235 100.621L50.4318 101.425C50.374 101.459 50.377 101.517 50.4318 101.553L52.0428 102.486ZM52.5148 114.204C52.4802 114.187 52.4422 114.178 52.4036 114.178C52.365 114.178 52.327 114.187 52.2925 114.204L50.1608 115.441C50.0999 115.475 50.103 115.532 50.1608 115.569L51.7717 116.498C51.8063 116.515 51.8443 116.524 51.8829 116.524C51.9214 116.524 51.9595 116.515 51.994 116.498L54.1257 115.261C54.1835 115.228 54.1805 115.17 54.1257 115.133L52.5148 114.204ZM49.1224 104.174C49.1569 104.191 49.195 104.2 49.2335 104.2C49.2721 104.2 49.3102 104.191 49.3447 104.174L50.7364 103.369C50.7973 103.336 50.7942 103.278 50.7364 103.241L49.1072 102.327C49.0729 102.309 49.0347 102.3 48.996 102.3C48.9573 102.3 48.9192 102.309 48.8849 102.327L47.4932 103.129C47.4354 103.165 47.4384 103.22 47.4932 103.26L49.1224 104.174ZM47.0882 105.347C47.1227 105.364 47.1608 105.373 47.1994 105.373C47.2379 105.373 47.276 105.364 47.3105 105.347L48.7022 104.542C48.7631 104.509 48.76 104.451 48.7022 104.414L47.0913 103.485C47.0567 103.468 47.0187 103.459 46.9801 103.459C46.9415 103.459 46.9035 103.468 46.8689 103.485L45.4773 104.289C45.4194 104.323 45.4225 104.381 45.4773 104.417L47.0882 105.347ZM90.2174 92.4432C90.1829 92.426 90.1449 92.4171 90.1063 92.4171C90.0677 92.4171 90.0297 92.426 89.9951 92.4432L86.5632 94.4206C86.5023 94.4541 86.5084 94.512 86.5632 94.5486L88.1741 95.4627C88.2084 95.4806 88.2466 95.4899 88.2853 95.4899C88.324 95.4899 88.3621 95.4806 88.3964 95.4627L91.8223 93.4852C91.8832 93.4517 91.8771 93.3938 91.8223 93.3573L90.2174 92.4432ZM85.7197 95.0422C85.6854 95.0243 85.6472 95.015 85.6085 95.015C85.5698 95.015 85.5317 95.0243 85.4974 95.0422L84.1057 95.8466C84.0479 95.8801 84.0509 95.938 84.1057 95.9745L85.7136 96.9038C85.7479 96.9217 85.786 96.9311 85.8247 96.9311C85.8634 96.9311 85.9016 96.9217 85.9359 96.9038L87.3275 96.0995C87.3884 96.0659 87.3854 96.008 87.3275 95.9715L85.7197 95.0422ZM58.1606 110.298L59.5553 109.494C59.6131 109.46 59.6101 109.402 59.5553 109.366L57.9383 108.436C57.9037 108.419 57.8657 108.41 57.8271 108.41C57.7885 108.41 57.7505 108.419 57.716 108.436L56.3243 109.241C56.2665 109.274 56.2695 109.332 56.3243 109.369L57.9322 110.301C57.9661 110.317 58.0032 110.325 58.0406 110.324C58.0781 110.324 58.1149 110.315 58.1484 110.298H58.1606ZM81.6513 97.3944C81.6167 97.3772 81.5787 97.3683 81.5401 97.3683C81.5016 97.3683 81.4635 97.3772 81.429 97.3944L80.0373 98.1988C79.9764 98.2323 79.9825 98.2902 80.0373 98.3267L81.6452 99.2408C81.6797 99.258 81.7178 99.2669 81.7563 99.2669C81.7949 99.2669 81.833 99.258 81.8675 99.2408L83.2591 98.4364C83.32 98.4029 83.314 98.345 83.2591 98.3084L81.6513 97.3944ZM92.2516 91.2702C92.2171 91.253 92.1791 91.244 92.1405 91.244C92.1019 91.244 92.0639 91.253 92.0293 91.2702L90.6255 92.0623C90.5676 92.0959 90.5707 92.1538 90.6255 92.1903L92.2334 93.1196C92.2679 93.1368 92.3059 93.1457 92.3445 93.1457C92.3831 93.1457 92.4211 93.1368 92.4557 93.1196L93.8473 92.3152C93.9082 92.2817 93.9021 92.2238 93.8473 92.1873L92.2516 91.2702ZM95.9059 91.0234L91.9958 88.7656C91.9615 88.7477 91.9234 88.7384 91.8847 88.7384C91.846 88.7384 91.8079 88.7477 91.7735 88.7656L90.3819 89.567C90.324 89.6035 90.3271 89.6614 90.3819 89.698L94.2889 91.9557C94.3234 91.9729 94.3615 91.9818 94.4 91.9818C94.4386 91.9818 94.4766 91.9729 94.5112 91.9557L95.9028 91.1513C95.9516 91.1178 95.9485 91.0599 95.8846 91.0234H95.9059ZM74.0565 101.785C74.0225 101.768 73.985 101.759 73.9469 101.759C73.9088 101.759 73.8713 101.768 73.8373 101.785L72.1228 102.775C72.0619 102.809 72.068 102.867 72.1228 102.903L73.7337 103.832C73.7681 103.85 73.8062 103.86 73.8449 103.86C73.8836 103.86 73.9217 103.85 73.956 103.832L75.6705 102.842C75.7284 102.809 75.7253 102.751 75.6705 102.714L74.0565 101.785ZM79.1968 98.8142C79.1623 98.797 79.1243 98.7881 79.0857 98.7881C79.0471 98.7881 79.0091 98.797 78.9745 98.8142L76.8429 100.051C76.785 100.085 76.7881 100.143 76.8429 100.179L78.4508 101.109C78.4853 101.126 78.5233 101.135 78.5619 101.135C78.6005 101.135 78.6385 101.126 78.6731 101.109L80.8047 99.8715C80.8656 99.838 80.8626 99.7801 80.8047 99.7435L79.1968 98.8142ZM69.3456 104.506C69.3113 104.488 69.2732 104.479 69.2345 104.479C69.1958 104.479 69.1576 104.488 69.1233 104.506L57.6337 111.121C57.5759 111.154 57.5789 111.212 57.6337 111.249L59.2416 112.163C59.2762 112.18 59.3142 112.189 59.3528 112.189C59.3913 112.189 59.4294 112.18 59.4639 112.163L70.92 105.542C70.9809 105.508 70.9778 105.45 70.92 105.414L69.3456 104.506ZM57.247 111.495C57.2127 111.477 57.1746 111.468 57.1359 111.468C57.0972 111.468 57.059 111.477 57.0247 111.495L55.2889 112.476C55.2311 112.51 55.2341 112.568 55.2889 112.604L56.8999 113.534C56.9338 113.551 56.9714 113.56 57.0095 113.56C57.0476 113.56 57.0852 113.551 57.1191 113.534L58.8336 112.543C58.8914 112.51 58.8884 112.452 58.8336 112.415L57.247 111.495ZM71.7026 103.147C71.6683 103.129 71.6301 103.12 71.5914 103.12C71.5527 103.12 71.5146 103.129 71.4803 103.147L69.7658 104.137C69.708 104.171 69.711 104.229 69.7658 104.265L71.3737 105.194C71.4082 105.212 71.4463 105.22 71.4849 105.22C71.5234 105.22 71.5615 105.212 71.596 105.194L73.3105 104.204C73.3683 104.171 73.3653 104.113 73.3105 104.076L71.7026 103.147ZM54.89 112.857C54.8555 112.84 54.8174 112.831 54.7789 112.831C54.7403 112.831 54.7023 112.84 54.6677 112.857L52.9563 113.848C52.8954 113.881 52.9015 113.939 52.9563 113.975L54.5672 114.905C54.6018 114.922 54.6398 114.931 54.6784 114.931C54.7169 114.931 54.755 114.922 54.7895 114.905L56.5009 113.915C56.5618 113.881 56.5588 113.823 56.5009 113.787L54.89 112.857ZM76.4135 100.423C76.379 100.406 76.3409 100.397 76.3024 100.397C76.2638 100.397 76.2258 100.406 76.1912 100.423L74.4768 101.413C74.4189 101.447 74.422 101.505 74.4768 101.541L76.0877 102.455C76.122 102.473 76.1601 102.482 76.1988 102.482C76.2375 102.482 76.2757 102.473 76.31 102.455L78.0214 101.468C78.0823 101.431 78.0762 101.374 78.0214 101.337L76.4135 100.423ZM83.6946 96.2183C83.6601 96.2011 83.622 96.1922 83.5835 96.1922C83.5449 96.1922 83.5069 96.2011 83.4723 96.2183L82.0807 97.0227C82.0228 97.0562 82.0258 97.1141 82.0807 97.1506L83.6885 98.083C83.7231 98.1002 83.7611 98.1091 83.7997 98.1091C83.8382 98.1091 83.8763 98.1002 83.9108 98.083L85.3025 97.2786C85.3634 97.2451 85.3573 97.1872 85.3025 97.1506L83.6946 96.2183ZM88.1315 92.9764L89.5231 92.172C89.581 92.1385 89.5779 92.0806 89.5231 92.0441L87.9153 91.1148C87.8809 91.0969 87.8428 91.0875 87.8041 91.0875C87.7654 91.0875 87.7273 91.0969 87.693 91.1148L86.3013 91.9191C86.2404 91.9527 86.2465 92.0106 86.3013 92.0471L87.9122 92.9764C87.9464 92.9931 87.9839 93.0018 88.0219 93.0018C88.0598 93.0018 88.0973 92.9931 88.1315 92.9764ZM79.0354 92.9155L80.4271 92.1141C80.485 92.0776 80.4819 92.0197 80.4271 91.9831L78.8192 91.0538C78.7849 91.0359 78.7468 91.0266 78.7081 91.0266C78.6694 91.0266 78.6313 91.0359 78.5969 91.0538L77.2053 91.8582C77.1444 91.8917 77.1505 91.9496 77.2053 91.9862L78.8162 92.9155C78.8499 92.9333 78.8873 92.9429 78.9255 92.9434C78.9636 92.944 79.0013 92.9354 79.0354 92.9185V92.9155ZM74.425 100.898L78.4934 98.5491C78.5543 98.5156 78.5513 98.4577 78.4934 98.4212L76.8825 97.4919C76.848 97.4747 76.8099 97.4658 76.7713 97.4658C76.7328 97.4658 76.6947 97.4747 76.6602 97.4919L72.5857 99.8319C72.5278 99.8684 72.5309 99.9263 72.5857 99.9629L74.1936 100.892C74.2288 100.912 74.2682 100.923 74.3085 100.924C74.3488 100.925 74.3888 100.916 74.425 100.898ZM85.875 94.1525C85.9093 94.1704 85.9474 94.1797 85.9861 94.1797C86.0248 94.1797 86.063 94.1704 86.0973 94.1525L87.4889 93.3512C87.5468 93.3146 87.5438 93.2567 87.4889 93.2202L85.8811 92.2909C85.8465 92.2737 85.8085 92.2647 85.7699 92.2647C85.7313 92.2647 85.6933 92.2737 85.6588 92.2909L84.2671 93.0952C84.2062 93.1288 84.2092 93.1866 84.2671 93.2232L85.875 94.1525ZM83.7982 92.8271L85.1898 92.0258C85.2477 91.9892 85.2446 91.9313 85.1898 91.8948L83.5819 90.9655C83.5474 90.9483 83.5094 90.9394 83.4708 90.9394C83.4322 90.9394 83.3942 90.9483 83.3596 90.9655L81.9588 91.7577C81.8979 91.7912 81.901 91.8491 81.9588 91.8856L83.5698 92.8149C83.6041 92.8353 83.6429 92.8468 83.6828 92.8484C83.7227 92.85 83.7623 92.8416 83.7982 92.8241V92.8271ZM72.3908 102.074L73.7825 101.27C73.8434 101.236 73.8373 101.179 73.7825 101.142L72.1716 100.213C72.137 100.196 72.099 100.187 72.0604 100.187C72.0218 100.187 71.9838 100.196 71.9493 100.213L70.5576 101.017C70.4967 101.051 70.5028 101.109 70.5576 101.145L72.1655 102.074C72.2006 102.092 72.2394 102.1 72.2785 102.1C72.3176 102.099 72.3561 102.089 72.3908 102.071V102.074ZM81.3863 96.7484C81.4209 96.7656 81.4589 96.7746 81.4975 96.7746C81.5361 96.7746 81.5741 96.7656 81.6086 96.7484L83.0003 95.9441C83.0612 95.9105 83.0551 95.8527 83.0003 95.8161L81.3863 94.8898C81.3518 94.8727 81.3138 94.8637 81.2752 94.8637C81.2366 94.8637 81.1986 94.8727 81.164 94.8898L79.7724 95.6942C79.7115 95.7308 79.7176 95.7856 79.7724 95.8222L81.3863 96.7484ZM62.229 107.949L63.6206 107.144C63.6785 107.108 63.6754 107.053 63.6206 107.016L61.9945 106.078C61.9599 106.061 61.9219 106.052 61.8833 106.052C61.8448 106.052 61.8067 106.061 61.7722 106.078L60.3744 106.885C60.3135 106.919 60.3166 106.977 60.3744 107.013L61.9853 107.943C62.0209 107.963 62.0609 107.974 62.1018 107.975C62.1427 107.976 62.1832 107.967 62.2198 107.949H62.229ZM64.2632 106.773L65.6548 105.968C65.7127 105.935 65.7096 105.877 65.6548 105.84L64.0287 104.911C63.9941 104.894 63.9561 104.885 63.9175 104.885C63.879 104.885 63.8409 104.894 63.8064 104.911L62.4147 105.715C62.3538 105.749 62.3569 105.807 62.4147 105.843L64.0256 106.773C64.061 106.791 64.1001 106.8 64.1398 106.8C64.1796 106.8 64.2187 106.791 64.254 106.773H64.2632ZM60.1826 109.125L61.5773 108.32C61.6351 108.287 61.6321 108.229 61.5773 108.193L59.9664 107.263C59.9321 107.245 59.8939 107.236 59.8552 107.236C59.8165 107.236 59.7784 107.245 59.7441 107.263L58.3524 108.068C58.2946 108.101 58.2976 108.159 58.3524 108.196L59.9633 109.125C59.9973 109.142 60.0348 109.151 60.073 109.151C60.1111 109.151 60.1486 109.142 60.1826 109.125ZM68.3224 104.424L69.7141 103.622C69.7719 103.586 69.7689 103.528 69.7141 103.491L68.1062 102.562C68.0717 102.545 68.0336 102.536 67.9951 102.536C67.9565 102.536 67.9184 102.545 67.8839 102.562L66.4922 103.366C66.4313 103.4 66.4344 103.458 66.4922 103.494L68.1032 104.424C68.1373 104.44 68.175 104.449 68.2132 104.448C68.2513 104.448 68.2887 104.438 68.3224 104.42V104.424ZM66.2882 105.6L67.6799 104.795C67.7377 104.762 67.7347 104.704 67.6799 104.667L66.072 103.738C66.0375 103.721 65.9994 103.712 65.9609 103.712C65.9223 103.712 65.8842 103.721 65.8497 103.738L64.4581 104.542C64.3971 104.579 64.4002 104.634 64.4581 104.67L66.069 105.603C66.1036 105.618 66.1413 105.626 66.1793 105.625C66.2173 105.624 66.2545 105.614 66.2882 105.597V105.6ZM70.3566 103.25L71.7483 102.446C71.8061 102.413 71.8031 102.355 71.7483 102.318L70.1404 101.404C70.1061 101.386 70.068 101.377 70.0293 101.377C69.9906 101.377 69.9524 101.386 69.9181 101.404L68.5264 102.208C68.4655 102.242 68.4716 102.3 68.5264 102.336L70.1374 103.266C70.1729 103.28 70.2111 103.285 70.2491 103.282C70.2871 103.279 70.3239 103.267 70.3566 103.247V103.25ZM79.6628 85.865C79.6973 85.8822 79.7353 85.8911 79.7739 85.8911C79.8125 85.8911 79.8505 85.8822 79.8851 85.865L81.2767 85.0606C81.3376 85.0271 81.3346 84.9692 81.2767 84.9327L80.8473 84.6859C80.8128 84.6687 80.7748 84.6597 80.7362 84.6597C80.6976 84.6597 80.6596 84.6687 80.625 84.6859L79.2334 85.4902C79.1755 85.5238 79.1786 85.5816 79.2334 85.6182L79.6628 85.865ZM69.6532 92.3274C69.6877 92.3446 69.7258 92.3535 69.7643 92.3535C69.8029 92.3535 69.8409 92.3446 69.8755 92.3274L71.2671 91.5231C71.328 91.4895 71.325 91.4316 71.2671 91.3951L69.6562 90.4658C69.6217 90.4486 69.5836 90.4397 69.5451 90.4397C69.5065 90.4397 69.4685 90.4486 69.4339 90.4658L68.0423 91.2702C67.9844 91.3037 67.9874 91.3616 68.0423 91.3981L69.6532 92.3274ZM73.7216 89.9783C73.7559 89.9962 73.794 90.0055 73.8327 90.0055C73.8714 90.0055 73.9095 89.9962 73.9439 89.9783L75.3355 89.1739C75.3964 89.1404 75.3934 89.0825 75.3355 89.0459L73.7246 88.1166C73.6903 88.0988 73.6522 88.0894 73.6135 88.0894C73.5748 88.0894 73.5366 88.0988 73.5023 88.1166L72.1106 88.921C72.0528 88.9545 72.0558 89.0124 72.1106 89.049L73.7216 89.9783ZM67.1683 93.7625C67.2028 93.7797 67.2409 93.7886 67.2794 93.7886C67.318 93.7886 67.356 93.7797 67.3906 93.7625L68.7853 92.9581C68.8431 92.9246 68.8401 92.8667 68.7853 92.8302L67.1744 91.9161C67.1398 91.8989 67.1018 91.89 67.0632 91.89C67.0247 91.89 66.9866 91.8989 66.9521 91.9161L65.5513 92.7022C65.4934 92.7357 65.4965 92.7936 65.5513 92.8302L67.1683 93.7625ZM71.6874 91.1483C71.7219 91.1655 71.7599 91.1744 71.7985 91.1744C71.8371 91.1744 71.8751 91.1655 71.9097 91.1483L73.3013 90.3439C73.3622 90.3104 73.3592 90.2525 73.3013 90.2159L71.6904 89.3019C71.6559 89.2847 71.6178 89.2758 71.5793 89.2758C71.5407 89.2758 71.5026 89.2847 71.4681 89.3019L70.0765 90.1062C70.0186 90.1428 70.0216 90.1977 70.0765 90.2342L71.6874 91.1483ZM63.1151 96.1116C63.1497 96.1288 63.1877 96.1378 63.2263 96.1378C63.2648 96.1378 63.3029 96.1288 63.3374 96.1116L64.7291 95.3073C64.79 95.2738 64.7869 95.2159 64.7291 95.1793L63.1182 94.25C63.0838 94.2321 63.0457 94.2228 63.007 94.2228C62.9683 94.2228 62.9302 94.2321 62.8959 94.25L61.5042 95.0513C61.4463 95.0879 61.4494 95.1458 61.5042 95.1823L63.1151 96.1116ZM65.1493 94.9355C65.1838 94.9527 65.2219 94.9617 65.2605 94.9617C65.299 94.9617 65.3371 94.9527 65.3716 94.9355L66.7633 94.1312C66.8242 94.0946 66.8211 94.0398 66.7633 94.0032L65.1524 93.0709C65.1178 93.0537 65.0798 93.0447 65.0412 93.0447C65.0026 93.0447 64.9646 93.0537 64.9301 93.0709L63.5171 93.8905C63.4592 93.924 63.4623 93.9819 63.5171 94.0184L65.1493 94.9355ZM75.6005 88.2111C75.6348 88.229 75.6729 88.2383 75.7116 88.2383C75.7503 88.2383 75.7884 88.229 75.8228 88.2111L77.2144 87.4098C77.2753 87.3732 77.2723 87.3184 77.2144 87.2787L76.785 87.032C76.7505 87.0148 76.7125 87.0058 76.6739 87.0058C76.6353 87.0058 76.5973 87.0148 76.5627 87.032L75.1711 87.8363C75.1132 87.8698 75.1163 87.9277 75.1711 87.9643L75.6005 88.2111ZM81.6909 84.6859C81.7252 84.7038 81.7633 84.7131 81.802 84.7131C81.8407 84.7131 81.8788 84.7038 81.9132 84.6859L83.3079 83.8815C83.3657 83.848 83.3627 83.7901 83.3079 83.7535L82.8785 83.5067C82.8442 83.4888 82.806 83.4795 82.7673 83.4795C82.7286 83.4795 82.6905 83.4888 82.6562 83.5067L81.2645 84.308C81.2067 84.3446 81.2097 84.4025 81.2645 84.4391L81.6909 84.6859ZM85.0741 86.6389C85.1084 86.6568 85.1465 86.6661 85.1852 86.6661C85.2239 86.6661 85.2621 86.6568 85.2964 86.6389L86.688 85.8345C86.7459 85.801 86.7429 85.7431 86.688 85.7066L85.0802 84.7925C85.0459 84.7746 85.0077 84.7653 84.969 84.7653C84.9303 84.7653 84.8922 84.7746 84.8579 84.7925L83.4662 85.5969C83.4053 85.6304 83.4084 85.6883 83.4662 85.7249L85.0741 86.6389ZM90.1596 91.8034L91.5512 90.999C91.6121 90.9655 91.6061 90.9076 91.5512 90.871L89.9403 89.957C89.9058 89.9398 89.8677 89.9308 89.8292 89.9308C89.7906 89.9308 89.7526 89.9398 89.718 89.957L88.3264 90.7613C88.2655 90.7949 88.2716 90.8527 88.3264 90.8893L89.9342 91.8186C89.971 91.8358 90.0114 91.8434 90.0519 91.8407C90.0924 91.8381 90.1315 91.8252 90.1657 91.8034H90.1596ZM77.6286 87.035C77.6631 87.0522 77.7011 87.0611 77.7397 87.0611C77.7783 87.0611 77.8163 87.0522 77.8509 87.035L79.2425 86.2306C79.3034 86.1971 79.3004 86.1392 79.2425 86.1027L78.8131 85.8559C78.7788 85.838 78.7407 85.8286 78.702 85.8286C78.6633 85.8286 78.6252 85.838 78.5909 85.8559L77.1992 86.6602C77.1413 86.6938 77.1444 86.7516 77.1992 86.7882L77.6286 87.035ZM61.0657 97.2847C61.1002 97.3019 61.1383 97.3108 61.1768 97.3108C61.2154 97.3108 61.2535 97.3019 61.288 97.2847L62.6797 96.4803C62.7406 96.4468 62.7375 96.3889 62.6797 96.3523L61.0687 95.423C61.0342 95.4059 60.9962 95.3969 60.9576 95.3969C60.919 95.3969 60.881 95.4059 60.8464 95.423L59.4609 96.2274C59.403 96.2609 59.4061 96.3188 59.4609 96.3554L61.0657 97.2847Z" fill="#263238"/>
<path opacity="0.3" d="M70.0887 109.506L83.8226 101.569C84.0549 101.451 84.3115 101.39 84.5717 101.39C84.8319 101.39 85.0885 101.451 85.3208 101.569L93.1988 106.121C93.6129 106.358 93.6129 106.745 93.1988 106.986L79.4618 114.908C79.2299 115.027 78.9732 115.089 78.7127 115.089C78.4522 115.089 78.1955 115.027 77.9636 114.908L70.0887 110.371C69.6745 110.131 69.6745 109.734 70.0887 109.506Z" fill="black"/>
<path d="M24.8034 104.518C24.9247 104.588 25.0535 104.643 25.1873 104.683C25.0531 104.645 24.9241 104.591 24.8034 104.521C24.7616 104.5 24.7218 104.474 24.6846 104.445C24.7226 104.472 24.7623 104.497 24.8034 104.518Z" fill="#007A8B"/>
<path opacity="0.3" d="M76.3587 32.6487C76.2703 32.0028 75.7496 31.7651 75.1193 32.1308L27.2243 59.7933C26.8567 60.0176 26.5527 60.3323 26.3411 60.7074L23.9963 59.3576C24.2066 58.9767 24.5106 58.6558 24.8794 58.4253L72.7775 30.7688C73.1241 30.5508 73.5218 30.4277 73.9309 30.4117C74.34 30.3957 74.7462 30.4875 75.1087 30.6778C75.4712 30.8681 75.7775 31.1503 75.9968 31.4962C76.2162 31.842 76.341 32.2395 76.3587 32.6487Z" fill="black"/>
<path d="M26.9897 104.637C26.9958 104.636 27.0021 104.636 27.0082 104.637H26.9897Z" fill="#007A8B"/>
<path opacity="0.5" d="M113.875 99.107C113.844 99.5265 113.715 99.9328 113.498 100.293C113.281 100.654 112.983 100.958 112.627 101.182L64.7289 128.851C64.3443 129.057 63.9136 129.162 63.4773 129.155V126.453C63.9136 126.459 64.3443 126.354 64.7289 126.148L112.627 98.4611C113.269 98.0863 113.312 97.5013 112.752 97.0991C113.076 97.33 113.344 97.6298 113.539 97.9769C113.733 98.3241 113.848 98.7101 113.875 99.107Z" fill="black"/>
<path d="M144.535 75.415L138.941 72.1853C138.816 72.1183 138.636 72.164 138.417 72.3316C138.301 72.4169 138.186 72.5022 138.07 72.5814L137.939 72.6637C137.863 72.7124 137.787 72.7642 137.707 72.8099C137.628 72.8556 137.598 72.8709 137.543 72.9044L137.339 73.0171L137.15 73.1116L136.961 73.203L136.751 73.2913C136.693 73.3157 136.636 73.3431 136.575 73.3645L136.346 73.4498L136.185 73.5077L135.938 73.5838L135.792 73.6265L135.527 73.6935L135.393 73.724C135.302 73.7453 135.207 73.7636 135.113 73.7788L134.997 73.8002L134.693 73.8428H134.592C134.489 73.8428 134.382 73.8641 134.288 73.8702H134.205H133.877H133.81C133.697 73.8702 133.584 73.8702 133.472 73.8702H133.42C133.304 73.8702 133.185 73.8702 133.07 73.8459H133.036L132.674 73.7971H132.655L132.488 73.7636L129.016 71.7588C128.761 71.6156 128.526 71.7192 128.374 72.0939C126.358 77.103 122.064 82.1821 119.202 83.4527C119.145 83.4769 119.09 83.5054 119.037 83.538C119.002 83.5582 118.969 83.5806 118.937 83.605L118.891 83.6355L118.766 83.7421C118.724 83.7817 118.684 83.8244 118.644 83.867C118.44 84.0901 118.326 84.3811 118.325 84.6836L118.739 89.7719C118.739 93.0534 120.134 96.5146 122.981 98.1691L128.578 101.396L128.618 101.417C130.063 102.217 131.724 102.543 133.365 102.346C133.978 102.245 134.546 101.96 134.994 101.53C141.255 95.0613 144.297 86.2954 144.297 81.463L144.711 75.8568C144.708 75.6344 144.644 75.479 144.535 75.415Z" fill="#007A8B"/>
<path opacity="0.4" d="M134.568 74.9792C134.512 74.951 134.45 74.9378 134.388 74.941C134.325 74.9442 134.264 74.9637 134.212 74.9975L134.151 75.0432C134.116 75.0785 134.084 75.1173 134.057 75.159C134.026 75.2117 133.999 75.2667 133.977 75.3235C133.453 76.6105 132.822 77.8518 132.092 79.0346C131.461 80.0745 130.766 81.0747 130.012 82.0297C129.647 82.4867 129.282 82.9224 128.913 83.3307C128.914 83.3357 128.914 83.3409 128.913 83.3459L128.609 83.6841C128.502 83.7908 128.402 83.9005 128.304 84.0041C128.252 84.062 128.201 84.1168 128.146 84.1686C126.97 85.3508 125.819 86.2344 124.836 86.6701C124.668 86.7447 124.514 86.8478 124.382 86.9748L124.269 87.0875C124.263 87.0972 124.256 87.1064 124.248 87.1149L124.269 87.0875L118.678 83.8639C118.683 83.8555 118.689 83.8482 118.696 83.8426C118.707 83.8259 118.719 83.8106 118.733 83.7969L118.767 83.7664C118.776 83.7555 118.786 83.7453 118.797 83.7359L118.83 83.7055C118.859 83.6774 118.89 83.6509 118.922 83.6263L118.968 83.5958C119.001 83.5745 119.035 83.547 119.068 83.5287C119.12 83.495 119.175 83.4664 119.232 83.4434C122.095 82.1729 126.392 77.0938 128.405 72.0847C128.514 71.8166 128.663 71.6855 128.834 71.6855C128.91 71.6885 128.983 71.7117 129.047 71.7526L132.485 73.7818L134.568 74.9792Z" fill="white"/>
<path opacity="0.1" d="M144.535 75.4147L138.941 72.185C138.819 72.121 138.636 72.1667 138.42 72.3312C138.307 72.4196 138.189 72.5049 138.07 72.5841L137.942 72.6664C137.866 72.7152 137.79 72.767 137.71 72.8127C137.631 72.8584 137.601 72.8736 137.546 72.9071L137.342 73.0198C137.281 73.0534 137.217 73.0808 137.153 73.1112L136.964 73.2057L136.751 73.2941C136.696 73.3215 136.635 73.3459 136.578 73.3702L136.349 73.4525L136.188 73.5104L135.938 73.5866L135.792 73.6292L135.53 73.6962L135.399 73.7267L135.116 73.7816L134.997 73.8029C134.9 73.8212 134.802 73.8334 134.693 73.8455H134.592L134.288 73.876H134.205C134.096 73.876 133.986 73.876 133.877 73.876H133.813C133.697 73.876 133.584 73.876 133.472 73.876H133.423C133.304 73.876 133.185 73.8608 133.07 73.8516H133.036C132.914 73.8516 132.792 73.8242 132.677 73.8059H132.658C132.602 73.7986 132.546 73.7864 132.491 73.7694L134.574 74.9698L134.61 74.9912C134.69 75.0408 134.76 75.1036 134.817 75.177C134.832 75.1897 134.846 75.204 134.857 75.2197C136.989 77.712 141.203 77.709 144.014 75.5579C144.227 75.3964 144.404 75.3446 144.523 75.3995H144.541C144.596 75.4326 144.639 75.4844 144.66 75.5457C144.634 75.4893 144.59 75.4432 144.535 75.4147Z" fill="black"/>
<path opacity="0.2" d="M128.49 101.38L122.969 98.1988C120.124 96.5413 118.727 93.0801 118.727 89.7986L118.312 84.7103C118.316 84.5148 118.364 84.3227 118.452 84.1484C118.541 83.9742 118.668 83.8225 118.824 83.7048C118.755 83.7623 118.691 83.8255 118.632 83.8937L124.226 87.1173C124.025 87.3422 123.916 87.635 123.922 87.9369L124.333 93.0252C124.324 96.2762 125.694 99.707 128.49 101.38Z" fill="black"/>
<path d="M144.699 75.8869L144.285 81.4931C144.285 86.3377 141.24 95.0913 134.985 101.56C134.536 101.992 133.965 102.276 133.35 102.373C131.711 102.576 130.051 102.256 128.605 101.459L128.566 101.438L128.493 101.392C125.694 99.7195 124.321 96.2918 124.321 93.0378L123.91 87.9495C123.905 87.6487 124.014 87.3573 124.214 87.1329C124.248 87.0931 124.285 87.0555 124.324 87.0202C124.456 86.8929 124.61 86.7898 124.777 86.7155C125.764 86.2767 126.909 85.3931 128.091 84.214L128.249 84.0495L128.553 83.7265L128.858 83.3883C129.23 82.977 129.595 82.5413 129.96 82.0842C130.714 81.129 131.408 80.1288 132.04 79.0892C132.769 77.9073 133.398 76.6671 133.922 75.3811C133.947 75.3238 133.974 75.2679 134.004 75.2135C134.032 75.1728 134.064 75.135 134.099 75.1008C134.118 75.0836 134.138 75.0683 134.16 75.0551C134.211 75.02 134.271 74.9998 134.334 74.9965C134.396 74.9933 134.458 75.0072 134.513 75.0368L134.553 75.0551C134.632 75.1039 134.702 75.1669 134.76 75.2409L134.799 75.2867C136.931 77.7759 141.145 77.7729 143.956 75.6249C144.166 75.4634 144.346 75.4116 144.465 75.4634H144.48C144.508 75.4756 144.533 75.4957 144.55 75.5213C144.641 75.6221 144.693 75.7514 144.699 75.8869Z" fill="#007A8B"/>
<path d="M135.929 94.2752L132.597 96.1978L133.112 90.168C132.713 89.9578 132.46 89.4368 132.46 88.6933C132.46 87.3649 133.267 85.8232 134.263 85.2473C135.259 84.6715 136.066 85.2808 136.066 86.6093C136.044 87.3965 135.82 88.1647 135.414 88.8396L135.929 94.2752Z" fill="#455A64"/>
<path d="M135.929 94.2759L132.911 92.53L132.598 96.1985L135.929 94.2759Z" fill="#37474F"/>
<path d="M134.263 85.2473C133.538 85.7372 132.996 86.4557 132.726 87.2887L135.415 88.8396C135.82 88.1647 136.045 87.3965 136.066 86.6093C136.066 85.2808 135.259 84.6715 134.263 85.2473Z" fill="#37474F"/>
<path d="M138.453 61.1951C137.54 60.6589 136.364 60.7198 135.259 61.3566L126.504 66.4175C125.591 66.9959 124.833 67.7876 124.294 68.7244C123.755 69.6612 123.452 70.7151 123.41 71.7952V82.5263C123.423 82.6623 123.472 82.7924 123.551 82.9033C123.631 83.0142 123.739 83.1017 123.864 83.157C124.203 83.3274 124.577 83.4162 124.957 83.4162C125.337 83.4162 125.711 83.3274 126.05 83.157C126.175 83.1017 126.283 83.0142 126.363 82.9033C126.443 82.7924 126.491 82.6623 126.504 82.5263V71.7952C126.546 71.2581 126.707 70.7371 126.977 70.2705C127.246 69.8039 127.616 69.4035 128.06 69.0987L136.809 64.0318V74.772C136.822 74.9083 136.871 75.0387 136.952 75.1496C137.032 75.2605 137.14 75.3479 137.266 75.4027C137.604 75.5741 137.978 75.6633 138.358 75.6633C138.737 75.6633 139.111 75.5741 139.449 75.4027C139.574 75.3475 139.682 75.2599 139.762 75.149C139.842 75.0382 139.89 74.908 139.903 74.772V64.0318C139.909 62.7673 139.379 61.7283 138.453 61.1951Z" fill="#37474F"/>
<path d="M136.809 64.0321V74.7632C136.822 74.8996 136.871 75.0299 136.952 75.1408C137.032 75.2517 137.141 75.3391 137.266 75.3939C137.408 75.4746 137.561 75.5351 137.72 75.5737V63.5081L136.809 64.0321Z" fill="#263238"/>
</svg>
