<svg width="300" height="300" viewBox="0 0 300 300" fill="none" xmlns="http://www.w3.org/2000/svg">
<path d="M235.8 249.72C187.38 278.976 108.882 278.976 60.468 249.72C12.054 220.464 12.054 173.022 60.468 143.766C108.882 114.51 187.38 114.51 235.8 143.766C284.22 173.022 284.214 220.458 235.8 249.72Z" fill="#F0F0F0"/>
<path d="M55.95 216.6C51.522 219.276 44.346 219.276 39.918 216.6C35.49 213.924 35.496 209.592 39.918 206.916C44.34 204.24 51.522 204.24 55.95 206.916C60.378 209.592 60.372 213.912 55.95 216.6Z" fill="#E0E0E0"/>
<path d="M256.056 181.32C256.056 181.32 257.076 172.32 261.546 165.366C266.016 158.412 272.154 154.044 277.884 153.6C283.614 153.156 288.24 158.4 282.084 162.042C275.928 165.684 265.062 169.35 260.052 182.892L256.056 181.32Z" fill="#007A8B"/>
<path d="M256.056 181.32C256.056 181.32 257.076 172.32 261.546 165.366C266.016 158.412 272.154 154.044 277.884 153.6C283.614 153.156 288.24 158.4 282.084 162.042C275.928 165.684 265.062 169.35 260.052 182.892L256.056 181.32Z" fill="#263238"/>
<path d="M257.736 178.986C257.716 178.992 257.696 178.992 257.676 178.986C257.639 178.971 257.604 178.95 257.576 178.922C257.547 178.894 257.524 178.86 257.508 178.823C257.493 178.787 257.485 178.747 257.484 178.707C257.484 178.667 257.492 178.627 257.508 178.59C263.55 163.704 275.058 157.482 280.308 156.276C280.347 156.267 280.388 156.266 280.428 156.273C280.468 156.28 280.506 156.295 280.54 156.317C280.574 156.339 280.603 156.367 280.626 156.4C280.649 156.433 280.665 156.47 280.674 156.51C280.69 156.589 280.676 156.671 280.633 156.739C280.591 156.807 280.524 156.856 280.446 156.876C275.31 158.076 264.03 164.166 258.078 178.818C258.049 178.881 257.999 178.933 257.937 178.963C257.875 178.994 257.804 179.002 257.736 178.986Z" fill="white"/>
<path d="M288.336 179.166C287.82 180.336 286.536 180.966 285.336 181.422C284.136 181.878 282.858 182.412 282.216 183.516C280.926 185.754 283.044 188.916 281.658 191.064C281.334 191.499 280.925 191.864 280.455 192.136C279.986 192.408 279.467 192.582 278.928 192.648C278.039 192.776 277.144 192.856 276.246 192.888C275.818 192.883 275.391 192.851 274.968 192.792C273.727 192.513 272.428 192.65 271.272 193.182C269.472 194.184 268.95 196.422 267.876 198.15C267.207 199.172 266.324 200.037 265.288 200.685C264.252 201.332 263.088 201.747 261.876 201.9C261.078 202.008 259.596 202.152 258.786 201.696C258.728 201.666 258.671 201.632 258.618 201.594C258.504 201.468 258.366 201.306 258.306 201.222C258.294 201.205 258.284 201.187 258.276 201.168C257.958 200.01 258.474 198.804 258.492 197.61C258.498 197.538 258.498 197.466 258.492 197.394C258.444 196.002 258.402 194.622 258.372 193.23C258.308 190.682 258.282 188.128 258.294 185.568C258.294 183.906 258.114 182.094 258.816 180.528C259.59 178.812 261.528 178.77 262.254 177.084C262.548 176.412 262.704 175.692 262.986 175.014C263.426 174.018 264.131 173.162 265.024 172.539C265.917 171.916 266.963 171.549 268.05 171.48C271.422 171.306 274.452 174.042 277.824 173.79C278.692 173.673 279.554 173.509 280.404 173.298C283.14 172.788 286.296 173.568 287.832 175.878C288.178 176.343 288.405 176.886 288.493 177.459C288.581 178.032 288.527 178.618 288.336 179.166Z" fill="#37474F"/>
<path d="M258 195.834C257.964 195.825 257.929 195.809 257.899 195.786C257.869 195.764 257.844 195.735 257.825 195.703C257.806 195.67 257.793 195.635 257.789 195.597C257.784 195.56 257.786 195.522 257.796 195.486C262.452 177.984 280.884 175.458 285.198 175.8C285.236 175.802 285.272 175.812 285.306 175.829C285.34 175.845 285.37 175.869 285.395 175.897C285.419 175.926 285.438 175.959 285.449 175.995C285.461 176.031 285.465 176.068 285.462 176.106C285.456 176.181 285.42 176.251 285.363 176.301C285.306 176.35 285.232 176.375 285.156 176.37C280.956 176.07 262.908 178.542 258.348 195.654C258.323 195.722 258.274 195.779 258.209 195.812C258.145 195.846 258.07 195.853 258 195.834Z" fill="white"/>
<path d="M278.496 186.972C278.438 186.961 278.386 186.932 278.346 186.888C276.642 185.415 274.635 184.335 272.466 183.724C270.298 183.114 268.022 182.987 265.8 183.354C265.76 183.366 265.719 183.369 265.678 183.363C265.637 183.358 265.598 183.343 265.563 183.321C265.528 183.299 265.499 183.269 265.476 183.235C265.454 183.2 265.439 183.161 265.433 183.12C265.427 183.08 265.43 183.038 265.441 182.998C265.452 182.959 265.472 182.922 265.499 182.891C265.526 182.859 265.559 182.834 265.597 182.817C265.634 182.799 265.675 182.79 265.716 182.79C268.027 182.408 270.395 182.54 272.648 183.179C274.902 183.818 276.987 184.947 278.754 186.486C278.807 186.541 278.836 186.614 278.836 186.69C278.836 186.766 278.807 186.839 278.754 186.894C278.721 186.928 278.68 186.952 278.635 186.966C278.59 186.979 278.542 186.982 278.496 186.972Z" fill="white"/>
<path d="M110.64 31.464L77.478 50.616C77.1552 50.8264 76.8865 51.1099 76.6937 51.4434C76.5008 51.777 76.3893 52.1513 76.368 52.536V143.7C76.3893 144.085 76.5008 144.459 76.6937 144.793C76.8865 145.126 77.1552 145.41 77.478 145.62L110.64 164.772C110.984 164.946 111.364 165.037 111.75 165.037C112.136 165.037 112.516 164.946 112.86 164.772L146.022 145.62C146.345 145.41 146.615 145.127 146.807 144.793C147 144.46 147.112 144.085 147.132 143.7V52.536C147.111 52.1513 146.999 51.777 146.806 51.4434C146.613 51.1099 146.345 50.8264 146.022 50.616L112.86 31.464C112.515 31.2923 112.135 31.2029 111.75 31.2029C111.365 31.2029 110.985 31.2923 110.64 31.464Z" fill="#37474F"/>
<path d="M147.132 52.536V143.7C147.111 144.084 147 144.458 146.808 144.791C146.617 145.125 146.349 145.409 146.028 145.62L112.86 164.772C112.519 164.955 112.137 165.046 111.75 165.036V71.304C112.136 71.3107 112.518 71.2199 112.86 71.04L146.028 51.894L146.328 51.642L146.724 51.312C146.973 51.673 147.115 52.0975 147.132 52.536Z" fill="#263238"/>
<path d="M81.6419 61.5059L106.482 75.8459C106.805 76.0573 107.074 76.3418 107.267 76.6764C107.46 77.011 107.571 77.3863 107.592 77.7719V87.2219C107.592 87.9299 107.1 88.2179 106.488 87.8639L81.6479 73.5239C81.3252 73.3135 81.0565 73.03 80.8637 72.6965C80.6708 72.3629 80.5592 71.9886 80.5379 71.6039V62.1479C80.5319 61.4399 80.9999 61.1519 81.6419 61.5059Z" fill="#455A64"/>
<path d="M82.614 65.6761C82.643 66.0484 82.7585 66.4087 82.9511 66.7284C83.1438 67.0482 83.4085 67.3186 83.724 67.5181L104.4 79.4521C105 79.8061 105.51 79.5541 105.51 78.8941C105.481 78.5219 105.366 78.1616 105.173 77.8419C104.98 77.5221 104.716 77.2517 104.4 77.0521L83.724 65.1121C83.112 64.7581 82.614 65.0102 82.614 65.6761Z" fill="#007A8B"/>
<path d="M82.614 70.4821C82.643 70.8543 82.7585 71.2146 82.9511 71.5343C83.1438 71.8541 83.4085 72.1245 83.724 72.3241L104.4 84.2581C105 84.6121 105.51 84.3601 105.51 83.7001C105.481 83.3278 105.366 82.9675 105.173 82.6478C104.98 82.328 104.716 82.0576 104.4 81.8581L83.724 69.9181C83.112 69.5641 82.614 69.8161 82.614 70.4821Z" fill="#263238"/>
<path d="M83.724 69.918L95.124 76.518V78.918L83.724 72.318C83.4085 72.1184 83.1438 71.848 82.9511 71.5283C82.7585 71.2085 82.643 70.8482 82.614 70.476C82.614 69.816 83.112 69.564 83.724 69.918Z" fill="#007A8B"/>
<path d="M81.6419 78.3301L106.482 92.6701C106.804 92.8809 107.073 93.1644 107.266 93.4979C107.458 93.8314 107.57 94.2055 107.592 94.5901V104.046C107.592 104.754 107.1 105.042 106.488 104.688L81.6479 90.3481C81.3252 90.1377 81.0565 89.8542 80.8637 89.5207C80.6708 89.1871 80.5592 88.8128 80.5379 88.4281V78.9721C80.5319 78.2641 80.9999 78.0001 81.6419 78.3301Z" fill="#455A64"/>
<path d="M82.614 82.4942C82.6421 82.8674 82.7571 83.2289 82.9498 83.5498C83.1426 83.8707 83.4077 84.142 83.724 84.3422L104.4 96.2761C105 96.6301 105.51 96.3781 105.51 95.7181C105.482 95.3449 105.367 94.9834 105.174 94.6625C104.981 94.3416 104.716 94.0703 104.4 93.8701L83.724 81.9361C83.112 81.6001 82.614 81.8342 82.614 82.4942Z" fill="#007A8B"/>
<path d="M82.614 87.3061C82.643 87.6783 82.7585 88.0386 82.9511 88.3584C83.1438 88.6781 83.4085 88.9486 83.724 89.1481L104.4 101.082C105 101.436 105.51 101.184 105.51 100.524C105.481 100.152 105.366 99.7916 105.173 99.4718C104.98 99.152 104.716 98.8816 104.4 98.6821L83.724 86.7421C83.112 86.4001 82.614 86.6401 82.614 87.3061Z" fill="#263238"/>
<path d="M83.724 86.7421L101.346 96.9421V99.3421L83.724 89.1721C83.4084 88.9726 83.1438 88.7022 82.9511 88.3824C82.7584 88.0627 82.643 87.7024 82.614 87.3301C82.614 86.6401 83.112 86.4001 83.724 86.7421Z" fill="#007A8B"/>
<path d="M81.6419 95.1541L106.482 109.494C106.805 109.705 107.073 109.988 107.266 110.322C107.459 110.655 107.571 111.029 107.592 111.414V120.87C107.592 121.578 107.1 121.866 106.488 121.512L81.6479 107.172C81.3247 106.961 81.0558 106.676 80.863 106.342C80.6701 106.007 80.5588 105.632 80.5379 105.246V95.7961C80.5319 95.0881 80.9999 94.8001 81.6419 95.1541Z" fill="#455A64"/>
<path d="M82.614 99.318C82.643 99.6902 82.7585 100.051 82.9511 100.37C83.1438 100.69 83.4085 100.96 83.724 101.16L104.4 113.1C105 113.454 105.51 113.202 105.51 112.536C105.481 112.164 105.366 111.803 105.173 111.484C104.98 111.164 104.716 110.894 104.4 110.694L83.724 98.76C83.112 98.4 82.614 98.658 82.614 99.318Z" fill="#007A8B"/>
<path d="M82.614 104.124C82.643 104.496 82.7585 104.856 82.9511 105.176C83.1438 105.496 83.4085 105.766 83.724 105.966L104.4 117.906C105 118.26 105.51 118.008 105.51 117.342C105.481 116.97 105.366 116.609 105.173 116.29C104.98 115.97 104.716 115.699 104.4 115.5L83.724 103.566C83.112 103.2 82.614 103.464 82.614 104.124Z" fill="#263238"/>
<path d="M83.7239 103.566L90.924 107.73V110.13L83.7239 105.96C83.4084 105.761 83.1438 105.49 82.9511 105.17C82.7584 104.851 82.6429 104.49 82.6139 104.118C82.6139 103.464 83.1119 103.2 83.7239 103.566Z" fill="#007A8B"/>
<path d="M81.6419 111.978L106.482 126.318C106.805 126.529 107.073 126.812 107.266 127.146C107.459 127.479 107.571 127.853 107.592 128.238V137.694C107.592 138.402 107.1 138.69 106.488 138.336L81.6479 123.996C81.3247 123.785 81.0558 123.5 80.863 123.166C80.6701 122.831 80.5588 122.456 80.5379 122.07V112.62C80.5319 111.912 80.9999 111.6 81.6419 111.978Z" fill="#455A64"/>
<path d="M82.614 116.142C82.643 116.514 82.7585 116.875 82.9511 117.194C83.1438 117.514 83.4085 117.784 83.724 117.984L104.4 129.924C105 130.278 105.51 130.026 105.51 129.36C105.481 128.988 105.366 128.627 105.173 128.308C104.98 127.988 104.716 127.718 104.4 127.518L83.724 115.584C83.112 115.23 82.614 115.482 82.614 116.142Z" fill="#007A8B"/>
<path d="M82.614 120.948C82.643 121.32 82.7585 121.68 82.9511 122C83.1438 122.32 83.4085 122.59 83.724 122.79L104.4 134.73C105 135.084 105.51 134.832 105.51 134.166C105.481 133.794 105.366 133.433 105.173 133.114C104.98 132.794 104.716 132.523 104.4 132.324L83.724 120.39C83.112 120.036 82.614 120.288 82.614 120.948Z" fill="#263238"/>
<path d="M83.724 120.39L95.124 126.96V129.36L83.724 122.79C83.4085 122.59 83.1438 122.32 82.9511 122C82.7585 121.68 82.643 121.32 82.614 120.948C82.614 120.288 83.112 120.036 83.724 120.39Z" fill="#007A8B"/>
<path d="M81.6419 128.802L106.482 143.142C106.805 143.352 107.073 143.636 107.266 143.97C107.459 144.303 107.571 144.677 107.592 145.062V154.518C107.592 155.226 107.1 155.508 106.488 155.154L81.6479 140.814C81.3252 140.604 81.0565 140.32 80.8637 139.987C80.6708 139.653 80.5592 139.279 80.5379 138.894V129.438C80.5319 128.73 80.9999 128.448 81.6419 128.802Z" fill="#455A64"/>
<path d="M82.614 132.966C82.643 133.338 82.7585 133.698 82.9511 134.018C83.1438 134.338 83.4085 134.608 83.724 134.808L104.4 146.748C105 147.096 105.51 146.85 105.51 146.184C105.481 145.812 105.366 145.451 105.173 145.132C104.98 144.812 104.716 144.542 104.4 144.342L83.724 132.402C83.112 132.054 82.614 132.3 82.614 132.966Z" fill="#007A8B"/>
<path d="M82.614 137.772C82.643 138.144 82.7585 138.505 82.9511 138.824C83.1438 139.144 83.4085 139.415 83.724 139.614L104.4 151.554C105 151.908 105.51 151.656 105.51 150.99C105.481 150.618 105.366 150.258 105.173 149.938C104.98 149.618 104.716 149.348 104.4 149.148L83.724 137.214C83.112 136.86 82.614 137.106 82.614 137.772Z" fill="#263238"/>
<path d="M83.7239 137.214L99.2639 146.184V148.584L83.7239 139.584C83.4084 139.384 83.1437 139.114 82.9511 138.794C82.7584 138.475 82.6429 138.114 82.6139 137.742C82.6139 137.106 83.1119 136.86 83.7239 137.214Z" fill="#007A8B"/>
<path d="M116.952 77.094C118.104 76.428 119.034 77.034 119.034 78.45V133.416C119.004 134.163 118.8 134.892 118.439 135.546C118.078 136.201 117.568 136.761 116.952 137.184C115.806 137.85 114.876 137.244 114.876 135.828V80.862C114.905 80.1157 115.108 79.3865 115.468 78.7324C115.829 78.0782 116.337 77.5172 116.952 77.094Z" fill="#37474F"/>
<path d="M116.952 135.966C117.261 135.755 117.516 135.475 117.697 135.148C117.878 134.821 117.981 134.456 117.996 134.082V78.9662C117.996 78.2582 117.528 77.9521 116.952 78.2881C116.645 78.4992 116.392 78.7787 116.211 79.1047C116.031 79.4306 115.929 79.794 115.914 80.1662V135.288C115.914 135.99 116.4 136.296 116.952 135.966Z" fill="#263238"/>
<path d="M116.952 135.966C117.261 135.755 117.516 135.475 117.697 135.148C117.878 134.821 117.981 134.456 117.996 134.082V107.73L115.914 108.93V135.282C115.914 135.99 116.4 136.296 116.952 135.966Z" fill="#007A8B"/>
<path d="M123.198 73.488C124.35 72.822 125.28 73.428 125.28 74.844V129.81C125.253 130.557 125.051 131.288 124.689 131.943C124.327 132.597 123.816 133.157 123.198 133.578C122.052 134.244 121.116 133.638 121.116 132.222V77.256C121.146 76.5092 121.349 75.7797 121.711 75.1255C122.072 74.4713 122.581 73.9106 123.198 73.488Z" fill="#37474F"/>
<path d="M123.198 132.36C123.507 132.149 123.762 131.869 123.943 131.542C124.124 131.215 124.227 130.85 124.242 130.476V75.36C124.242 74.652 123.774 74.352 123.198 74.682C122.89 74.8937 122.636 75.1742 122.456 75.5012C122.276 75.8283 122.174 76.1929 122.16 76.566V131.682C122.16 132.39 122.622 132.69 123.198 132.36Z" fill="#007A8B"/>
<path d="M129.444 69.888C130.59 69.216 131.526 69.828 131.526 71.2379V126.204C131.496 126.951 131.293 127.68 130.931 128.334C130.57 128.989 130.06 129.549 129.444 129.972C128.292 130.638 127.362 130.032 127.362 128.616V73.6559C127.389 72.9085 127.591 72.178 127.953 71.5234C128.315 70.8688 128.826 70.3085 129.444 69.888Z" fill="#37474F"/>
<path d="M129.444 128.754C129.753 128.545 130.008 128.266 130.188 127.94C130.369 127.613 130.469 127.249 130.482 126.876V71.7541C130.482 71.0521 130.02 70.7461 129.444 71.0761C129.135 71.2871 128.88 71.5673 128.699 71.8944C128.517 72.2215 128.415 72.5864 128.4 72.9601V128.076C128.4 128.784 128.868 129.09 129.444 128.754Z" fill="#263238"/>
<path d="M129.444 128.754C129.753 128.545 130.008 128.266 130.188 127.939C130.369 127.613 130.469 127.249 130.482 126.876V84.2759L128.4 85.4759V128.076C128.4 128.784 128.868 129.09 129.444 128.754Z" fill="#007A8B"/>
<path d="M135.684 66.2819C136.836 65.6159 137.766 66.222 137.766 67.6379V122.598C137.739 123.345 137.537 124.076 137.175 124.731C136.813 125.385 136.302 125.945 135.684 126.366C134.538 127.032 133.608 126.426 133.608 125.01V70.0499C133.637 69.3037 133.84 68.5745 134.2 67.9203C134.561 67.2662 135.069 66.7052 135.684 66.2819Z" fill="#37474F"/>
<path d="M135.684 125.148C135.992 124.938 136.247 124.658 136.428 124.332C136.609 124.006 136.712 123.643 136.728 123.27V68.154C136.728 67.446 136.26 67.14 135.684 67.47C135.376 67.6816 135.122 67.9621 134.942 68.2892C134.762 68.6163 134.66 68.9809 134.646 69.354V124.47C134.646 125.178 135.114 125.484 135.684 125.148Z" fill="#263238"/>
<path d="M135.684 125.148C135.992 124.938 136.247 124.658 136.428 124.332C136.609 124.006 136.712 123.643 136.728 123.27V113.964L134.646 115.164V124.464C134.646 125.178 135.114 125.484 135.684 125.148Z" fill="#007A8B"/>
<path d="M141.93 62.676C143.082 62.01 144.012 62.616 144.012 64.032V118.992C143.985 119.739 143.783 120.47 143.421 121.125C143.059 121.779 142.548 122.339 141.93 122.76C140.784 123.432 139.848 122.82 139.848 121.41V66.444C139.878 65.6972 140.081 64.9677 140.443 64.3135C140.804 63.6593 141.314 63.0986 141.93 62.676Z" fill="#37474F"/>
<path d="M141.93 121.548C142.239 121.337 142.494 121.057 142.675 120.73C142.856 120.403 142.959 120.038 142.974 119.664V64.5479C142.974 63.8399 142.506 63.5339 141.93 63.8699C141.621 64.0789 141.366 64.358 141.186 64.6844C141.005 65.0108 140.905 65.3752 140.892 65.7479V120.864C140.892 121.572 141.354 121.878 141.93 121.548Z" fill="#263238"/>
<path d="M141.93 121.548C142.239 121.337 142.494 121.057 142.675 120.73C142.856 120.403 142.959 120.038 142.974 119.664V90.906L140.892 92.106V120.858C140.892 121.572 141.354 121.878 141.93 121.548Z" fill="#007A8B"/>
<path d="M115.764 143.868L143.124 128.07C143.616 127.788 144.012 128.016 144.012 128.586V138.552C143.995 138.86 143.906 139.16 143.752 139.426C143.598 139.693 143.383 139.92 143.124 140.088L115.764 155.886C115.272 156.168 114.876 155.94 114.876 155.376V145.404C114.892 145.096 114.981 144.796 115.136 144.529C115.29 144.263 115.505 144.036 115.764 143.868Z" fill="#37474F"/>
<path d="M116.886 146.826C116.886 147.486 117.384 147.738 117.996 147.384L140.892 134.184C141.207 133.984 141.472 133.714 141.665 133.394C141.858 133.074 141.973 132.714 142.002 132.342C142.002 131.676 141.504 131.424 140.892 131.778L117.996 144.978C117.68 145.178 117.415 145.449 117.222 145.77C117.029 146.091 116.914 146.453 116.886 146.826Z" fill="#263238"/>
<path d="M116.886 146.826C116.886 147.486 117.384 147.738 117.996 147.384L134.646 137.784V135.384L117.996 144.984C117.68 145.184 117.416 145.454 117.223 145.774C117.03 146.094 116.915 146.454 116.886 146.826Z" fill="#007A8B"/>
<path d="M116.886 151.632C116.886 152.292 117.384 152.544 117.996 152.19L140.892 138.99C141.207 138.791 141.472 138.52 141.665 138.2C141.858 137.881 141.973 137.52 142.002 137.148C142.002 136.482 141.504 136.23 140.892 136.584L117.996 149.784C117.68 149.984 117.415 150.256 117.222 150.576C117.029 150.897 116.914 151.259 116.886 151.632Z" fill="#263238"/>
<path d="M116.886 151.632C116.886 152.292 117.384 152.544 117.996 152.19L124.242 148.59V146.19L117.996 149.79C117.68 149.989 117.416 150.26 117.223 150.58C117.03 150.899 116.915 151.26 116.886 151.632Z" fill="#007A8B"/>
<path d="M146.022 50.616L112.86 31.464C112.515 31.2923 112.135 31.2029 111.75 31.2029C111.365 31.2029 110.985 31.2923 110.64 31.464L77.478 50.616C77.3431 50.6599 77.2256 50.7454 77.1422 50.8601C77.0589 50.9749 77.014 51.1131 77.014 51.255C77.014 51.3968 77.0589 51.535 77.1422 51.6498C77.2256 51.7646 77.3431 51.8501 77.478 51.894L110.64 71.04C110.984 71.2145 111.364 71.3054 111.75 71.3054C112.136 71.3054 112.516 71.2145 112.86 71.04L146.022 51.894C146.157 51.8501 146.274 51.7646 146.358 51.6498C146.441 51.535 146.486 51.3968 146.486 51.255C146.486 51.1131 146.441 50.9749 146.358 50.8601C146.274 50.7454 146.157 50.6599 146.022 50.616Z" fill="#455A64"/>
<path d="M111.084 66.492L85.3619 51.636C85.1671 51.511 85.0051 51.3412 84.8892 51.1408C84.7734 50.9404 84.7071 50.7152 84.6959 50.484V49.62C84.7071 49.3888 84.7734 49.1636 84.8892 48.9632C85.0051 48.7628 85.1671 48.593 85.3619 48.468L111.084 33.6C111.291 33.4965 111.519 33.4426 111.75 33.4426C111.981 33.4426 112.209 33.4965 112.416 33.6L138.144 48.468C138.338 48.5941 138.499 48.7642 138.615 48.9643C138.73 49.1645 138.797 49.3891 138.81 49.62V50.484C138.797 50.7149 138.73 50.9395 138.615 51.1397C138.499 51.3398 138.338 51.5099 138.144 51.636L112.416 66.492C112.209 66.5955 111.981 66.6494 111.75 66.6494C111.519 66.6494 111.291 66.5955 111.084 66.492Z" fill="#263238"/>
<path d="M85.3619 49.2361L111.084 64.0861C111.29 64.1923 111.518 64.2478 111.75 64.2478C111.982 64.2478 112.21 64.1923 112.416 64.0861L138.144 49.2361C138.223 49.2077 138.291 49.1555 138.34 49.0868C138.388 49.0181 138.414 48.9361 138.414 48.8521C138.414 48.768 138.388 48.686 138.34 48.6173C138.291 48.5486 138.223 48.4965 138.144 48.4681L112.416 34.1281C112.21 34.0218 111.982 33.9663 111.75 33.9663C111.518 33.9663 111.29 34.0218 111.084 34.1281L85.3619 48.4681C85.2799 48.4935 85.2082 48.5444 85.1573 48.6135C85.1064 48.6826 85.0789 48.7662 85.0789 48.8521C85.0789 48.9379 85.1064 49.0215 85.1573 49.0906C85.2082 49.1597 85.2799 49.2107 85.3619 49.2361Z" fill="#455A64"/>
<path d="M111.75 64.248V66.648C111.518 66.654 111.289 66.6003 111.084 66.492L85.362 51.636C85.1672 51.511 85.0051 51.3412 84.8893 51.1408C84.7734 50.9404 84.7071 50.7152 84.696 50.484V49.62C84.7064 49.4141 84.7599 49.2128 84.8529 49.0288C84.9459 48.8449 85.0764 48.6824 85.236 48.552C84.996 48.762 85.038 49.05 85.362 49.236L111.084 64.086C111.288 64.1964 111.518 64.2522 111.75 64.248Z" fill="#37474F"/>
<path d="M111.084 59.2801L93.6839 49.2361C93.4868 49.112 93.322 48.9429 93.2031 48.7426C93.0842 48.5423 93.0145 48.3166 92.9999 48.0841V47.2141C93.0139 46.9836 93.0814 46.7595 93.197 46.5595C93.3126 46.3596 93.4731 46.1893 93.6659 46.0621L104.844 39.6001C105.272 39.3319 105.651 38.9931 105.966 38.5981L111.294 31.3981C111.422 31.2308 111.605 31.1151 111.811 31.0722C112.017 31.0292 112.232 31.0618 112.416 31.1641L129.816 41.2081C130.01 41.3339 130.172 41.5038 130.287 41.7041C130.403 41.9043 130.47 42.1291 130.482 42.3601V48.0361C130.469 48.267 130.402 48.4916 130.287 48.6918C130.171 48.892 130.01 49.062 129.816 49.1881L112.416 59.2321C112.214 59.3459 111.988 59.4096 111.756 59.418C111.524 59.4263 111.294 59.3791 111.084 59.2801Z" fill="#263238"/>
<path d="M112.416 56.88L123.6 50.436C123.813 50.3108 124.014 50.1662 124.2 50.004C124.4 49.8232 124.581 49.6221 124.74 49.404L130.068 42.204C130.129 42.1274 130.172 42.0385 130.194 41.9434C130.217 41.8483 130.218 41.7494 130.198 41.6538C130.178 41.5582 130.137 41.4681 130.078 41.3901C130.019 41.312 129.944 41.2478 129.858 41.202L112.458 31.158C112.274 31.0557 112.059 31.0231 111.853 31.0661C111.647 31.109 111.464 31.2247 111.336 31.392L106.008 38.592C105.728 38.9966 105.379 39.3481 104.976 39.63L93.7259 46.032C93.6468 46.0604 93.5784 46.1125 93.5301 46.1813C93.4817 46.25 93.4558 46.332 93.4558 46.416C93.4558 46.5001 93.4817 46.582 93.5301 46.6508C93.5784 46.7195 93.6468 46.7716 93.7259 46.8L111.126 56.85C111.325 56.9515 111.544 57.0069 111.767 57.0121C111.991 57.0173 112.212 56.9722 112.416 56.88Z" fill="#455A64"/>
<path d="M129.816 41.256L112.416 31.212C112.232 31.1097 112.017 31.077 111.811 31.12C111.605 31.163 111.422 31.2787 111.294 31.446L105.966 38.646C105.803 38.8517 105.62 39.0406 105.42 39.21C105.42 39.21 124.146 50.01 124.152 50.01C124.356 49.8308 124.539 49.6295 124.698 49.41L130.026 42.21C130.078 42.1346 130.114 42.0493 130.132 41.9593C130.15 41.8694 130.149 41.7767 130.129 41.6871C130.109 41.5976 130.071 41.513 130.018 41.4389C129.964 41.3647 129.895 41.3024 129.816 41.256Z" fill="#37474F"/>
<path d="M97.908 46.242C98.1492 46.1178 98.4167 46.053 98.688 46.053C98.9593 46.053 99.2267 46.1178 99.468 46.242C99.9 46.488 99.9 46.89 99.468 47.142C99.2259 47.2634 98.9588 47.3266 98.688 47.3266C98.4172 47.3266 98.1501 47.2634 97.908 47.142C97.476 46.89 97.476 46.488 97.908 46.242Z" fill="#007A8B"/>
<path d="M101.028 48.042C101.27 47.9206 101.537 47.8574 101.808 47.8574C102.079 47.8574 102.346 47.9206 102.588 48.042C103.02 48.294 103.02 48.696 102.588 48.942C102.347 49.0662 102.079 49.131 101.808 49.131C101.537 49.131 101.269 49.0662 101.028 48.942C100.596 48.696 100.596 48.294 101.028 48.042Z" fill="#007A8B"/>
<path d="M104.148 49.8419C104.391 49.7205 104.659 49.6572 104.931 49.6572C105.203 49.6572 105.471 49.7205 105.714 49.8419C105.808 49.8748 105.889 49.9361 105.947 50.0172C106.004 50.0984 106.035 50.1954 106.035 50.2949C106.035 50.3944 106.004 50.4915 105.947 50.5726C105.889 50.6538 105.808 50.715 105.714 50.7479C105.471 50.8694 105.203 50.9326 104.931 50.9326C104.659 50.9326 104.391 50.8694 104.148 50.7479C104.054 50.715 103.973 50.6538 103.915 50.5726C103.858 50.4915 103.827 50.3944 103.827 50.2949C103.827 50.1954 103.858 50.0984 103.915 50.0172C103.973 49.9361 104.054 49.8748 104.148 49.8419Z" fill="#263238"/>
<path d="M107.274 51.648C107.515 51.5238 107.783 51.459 108.054 51.459C108.325 51.459 108.593 51.5238 108.834 51.648C108.929 51.6793 109.011 51.7396 109.069 51.8204C109.128 51.9012 109.159 51.9983 109.159 52.098C109.159 52.1976 109.128 52.2948 109.069 52.3756C109.011 52.4563 108.929 52.5167 108.834 52.548C108.593 52.6722 108.325 52.737 108.054 52.737C107.783 52.737 107.515 52.6722 107.274 52.548C107.179 52.5167 107.097 52.4563 107.039 52.3756C106.98 52.2948 106.949 52.1976 106.949 52.098C106.949 51.9983 106.98 51.9012 107.039 51.8204C107.097 51.7396 107.179 51.6793 107.274 51.648Z" fill="#263238"/>
<path d="M100.248 44.886C100.49 44.7646 100.757 44.7014 101.028 44.7014C101.299 44.7014 101.566 44.7646 101.808 44.886C101.902 44.9189 101.983 44.9802 102.041 45.0614C102.098 45.1425 102.129 45.2395 102.129 45.339C102.129 45.4385 102.098 45.5356 102.041 45.6167C101.983 45.6979 101.902 45.7591 101.808 45.792C101.566 45.9134 101.299 45.9767 101.028 45.9767C100.757 45.9767 100.49 45.9134 100.248 45.792C100.154 45.7591 100.073 45.6979 100.015 45.6167C99.9576 45.5356 99.9267 45.4385 99.9267 45.339C99.9267 45.2395 99.9576 45.1425 100.015 45.0614C100.073 44.9802 100.154 44.9189 100.248 44.886Z" fill="#007A8B"/>
<path d="M103.368 46.692C103.61 46.5677 103.879 46.5029 104.151 46.5029C104.423 46.5029 104.692 46.5677 104.934 46.692C105.029 46.7233 105.111 46.7836 105.169 46.8644C105.228 46.9452 105.259 47.0423 105.259 47.142C105.259 47.2416 105.228 47.3388 105.169 47.4196C105.111 47.5003 105.029 47.5607 104.934 47.592C104.691 47.7135 104.423 47.7767 104.151 47.7767C103.879 47.7767 103.611 47.7135 103.368 47.592C103.273 47.5607 103.191 47.5003 103.133 47.4196C103.074 47.3388 103.043 47.2416 103.043 47.142C103.043 47.0423 103.074 46.9452 103.133 46.8644C103.191 46.7836 103.273 46.7233 103.368 46.692Z" fill="#263238"/>
<path d="M107.274 49.5782C106.664 49.5782 106.17 49.2934 106.17 48.9422C106.17 48.5909 106.664 48.3062 107.274 48.3062C107.884 48.3062 108.378 48.5909 108.378 48.9422C108.378 49.2934 107.884 49.5782 107.274 49.5782Z" fill="#007A8B"/>
<path d="M109.614 50.2979C109.855 50.1737 110.123 50.1089 110.394 50.1089C110.665 50.1089 110.933 50.1737 111.174 50.2979C111.606 50.5439 111.606 50.9459 111.174 51.1979C110.932 51.3193 110.665 51.3825 110.394 51.3825C110.123 51.3825 109.856 51.3193 109.614 51.1979C109.2 50.9459 109.2 50.5439 109.614 50.2979Z" fill="#263238"/>
<path d="M102.6 43.5359C102.842 43.4145 103.109 43.3513 103.38 43.3513C103.651 43.3513 103.918 43.4145 104.16 43.5359C104.592 43.7879 104.592 44.1899 104.16 44.4359C103.919 44.5601 103.651 44.6249 103.38 44.6249C103.109 44.6249 102.841 44.5601 102.6 44.4359C102.156 44.1899 102.156 43.7999 102.6 43.5359Z" fill="#263238"/>
<path d="M105.714 45.336C105.956 45.2146 106.223 45.1514 106.494 45.1514C106.765 45.1514 107.032 45.2146 107.274 45.336C107.368 45.3689 107.449 45.4302 107.507 45.5113C107.564 45.5925 107.595 45.6895 107.595 45.789C107.595 45.8885 107.564 45.9855 107.507 46.0667C107.449 46.1478 107.368 46.2091 107.274 46.242C107.032 46.3634 106.765 46.4266 106.494 46.4266C106.223 46.4266 105.956 46.3634 105.714 46.242C105.62 46.2091 105.539 46.1478 105.481 46.0667C105.424 45.9855 105.393 45.8885 105.393 45.789C105.393 45.6895 105.424 45.5925 105.481 45.5113C105.539 45.4302 105.62 45.3689 105.714 45.336Z" fill="#007A8B"/>
<path d="M108.834 47.1421C109.075 47.0179 109.343 46.9531 109.614 46.9531C109.885 46.9531 110.153 47.0179 110.394 47.1421C110.489 47.1734 110.571 47.2338 110.629 47.3146C110.688 47.3953 110.719 47.4925 110.719 47.5921C110.719 47.6918 110.688 47.7889 110.629 47.8697C110.571 47.9505 110.489 48.0108 110.394 48.0421C110.152 48.1635 109.885 48.2267 109.614 48.2267C109.343 48.2267 109.076 48.1635 108.834 48.0421C108.739 48.0108 108.657 47.9505 108.599 47.8697C108.54 47.7889 108.509 47.6918 108.509 47.5921C108.509 47.4925 108.54 47.3953 108.599 47.3146C108.657 47.2338 108.739 47.1734 108.834 47.1421Z" fill="#263238"/>
<path d="M110.4 53.4C110.642 53.2785 110.909 53.2153 111.18 53.2153C111.451 53.2153 111.718 53.2785 111.96 53.4C112.392 53.652 112.392 54.054 111.96 54.3C111.719 54.4242 111.451 54.489 111.18 54.489C110.909 54.489 110.641 54.4242 110.4 54.3C109.98 54.066 109.98 53.664 110.4 53.4Z" fill="#007A8B"/>
<path d="M112.752 52.062C112.993 51.9378 113.261 51.873 113.532 51.873C113.803 51.873 114.071 51.9378 114.312 52.062C114.406 52.0934 114.489 52.1537 114.547 52.2345C114.606 52.3153 114.637 52.4124 114.637 52.512C114.637 52.6117 114.606 52.7088 114.547 52.7896C114.489 52.8704 114.406 52.9307 114.312 52.962C114.071 53.0863 113.803 53.1511 113.532 53.1511C113.261 53.1511 112.993 53.0863 112.752 52.962C112.657 52.9307 112.575 52.8704 112.517 52.7896C112.458 52.7088 112.427 52.6117 112.427 52.512C112.427 52.4124 112.458 52.3153 112.517 52.2345C112.575 52.1537 112.657 52.0934 112.752 52.062Z" fill="#263238"/>
<path d="M111.954 48.9419C112.196 48.8205 112.463 48.7573 112.734 48.7573C113.005 48.7573 113.272 48.8205 113.514 48.9419C113.608 48.9748 113.689 49.0361 113.747 49.1173C113.804 49.1984 113.835 49.2954 113.835 49.3949C113.835 49.4944 113.804 49.5915 113.747 49.6726C113.689 49.7538 113.608 49.815 113.514 49.8479C113.272 49.9693 113.005 50.0326 112.734 50.0326C112.463 50.0326 112.196 49.9693 111.954 49.8479C111.86 49.815 111.779 49.7538 111.721 49.6726C111.664 49.5915 111.633 49.4944 111.633 49.3949C111.633 49.2954 111.664 49.1984 111.721 49.1173C111.779 49.0361 111.86 48.9748 111.954 48.9419Z" fill="#263238"/>
<path d="M104.928 42.1859C105.17 42.0616 105.439 41.9968 105.711 41.9968C105.983 41.9968 106.252 42.0616 106.494 42.1859C106.589 42.2172 106.671 42.2775 106.729 42.3583C106.788 42.4391 106.819 42.5362 106.819 42.6359C106.819 42.7355 106.788 42.8327 106.729 42.9134C106.671 42.9942 106.589 43.0546 106.494 43.0859C106.252 43.2101 105.983 43.2749 105.711 43.2749C105.439 43.2749 105.17 43.2101 104.928 43.0859C104.833 43.0546 104.751 42.9942 104.693 42.9134C104.634 42.8327 104.603 42.7355 104.603 42.6359C104.603 42.5362 104.634 42.4391 104.693 42.3583C104.751 42.2775 104.833 42.2172 104.928 42.1859Z" fill="#007A8B"/>
<path d="M108.834 45.0721C108.224 45.0721 107.73 44.7873 107.73 44.436C107.73 44.0848 108.224 43.8 108.834 43.8C109.444 43.8 109.938 44.0848 109.938 44.436C109.938 44.7873 109.444 45.0721 108.834 45.0721Z" fill="#263238"/>
<path d="M111.174 45.792C111.415 45.6678 111.683 45.603 111.954 45.603C112.225 45.603 112.493 45.6678 112.734 45.792C113.166 46.038 113.166 46.44 112.734 46.692C112.492 46.8134 112.225 46.8767 111.954 46.8767C111.683 46.8767 111.416 46.8134 111.174 46.692C110.742 46.44 110.742 46.038 111.174 45.792Z" fill="#007A8B"/>
<path d="M114.294 47.5919C114.537 47.4705 114.805 47.4072 115.077 47.4072C115.349 47.4072 115.617 47.4705 115.86 47.5919C115.955 47.6232 116.037 47.6836 116.095 47.7644C116.154 47.8451 116.185 47.9423 116.185 48.0419C116.185 48.1416 116.154 48.2387 116.095 48.3195C116.037 48.4003 115.955 48.4606 115.86 48.4919C115.618 48.6162 115.349 48.681 115.077 48.681C114.805 48.681 114.536 48.6162 114.294 48.4919C114.199 48.4606 114.117 48.4003 114.059 48.3195C114 48.2387 113.969 48.1416 113.969 48.0419C113.969 47.9423 114 47.8451 114.059 47.7644C114.117 47.6836 114.199 47.6232 114.294 47.5919Z" fill="#263238"/>
<path d="M115.092 50.712C115.334 50.5878 115.603 50.5229 115.875 50.5229C116.147 50.5229 116.416 50.5878 116.658 50.712C116.753 50.7433 116.835 50.8036 116.893 50.8844C116.952 50.9652 116.983 51.0623 116.983 51.162C116.983 51.2617 116.952 51.3588 116.893 51.4396C116.835 51.5204 116.753 51.5807 116.658 51.612C116.416 51.7363 116.147 51.8011 115.875 51.8011C115.603 51.8011 115.334 51.7363 115.092 51.612C114.997 51.5807 114.915 51.5204 114.857 51.4396C114.798 51.3588 114.767 51.2617 114.767 51.162C114.767 51.0623 114.798 50.9652 114.857 50.8844C114.915 50.8036 114.997 50.7433 115.092 50.712Z" fill="#007A8B"/>
<path d="M117.438 49.3621C117.679 49.2379 117.947 49.1731 118.218 49.1731C118.489 49.1731 118.757 49.2379 118.998 49.3621C119.43 49.6081 119.43 50.0101 118.998 50.2621C118.756 50.3835 118.489 50.4467 118.218 50.4467C117.947 50.4467 117.68 50.3835 117.438 50.2621C117 50.0101 117 49.6081 117.438 49.3621Z" fill="#263238"/>
<path d="M111.786 57.0361V59.4361C111.542 59.4473 111.3 59.3935 111.084 59.2801L93.6839 49.2361C93.4866 49.1107 93.3219 48.9404 93.203 48.7392C93.0841 48.5379 93.0145 48.3114 92.9999 48.0781V47.2141C93.0123 47.0089 93.0672 46.8085 93.1612 46.6257C93.2552 46.4428 93.3862 46.2816 93.5459 46.1521C93.3059 46.3621 93.3479 46.6441 93.6659 46.8301L111.066 56.8801C111.287 56.9967 111.536 57.0506 111.786 57.0361Z" fill="#37474F"/>
<path d="M108.264 38.322C108.351 38.2127 108.474 38.1372 108.611 38.1088C108.748 38.0803 108.89 38.1005 109.014 38.166L124.17 46.89C124.228 46.92 124.278 46.9625 124.318 47.0144C124.357 47.0663 124.384 47.1264 124.398 47.1902C124.411 47.254 124.41 47.3199 124.394 47.3832C124.379 47.4465 124.349 47.5056 124.308 47.556C124.221 47.6654 124.098 47.7408 123.961 47.7693C123.824 47.7978 123.681 47.7775 123.558 47.712L108.408 39C108.348 38.9701 108.296 38.9273 108.256 38.8746C108.215 38.8219 108.187 38.7607 108.173 38.6956C108.159 38.6305 108.16 38.5632 108.176 38.4985C108.192 38.4338 108.222 38.3735 108.264 38.322Z" fill="#263238"/>
<path d="M108.264 38.322C108.351 38.2127 108.474 38.1372 108.611 38.1088C108.748 38.0803 108.89 38.1005 109.014 38.166L120.288 44.646L119.658 45.486L108.408 39C108.349 38.9701 108.297 38.9273 108.256 38.8746C108.215 38.8219 108.187 38.7607 108.173 38.6956C108.159 38.6305 108.16 38.5632 108.176 38.4985C108.192 38.4338 108.222 38.3735 108.264 38.322Z" fill="#007A8B"/>
<path d="M109.518 36.6421C109.605 36.5342 109.727 36.4597 109.862 36.4312C109.998 36.4028 110.139 36.4222 110.262 36.4861L125.4 45.2041C125.457 45.2355 125.507 45.2789 125.546 45.3314C125.584 45.3839 125.611 45.4442 125.624 45.5082C125.638 45.5721 125.637 45.6381 125.622 45.7016C125.607 45.7652 125.578 45.8247 125.538 45.8761C125.451 45.9854 125.328 46.0609 125.191 46.0894C125.054 46.1178 124.912 46.0976 124.788 46.0321L109.65 37.2901C109.596 37.2586 109.55 37.216 109.513 37.1653C109.477 37.1145 109.452 37.0567 109.439 36.9956C109.427 36.9344 109.427 36.8713 109.441 36.8104C109.455 36.7495 109.481 36.6922 109.518 36.6421Z" fill="#263238"/>
<path d="M109.518 36.6421C109.605 36.5342 109.726 36.4597 109.862 36.4312C109.998 36.4028 110.139 36.4222 110.262 36.4861L114.03 38.6581L113.4 39.4801L109.638 37.3081C109.582 37.2758 109.534 37.2317 109.497 37.179C109.46 37.1263 109.435 37.0662 109.424 37.0028C109.412 36.9395 109.415 36.8744 109.431 36.8121C109.447 36.7498 109.477 36.6918 109.518 36.6421Z" fill="#007A8B"/>
<path d="M110.772 34.9619C110.859 34.8526 110.982 34.7771 111.119 34.7487C111.256 34.7202 111.398 34.7404 111.522 34.8059L126.678 43.5239C126.735 43.5553 126.785 43.5987 126.824 43.6513C126.862 43.7038 126.889 43.7641 126.902 43.828C126.916 43.8919 126.915 43.9579 126.9 44.0215C126.885 44.085 126.856 44.1445 126.816 44.1959C126.729 44.3053 126.606 44.3807 126.469 44.4092C126.332 44.4377 126.19 44.4174 126.066 44.3519L110.928 35.6099C110.872 35.5805 110.823 35.5395 110.785 35.4897C110.746 35.4399 110.718 35.3825 110.704 35.3212C110.689 35.2599 110.687 35.1961 110.699 35.1342C110.711 35.0722 110.736 35.0135 110.772 34.9619Z" fill="#263238"/>
<path d="M110.772 34.9619C110.859 34.8526 110.982 34.7771 111.119 34.7487C111.256 34.7202 111.398 34.7404 111.522 34.8059L119.4 39.3239L118.77 40.1639L110.886 35.6279C110.831 35.5951 110.783 35.5507 110.747 35.4977C110.711 35.4448 110.686 35.3845 110.675 35.3212C110.664 35.2579 110.667 35.193 110.684 35.131C110.701 35.0689 110.731 35.0113 110.772 34.9619Z" fill="#007A8B"/>
<path d="M112.02 33.282C112.107 33.1726 112.23 33.0972 112.367 33.0687C112.504 33.0402 112.646 33.0605 112.77 33.126L127.926 41.844C127.983 41.8754 128.033 41.9188 128.072 41.9713C128.11 42.0238 128.137 42.0841 128.15 42.1481C128.164 42.212 128.163 42.278 128.148 42.3416C128.133 42.4051 128.104 42.4646 128.064 42.516C127.977 42.6253 127.854 42.7008 127.717 42.7293C127.58 42.7578 127.438 42.7375 127.314 42.672L112.176 33.93C112.12 33.9006 112.071 33.8596 112.033 33.8098C111.994 33.76 111.966 33.7026 111.952 33.6412C111.937 33.5799 111.935 33.5162 111.947 33.4542C111.959 33.3923 111.984 33.3336 112.02 33.282Z" fill="#263238"/>
<path d="M112.02 33.282C112.107 33.1726 112.23 33.0972 112.367 33.0687C112.504 33.0402 112.646 33.0605 112.77 33.126L126.534 41.04L125.904 41.88L112.164 33.948C112.106 33.9178 112.056 33.8753 112.017 33.8236C111.977 33.7719 111.95 33.7122 111.936 33.6487C111.922 33.5851 111.923 33.5194 111.937 33.456C111.952 33.3927 111.98 33.3333 112.02 33.282Z" fill="#007A8B"/>
<path d="M141.396 145.284C141.35 145.268 141.301 145.264 141.253 145.271C141.205 145.278 141.159 145.297 141.12 145.326C140.998 145.407 140.896 145.515 140.823 145.642C140.75 145.769 140.708 145.912 140.7 146.058C140.697 146.105 140.703 146.151 140.72 146.195C140.736 146.238 140.762 146.278 140.796 146.31L140.844 146.34L158.88 156.75L160.08 156.066L141.396 145.284Z" fill="#455A64"/>
<path d="M138.96 146.694C138.915 146.677 138.866 146.671 138.817 146.677C138.769 146.684 138.723 146.702 138.684 146.73C138.561 146.81 138.458 146.918 138.384 147.045C138.31 147.173 138.267 147.315 138.258 147.462C138.254 147.51 138.261 147.558 138.279 147.603C138.296 147.648 138.324 147.688 138.36 147.72L138.408 147.75L156.444 158.16L157.644 157.476L138.96 146.694Z" fill="#455A64"/>
<path d="M136.524 148.098C136.478 148.082 136.429 148.078 136.381 148.085C136.333 148.092 136.287 148.111 136.248 148.14C136.126 148.219 136.024 148.326 135.951 148.453C135.878 148.579 135.836 148.72 135.828 148.866C135.824 148.913 135.831 148.961 135.847 149.006C135.864 149.05 135.89 149.091 135.924 149.124L135.978 149.154L154.008 159.564L155.208 158.88L136.524 148.098Z" fill="#455A64"/>
<path d="M134.088 149.502C134.041 149.487 133.991 149.484 133.942 149.491C133.893 149.498 133.847 149.516 133.806 149.544C133.684 149.625 133.582 149.733 133.509 149.86C133.437 149.987 133.394 150.13 133.386 150.276C133.382 150.322 133.388 150.369 133.405 150.413C133.421 150.457 133.448 150.496 133.482 150.528L133.53 150.558L151.566 160.968L152.766 160.284L134.088 149.502Z" fill="#455A64"/>
<path d="M257.4 208.536C257.34 209.362 257.086 210.163 256.658 210.873C256.231 211.583 255.642 212.182 254.94 212.622L185.94 252.444C185.177 252.831 184.333 253.033 183.477 253.033C182.621 253.033 181.777 252.831 181.014 252.444L86.646 197.958C85.9026 197.565 85.2805 196.976 84.8466 196.256C84.4126 195.535 84.1834 194.71 84.1834 193.869C84.1834 193.028 84.4126 192.203 84.8466 191.482C85.2805 190.762 85.9026 190.173 86.646 189.78L155.622 149.958C156.385 149.573 157.228 149.373 158.082 149.373C158.936 149.373 159.779 149.573 160.542 149.958L254.916 204.444C255.623 204.882 256.217 205.481 256.649 206.192C257.081 206.903 257.338 207.706 257.4 208.536Z" fill="#007A8B"/>
<path opacity="0.7" d="M183.48 247.704V253.032C184.34 253.045 185.188 252.838 185.946 252.432L254.916 212.622C255.639 212.243 256.249 211.679 256.683 210.987C257.116 210.295 257.358 209.501 257.384 208.685C257.41 207.869 257.218 207.06 256.829 206.343C256.439 205.625 255.866 205.024 255.168 204.6C256.272 205.392 256.188 206.55 254.916 207.282L185.916 247.104C185.168 247.508 184.33 247.714 183.48 247.704Z" fill="black"/>
<path d="M259.686 204.534C260.375 204.066 260.944 203.442 261.346 202.712C261.747 201.982 261.97 201.167 261.996 200.334V118.05C261.949 117.197 261.702 116.366 261.275 115.626C260.847 114.886 260.252 114.257 259.536 113.79L165.162 59.3041C164.45 58.8577 163.63 58.6138 162.789 58.5984C161.949 58.5831 161.121 58.7969 160.393 59.217C159.665 59.6371 159.065 60.2475 158.658 60.9828C158.251 61.718 158.052 62.5502 158.082 63.3901V145.698C158.128 146.552 158.374 147.382 158.802 148.123C159.229 148.863 159.826 149.492 160.542 149.958L254.916 204.444C255.648 204.833 256.461 205.044 257.29 205.06C258.119 205.076 258.94 204.895 259.686 204.534Z" fill="#007A8B"/>
<path opacity="0.7" d="M255.21 204.6C255.915 204.917 256.681 205.076 257.455 205.066C258.228 205.056 258.989 204.876 259.686 204.54C260.375 204.072 260.944 203.447 261.345 202.717C261.747 201.987 261.97 201.173 261.996 200.34V118.05C261.963 117.202 261.715 116.376 261.276 115.65L256.656 118.314C257.097 119.04 257.347 119.866 257.382 120.714V203.028C257.4 204.48 256.428 205.134 255.21 204.6Z" fill="black"/>
<path opacity="0.5" d="M257.4 120.72V203.028C257.4 204.594 256.302 205.23 254.94 204.444L160.566 149.958C159.85 149.492 159.253 148.863 158.826 148.123C158.398 147.382 158.152 146.552 158.106 145.698V63.39C158.106 61.818 159.21 61.182 160.566 61.968L254.916 116.454C255.637 116.919 256.238 117.547 256.67 118.289C257.102 119.03 257.352 119.863 257.4 120.72Z" fill="black"/>
<path d="M254.916 207.288L185.916 247.11C185.153 247.497 184.309 247.699 183.453 247.699C182.597 247.699 181.753 247.497 180.99 247.11L86.652 192.6C85.29 191.814 85.29 190.542 86.652 189.756L155.622 149.958C156.385 149.573 157.228 149.373 158.082 149.373C158.936 149.373 159.779 149.573 160.542 149.958L254.916 204.444C256.278 205.23 256.278 206.502 254.916 207.288Z" fill="#007A8B"/>
<path opacity="0.3" d="M254.916 207.288L185.916 247.11C185.153 247.497 184.309 247.699 183.453 247.699C182.597 247.699 181.753 247.497 180.99 247.11L86.652 192.6C85.29 191.814 85.29 190.542 86.652 189.756L155.622 149.958C156.385 149.573 157.228 149.373 158.082 149.373C158.936 149.373 159.779 149.573 160.542 149.958L254.916 204.444C256.278 205.23 256.278 206.502 254.916 207.288Z" fill="black"/>
<path d="M253.59 121.02L162.6 68.5021C161.784 68.0341 161.124 68.4181 161.124 69.3601V140.61C161.152 141.122 161.3 141.62 161.557 142.064C161.813 142.509 162.171 142.886 162.6 143.166L253.59 195.684C254.406 196.152 255.072 195.774 255.072 194.832V123.6C255.046 123.084 254.898 122.581 254.64 122.133C254.383 121.684 254.023 121.303 253.59 121.02Z" fill="#FAFAFA"/>
<path d="M193.56 109.902L194.16 126.354C194.16 133.128 198.414 145.362 207.168 154.404C207.796 155.005 208.591 155.402 209.448 155.544C209.892 155.586 210.318 155.604 210.738 155.604C212.61 155.632 214.457 155.164 216.09 154.248L216.144 154.218L216.246 154.152C220.14 151.8 222.06 147 222.06 142.476L222.66 126.75C222.664 126.325 222.505 125.915 222.216 125.604C222.001 125.349 221.733 125.144 221.43 125.004C217.422 123.204 211.416 116.13 208.596 109.128C208.392 108.63 208.092 108.468 207.756 108.624L207.708 108.654C207.593 108.719 207.49 108.802 207.402 108.9L207.348 108.966C204.348 112.446 198.474 112.44 194.55 109.44C194.25 109.212 194.004 109.14 193.836 109.212C193.632 109.332 193.548 109.548 193.56 109.902Z" fill="#007A8B"/>
<path opacity="0.2" d="M208.098 108.6C208.211 108.647 208.312 108.719 208.394 108.811C208.476 108.902 208.537 109.01 208.572 109.128C211.392 116.13 217.398 123.228 221.406 125.004C221.709 125.144 221.977 125.349 222.192 125.604C222.481 125.915 222.64 126.325 222.636 126.75L222.036 142.476C222.036 147.018 220.116 151.818 216.204 154.152L216.102 154.218L216.048 154.248C214.415 155.164 212.568 155.632 210.696 155.604C210.276 155.604 209.85 155.604 209.406 155.544C208.937 155.479 208.485 155.324 208.074 155.088L208.098 108.6Z" fill="black"/>
<path opacity="0.3" d="M246.912 205.158L159.312 154.584C158.931 154.392 158.509 154.291 158.082 154.291C157.655 154.291 157.233 154.392 156.852 154.584L152.37 157.17C152.221 157.22 152.092 157.316 152 157.443C151.908 157.571 151.859 157.724 151.859 157.881C151.859 158.038 151.908 158.191 152 158.319C152.092 158.447 152.221 158.542 152.37 158.592L240 209.16C240.381 209.353 240.803 209.453 241.23 209.453C241.657 209.453 242.079 209.353 242.46 209.16L246.93 206.58C247.078 206.528 247.207 206.431 247.297 206.302C247.387 206.174 247.434 206.02 247.432 205.863C247.43 205.705 247.379 205.553 247.286 205.426C247.192 205.3 247.062 205.206 246.912 205.158Z" fill="black"/>
<path opacity="0.3" d="M235.362 211.8L147.762 161.226C147.381 161.031 146.96 160.929 146.532 160.929C146.104 160.929 145.683 161.031 145.302 161.226L117.744 177.138C117.595 177.188 117.466 177.284 117.374 177.411C117.282 177.539 117.233 177.692 117.233 177.849C117.233 178.006 117.282 178.159 117.374 178.287C117.466 178.415 117.595 178.51 117.744 178.56L205.242 229.086C205.625 229.278 206.047 229.378 206.475 229.378C206.903 229.378 207.325 229.278 207.708 229.086L235.362 213.24C235.521 213.199 235.663 213.105 235.763 212.975C235.864 212.845 235.919 212.685 235.919 212.52C235.919 212.355 235.864 212.195 235.763 212.065C235.663 211.935 235.521 211.842 235.362 211.8Z" fill="black"/>
<path d="M156.84 184.002L154.098 182.418C153.984 182.352 153.99 182.238 154.098 182.166L157.266 180.336C157.334 180.302 157.409 180.285 157.485 180.285C157.561 180.285 157.636 180.302 157.704 180.336L160.446 181.92C160.566 181.992 160.56 182.1 160.446 182.172L157.272 184.008C157.204 184.04 157.13 184.056 157.055 184.055C156.98 184.054 156.907 184.036 156.84 184.002ZM162.24 177.714L165 179.292C165.12 179.364 165.114 179.472 165 179.55L161.826 181.38C161.758 181.414 161.683 181.431 161.607 181.431C161.531 181.431 161.456 181.414 161.388 181.38L158.646 179.796C158.532 179.73 158.538 179.616 158.646 179.544L161.814 177.714C161.882 177.679 161.957 177.66 162.033 177.66C162.109 177.66 162.184 177.679 162.252 177.714H162.24ZM171.102 182.826L175.746 185.508C175.86 185.574 175.854 185.688 175.746 185.76L172.572 187.56C172.505 187.594 172.431 187.611 172.356 187.611C172.281 187.611 172.207 187.594 172.14 187.56L167.496 184.878C167.382 184.812 167.388 184.698 167.496 184.626L170.664 182.826C170.734 182.79 170.811 182.772 170.889 182.772C170.967 182.772 171.044 182.79 171.114 182.826H171.102ZM166.26 180L169.008 181.584C169.122 181.65 169.116 181.764 169.008 181.836L165.834 183.636C165.766 183.67 165.691 183.687 165.615 183.687C165.539 183.687 165.464 183.67 165.396 183.636L162.654 182.052C162.54 181.986 162.546 181.872 162.654 181.8L165.822 179.97C165.892 179.941 165.969 179.928 166.045 179.933C166.121 179.939 166.194 179.961 166.26 180ZM177 186.24L179.766 187.8C179.88 187.872 179.874 187.986 179.766 188.058L176.598 189.888C176.53 189.922 176.455 189.939 176.379 189.939C176.303 189.939 176.228 189.922 176.16 189.888L173.418 188.304C173.298 188.238 173.304 188.124 173.418 188.052L176.592 186.252C176.655 186.22 176.724 186.202 176.795 186.2C176.865 186.198 176.935 186.211 177 186.24ZM181.008 188.55L183.75 190.134C183.864 190.2 183.858 190.314 183.75 190.386L180.582 192.216C180.514 192.251 180.439 192.27 180.363 192.27C180.287 192.27 180.212 192.251 180.144 192.216L177.402 190.632C177.282 190.566 177.288 190.452 177.402 190.38L180.6 188.562C180.666 188.527 180.74 188.508 180.815 188.506C180.889 188.504 180.964 188.519 181.032 188.55H181.008ZM168.534 195.996L165.786 194.412C165.672 194.346 165.678 194.232 165.786 194.16L168.96 192.33C169.028 192.295 169.103 192.276 169.179 192.276C169.255 192.276 169.33 192.295 169.398 192.33L172.2 193.908C172.314 193.974 172.308 194.088 172.2 194.16L169.032 195.96C168.962 196.006 168.883 196.033 168.8 196.039C168.717 196.045 168.634 196.031 168.558 195.996H168.534ZM172.542 198.312L169.8 196.728C169.68 196.662 169.686 196.548 169.8 196.476L172.974 194.676C173.042 194.642 173.117 194.625 173.193 194.625C173.269 194.625 173.344 194.642 173.412 194.676L176.19 196.2C176.304 196.266 176.298 196.38 176.19 196.452L173.022 198.288C172.954 198.329 172.876 198.352 172.797 198.356C172.718 198.36 172.638 198.345 172.566 198.312H172.542ZM176.55 200.628L173.808 199.044C173.688 198.978 173.694 198.864 173.808 198.792L177 196.962C177.068 196.927 177.143 196.908 177.219 196.908C177.295 196.908 177.37 196.927 177.438 196.962L180.18 198.546C180.294 198.612 180.288 198.726 180.18 198.798L177.012 200.628C176.944 200.662 176.869 200.679 176.793 200.679C176.717 200.679 176.642 200.662 176.574 200.628H176.55ZM180.6 202.938L177.858 201.36C177.738 201.288 177.75 201.174 177.858 201.102L181.032 199.272C181.1 199.238 181.175 199.221 181.251 199.221C181.327 199.221 181.402 199.238 181.47 199.272L184.2 200.85C184.314 200.916 184.308 201.03 184.2 201.102L181.032 202.932C180.966 202.967 180.892 202.986 180.817 202.987C180.742 202.988 180.667 202.971 180.6 202.938ZM160.866 186.318L158.124 184.734C158.01 184.668 158.016 184.554 158.124 184.482L161.292 182.652C161.36 182.618 161.435 182.601 161.511 182.601C161.587 182.601 161.662 182.618 161.73 182.652L164.472 184.2C164.592 184.266 164.586 184.38 164.472 184.452L161.298 186.282C161.231 186.323 161.156 186.348 161.077 186.355C160.999 186.361 160.92 186.348 160.848 186.318H160.866ZM164.568 193.686L158.448 190.152C158.328 190.086 158.34 189.972 158.448 189.9L166.152 185.454C166.22 185.42 166.295 185.403 166.371 185.403C166.447 185.403 166.522 185.42 166.59 185.454L169.752 187.284C169.872 187.35 169.866 187.464 169.752 187.536L165.672 189.888C165.546 189.96 165.54 190.074 165.672 190.14L168.204 191.604C168.318 191.67 168.312 191.784 168.204 191.856L165.03 193.686C164.957 193.728 164.874 193.75 164.79 193.75C164.706 193.75 164.623 193.728 164.55 193.686H164.568ZM185.058 190.866L187.8 192.45C187.914 192.516 187.908 192.63 187.8 192.702L184.632 194.532C184.564 194.566 184.489 194.583 184.413 194.583C184.337 194.583 184.262 194.566 184.194 194.532L181.452 192.948C181.332 192.882 181.338 192.768 181.452 192.696L184.626 190.866C184.691 190.835 184.761 190.818 184.833 190.818C184.905 190.818 184.976 190.835 185.04 190.866H185.058ZM189.048 193.2L191.79 194.784C191.904 194.85 191.898 194.964 191.79 195.036L188.622 196.866C188.554 196.901 188.479 196.92 188.403 196.92C188.327 196.92 188.252 196.901 188.184 196.866L185.442 195.288C185.322 195.216 185.334 195.102 185.442 195.03L188.616 193.23C188.681 193.192 188.754 193.17 188.829 193.165C188.903 193.16 188.978 193.172 189.048 193.2ZM209.076 219.15C209.008 219.185 208.933 219.204 208.857 219.204C208.781 219.204 208.706 219.185 208.638 219.15L205.896 217.572C205.782 217.5 205.788 217.386 205.896 217.314L209.07 215.484C209.137 215.45 209.211 215.432 209.286 215.432C209.361 215.432 209.435 215.45 209.502 215.484L212.25 217.068C212.364 217.134 212.358 217.248 212.25 217.32L209.076 219.15ZM221.118 211.716L223.86 213.294C223.974 213.366 223.968 213.474 223.86 213.552L220.692 215.382C220.624 215.416 220.549 215.433 220.473 215.433C220.397 215.433 220.322 215.416 220.254 215.382L217.512 213.798C217.392 213.732 217.398 213.618 217.512 213.546L220.686 211.716C220.751 211.679 220.825 211.658 220.9 211.655C220.975 211.652 221.05 211.667 221.118 211.698V211.716ZM214.662 217.146C214.594 217.18 214.519 217.197 214.443 217.197C214.367 217.197 214.292 217.18 214.224 217.146L211.482 215.562C211.368 215.496 211.374 215.382 211.482 215.31L214.65 213.48C214.718 213.446 214.793 213.429 214.869 213.429C214.945 213.429 215.02 213.446 215.088 213.48L217.83 215.064C217.95 215.136 217.944 215.244 217.83 215.316L214.662 217.146ZM202.002 220.554L199.26 218.976C199.14 218.904 199.146 218.79 199.26 218.718L202.434 216.888C202.502 216.854 202.577 216.837 202.653 216.837C202.729 216.837 202.804 216.854 202.872 216.888L205.614 218.472C205.728 218.538 205.722 218.652 205.614 218.724L202.446 220.554C202.376 220.588 202.299 220.603 202.222 220.6C202.144 220.597 202.069 220.575 202.002 220.536V220.554ZM206.448 222.864C206.38 222.898 206.305 222.915 206.229 222.915C206.153 222.915 206.078 222.898 206.01 222.864L203.268 221.28C203.148 221.214 203.16 221.1 203.268 221.028L206.442 219.198C206.51 219.164 206.585 219.147 206.661 219.147C206.737 219.147 206.812 219.164 206.88 219.198L209.622 220.782C209.736 220.854 209.73 220.962 209.622 221.034L206.448 222.864ZM217.11 209.4L219.852 210.984C219.966 211.05 219.96 211.164 219.852 211.236L216.678 213.066C216.611 213.101 216.537 213.12 216.462 213.12C216.387 213.12 216.313 213.101 216.246 213.066L213.498 211.488C213.384 211.416 213.39 211.308 213.498 211.23L216.672 209.43C216.738 209.391 216.811 209.369 216.887 209.363C216.963 209.358 217.04 209.371 217.11 209.4ZM197.064 197.826L199.8 199.392C199.92 199.458 199.908 199.572 199.8 199.644L196.626 201.474C196.558 201.508 196.483 201.525 196.407 201.525C196.331 201.525 196.256 201.508 196.188 201.474L193.446 199.89C193.332 199.824 193.338 199.71 193.446 199.638L196.614 197.808C196.684 197.772 196.761 197.754 196.839 197.754C196.917 197.754 196.994 197.772 197.064 197.808V197.826ZM213.096 207.084L215.844 208.668C215.958 208.734 215.952 208.848 215.844 208.92L212.67 210.75C212.602 210.784 212.527 210.801 212.451 210.801C212.375 210.801 212.3 210.784 212.232 210.75L209.49 209.166C209.376 209.1 209.382 208.986 209.49 208.914L212.664 207.084C212.73 207.047 212.803 207.027 212.878 207.024C212.953 207.02 213.028 207.035 213.096 207.066V207.084ZM193.056 195.51L195.798 197.094C195.918 197.166 195.906 197.274 195.798 197.346L192.624 199.182C192.556 199.216 192.481 199.233 192.405 199.233C192.329 199.233 192.254 199.216 192.186 199.182L189.444 197.598C189.324 197.532 189.336 197.418 189.444 197.346L192.6 195.504C192.669 195.465 192.747 195.444 192.827 195.442C192.906 195.44 192.985 195.457 193.056 195.492V195.51ZM201.072 200.142L203.814 201.726C203.934 201.792 203.928 201.906 203.814 201.978L200.64 203.778C200.572 203.812 200.497 203.829 200.421 203.829C200.345 203.829 200.27 203.812 200.202 203.778L197.46 202.194C197.346 202.122 197.352 202.014 197.46 201.942L200.628 200.106C200.698 200.074 200.775 200.059 200.852 200.062C200.929 200.065 201.005 200.086 201.072 200.124V200.142ZM205.08 202.458L207.822 204C207.942 204.066 207.936 204.18 207.822 204.252L204.648 206.082C204.58 206.117 204.505 206.136 204.429 206.136C204.353 206.136 204.278 206.117 204.21 206.082L201.468 204.498C201.354 204.432 201.36 204.318 201.468 204.246L204.636 202.446C204.704 202.409 204.78 202.389 204.857 202.388C204.935 202.387 205.011 202.405 205.08 202.44V202.458ZM209.088 204.768L211.8 206.334C211.92 206.4 211.914 206.514 211.8 206.586L208.626 208.422C208.558 208.456 208.483 208.473 208.407 208.473C208.331 208.473 208.256 208.456 208.188 208.422L205.446 206.838C205.332 206.772 205.338 206.658 205.446 206.586L208.614 204.756C208.686 204.715 208.767 204.693 208.85 204.692C208.933 204.691 209.015 204.711 209.088 204.75V204.768ZM188.598 207.588L185.856 206.004C185.742 205.938 185.748 205.824 185.856 205.752L189.024 203.922C189.092 203.888 189.167 203.871 189.243 203.871C189.319 203.871 189.394 203.888 189.462 203.922L192.204 205.506C192.324 205.572 192.312 205.686 192.204 205.758L189.03 207.588C188.964 207.623 188.89 207.642 188.815 207.644C188.741 207.646 188.666 207.631 188.598 207.6V207.588ZM153.39 172.614L156.138 174.198C156.252 174.264 156.246 174.378 156.138 174.45L152.964 176.25C152.896 176.284 152.821 176.301 152.745 176.301C152.669 176.301 152.594 176.284 152.526 176.25L149.784 174.666C149.67 174.594 149.676 174.486 149.784 174.414L152.958 172.578C153.026 172.547 153.101 172.532 153.176 172.535C153.251 172.538 153.325 172.559 153.39 172.596V172.614ZM158.244 175.416L160.986 177C161.106 177.066 161.1 177.18 160.986 177.252L157.812 179.082C157.744 179.117 157.669 179.136 157.593 179.136C157.517 179.136 157.442 179.117 157.374 179.082L154.632 177.504C154.518 177.432 154.524 177.318 154.632 177.246L157.8 175.404C157.868 175.368 157.944 175.349 158.021 175.348C158.098 175.347 158.175 175.364 158.244 175.398V175.416ZM149.4 170.28L152.142 171.864C152.262 171.93 152.256 172.044 152.142 172.116L148.968 173.946C148.9 173.98 148.825 173.997 148.749 173.997C148.673 173.997 148.598 173.98 148.53 173.946L145.788 172.362C145.674 172.296 145.68 172.182 145.788 172.11L148.956 170.28C149.025 170.245 149.101 170.227 149.178 170.227C149.255 170.227 149.331 170.245 149.4 170.28ZM170.148 191.676L167.406 190.092C167.292 190.026 167.298 189.912 167.406 189.84L170.574 188.04C170.642 188.006 170.717 187.989 170.793 187.989C170.869 187.989 170.944 188.006 171.012 188.04L173.76 189.6C173.874 189.672 173.868 189.78 173.76 189.852L170.586 191.688C170.515 191.723 170.436 191.74 170.357 191.738C170.277 191.736 170.199 191.715 170.13 191.676H170.148ZM144.948 167.976C145.016 167.942 145.091 167.925 145.167 167.925C145.243 167.925 145.318 167.942 145.386 167.976L148.128 169.56C148.248 169.632 148.242 169.74 148.128 169.812L144.954 171.648C144.886 171.682 144.811 171.699 144.735 171.699C144.659 171.699 144.584 171.682 144.516 171.648L141.774 170.064C141.66 169.998 141.666 169.884 141.774 169.812L144.948 167.976ZM184.602 205.254L181.86 203.67C181.74 203.604 181.752 203.49 181.86 203.418L185.034 201.618C185.102 201.584 185.177 201.567 185.253 201.567C185.329 201.567 185.404 201.584 185.472 201.618L188.214 203.202C188.334 203.274 188.322 203.382 188.214 203.454L185.046 205.29C184.973 205.321 184.893 205.334 184.814 205.328C184.734 205.322 184.657 205.296 184.59 205.254H184.602ZM135.444 176.874L132.702 175.29C132.588 175.224 132.594 175.11 132.702 175.038L135.87 173.208C135.938 173.174 136.013 173.157 136.089 173.157C136.165 173.157 136.24 173.174 136.308 173.208L139.05 174.792C139.17 174.858 139.158 174.972 139.05 175.044L135.876 176.844C135.81 176.885 135.735 176.909 135.658 176.914C135.58 176.92 135.503 176.906 135.432 176.874H135.444ZM143.982 176.574L141.24 174.99C141.126 174.924 141.132 174.81 141.24 174.738L144.408 172.908C144.476 172.874 144.551 172.857 144.627 172.857C144.703 172.857 144.778 172.874 144.846 172.908L147.6 174.48C147.72 174.546 147.714 174.66 147.6 174.732L144.426 176.532C144.359 176.575 144.283 176.602 144.203 176.609C144.124 176.617 144.044 176.605 143.97 176.574H143.982ZM140.418 170.574C140.486 170.54 140.561 170.523 140.637 170.523C140.713 170.523 140.788 170.54 140.856 170.574L143.598 172.158C143.718 172.23 143.712 172.338 143.598 172.41L140.424 174.246C140.356 174.28 140.281 174.297 140.205 174.297C140.129 174.297 140.054 174.28 139.986 174.246L137.244 172.662C137.13 172.596 137.136 172.482 137.244 172.41L140.418 170.574ZM139.578 170.088L131.874 174.534C131.806 174.569 131.731 174.588 131.655 174.588C131.579 174.588 131.504 174.569 131.436 174.534L128.694 172.95C128.574 172.884 128.586 172.77 128.694 172.698L136.398 168.252C136.466 168.217 136.541 168.198 136.617 168.198C136.693 168.198 136.768 168.217 136.836 168.252L139.578 169.836C139.698 169.92 139.686 170.034 139.566 170.106L139.578 170.088ZM148.86 175.2L151.602 176.784C151.722 176.85 151.716 176.964 151.602 177.036L148.428 178.866C148.36 178.901 148.285 178.92 148.209 178.92C148.133 178.92 148.058 178.901 147.99 178.866L145.248 177.288C145.134 177.216 145.14 177.108 145.248 177.03L148.422 175.2C148.49 175.166 148.565 175.149 148.641 175.149C148.717 175.149 148.792 175.166 148.86 175.2ZM179.034 192.6L181.8 194.214C181.914 194.28 181.908 194.394 181.8 194.466L178.632 196.296C178.564 196.33 178.489 196.347 178.413 196.347C178.337 196.347 178.262 196.33 178.194 196.296L175.452 194.712C175.332 194.64 175.338 194.532 175.452 194.46L178.626 192.624C178.69 192.596 178.76 192.582 178.831 192.583C178.901 192.584 178.97 192.6 179.034 192.63V192.6ZM139.878 179.148C139.81 179.182 139.735 179.199 139.659 179.199C139.583 179.199 139.508 179.182 139.44 179.148L136.698 177.564C136.584 177.498 136.59 177.384 136.698 177.312L139.866 175.512C139.934 175.477 140.009 175.458 140.085 175.458C140.161 175.458 140.236 175.477 140.304 175.512L143.046 177.096C143.166 177.162 143.16 177.276 143.046 177.348L139.878 179.148ZM175.026 190.284L177.768 191.868C177.882 191.934 177.876 192.048 177.768 192.12L174.6 193.98C174.533 194.014 174.459 194.031 174.384 194.031C174.309 194.031 174.235 194.014 174.168 193.98L171.42 192.396C171.306 192.33 171.312 192.216 171.42 192.144L174.6 190.326C174.666 190.292 174.738 190.274 174.812 190.271C174.885 190.269 174.959 190.284 175.026 190.314V190.284ZM205.068 216.786C205 216.82 204.925 216.837 204.849 216.837C204.773 216.837 204.698 216.82 204.63 216.786L201.888 215.202C201.774 215.136 201.78 215.022 201.888 214.95L205.056 213.12C205.124 213.086 205.199 213.069 205.275 213.069C205.351 213.069 205.426 213.086 205.494 213.12L208.236 214.704C208.356 214.77 208.35 214.884 208.236 214.956L205.068 216.786ZM211.098 211.116L213.84 212.7C213.96 212.766 213.954 212.88 213.84 212.952L210.666 214.752C210.598 214.787 210.523 214.806 210.447 214.806C210.371 214.806 210.296 214.787 210.228 214.752L207.486 213.168C207.372 213.102 207.378 212.988 207.486 212.916L210.654 211.086C210.727 211.059 210.806 211.05 210.884 211.06C210.961 211.071 211.035 211.1 211.098 211.146V211.116ZM200.622 214.482L197.88 212.898C197.766 212.832 197.772 212.718 197.88 212.646L201.048 210.846C201.116 210.812 201.191 210.795 201.267 210.795C201.343 210.795 201.418 210.812 201.486 210.846L204.246 212.4C204.366 212.466 204.36 212.58 204.246 212.652L201.072 214.488C201.004 214.528 200.928 214.55 200.85 214.555C200.772 214.559 200.694 214.544 200.622 214.512V214.482ZM196.614 212.166L193.872 210.582C193.758 210.516 193.764 210.402 193.872 210.33L197.04 208.5C197.108 208.465 197.183 208.446 197.259 208.446C197.335 208.446 197.41 208.465 197.478 208.5L200.22 210.084C200.34 210.15 200.334 210.264 200.22 210.336L197.046 212.136C196.984 212.18 196.912 212.208 196.837 212.219C196.762 212.229 196.686 212.221 196.614 212.196V212.166ZM192.606 209.856L189.864 208.272C189.75 208.2 189.756 208.092 189.864 208.02L193.032 206.184C193.1 206.15 193.175 206.133 193.251 206.133C193.327 206.133 193.402 206.15 193.47 206.184L196.2 207.792C196.32 207.858 196.314 207.972 196.2 208.044L193.026 209.874C192.96 209.908 192.888 209.926 192.814 209.929C192.741 209.931 192.667 209.916 192.6 209.886L192.606 209.856ZM207.09 208.8L209.832 210.384C209.952 210.45 209.946 210.564 209.832 210.636L206.658 212.466C206.59 212.5 206.515 212.517 206.439 212.517C206.363 212.517 206.288 212.5 206.22 212.466L203.478 210.882C203.364 210.81 203.37 210.702 203.478 210.63L206.646 208.794C206.718 208.765 206.795 208.753 206.872 208.759C206.949 208.765 207.024 208.79 207.09 208.83V208.8ZM203.082 206.484L205.8 208.098C205.92 208.164 205.914 208.278 205.8 208.35L202.626 210.18C202.558 210.214 202.483 210.231 202.407 210.231C202.331 210.231 202.256 210.214 202.188 210.18L199.446 208.596C199.332 208.53 199.338 208.416 199.446 208.344L202.614 206.514C202.686 206.475 202.766 206.455 202.848 206.455C202.93 206.455 203.01 206.475 203.082 206.514V206.484ZM187.05 197.226L189.792 198.81C189.906 198.876 189.9 198.99 189.792 199.062L186.624 200.892C186.556 200.927 186.481 200.946 186.405 200.946C186.329 200.946 186.254 200.927 186.186 200.892L183.444 199.308C183.324 199.242 183.33 199.128 183.444 199.056L186.6 197.268C186.669 197.23 186.745 197.21 186.824 197.208C186.902 197.205 186.979 197.222 187.05 197.256V197.226ZM191.058 199.542L193.8 201.156C193.914 201.222 193.908 201.336 193.8 201.408L190.632 203.238C190.564 203.272 190.489 203.289 190.413 203.289C190.337 203.289 190.262 203.272 190.194 203.238L187.452 201.654C187.332 201.588 187.338 201.474 187.452 201.402L190.626 199.572C190.693 199.538 190.767 199.52 190.842 199.52C190.917 199.52 190.991 199.538 191.058 199.572V199.542ZM183.042 194.916L185.784 196.494C185.898 196.566 185.892 196.68 185.784 196.752L182.616 198.552C182.548 198.586 182.473 198.603 182.397 198.603C182.321 198.603 182.246 198.586 182.178 198.552L179.436 196.968C179.316 196.902 179.322 196.788 179.436 196.716L182.61 194.886C182.682 194.861 182.758 194.853 182.833 194.863C182.909 194.874 182.98 194.902 183.042 194.946V194.916ZM199.074 204.168L201.816 205.8C201.936 205.872 201.924 205.98 201.816 206.052L198.642 207.888C198.574 207.922 198.499 207.939 198.423 207.939C198.347 207.939 198.272 207.922 198.204 207.888L195.462 206.304C195.348 206.238 195.354 206.124 195.462 206.052L198.63 204.252C198.694 204.209 198.768 204.181 198.846 204.172C198.923 204.162 199.001 204.171 199.074 204.198V204.168ZM195.066 201.858L197.808 203.442C197.922 203.508 197.916 203.622 197.808 203.694L194.64 205.494C194.572 205.529 194.497 205.548 194.421 205.548C194.345 205.548 194.27 205.529 194.202 205.494L191.46 203.916C191.34 203.844 191.352 203.73 191.46 203.658L194.634 201.828C194.706 201.804 194.782 201.797 194.857 201.808C194.932 201.818 195.003 201.845 195.066 201.888V201.858ZM198 218.226L195.258 216.642C195.138 216.576 195.144 216.462 195.258 216.39L198.432 214.59C198.5 214.555 198.575 214.536 198.651 214.536C198.727 214.536 198.802 214.555 198.87 214.59L201.6 216.132C201.714 216.198 201.708 216.312 201.6 216.384L198.432 218.214C198.366 218.249 198.292 218.268 198.217 218.27C198.143 218.272 198.068 218.257 198 218.226ZM221.52 215.826L224.694 213.996C224.762 213.962 224.837 213.945 224.913 213.945C224.989 213.945 225.064 213.962 225.132 213.996L227.874 215.58C227.988 215.646 227.982 215.76 227.874 215.832L224.706 217.662C224.638 217.696 224.563 217.713 224.487 217.713C224.411 217.713 224.336 217.696 224.268 217.662L221.526 216.078C221.4 216.036 221.4 215.922 221.514 215.85L221.52 215.826ZM215.52 217.59L218.694 215.76C218.761 215.726 218.835 215.709 218.91 215.709C218.985 215.709 219.059 215.726 219.126 215.76L223.326 218.196C223.44 218.262 223.434 218.376 223.326 218.448L220.158 220.248C220.09 220.282 220.015 220.299 219.939 220.299C219.863 220.299 219.788 220.282 219.72 220.248L215.52 217.812C215.4 217.8 215.4 217.686 215.508 217.614L215.52 217.59ZM226.392 212.286L229.566 210.456C229.634 210.422 229.709 210.405 229.785 210.405C229.861 210.405 229.936 210.422 230.004 210.456L233.364 212.4C233.484 212.466 233.478 212.58 233.364 212.652L230.19 214.482C230.122 214.516 230.047 214.533 229.971 214.533C229.895 214.533 229.82 214.516 229.752 214.482L226.38 212.532C226.248 212.496 226.254 212.4 226.38 212.31L226.392 212.286ZM223.806 210.792C223.738 210.827 223.663 210.846 223.587 210.846C223.511 210.846 223.436 210.827 223.368 210.792L220.626 209.208C220.506 209.142 220.518 209.028 220.626 208.956L223.8 207.156C223.868 207.122 223.943 207.105 224.019 207.105C224.095 207.105 224.17 207.122 224.238 207.156L226.98 208.74C227.094 208.806 227.088 208.92 226.98 208.992L223.806 210.792ZM209.922 219.6L213.096 217.8C213.164 217.765 213.239 217.746 213.315 217.746C213.391 217.746 213.466 217.765 213.534 217.8L218.808 220.8C218.922 220.866 218.916 220.98 218.808 221.052L215.634 222.882C215.567 222.916 215.493 222.933 215.418 222.933C215.343 222.933 215.269 222.916 215.202 222.882L209.922 219.834C209.79 219.804 209.796 219.69 209.922 219.6ZM207.288 223.314L210.462 221.484C210.53 221.45 210.605 221.433 210.681 221.433C210.757 221.433 210.832 221.45 210.9 221.484L214.278 223.434C214.392 223.5 214.386 223.614 214.278 223.686L211.104 225.516C211.036 225.55 210.961 225.567 210.885 225.567C210.809 225.567 210.734 225.55 210.666 225.516L207.294 223.566C207.156 223.518 207.168 223.404 207.288 223.332V223.314ZM193.992 193.59C193.924 193.624 193.849 193.641 193.773 193.641C193.697 193.641 193.622 193.624 193.554 193.59L190.812 192.006C190.692 191.934 190.698 191.826 190.812 191.754L193.986 189.918C194.054 189.884 194.129 189.867 194.205 189.867C194.281 189.867 194.356 189.884 194.424 189.918L197.166 191.502C197.28 191.568 197.274 191.682 197.166 191.754L193.992 193.59ZM202.008 198.216C201.94 198.251 201.865 198.27 201.789 198.27C201.713 198.27 201.638 198.251 201.57 198.216L198.828 196.632C198.708 196.566 198.714 196.452 198.828 196.38L202.002 194.55C202.07 194.516 202.145 194.499 202.221 194.499C202.297 194.499 202.372 194.516 202.44 194.55L205.2 196.152C205.314 196.218 205.308 196.332 205.2 196.404L202.008 198.216ZM219.786 208.5C219.718 208.534 219.643 208.551 219.567 208.551C219.491 208.551 219.416 208.534 219.348 208.5L216.606 206.916C216.486 206.85 216.492 206.736 216.606 206.664L219.78 204.828C219.848 204.794 219.923 204.777 219.999 204.777C220.075 204.777 220.15 204.794 220.218 204.828L222.972 206.4C223.086 206.466 223.08 206.58 222.972 206.652L219.786 208.5ZM198 195.9C197.932 195.934 197.857 195.951 197.781 195.951C197.705 195.951 197.63 195.934 197.562 195.9L194.82 194.316C194.7 194.25 194.706 194.136 194.82 194.064L198 192.264C198.068 192.229 198.143 192.21 198.219 192.21C198.295 192.21 198.37 192.229 198.438 192.264L201.18 193.842C201.294 193.914 201.288 194.028 201.18 194.1L198 195.9ZM206.016 200.526C205.948 200.56 205.873 200.577 205.797 200.577C205.721 200.577 205.646 200.56 205.578 200.526L202.836 198.942C202.716 198.876 202.728 198.762 202.836 198.69L206.01 196.854C206.078 196.82 206.153 196.803 206.229 196.803C206.305 196.803 206.38 196.82 206.448 196.854L209.19 198.438C209.304 198.504 209.298 198.618 209.19 198.69L206.016 200.526ZM205.086 223.602C205.154 223.568 205.229 223.551 205.305 223.551C205.381 223.551 205.456 223.568 205.524 223.602L209.724 226.038C209.844 226.104 209.838 226.218 209.724 226.29L206.55 228.12C206.482 228.154 206.407 228.171 206.331 228.171C206.255 228.171 206.18 228.154 206.112 228.12L201.912 225.684C201.798 225.618 201.804 225.504 201.912 225.432L205.086 223.602ZM211.77 203.85C211.702 203.884 211.627 203.901 211.551 203.901C211.475 203.901 211.4 203.884 211.332 203.85L208.59 202.266C208.47 202.2 208.476 202.086 208.59 202.014L211.8 200.214C211.868 200.179 211.943 200.16 212.019 200.16C212.095 200.16 212.17 200.179 212.238 200.214L214.98 201.792C215.094 201.864 215.088 201.972 214.98 202.05L211.77 203.85ZM215.778 206.16C215.71 206.194 215.635 206.211 215.559 206.211C215.483 206.211 215.408 206.194 215.34 206.16L212.598 204.576C212.478 204.51 212.484 204.396 212.598 204.324L215.772 202.494C215.84 202.46 215.915 202.443 215.991 202.443C216.067 202.443 216.142 202.46 216.21 202.494L218.952 204.078C219.066 204.144 219.06 204.258 218.952 204.33L215.778 206.16ZM130.8 180.75C130.868 180.716 130.943 180.699 131.019 180.699C131.095 180.699 131.17 180.716 131.238 180.75L138 184.644C138.12 184.71 138.108 184.824 138 184.896L134.826 186.696C134.758 186.731 134.683 186.75 134.607 186.75C134.531 186.75 134.456 186.731 134.388 186.696L127.638 182.802C127.518 182.736 127.53 182.622 127.638 182.55L130.8 180.75ZM139.662 185.868C139.73 185.833 139.805 185.814 139.881 185.814C139.957 185.814 140.032 185.833 140.1 185.868L142.842 187.452C142.956 187.518 142.95 187.632 142.842 187.704L139.674 189.534C139.606 189.569 139.531 189.588 139.455 189.588C139.379 189.588 139.304 189.569 139.236 189.534L136.494 187.95C136.374 187.884 136.38 187.77 136.494 187.698L139.662 185.868ZM193.962 215.91L191.214 214.326C191.1 214.26 191.106 214.146 191.214 214.074L194.4 212.244C194.468 212.21 194.543 212.193 194.619 212.193C194.695 212.193 194.77 212.21 194.838 212.244L197.58 213.828C197.694 213.894 197.688 214.008 197.58 214.08L194.412 215.916C194.345 215.947 194.272 215.963 194.198 215.962C194.125 215.96 194.052 215.943 193.986 215.91H193.962ZM147.678 190.5C147.746 190.466 147.821 190.449 147.897 190.449C147.973 190.449 148.048 190.466 148.116 190.5L150.858 192.084C150.978 192.15 150.966 192.264 150.858 192.336L147.69 194.136C147.622 194.17 147.547 194.187 147.471 194.187C147.395 194.187 147.32 194.17 147.252 194.136L144.51 192.552C144.39 192.486 144.402 192.372 144.51 192.3L147.678 190.5ZM126.792 178.44C126.86 178.406 126.935 178.389 127.011 178.389C127.087 178.389 127.162 178.406 127.23 178.44L129.996 180C130.11 180.066 130.104 180.18 129.996 180.252L126.828 182.082C126.76 182.116 126.685 182.133 126.609 182.133C126.533 182.133 126.458 182.116 126.39 182.082L123.648 180.498C123.528 180.432 123.54 180.318 123.648 180.246L126.792 178.44ZM119.592 177.954L127.296 173.508C127.364 173.473 127.439 173.454 127.515 173.454C127.591 173.454 127.666 173.473 127.734 173.508L130.476 175.086C130.59 175.158 130.584 175.272 130.476 175.344L122.778 179.79C122.71 179.824 122.635 179.841 122.559 179.841C122.483 179.841 122.408 179.824 122.34 179.79L119.598 178.206C119.502 178.14 119.508 178.026 119.634 177.954H119.592ZM162.642 199.146C162.709 199.112 162.783 199.095 162.858 199.095C162.933 199.095 163.007 199.112 163.074 199.146L166.452 201.096C166.572 201.162 166.56 201.276 166.452 201.348L163.278 203.178C163.21 203.213 163.135 203.232 163.059 203.232C162.983 203.232 162.908 203.213 162.84 203.178L159.462 201.228C159.348 201.162 159.354 201.048 159.462 200.976L162.642 199.146ZM152.514 193.296C152.582 193.262 152.657 193.245 152.733 193.245C152.809 193.245 152.884 193.262 152.952 193.296L157.152 195.732C157.266 195.798 157.26 195.912 157.152 195.984L153.984 197.814C153.916 197.848 153.841 197.865 153.765 197.865C153.689 197.865 153.614 197.848 153.546 197.814L149.346 195.378C149.226 195.312 149.232 195.198 149.346 195.126L152.514 193.296ZM171.924 204.504C171.992 204.469 172.067 204.45 172.143 204.45C172.219 204.45 172.294 204.469 172.362 204.504L195 217.53C195.114 217.596 195.108 217.71 195 217.782L191.832 219.582C191.764 219.616 191.689 219.633 191.613 219.633C191.537 219.633 191.462 219.616 191.394 219.582L168.822 206.544C168.702 206.478 168.708 206.364 168.822 206.292L171.924 204.504ZM195.762 218.268C195.83 218.233 195.905 218.214 195.981 218.214C196.057 218.214 196.132 218.233 196.2 218.268L199.62 220.2C199.734 220.266 199.728 220.38 199.62 220.452L196.446 222.282C196.379 222.316 196.305 222.334 196.23 222.334C196.155 222.334 196.081 222.316 196.014 222.282L192.636 220.332C192.522 220.266 192.528 220.152 192.636 220.08L195.762 218.268ZM167.28 201.828C167.348 201.793 167.423 201.774 167.499 201.774C167.575 201.774 167.65 201.793 167.718 201.828L171.096 203.778C171.21 203.844 171.204 203.958 171.096 204.03L167.928 205.86C167.86 205.894 167.785 205.911 167.709 205.911C167.633 205.911 167.558 205.894 167.49 205.86L164.112 203.91C163.998 203.844 164.004 203.73 164.112 203.658L167.28 201.828ZM200.406 220.95C200.474 220.916 200.549 220.899 200.625 220.899C200.701 220.899 200.776 220.916 200.844 220.95L204.216 222.9C204.336 222.966 204.324 223.08 204.216 223.152L201.042 224.982C200.974 225.016 200.899 225.033 200.823 225.033C200.747 225.033 200.672 225.016 200.604 224.982L197.232 223.032C197.112 222.966 197.118 222.852 197.232 222.78L200.406 220.95ZM157.998 196.464C158.066 196.43 158.141 196.413 158.217 196.413C158.293 196.413 158.368 196.43 158.436 196.464L161.814 198.414C161.928 198.48 161.922 198.594 161.814 198.666L158.64 200.466C158.572 200.501 158.497 200.52 158.421 200.52C158.345 200.52 158.27 200.501 158.202 200.466L154.83 198.522C154.71 198.45 154.722 198.336 154.83 198.264L157.998 196.464ZM143.652 188.184C143.72 188.15 143.795 188.133 143.871 188.133C143.947 188.133 144.022 188.15 144.09 188.184L146.832 189.768C146.946 189.834 146.94 189.948 146.832 190.02L143.664 191.856C143.596 191.89 143.521 191.907 143.445 191.907C143.369 191.907 143.294 191.89 143.226 191.856L140.484 190.272C140.364 190.206 140.376 190.092 140.484 190.02L143.652 188.184ZM134.91 181.8L132.168 180.216C132.054 180.15 132.06 180.036 132.168 179.964L135.336 178.134C135.404 178.099 135.479 178.08 135.555 178.08C135.631 178.08 135.706 178.099 135.774 178.134L138.516 179.718C138.636 179.784 138.624 179.898 138.516 179.97L135.342 181.8C135.275 181.833 135.201 181.85 135.126 181.85C135.051 181.85 134.977 181.833 134.91 181.8ZM152.832 181.68L150.09 180.102C149.976 180.03 149.982 179.916 150.09 179.844L153.258 178.014C153.326 177.979 153.401 177.96 153.477 177.96C153.553 177.96 153.628 177.979 153.696 178.014L156.438 179.598C156.558 179.664 156.546 179.778 156.438 179.85L153.264 181.68C153.198 181.715 153.124 181.734 153.049 181.735C152.974 181.736 152.899 181.719 152.832 181.686V181.68ZM161.916 197.4L153.9 192.774C153.78 192.708 153.786 192.594 153.9 192.522L157.074 190.692C157.142 190.658 157.217 190.641 157.293 190.641C157.369 190.641 157.444 190.658 157.512 190.692L165.54 195.3C165.654 195.372 165.648 195.486 165.54 195.558L162.372 197.388C162.303 197.427 162.225 197.448 162.145 197.45C162.066 197.452 161.987 197.435 161.916 197.4ZM139.356 184.116C139.288 184.151 139.213 184.17 139.137 184.17C139.061 184.17 138.986 184.151 138.918 184.116L136.176 182.538C136.062 182.466 136.068 182.352 136.176 182.28L139.344 180.45C139.412 180.416 139.487 180.399 139.563 180.399C139.639 180.399 139.714 180.416 139.782 180.45L142.524 182.034C142.644 182.1 142.638 182.214 142.524 182.286L139.356 184.116ZM143.448 181.506L140.706 179.928C140.592 179.856 140.598 179.742 140.706 179.67L143.874 177.84C143.942 177.806 144.017 177.789 144.093 177.789C144.169 177.789 144.244 177.806 144.312 177.84L147.072 179.4C147.192 179.466 147.186 179.58 147.072 179.652L143.898 181.482C143.83 181.522 143.754 181.545 143.675 181.548C143.597 181.551 143.519 181.535 143.448 181.5V181.506ZM165.924 199.716L163.182 198.132C163.062 198.066 163.074 197.952 163.182 197.88L166.356 196.05C166.424 196.016 166.499 195.999 166.575 195.999C166.651 195.999 166.726 196.016 166.794 196.05L169.536 197.634C169.656 197.7 169.644 197.814 169.536 197.886L166.368 199.716C166.299 199.75 166.222 199.767 166.145 199.766C166.068 199.765 165.992 199.746 165.924 199.71V199.716ZM148.2 189.228C148.132 189.262 148.057 189.279 147.981 189.279C147.905 189.279 147.83 189.262 147.762 189.228L145.02 187.644C144.9 187.578 144.912 187.464 145.02 187.392L148.2 185.568C148.268 185.534 148.343 185.517 148.419 185.517C148.495 185.517 148.57 185.534 148.638 185.568L151.38 187.152C151.5 187.224 151.488 187.332 151.38 187.404L148.2 189.228ZM185.946 211.284L183.204 209.7C183.09 209.628 183.096 209.52 183.204 209.448L186.408 207.6C186.476 207.566 186.551 207.549 186.627 207.549C186.703 207.549 186.778 207.566 186.846 207.6L189.6 209.19C189.72 209.256 189.714 209.37 189.6 209.442L186.426 211.272C186.356 211.312 186.277 211.334 186.197 211.336C186.116 211.338 186.036 211.32 185.964 211.284H185.946ZM181.938 208.968L179.196 207.384C179.082 207.318 179.088 207.204 179.196 207.132L182.4 205.302C182.468 205.268 182.543 205.251 182.619 205.251C182.695 205.251 182.77 205.268 182.838 205.302L185.58 206.886C185.7 206.952 185.694 207.066 185.58 207.138L182.406 208.968C182.336 209.004 182.259 209.022 182.181 209.022C182.103 209.022 182.026 209.004 181.956 208.968H181.938ZM189.978 213.6L187.23 212.016C187.116 211.95 187.122 211.836 187.23 211.764L190.404 209.934C190.472 209.899 190.547 209.88 190.623 209.88C190.699 209.88 190.774 209.899 190.842 209.934L193.584 211.518C193.698 211.584 193.692 211.698 193.584 211.77L190.41 213.6C190.343 213.634 190.269 213.652 190.194 213.652C190.119 213.652 190.045 213.634 189.978 213.6ZM173.94 204.342L171.198 202.764C171.084 202.692 171.09 202.578 171.198 202.506L174.366 200.676C174.434 200.642 174.509 200.625 174.585 200.625C174.661 200.625 174.736 200.642 174.804 200.676L177.546 202.26C177.666 202.326 177.66 202.44 177.546 202.512L174.372 204.342C174.305 204.375 174.23 204.392 174.155 204.391C174.08 204.39 174.006 204.371 173.94 204.336V204.342ZM177.948 206.658L175.206 205.074C175.092 205.008 175.098 204.894 175.206 204.822L178.374 202.992C178.442 202.958 178.517 202.941 178.593 202.941C178.669 202.941 178.744 202.958 178.812 202.992L181.554 204.576C181.674 204.648 181.668 204.756 181.554 204.828L178.38 206.664C178.312 206.695 178.237 206.71 178.163 206.708C178.088 206.706 178.014 206.687 177.948 206.652V206.658ZM169.932 202.032L167.19 200.448C167.076 200.382 167.082 200.268 167.19 200.196L170.358 198.396C170.426 198.361 170.501 198.342 170.577 198.342C170.653 198.342 170.728 198.361 170.796 198.396L173.538 199.98C173.658 200.046 173.646 200.16 173.538 200.232L170.364 202.062C170.294 202.089 170.219 202.1 170.144 202.094C170.069 202.088 169.996 202.065 169.932 202.026V202.032ZM151.596 167.796C151.528 167.83 151.453 167.847 151.377 167.847C151.301 167.847 151.226 167.83 151.158 167.796L148.416 166.212C148.296 166.146 148.302 166.032 148.416 165.96L149.262 165.474C149.33 165.44 149.405 165.423 149.481 165.423C149.557 165.423 149.632 165.44 149.7 165.474L152.442 167.058C152.556 167.124 152.55 167.238 152.442 167.31L151.596 167.796ZM171.318 180.522C171.25 180.556 171.175 180.573 171.099 180.573C171.023 180.573 170.948 180.556 170.88 180.522L168.138 178.938C168.018 178.872 168.024 178.758 168.138 178.686L171.312 176.856C171.38 176.822 171.455 176.805 171.531 176.805C171.607 176.805 171.682 176.822 171.75 176.856L174.492 178.44C174.606 178.506 174.6 178.62 174.492 178.692L171.318 180.522ZM163.302 175.896C163.234 175.931 163.159 175.95 163.083 175.95C163.007 175.95 162.932 175.931 162.864 175.896L160.122 174.312C160.002 174.246 160.008 174.132 160.122 174.06L163.296 172.23C163.364 172.195 163.439 172.176 163.515 172.176C163.591 172.176 163.666 172.195 163.734 172.23L166.476 173.814C166.59 173.88 166.584 173.994 166.476 174.066L163.302 175.896ZM176.214 183.348C176.146 183.382 176.071 183.399 175.995 183.399C175.919 183.399 175.844 183.382 175.776 183.348L173.028 181.764C172.914 181.698 172.92 181.584 173.028 181.512L176.202 179.712C176.27 179.678 176.345 179.661 176.421 179.661C176.497 179.661 176.572 179.678 176.64 179.712L179.4 181.26C179.514 181.326 179.508 181.44 179.4 181.512L176.214 183.348ZM167.31 178.2C167.242 178.234 167.167 178.251 167.091 178.251C167.015 178.251 166.94 178.234 166.872 178.2L164.13 176.616C164.01 176.55 164.016 176.436 164.13 176.364L167.304 174.564C167.372 174.53 167.447 174.513 167.523 174.513C167.599 174.513 167.674 174.53 167.742 174.564L170.484 176.148C170.598 176.22 170.592 176.328 170.484 176.4L167.31 178.2ZM184.2 187.974C184.132 188.008 184.057 188.025 183.981 188.025C183.905 188.025 183.83 188.008 183.762 187.974L181.02 186.39C180.9 186.324 180.906 186.21 181.02 186.138L184.194 184.308C184.262 184.273 184.337 184.254 184.413 184.254C184.489 184.254 184.564 184.273 184.632 184.308L187.374 185.886C187.488 185.958 187.482 186.072 187.374 186.144L184.2 187.974ZM180.192 185.658C180.124 185.692 180.049 185.709 179.973 185.709C179.897 185.709 179.822 185.692 179.754 185.658L177.012 184.074C176.892 184.002 176.898 183.894 177.012 183.822L180.186 181.986C180.254 181.952 180.329 181.935 180.405 181.935C180.481 181.935 180.556 181.952 180.624 181.986L183.408 183.6C183.522 183.666 183.516 183.78 183.408 183.852L180.192 185.658ZM159.6 172.416C159.532 172.451 159.457 172.47 159.381 172.47C159.305 172.47 159.23 172.451 159.162 172.416L156.42 170.838C156.3 170.766 156.306 170.658 156.42 170.58L157.266 170.094C157.334 170.06 157.409 170.043 157.485 170.043C157.561 170.043 157.636 170.06 157.704 170.094L160.446 171.678C160.56 171.744 160.554 171.858 160.446 171.93L159.6 172.416ZM147.6 165.474C147.532 165.509 147.457 165.528 147.381 165.528C147.305 165.528 147.23 165.509 147.162 165.474L144.414 163.89C144.3 163.824 144.306 163.71 144.414 163.638L145.26 163.152C145.328 163.117 145.403 163.098 145.479 163.098C145.555 163.098 145.63 163.117 145.698 163.152L148.44 164.73C148.554 164.802 148.548 164.916 148.44 164.988L147.6 165.474ZM140.934 169.32C140.866 169.355 140.791 169.374 140.715 169.374C140.639 169.374 140.564 169.355 140.496 169.32L137.754 167.736C137.64 167.67 137.646 167.556 137.754 167.484L140.922 165.684C140.99 165.649 141.065 165.63 141.141 165.63C141.217 165.63 141.292 165.649 141.36 165.684L144.102 167.268C144.222 167.334 144.216 167.448 144.102 167.52L140.934 169.32ZM130.914 179.49L128.172 177.906C128.052 177.84 128.064 177.726 128.172 177.654L131.346 175.854C131.414 175.82 131.489 175.803 131.565 175.803C131.641 175.803 131.716 175.82 131.784 175.854L134.526 177.438C134.646 177.504 134.634 177.618 134.526 177.69L131.358 179.52C131.286 179.554 131.206 179.569 131.126 179.564C131.046 179.558 130.969 179.533 130.902 179.49H130.914ZM155.604 170.1C155.536 170.134 155.461 170.151 155.385 170.151C155.309 170.151 155.234 170.134 155.166 170.1L152.424 168.516C152.304 168.45 152.31 168.336 152.424 168.264L153.27 167.778C153.338 167.743 153.413 167.724 153.489 167.724C153.565 167.724 153.64 167.743 153.708 167.778L156.45 169.362C156.564 169.428 156.558 169.542 156.45 169.614L155.604 170.1ZM188.238 190.284C188.17 190.318 188.095 190.335 188.019 190.335C187.943 190.335 187.868 190.318 187.8 190.284L185.058 188.7C184.938 188.634 184.944 188.52 185.058 188.448L188.232 186.618C188.3 186.584 188.375 186.567 188.451 186.567C188.527 186.567 188.602 186.584 188.67 186.618L191.4 188.202C191.514 188.268 191.508 188.382 191.4 188.454L188.238 190.284Z" fill="#263238"/>
<path opacity="0.3" d="M170.46 214.35L143.4 198.72C142.942 198.489 142.437 198.369 141.924 198.369C141.411 198.369 140.906 198.489 140.448 198.72L124.926 207.684C124.11 208.152 124.11 208.914 124.926 209.388L151.992 224.988C152.449 225.222 152.955 225.344 153.468 225.344C153.981 225.344 154.487 225.222 154.944 224.988L170.46 216.054C171.276 215.58 171.276 214.8 170.46 214.35Z" fill="black"/>
<path d="M259.686 204.528C259.447 204.665 259.193 204.773 258.93 204.852C259.194 204.778 259.448 204.671 259.686 204.534C259.768 204.491 259.847 204.441 259.92 204.384C259.845 204.437 259.767 204.485 259.686 204.528Z" fill="#007A8B"/>
<path opacity="0.3" d="M158.106 63C158.28 61.728 159.306 61.26 160.548 61.98L254.916 116.454C255.64 116.896 256.239 117.515 256.656 118.254L261.276 115.596C260.862 114.846 260.263 114.214 259.536 113.76L165.162 59.298C164.479 58.8688 163.695 58.6263 162.889 58.5948C162.083 58.5634 161.283 58.7441 160.569 59.1188C159.854 59.4936 159.251 60.0493 158.819 60.7304C158.387 61.4115 158.141 62.1941 158.106 63Z" fill="black"/>
<path d="M255.378 204.762C255.366 204.759 255.354 204.759 255.342 204.762H255.378Z" fill="#007A8B"/>
<path opacity="0.5" d="M84.186 193.872C84.2476 194.698 84.5023 195.498 84.9296 196.208C85.3568 196.917 85.9447 197.517 86.646 197.958L181.02 252.444C181.778 252.85 182.626 253.057 183.486 253.044V247.722C182.626 247.735 181.778 247.528 181.02 247.122L86.646 192.6C85.38 191.862 85.296 190.71 86.4 189.918C85.7618 190.373 85.2322 190.963 84.8494 191.647C84.4666 192.33 84.24 193.09 84.186 193.872Z" fill="black"/>
<path d="M23.7779 147.216L34.7999 140.856C35.0459 140.724 35.3999 140.814 35.8319 141.144C36.0599 141.312 36.2879 141.48 36.5159 141.636L36.7739 141.798C36.9239 141.894 37.0739 141.996 37.2299 142.086C37.3859 142.176 37.4459 142.206 37.5539 142.272L37.9559 142.494L38.3279 142.68L38.6999 142.86L39.1139 143.034C39.2279 143.082 39.3419 143.136 39.4619 143.178L39.9119 143.346L40.2299 143.46L40.7159 143.61L41.0039 143.694L41.5259 143.826L41.7899 143.886C41.9699 143.928 42.1559 143.964 42.3419 143.994L42.5699 144.036L43.1699 144.12H43.3679C43.5719 144.12 43.7819 144.162 43.9679 144.174H44.1299H44.7779H44.9099C45.1319 144.174 45.3539 144.174 45.5759 144.174H45.6779C45.9059 144.174 46.1399 144.174 46.3679 144.126H46.4339L47.1479 144.03H47.1839L47.5139 143.964L54.3539 140.016C54.8579 139.734 55.3199 139.938 55.6199 140.676C59.5919 150.54 68.0519 160.542 73.6919 163.044C73.804 163.092 73.9123 163.148 74.0159 163.212C74.0846 163.252 74.1508 163.296 74.2139 163.344L74.3039 163.404L74.5499 163.614C74.6339 163.692 74.7119 163.776 74.7899 163.86C75.1922 164.299 75.4167 164.872 75.4199 165.468L74.6039 175.488C74.6039 181.95 71.8559 188.766 66.2459 192.024L55.2179 198.378L55.1399 198.42C52.2911 199.996 49.0187 200.637 45.7859 200.25C44.5782 200.05 43.4591 199.49 42.5759 198.642C30.2399 185.904 24.2459 168.642 24.2459 159.126L23.4299 148.086C23.4359 147.648 23.5619 147.342 23.7779 147.216Z" fill="#007A8B"/>
<path opacity="0.4" d="M43.416 146.358C43.526 146.302 43.6487 146.276 43.7718 146.283C43.8949 146.289 44.0142 146.327 44.118 146.394L44.238 146.484C44.3075 146.554 44.3698 146.63 44.424 146.712C44.4842 146.816 44.5364 146.924 44.58 147.036C45.614 149.57 46.8563 152.015 48.294 154.344C49.5383 156.392 50.9069 158.362 52.392 160.242C53.112 161.142 53.832 162 54.558 162.804C54.5554 162.814 54.5554 162.824 54.558 162.834L55.158 163.5C55.368 163.71 55.566 163.926 55.758 164.13C55.86 164.244 55.962 164.352 56.07 164.454C58.386 166.782 60.654 168.522 62.592 169.38C62.9223 169.527 63.2248 169.73 63.486 169.98L63.708 170.202C63.7205 170.221 63.7346 170.239 63.75 170.256L63.708 170.202L74.724 163.854C74.7154 163.837 74.7031 163.823 74.688 163.812C74.6678 163.779 74.6436 163.749 74.616 163.722L74.55 163.662C74.5315 163.641 74.5115 163.621 74.49 163.602L74.424 163.542C74.367 163.487 74.3069 163.435 74.244 163.386L74.154 163.326C74.088 163.284 74.022 163.23 73.956 163.194C73.8538 163.128 73.7453 163.071 73.632 163.026C67.992 160.524 59.526 150.522 55.56 140.658C55.344 140.13 55.05 139.872 54.714 139.872C54.5647 139.878 54.4198 139.924 54.294 140.004L47.52 144L43.416 146.358Z" fill="white"/>
<path opacity="0.1" d="M23.778 147.216L34.7999 140.856C35.0399 140.73 35.3999 140.82 35.8259 141.144C36.0479 141.318 36.2819 141.486 36.5159 141.642L36.7679 141.804C36.9179 141.9 37.068 142.002 37.2239 142.092C37.3799 142.182 37.4399 142.212 37.5479 142.278L37.9499 142.5C38.0699 142.566 38.1959 142.62 38.3219 142.68L38.6939 142.866L39.1139 143.04C39.2219 143.094 39.3419 143.142 39.4559 143.19L39.9059 143.352L40.2239 143.466L40.7159 143.616L41.0039 143.7L41.5199 143.832L41.7779 143.892L42.3359 144L42.5699 144.042C42.7619 144.078 42.9539 144.102 43.1699 144.126H43.3679L43.9679 144.186H44.1299C44.3459 144.186 44.5619 144.186 44.7779 144.186H44.9039C45.1319 144.186 45.3539 144.186 45.5759 144.186H45.6719C45.9059 144.186 46.1399 144.156 46.3679 144.138H46.4339C46.6739 144.138 46.9139 144.084 47.1419 144.048H47.1779C47.2898 144.034 47.4002 144.009 47.5079 143.976L43.4039 146.34L43.3319 146.382C43.1759 146.48 43.0379 146.603 42.9239 146.748C42.8949 146.773 42.8687 146.801 42.8459 146.832C38.6459 151.74 30.3419 151.734 24.8039 147.498C24.3839 147.18 24.036 147.078 23.802 147.186H23.7659C23.6564 147.251 23.5735 147.353 23.532 147.474C23.5828 147.363 23.6694 147.272 23.778 147.216Z" fill="black"/>
<path opacity="0.2" d="M55.392 198.348L66.27 192.084C71.874 188.82 74.628 182.004 74.628 175.542L75.444 165.522C75.4375 165.137 75.3434 164.759 75.1688 164.416C74.9941 164.072 74.7435 163.774 74.436 163.542C74.5722 163.655 74.6986 163.78 74.814 163.914L63.792 170.262C64.1888 170.705 64.4032 171.281 64.392 171.876L63.582 181.896C63.6 188.298 60.9 195.054 55.392 198.348Z" fill="black"/>
<path d="M23.454 148.146L24.2701 159.186C24.2701 168.726 30.27 185.964 42.594 198.702C43.4788 199.553 44.6034 200.112 45.816 200.304C49.0438 200.702 52.3149 200.072 55.164 198.504L55.242 198.462L55.386 198.372C60.9 195.078 63.606 188.328 63.606 181.92L64.416 171.9C64.4245 171.308 64.2104 170.734 63.816 170.292C63.7486 170.214 63.6765 170.14 63.6 170.07C63.3393 169.819 63.0367 169.616 62.706 169.47C60.762 168.606 58.506 166.866 56.178 164.544L55.866 164.22L55.266 163.584L54.666 162.918C53.934 162.108 53.214 161.25 52.494 160.35C51.0095 158.469 49.641 156.499 48.396 154.452C46.9603 152.125 45.72 149.682 44.688 147.15C44.64 147.037 44.5859 146.927 44.526 146.82C44.4719 146.74 44.4095 146.665 44.34 146.598C44.303 146.564 44.2628 146.534 44.22 146.508C44.1184 146.439 43.9998 146.399 43.8771 146.393C43.7544 146.386 43.6323 146.414 43.524 146.472L43.446 146.508C43.2889 146.604 43.1506 146.728 43.038 146.874L42.96 146.964C38.76 151.866 30.456 151.86 24.918 147.63C24.504 147.312 24.15 147.21 23.916 147.312H23.886C23.8301 147.336 23.7822 147.376 23.748 147.426C23.5695 147.625 23.4656 147.879 23.454 148.146Z" fill="#007A8B"/>
<path d="M40.734 184.356L47.298 188.142L46.284 176.268C47.07 175.854 47.568 174.828 47.568 173.364C47.568 170.748 45.978 167.712 44.016 166.578C42.054 165.444 40.464 166.644 40.464 169.26C40.5065 170.81 40.9487 172.323 41.748 173.652L40.734 184.356Z" fill="#455A64"/>
<path d="M40.734 184.356L46.68 180.918L47.298 188.142L40.734 184.356Z" fill="#37474F"/>
<path d="M44.016 166.578C45.446 167.543 46.5126 168.958 47.046 170.598L41.748 173.652C40.9488 172.323 40.5065 170.81 40.464 169.26C40.464 166.644 42.054 165.444 44.016 166.578Z" fill="#37474F"/>
<path d="M35.7599 119.214C37.5599 118.158 39.8759 118.278 42.0539 119.532L59.3039 129.498C61.1021 130.637 62.5965 132.196 63.6584 134.041C64.7204 135.886 65.318 137.961 65.3999 140.088V161.22C65.3748 161.488 65.2788 161.744 65.1216 161.962C64.9645 162.181 64.7519 162.353 64.5059 162.462C63.8375 162.798 63.0999 162.972 62.3519 162.972C61.6039 162.972 60.8663 162.798 60.1979 162.462C59.9519 162.353 59.7393 162.181 59.5822 161.962C59.425 161.744 59.329 161.488 59.3039 161.22V140.088C59.2214 139.03 58.9032 138.004 58.3727 137.086C57.8422 136.167 57.1128 135.378 56.2379 134.778L38.9999 124.8V145.95C38.9743 146.219 38.8773 146.475 38.7191 146.694C38.5608 146.912 38.3471 147.084 38.0999 147.192C37.4331 147.529 36.6962 147.705 35.9489 147.705C35.2016 147.705 34.4647 147.529 33.7979 147.192C33.5519 147.083 33.3393 146.911 33.1822 146.692C33.025 146.474 32.929 146.218 32.9039 145.95V124.8C32.8919 122.31 33.9359 120.264 35.7599 119.214Z" fill="#37474F"/>
<path d="M39 124.8V145.932C38.9744 146.201 38.8774 146.457 38.7192 146.676C38.5609 146.894 38.3472 147.066 38.1 147.174C37.8199 147.333 37.519 147.452 37.206 147.528V123.768L39 124.8Z" fill="#263238"/>
</svg>
