<svg width="382" height="187" viewBox="0 0 382 187" fill="none" xmlns="http://www.w3.org/2000/svg">
<path d="M26 57L25.1588 57.5408L26 57ZM379.476 185.5C380.028 185.513 380.486 185.077 380.5 184.525L380.718 175.527C380.731 174.975 380.294 174.517 379.742 174.503C379.19 174.49 378.732 174.927 378.718 175.479L378.524 183.476L370.527 183.283C369.975 183.269 369.516 183.706 369.503 184.258C369.49 184.81 369.926 185.269 370.478 185.282L379.476 185.5ZM1.5 1C1.5 1.12113 1.51958 1.26582 1.53465 1.36933C1.55322 1.49681 1.58004 1.65723 1.6146 1.84683C1.68393 2.22708 1.78798 2.74397 1.92924 3.38534C2.21196 4.66901 2.64661 6.46447 3.25756 8.6838L5.18583 8.15297C4.58342 5.96468 4.15722 4.20283 3.88243 2.95517C3.74494 2.33087 3.64607 1.83858 3.58217 1.4881C3.55012 1.31233 3.52774 1.17699 3.51377 1.08107C3.49631 0.961176 3.5 0.954818 3.5 1H1.5ZM8.03539 23.2824C9.66161 27.6051 11.6391 32.372 14.0182 37.404L15.8263 36.5492C13.4726 31.5709 11.5161 26.8547 9.90732 22.5781L8.03539 23.2824ZM21.1517 50.9865C22.4131 53.1569 23.7477 55.3457 25.1588 57.5408L26.8412 56.4592C25.4469 54.2903 24.1278 52.1271 22.8808 49.9815L21.1517 50.9865ZM25.1588 57.5408C26.8078 60.1059 28.7863 62.0792 31.061 63.5462L32.145 61.8654C30.1226 60.5611 28.3439 58.7968 26.8412 56.4592L25.1588 57.5408ZM47.1191 67.0324C52.043 66.8314 57.4541 65.9068 63.1974 64.6649L62.7747 62.7101C57.0683 63.944 51.7893 64.8401 47.0376 65.0341L47.1191 67.0324ZM78.8878 60.9509C83.972 59.7245 89.217 58.5061 94.565 57.4959L94.1938 55.5307C88.7953 56.5504 83.5111 57.7783 78.4188 59.0066L78.8878 60.9509ZM110.394 55.3269C115.686 54.9282 121.006 54.9078 126.295 55.4445L126.497 53.4548C121.069 52.904 115.63 52.9268 110.244 53.3326L110.394 55.3269ZM141.75 58.8118C144.205 59.6677 146.641 60.6889 149.053 61.8948L149.947 60.1059C147.457 58.861 144.942 57.8067 142.409 56.9233L141.75 58.8118ZM149.053 61.8948C151.792 63.2641 154.246 64.7117 156.449 66.2239L157.581 64.575C155.297 63.0074 152.763 61.5137 149.947 60.1059L149.053 61.8948ZM168.472 78.1148C171.827 83.0697 173.84 88.3393 175.201 93.6717L177.139 93.1771C175.739 87.6918 173.648 82.1916 170.128 76.9934L168.472 78.1148ZM178.185 110.687C179.097 116.833 180.161 122.727 182.652 127.741L184.443 126.851C182.109 122.154 181.077 116.552 180.163 110.394L178.185 110.687ZM195.723 139.618C198.207 140.625 201.056 141.421 204.33 141.986L204.67 140.015C201.513 139.471 198.806 138.71 196.475 137.765L195.723 139.618ZM204.33 141.986C206.855 142.421 209.292 142.758 211.649 143.005L211.857 141.016C209.546 140.774 207.152 140.443 204.67 140.015L204.33 141.986ZM226.406 143.395C231.72 143.085 236.559 142.281 241.033 141.133L240.536 139.195C236.183 140.312 231.471 141.097 226.29 141.398L226.406 143.395ZM254.95 136.146C259.603 134.02 263.88 131.639 267.97 129.303L266.978 127.566C262.897 129.898 258.685 132.241 254.118 134.327L254.95 136.146ZM280.727 122.288C282.911 121.218 285.103 120.254 287.342 119.44L286.658 117.561C284.338 118.404 282.079 119.399 279.848 120.492L280.727 122.288ZM287.342 119.44C289.13 118.79 291.355 118.725 293.988 119.228L294.363 117.264C291.521 116.72 288.901 116.745 286.658 117.561L287.342 119.44ZM307.125 124.513C310.978 126.638 315.076 129.269 319.288 132.238L320.44 130.604C316.187 127.605 312.026 124.932 308.091 122.761L307.125 124.513ZM330.848 140.96C334.6 143.956 338.343 147.088 341.99 150.243L343.298 148.73C339.635 145.562 335.872 142.412 332.096 139.397L330.848 140.96ZM352.819 159.902C356.63 163.398 360.199 166.771 363.399 169.852L364.786 168.411C361.577 165.321 357.995 161.937 354.171 158.428L352.819 159.902ZM373.734 180.03C375.332 181.641 376.593 182.932 377.455 183.82C377.886 184.264 378.216 184.607 378.439 184.839C378.551 184.955 378.635 185.043 378.692 185.102C378.72 185.131 378.741 185.153 378.755 185.168C378.762 185.176 378.767 185.181 378.771 185.185C378.773 185.187 378.774 185.188 378.775 185.189C378.775 185.189 378.776 185.19 378.776 185.19C378.776 185.19 378.776 185.19 378.776 185.19C378.776 185.19 378.776 185.19 378.776 185.19C378.776 185.19 378.776 185.19 379.5 184.5C380.224 183.811 380.224 183.811 380.224 183.811C380.224 183.81 380.224 183.81 380.224 183.81C380.224 183.81 380.224 183.81 380.224 183.81C380.223 183.81 380.223 183.809 380.222 183.809C380.222 183.808 380.22 183.806 380.218 183.804C380.214 183.801 380.209 183.795 380.202 183.787C380.187 183.772 380.165 183.749 380.137 183.719C380.079 183.659 379.994 183.57 379.881 183.453C379.656 183.219 379.323 182.873 378.89 182.427C378.024 181.535 376.758 180.239 375.154 178.622L373.734 180.03ZM26 57L24.3176 58.0815L26 57ZM379.452 186.5C380.556 186.527 381.473 185.653 381.499 184.549L381.935 166.554C381.962 165.45 381.089 164.533 379.984 164.506C378.88 164.479 377.963 165.353 377.936 166.457L377.549 182.452L361.554 182.065C360.449 182.038 359.533 182.912 359.506 184.016C359.479 185.12 360.353 186.037 361.457 186.064L379.452 186.5ZM0.5 1C0.5 1.20428 0.531211 1.41814 0.545096 1.51346C0.56596 1.65671 0.594992 1.82968 0.630822 2.0262C0.702864 2.42133 0.809509 2.95051 0.952648 3.60043C1.23933 4.9021 1.6782 6.71436 2.29343 8.94921L6.14997 7.88755C5.55183 5.71478 5.12985 3.96974 4.85903 2.74008C4.72341 2.12433 4.62714 1.64433 4.56595 1.30873C4.53517 1.13988 4.515 1.01709 4.50333 0.936933C4.48467 0.808855 4.5 0.871663 4.5 1H0.5ZM7.09943 23.6345C8.73435 27.9804 10.7224 32.7725 13.1141 37.8315L16.7304 36.1218C14.3894 31.1703 12.4434 26.4794 10.8433 22.226L7.09943 23.6345ZM20.2871 51.4889C21.5557 53.6718 22.8981 55.8733 24.3176 58.0815L27.6824 55.9185C26.2965 53.7626 24.9852 51.6123 23.7454 49.479L20.2871 51.4889ZM24.3176 58.0815C26.0398 60.7604 28.1182 62.8382 30.519 64.3866L32.6869 61.025C30.7907 59.8021 29.112 58.1423 27.6824 55.9185L24.3176 58.0815ZM47.1599 68.0316C52.1699 67.8271 57.647 66.8882 63.4088 65.6423L62.5633 61.7327C56.8754 62.9626 51.6624 63.8444 46.9968 64.0349L47.1599 68.0316ZM79.1222 61.923C84.2024 60.6976 89.4278 59.4839 94.7506 58.4786L94.0082 54.548C88.5844 55.5725 83.2807 56.8052 78.1843 58.0345L79.1222 61.923ZM110.469 56.3241C115.714 55.9289 120.974 55.9097 126.194 56.4394L126.598 52.4599C121.101 51.9021 115.602 51.9261 110.169 52.3354L110.469 56.3241ZM141.421 59.756C143.836 60.5982 146.233 61.6029 148.606 62.7892L150.394 59.2115C147.865 57.947 145.311 56.8762 142.738 55.9791L141.421 59.756ZM148.606 62.7892C151.306 64.1394 153.72 65.5638 155.883 67.0483L158.147 63.7506C155.823 62.1553 153.249 60.6385 150.394 59.2115L148.606 62.7892ZM167.644 78.6755C170.917 83.5087 172.891 88.6631 174.232 93.919L178.108 92.9298C176.689 87.368 174.559 81.7526 170.956 76.4326L167.644 78.6755ZM177.196 110.834C178.107 116.973 179.187 123.014 181.756 128.186L185.338 126.406C183.083 121.867 182.067 116.411 181.152 110.247L177.196 110.834ZM195.348 140.545C197.908 141.583 200.827 142.397 204.16 142.971L204.84 139.029C201.742 138.495 199.105 137.752 196.85 136.838L195.348 140.545ZM204.16 142.971C206.706 143.41 209.165 143.75 211.544 143.999L211.961 140.021C209.673 139.782 207.301 139.454 204.84 139.029L204.16 142.971ZM226.464 144.393C231.844 144.08 236.748 143.265 241.282 142.101L240.287 138.227C235.995 139.328 231.346 140.102 226.232 140.4L226.464 144.393ZM255.365 137.056C260.062 134.91 264.372 132.51 268.466 130.171L266.482 126.698C262.405 129.027 258.226 131.351 253.703 133.418L255.365 137.056ZM281.167 123.186C283.327 122.128 285.486 121.179 287.683 120.38L286.316 116.621C283.955 117.479 281.663 118.489 279.408 119.594L281.167 123.186ZM287.683 120.38C289.244 119.812 291.272 119.727 293.8 120.211L294.551 116.282C291.603 115.718 288.786 115.723 286.316 116.621L287.683 120.38ZM306.642 125.388C310.455 127.491 314.52 130.1 318.712 133.055L321.017 129.786C316.743 126.773 312.55 124.079 308.573 121.886L306.642 125.388ZM330.224 141.742C333.964 144.728 337.697 147.852 341.336 150.999L343.952 147.974C340.281 144.798 336.508 141.641 332.72 138.616L330.224 141.742ZM352.143 160.638C355.947 164.129 359.511 167.496 362.705 170.572L365.48 167.69C362.265 164.596 358.678 161.206 354.847 157.691L352.143 160.638ZM373.024 180.735C374.619 182.343 375.878 183.631 376.737 184.516C377.167 184.959 377.497 185.301 377.718 185.532C377.829 185.647 377.913 185.735 377.969 185.793C377.997 185.822 378.018 185.844 378.032 185.859C378.039 185.866 378.044 185.871 378.047 185.875C378.049 185.877 378.05 185.878 378.051 185.879C378.051 185.879 378.052 185.88 378.052 185.88C378.052 185.88 378.052 185.88 378.052 185.88C378.052 185.88 378.052 185.88 378.052 185.88C378.052 185.88 378.052 185.88 379.5 184.5C380.948 183.121 380.948 183.121 380.948 183.121C380.948 183.121 380.948 183.121 380.948 183.121C380.948 183.121 380.948 183.12 380.948 183.12C380.947 183.12 380.947 183.12 380.946 183.119C380.945 183.118 380.944 183.116 380.942 183.114C380.938 183.11 380.932 183.104 380.925 183.097C380.91 183.081 380.888 183.058 380.859 183.028C380.801 182.967 380.715 182.877 380.602 182.76C380.376 182.525 380.042 182.178 379.608 181.731C378.739 180.836 377.47 179.537 375.864 177.918L373.024 180.735Z" fill="#A6EB54"/>
</svg>
