<svg width="432" height="208" viewBox="0 0 432 208" fill="none" xmlns="http://www.w3.org/2000/svg">
<path d="M279 156.001L279.478 155.122L279 156.001ZM4.00757 205.622C4.0751 206.17 4.57423 206.56 5.12237 206.492L14.0548 205.392C14.6029 205.324 14.9926 204.825 14.925 204.277C14.8575 203.729 14.3584 203.339 13.8102 203.407L5.87028 204.385L4.89193 196.445C4.82438 195.897 4.32528 195.508 3.77714 195.575C3.22901 195.643 2.8394 196.142 2.90693 196.69L4.00757 205.622ZM419.811 2.22465C421.638 3.96297 423.143 5.93542 424.344 8.11648L426.096 7.15146C424.798 4.79617 423.17 2.65924 421.189 0.775528L419.811 2.22465ZM428.046 22.5814C428.247 27.2593 427.741 32.359 426.601 37.7606L428.557 38.1737C429.725 32.6451 430.253 27.3748 430.044 22.4956L428.046 22.5814ZM422.214 52.5093C420.48 57.1246 418.393 61.8509 415.995 66.6252L417.782 67.523C420.209 62.6922 422.325 57.901 424.087 53.2127L422.214 52.5093ZM408.466 80.1234C405.817 84.447 402.95 88.7593 399.896 93.0142L401.521 94.1805C404.603 89.8874 407.497 85.5346 410.171 81.168L408.466 80.1234ZM390.447 105.264C387.162 109.234 383.73 113.108 380.18 116.842L381.63 118.22C385.212 114.452 388.674 110.544 391.988 106.539L390.447 105.264ZM369.127 127.658C365.26 131.17 361.298 134.489 357.274 137.57L358.49 139.158C362.561 136.041 366.566 132.685 370.472 129.139L369.127 127.658ZM344.565 146.353C340.054 149.133 335.51 151.57 330.973 153.606L331.792 155.43C336.417 153.355 341.038 150.876 345.614 148.056L344.565 146.353ZM316.499 158.691C311.366 159.969 306.306 160.636 301.379 160.612L301.369 162.612C306.484 162.637 311.71 161.944 316.982 160.632L316.499 158.691ZM286.437 158.176C284.067 157.371 281.745 156.357 279.478 155.122L278.522 156.879C280.889 158.168 283.315 159.228 285.793 160.07L286.437 158.176ZM279.478 155.122C277.339 153.957 275.115 152.843 272.814 151.782L271.977 153.599C274.24 154.642 276.423 155.735 278.522 156.879L279.478 155.122ZM258.976 146.328C254.419 144.8 249.652 143.435 244.706 142.235L244.234 144.178C249.129 145.366 253.841 146.715 258.34 148.224L258.976 146.328ZM230.16 139.259C225.368 138.449 220.452 137.776 215.436 137.24L215.223 139.229C220.201 139.761 225.077 140.428 229.827 141.231L230.16 139.259ZM200.664 136.073C195.781 135.819 190.83 135.686 185.829 135.676L185.825 137.676C190.793 137.686 195.711 137.818 200.56 138.071L200.664 136.073ZM171.009 136C166.099 136.224 161.161 136.562 156.212 137.016L156.395 139.008C161.313 138.557 166.221 138.22 171.1 137.998L171.009 136ZM141.484 138.709C136.592 139.385 131.707 140.175 126.846 141.079L127.212 143.046C132.042 142.147 136.896 141.362 141.758 140.69L141.484 138.709ZM112.334 144.14C107.507 145.282 102.722 146.54 97.9967 147.915L98.5555 149.835C103.247 148.47 107.999 147.22 112.794 146.087L112.334 144.14ZM83.8614 152.447C79.1613 154.099 74.5425 155.876 70.0239 157.777L70.7995 159.62C75.2796 157.735 79.861 155.973 84.5248 154.333L83.8614 152.447ZM56.5245 163.987C52.0505 166.233 47.7061 168.616 43.513 171.136L44.5432 172.85C48.6907 170.358 52.9907 167.999 57.422 165.774L56.5245 163.987ZM31.1068 179.328C27.0401 182.281 23.1657 185.388 19.509 188.649L20.8403 190.142C24.4441 186.927 28.2661 183.862 32.2819 180.946L31.1068 179.328ZM8.98223 199.165C7.32469 201.029 5.73331 202.935 4.2118 204.885L5.78832 206.115C7.28291 204.201 8.8469 202.327 10.4769 200.493L8.98223 199.165ZM279 156.001L279.957 154.244L279 156.001ZM3.01509 205.745C3.15014 206.841 4.14837 207.62 5.24464 207.485L23.1095 205.284C24.2058 205.149 24.985 204.15 24.85 203.054C24.7149 201.958 23.7166 201.179 22.6204 201.314L6.74046 203.27L4.78377 187.391C4.64869 186.294 3.6505 185.515 2.55419 185.65C1.45792 185.785 0.678711 186.783 0.813796 187.88L3.01509 205.745ZM419.122 2.94922C420.873 4.61483 422.315 6.50505 423.468 8.59899L426.972 6.66894C425.626 4.22654 423.935 2.00738 421.878 0.050965L419.122 2.94922ZM427.047 22.6242C427.243 27.2015 426.749 32.2159 425.622 37.554L429.536 38.3802C430.716 32.7881 431.257 27.4326 431.043 22.4528L427.047 22.6242ZM421.278 52.1576C419.558 56.7364 417.486 61.4303 415.101 66.1763L418.676 67.9719C421.117 63.1128 423.248 58.2891 425.023 53.5644L421.278 52.1576ZM407.613 79.6011C404.978 83.9033 402.124 88.1953 399.084 92.431L402.333 94.7637C405.429 90.4515 408.336 86.0784 411.024 81.6903L407.613 79.6011ZM389.676 104.626C386.406 108.579 382.989 112.436 379.456 116.153L382.355 118.909C385.953 115.124 389.43 111.199 392.758 107.176L389.676 104.626ZM368.455 126.918C364.607 130.412 360.667 133.713 356.666 136.776L359.098 139.952C363.193 136.816 367.218 133.443 371.144 129.879L368.455 126.918ZM344.04 145.502C339.562 148.261 335.057 150.677 330.564 152.693L332.201 156.343C336.87 154.247 341.53 151.748 346.139 148.908L344.04 145.502ZM316.258 157.721C311.194 158.981 306.218 159.636 301.384 159.612L301.364 163.612C306.572 163.638 311.881 162.932 317.224 161.603L316.258 157.721ZM286.758 157.229C284.442 156.442 282.173 155.451 279.957 154.244L278.043 157.757C280.46 159.074 282.94 160.156 285.471 161.017L286.758 157.229ZM279.957 154.244C277.796 153.067 275.553 151.944 273.233 150.874L271.558 154.507C273.802 155.541 275.965 156.625 278.043 157.757L279.957 154.244ZM259.294 145.38C254.708 143.842 249.913 142.469 244.942 141.263L243.998 145.15C248.868 146.332 253.552 147.673 258.022 149.172L259.294 145.38ZM230.327 138.273C225.514 137.46 220.578 136.784 215.542 136.246L215.117 140.223C220.076 140.753 224.931 141.418 229.66 142.217L230.327 138.273ZM200.716 135.075C195.817 134.819 190.848 134.686 185.831 134.676L185.823 138.676C190.775 138.686 195.676 138.817 200.507 139.069L200.716 135.075ZM170.964 135.001C166.038 135.225 161.084 135.565 156.121 136.021L156.486 140.004C161.389 139.554 166.281 139.218 171.145 138.997L170.964 135.001ZM141.347 137.719C136.44 138.397 131.539 139.189 126.663 140.096L127.395 144.029C132.209 143.133 137.048 142.351 141.895 141.681L141.347 137.719ZM112.104 143.167C107.261 144.312 102.459 145.574 97.7173 146.954L98.8349 150.795C103.51 149.435 108.246 148.19 113.024 147.06L112.104 143.167ZM83.5297 151.503C78.8115 153.162 74.1739 154.946 69.6361 156.855L71.1873 160.542C75.6482 158.665 80.2108 156.91 84.8565 155.277L83.5297 151.503ZM56.0757 163.093C51.5804 165.35 47.2138 167.745 42.9978 170.279L45.0583 173.708C49.1831 171.229 53.4608 168.882 57.8707 166.668L56.0757 163.093ZM30.5192 178.519C26.4272 181.49 22.5264 184.618 18.8434 187.903L21.5059 190.888C25.0833 187.697 28.8791 184.653 32.8695 181.756L30.5192 178.519ZM8.23489 198.5C6.56358 200.38 4.95851 202.303 3.42351 204.269L6.57662 206.731C8.05772 204.833 9.60801 202.976 11.2242 201.158L8.23489 198.5Z" fill="#A6EB54"/>
</svg>
