<svg width="27" height="111" viewBox="0 0 27 111" fill="none" xmlns="http://www.w3.org/2000/svg">
<path d="M21.12 61.636L20.7403 62.0826L21.12 61.636ZM8.03194 109.353C8.22667 109.611 8.59406 109.663 8.85255 109.468L13.0648 106.291C13.3233 106.096 13.3749 105.729 13.1802 105.471C12.9855 105.212 12.6181 105.161 12.3596 105.356L8.61542 108.18L5.7948 104.438C5.60008 104.18 5.23268 104.129 4.9742 104.324C4.71572 104.519 4.66403 104.886 4.85875 105.144L8.03194 109.353ZM16.4597 0.439341C16.0352 1.29631 15.626 2.14162 15.232 2.9755L16.2915 3.47534C16.6824 2.64818 17.0884 1.80938 17.5098 0.958721L16.4597 0.439341ZM12.9368 8.10249C12.179 9.89994 11.4966 11.6404 10.8862 13.3266L11.9881 13.7245C12.5912 12.0585 13.2662 10.3369 14.0167 8.55687L12.9368 8.10249ZM9.13684 18.6693C8.58543 20.5643 8.13314 22.3849 7.77394 24.136L8.92196 24.3704C9.27439 22.6524 9.71889 20.8625 10.2621 18.9958L9.13684 18.6693ZM6.91467 29.7053C6.71638 31.6867 6.65015 33.5698 6.70463 35.3634L7.87603 35.3267C7.82318 33.5869 7.88725 31.7548 8.08078 29.8209L6.91467 29.7053ZM7.31346 41.0002C7.68373 42.933 8.21017 44.7478 8.87173 46.4601L9.96497 46.0369C9.3286 44.3899 8.82153 42.6426 8.46447 40.7788L7.31346 41.0002ZM11.3899 51.5514C12.3807 53.1756 13.4999 54.6976 14.7197 56.1375L15.6142 55.3796C14.4291 53.9808 13.3465 52.5076 12.3905 50.9405L11.3899 51.5514ZM18.6329 60.2111C19.3186 60.8491 20.0221 61.4721 20.7403 62.0826L21.4998 61.1895C20.7936 60.5892 20.1033 59.9778 19.4317 59.3529L18.6329 60.2111ZM20.7403 62.0826C21.6409 62.8481 22.3624 63.6046 22.9288 64.3556L23.8648 63.6495C23.2384 62.8189 22.4546 62.0011 21.4998 61.1895L20.7403 62.0826ZM24.645 70.0832C24.4865 71.9303 23.7672 73.8966 22.6706 76.0658L23.7165 76.5937C24.8403 74.3705 25.6354 72.2477 25.8126 70.1823L24.645 70.0832ZM19.4188 81.7067C18.3382 83.4643 17.1686 85.3371 16.0032 87.3337L17.0152 87.9237C18.1718 85.9421 19.3309 84.0863 20.417 82.3198L19.4188 81.7067ZM12.8751 93.1505C11.9431 95.0723 11.0686 97.1034 10.3052 99.2576L11.4098 99.6481C12.1565 97.541 13.0134 95.55 13.9295 93.661L12.8751 93.1505ZM8.49757 105.641C8.27148 106.707 8.07731 107.799 7.91972 108.919L9.08022 109.081C9.23395 107.989 9.42337 106.923 9.64398 105.883L8.49757 105.641ZM21.12 61.636L20.3605 62.5291L21.12 61.636ZM7.56392 109.706C7.95336 110.223 8.68816 110.325 9.20512 109.935L17.6296 103.582C18.1465 103.192 18.2499 102.457 17.8605 101.941C17.471 101.424 16.7362 101.322 16.2193 101.711L8.73086 107.359L3.08964 99.8764C2.70019 99.3599 1.9654 99.2572 1.44843 99.647C0.931468 100.037 0.828091 100.772 1.21754 101.288L7.56392 109.706ZM15.9347 0.179651C15.5086 1.03978 15.0979 1.88835 14.7022 2.72559L16.8212 3.72526C17.2105 2.90145 17.615 2.06591 18.0348 1.21841L15.9347 0.179651ZM12.3969 7.87529C11.6354 9.68149 10.9493 11.4314 10.3352 13.1276L12.5391 13.9235C13.1385 12.2675 13.8098 10.5553 14.5566 8.78407L12.3969 7.87529ZM8.57421 18.5061C8.01869 20.4152 7.56251 22.2512 7.19992 24.0187L9.49597 24.4876C9.84501 22.7862 10.2856 21.0116 10.8247 19.159L8.57421 18.5061ZM6.33162 29.6475C6.13095 31.6526 6.06364 33.5612 6.11894 35.3817L8.46172 35.3084C8.4097 33.5955 8.47269 31.7888 8.66384 29.8787L6.33162 29.6475ZM6.73795 41.111C7.11483 43.0783 7.65095 44.9268 8.32511 46.6717L10.5116 45.8253C9.88782 44.2109 9.39043 42.4974 9.03998 40.668L6.73795 41.111ZM10.8896 51.8568C11.8978 53.5096 13.0352 55.0561 14.2725 56.5165L16.0615 55.0006C14.8938 53.6223 13.8294 52.1736 12.8909 50.6351L10.8896 51.8568ZM18.2336 60.6402C18.9262 61.2847 19.6363 61.9136 20.3605 62.5291L21.8796 60.7429C21.1794 60.1477 20.4957 59.5422 19.8311 58.9238L18.2336 60.6402ZM20.3605 62.5291C21.234 63.2716 21.9245 63.9974 22.4609 64.7086L24.3327 63.2964C23.6764 62.4261 22.8615 61.5776 21.8796 60.7429L20.3605 62.5291ZM24.0612 70.0336C23.912 71.7717 23.2307 73.6596 22.1477 75.8019L24.2394 76.8576C25.3768 74.6075 26.2099 72.4064 26.3965 70.2318L24.0612 70.0336ZM18.9197 81.4002C17.8418 83.1533 16.6669 85.0345 15.4972 87.0387L17.5213 88.2187C18.6734 86.2447 19.8272 84.3973 20.9161 82.6263L18.9197 81.4002ZM12.348 92.8952C11.408 94.8334 10.5246 96.8847 9.75286 99.0624L11.9621 99.8434C12.7005 97.7597 13.5485 95.7889 14.4567 93.9163L12.348 92.8952ZM7.92437 105.52C7.69553 106.598 7.49899 107.704 7.33946 108.838L9.66047 109.162C9.81227 108.083 9.99932 107.031 10.2172 106.004L7.92437 105.52Z" fill="#A6EB54"/>
</svg>
