<svg width="33" height="123" viewBox="0 0 33 123" fill="none" xmlns="http://www.w3.org/2000/svg">
<path d="M19.6779 61.5545L19.2154 61.9146L19.6779 61.5545ZM7.87848 121.433C7.94061 121.751 8.24844 121.957 8.56604 121.895L13.7417 120.878C14.0593 120.816 14.2664 120.508 14.2042 120.19C14.1421 119.873 13.8343 119.666 13.5167 119.728L8.91613 120.632L8.01624 116.033C7.95412 115.715 7.64629 115.509 7.32869 115.571C7.01109 115.633 6.80398 115.941 6.86611 116.259L7.87848 121.433ZM15.0176 0.357778C14.5729 1.25544 14.1366 2.12498 13.7088 2.96784L14.7538 3.49732C15.1832 2.65124 15.6213 1.77834 16.0677 0.877158L15.0176 0.357778ZM11.0305 8.12993C10.0536 9.97473 9.13594 11.671 8.28228 13.243L9.31207 13.8015C10.1663 12.2284 11.0863 10.5279 12.0661 8.67755L11.0305 8.12993ZM5.51528 18.3666C4.49223 20.2969 3.61855 22.0236 2.91593 23.6155L3.98803 24.0878C4.67368 22.5343 5.53199 20.8366 6.55068 18.9146L5.51528 18.3666ZM1.08862 29.2668C0.74743 31.285 0.829417 33.2133 1.38625 35.2714L2.51753 34.9644C2.00512 33.0705 1.93104 31.3132 2.24416 29.4611L1.08862 29.2668ZM3.73772 40.7163C4.58717 42.2224 5.63472 43.8512 6.8899 45.6575L7.85251 44.9882C6.6101 43.2004 5.58428 41.6039 4.75865 40.14L3.73772 40.7163ZM10.3181 50.3772C11.3927 51.8099 12.5672 53.3455 13.845 55.0009L14.7729 54.2844C13.4969 52.6313 12.326 51.1003 11.2559 49.6736L10.3181 50.3772ZM17.4138 59.6001C17.9965 60.3488 18.5982 61.1216 19.2154 61.9146L20.1405 61.1944C19.522 60.3996 18.9228 59.6301 18.3389 58.8799L17.4138 59.6001ZM19.2154 61.9146C19.8362 62.7122 20.4279 63.4947 20.9912 64.2624L21.9363 63.5686C21.3661 62.7916 20.7678 62.0004 20.1405 61.1944L19.2154 61.9146ZM24.2812 69.0776C25.3933 70.8447 26.3397 72.5256 27.1347 74.1286L28.1847 73.6072C27.3702 71.965 26.404 70.2495 25.2732 68.4529L24.2812 69.0776ZM29.3317 79.4659C29.9706 81.4581 30.3484 83.317 30.5044 85.0655L31.6717 84.9604C31.5073 83.1176 31.1104 81.1736 30.4477 79.1072L29.3317 79.4659ZM30.2147 90.7373C29.8368 92.6261 29.1859 94.4018 28.3237 96.1066L29.3694 96.6346C30.2728 94.8483 30.9625 92.9723 31.3638 90.9661L30.2147 90.7373ZM25.2291 100.966C24.0908 102.467 22.8237 103.939 21.479 105.416L22.3455 106.205C23.703 104.713 24.9954 103.213 26.1627 101.673L25.2291 100.966ZM17.4678 109.691C16.1384 111.092 14.7881 112.526 13.465 114.014L14.3408 114.792C15.6502 113.319 16.9891 111.897 18.3177 110.497L17.4678 109.691ZM9.69495 118.576C9.10123 119.361 8.52366 120.166 7.96738 120.993L8.93973 121.647C9.48277 120.839 10.0476 120.052 10.6295 119.283L9.69495 118.576ZM19.6779 61.5545L18.7528 62.2747L19.6779 61.5545ZM7.30341 121.546C7.42766 122.181 8.04332 122.595 8.67852 122.47L19.0298 120.436C19.665 120.311 20.0792 119.695 19.9549 119.06C19.8307 118.425 19.215 118.011 18.5798 118.136L9.37872 119.944L7.57893 110.746C7.45468 110.111 6.83903 109.697 6.20382 109.822C5.56862 109.947 5.15441 110.563 5.27866 111.198L7.30341 121.546ZM14.4926 0.0980883C14.0488 0.993996 13.6133 1.86184 13.1863 2.7031L15.2763 3.76206C15.7065 2.91438 16.1454 2.03979 16.5927 1.13685L14.4926 0.0980883ZM10.5127 7.85611C9.53725 9.69817 8.62076 11.3923 7.76739 12.9638L9.82697 14.0807C10.6815 12.5071 11.6026 10.8044 12.5839 8.95136L10.5127 7.85611ZM4.99758 18.0927C3.97235 20.027 3.09099 21.7682 2.37988 23.3793L4.52408 24.3239C5.20125 22.7897 6.05187 21.1065 7.06837 19.1886L4.99758 18.0927ZM0.51085 29.1696C0.155621 31.2709 0.241568 33.2847 0.820601 35.4249L3.08318 34.8109C2.59297 32.9991 2.52285 31.3273 2.82192 29.5582L0.51085 29.1696ZM3.22726 41.0045C4.08862 42.5317 5.14703 44.1767 6.40859 45.9921L8.33381 44.6536C7.09779 42.8749 6.08284 41.2946 5.26912 39.8518L3.22726 41.0045ZM9.84923 50.7291C10.9261 52.1647 12.1023 53.7027 13.381 55.3592L15.2369 53.9261C13.9617 52.2741 12.7927 50.7455 11.7248 49.3218L9.84923 50.7291ZM16.9512 59.9602C17.5333 60.7082 18.1363 61.4826 18.7528 62.2747L20.6031 60.8343C19.9838 60.0386 19.3859 59.2707 18.8015 58.5198L16.9512 59.9602ZM18.7528 62.2747C19.3704 63.0682 19.9587 63.8462 20.5187 64.6093L22.4089 63.2217C21.8353 62.44 21.2336 61.6444 20.6031 60.8343L18.7528 62.2747ZM23.7852 69.39C24.8879 71.1423 25.8244 72.8059 26.6097 74.3893L28.7097 73.3466C27.8855 71.6846 26.9093 69.952 25.7692 68.1405L23.7852 69.39ZM28.7737 79.6453C29.4007 81.6004 29.7689 83.4167 29.9207 85.1181L32.2553 84.9078C32.0867 83.0179 31.6803 81.0314 31.0057 78.9278L28.7737 79.6453ZM29.6401 90.6228C29.274 92.453 28.6424 94.1786 27.8008 95.8425L29.8923 96.8986C30.8163 95.0715 31.5254 93.1454 31.9384 91.0805L29.6401 90.6228ZM24.7623 100.612C23.6385 102.094 22.3841 103.551 21.0457 105.022L22.7788 106.599C24.1426 105.1 25.4476 103.586 26.6295 102.027L24.7623 100.612ZM17.0429 109.288C15.7131 110.689 14.3571 112.129 13.0272 113.625L14.7786 115.181C16.0812 113.716 17.4144 112.3 18.7426 110.9L17.0429 109.288ZM9.22767 118.223C8.62805 119.016 8.0441 119.83 7.4812 120.667L9.4259 121.973C9.96233 121.176 10.5208 120.397 11.0968 119.636L9.22767 118.223Z" fill="#A6EB54"/>
</svg>
