<svg width="300" height="300" viewBox="0 0 300 300" fill="none" xmlns="http://www.w3.org/2000/svg">
<path d="M153.894 287.982C231.107 287.982 293.7 251.843 293.7 207.264C293.7 162.685 231.107 126.546 153.894 126.546C76.6813 126.546 14.088 162.685 14.088 207.264C14.088 251.843 76.6813 287.982 153.894 287.982Z" fill="#F5F5F5"/>
<path d="M152.796 175.692C169.577 175.692 183.18 167.837 183.18 158.148C183.18 148.459 169.577 140.604 152.796 140.604C136.015 140.604 122.412 148.459 122.412 158.148C122.412 167.837 136.015 175.692 152.796 175.692Z" fill="#E0E0E0"/>
<path d="M226.266 263.7C246.284 263.7 262.512 253.836 262.512 241.668C262.512 229.5 246.284 219.636 226.266 219.636C206.248 219.636 190.02 229.5 190.02 241.668C190.02 253.836 206.248 263.7 226.266 263.7Z" fill="#E0E0E0"/>
<path d="M64.746 244.932C83.0145 244.932 97.824 236.382 97.824 225.834C97.824 215.287 83.0145 206.736 64.746 206.736C46.4775 206.736 31.668 215.287 31.668 225.834C31.668 236.382 46.4775 244.932 64.746 244.932Z" fill="#E0E0E0"/>
<path d="M218.568 92.7061L208.92 82.7161L203.52 83.1301L218.568 92.7061Z" fill="#007A8B"/>
<path d="M218.568 92.7059L210.678 82.1639L213.468 80.1599L218.568 92.7059Z" fill="#007A8B"/>
<path d="M210.678 82.1641L210.228 84.0721L218.568 92.7061L210.678 82.1641Z" fill="#007A8B"/>
<path opacity="0.3" d="M210.678 82.1641L210.228 84.0721L218.568 92.7061L210.678 82.1641Z" fill="black"/>
<path d="M81.018 108.792L92.586 98.1001L98.664 98.9161L81.018 108.792Z" fill="#007A8B"/>
<path d="M81.018 108.792L90.624 97.3679L87.6 94.9199L81.018 108.792Z" fill="#007A8B"/>
<path d="M90.624 97.3679L91.014 99.5519L81.018 108.792L90.624 97.3679Z" fill="#007A8B"/>
<path opacity="0.3" d="M90.624 97.3679L91.014 99.5519L81.018 108.792L90.624 97.3679Z" fill="black"/>
<path d="M190.482 145.878L202.818 137.982L208.248 139.728L190.482 145.878Z" fill="#007A8B"/>
<path d="M190.482 145.878L201.144 136.992L198.774 134.256L190.482 145.878Z" fill="#007A8B"/>
<path d="M201.144 136.992V139.056L190.482 145.878L201.144 136.992Z" fill="#007A8B"/>
<path opacity="0.3" d="M201.144 136.992V139.056L190.482 145.878L201.144 136.992Z" fill="black"/>
<path d="M111.51 178.038L97.182 168.864L90.87 170.886L111.51 178.038Z" fill="#007A8B"/>
<path d="M111.51 178.038L99.126 167.712L101.88 164.532L111.51 178.038Z" fill="#007A8B"/>
<path d="M99.126 167.712V170.106L111.51 178.038L99.126 167.712Z" fill="#007A8B"/>
<path opacity="0.3" d="M99.126 167.712V170.106L111.51 178.038L99.126 167.712Z" fill="black"/>
<path d="M78.894 143.448C78.8306 143.447 78.7694 143.424 78.7205 143.384C78.6715 143.344 78.6375 143.288 78.624 143.226L78.462 142.404C78.4485 142.332 78.4643 142.257 78.5059 142.196C78.5475 142.135 78.6116 142.093 78.684 142.08C78.7564 142.066 78.8312 142.082 78.892 142.124C78.9527 142.165 78.9945 142.23 79.008 142.302C79.062 142.572 79.11 142.842 79.17 143.112C79.1843 143.184 79.1697 143.259 79.1293 143.321C79.0889 143.383 79.026 143.426 78.954 143.442L78.894 143.448Z" fill="#E0E0E0"/>
<path d="M93.534 165.774C93.4786 165.773 93.4246 165.756 93.378 165.726C92.902 165.402 92.434 165.066 91.974 164.718C91.945 164.696 91.9208 164.668 91.9027 164.636C91.8846 164.604 91.8729 164.569 91.8685 164.533C91.864 164.497 91.8668 164.46 91.8767 164.425C91.8866 164.389 91.9033 164.357 91.926 164.328C91.9711 164.27 92.0372 164.232 92.11 164.222C92.1829 164.211 92.2568 164.23 92.316 164.274C92.76 164.616 93.222 164.952 93.69 165.264C93.7375 165.298 93.7731 165.347 93.7917 165.403C93.8104 165.458 93.8111 165.518 93.794 165.575C93.7768 165.631 93.7425 165.68 93.6959 165.716C93.6493 165.752 93.5927 165.772 93.534 165.774ZM90.816 163.704C90.7502 163.703 90.6867 163.68 90.636 163.638C90.204 163.272 89.772 162.882 89.352 162.486C89.3201 162.462 89.2936 162.432 89.2743 162.397C89.2549 162.362 89.2431 162.324 89.2396 162.284C89.2361 162.245 89.241 162.205 89.254 162.167C89.2671 162.13 89.2879 162.095 89.3151 162.066C89.3424 162.038 89.3754 162.015 89.4122 161.999C89.4489 161.984 89.4884 161.977 89.5281 161.978C89.5679 161.979 89.607 161.988 89.6428 162.006C89.6786 162.023 89.7104 162.048 89.736 162.078C90.15 162.474 90.576 162.852 90.996 163.212C91.0237 163.235 91.0464 163.264 91.0629 163.297C91.0793 163.329 91.0892 163.364 91.092 163.401C91.0948 163.437 91.0904 163.473 91.0791 163.508C91.0678 163.542 91.0497 163.574 91.026 163.602C91.0006 163.633 90.9686 163.659 90.9323 163.676C90.8961 163.694 90.8563 163.703 90.816 163.704ZM88.332 161.358C88.2945 161.358 88.2575 161.35 88.2233 161.334C88.1892 161.319 88.1587 161.296 88.134 161.268C87.744 160.866 87.354 160.434 86.97 159.996C86.9218 159.939 86.8979 159.866 86.9035 159.792C86.9091 159.718 86.9438 159.649 87 159.6C87.0272 159.575 87.0591 159.557 87.0937 159.545C87.1283 159.533 87.165 159.528 87.2014 159.531C87.2379 159.534 87.2734 159.544 87.3059 159.561C87.3383 159.578 87.3669 159.602 87.39 159.63C87.768 160.056 88.152 160.482 88.536 160.878C88.588 160.931 88.6172 161.002 88.6172 161.076C88.6172 161.15 88.588 161.221 88.536 161.274C88.5092 161.301 88.4774 161.322 88.4424 161.336C88.4074 161.351 88.3699 161.358 88.332 161.358ZM86.094 158.778C86.0512 158.778 86.0088 158.769 85.9703 158.75C85.9317 158.731 85.8981 158.704 85.872 158.67C85.524 158.226 85.176 157.764 84.84 157.296C84.8181 157.267 84.8022 157.234 84.7934 157.199C84.7845 157.164 84.7828 157.127 84.7884 157.091C84.794 157.055 84.8068 157.021 84.826 156.99C84.8452 156.959 84.8703 156.933 84.9 156.912C84.9294 156.89 84.9629 156.874 84.9986 156.865C85.0342 156.856 85.0713 156.854 85.1076 156.86C85.144 156.865 85.1788 156.878 85.2101 156.897C85.2414 156.917 85.2686 156.942 85.29 156.972C85.62 157.434 85.962 157.89 86.31 158.328C86.3327 158.357 86.3495 158.389 86.3594 158.425C86.3692 158.46 86.372 158.497 86.3676 158.533C86.3631 158.569 86.3515 158.604 86.3333 158.636C86.3152 158.668 86.291 158.696 86.262 158.718C86.2152 158.758 86.1555 158.779 86.094 158.778ZM84.096 156C84.0504 156 84.0053 155.989 83.9654 155.967C83.9254 155.945 83.8919 155.913 83.868 155.874C83.556 155.4 83.268 154.908 82.962 154.41C82.9247 154.347 82.9138 154.272 82.9318 154.201C82.9498 154.13 82.9952 154.069 83.058 154.032C83.0897 154.013 83.125 154 83.1617 153.995C83.1984 153.99 83.2358 153.992 83.2717 154.001C83.3075 154.011 83.3411 154.027 83.3703 154.05C83.3996 154.073 83.424 154.102 83.442 154.134C83.73 154.62 84.042 155.1 84.33 155.574C84.3693 155.636 84.3832 155.71 84.3686 155.782C84.3541 155.853 84.3122 155.916 84.252 155.958C84.2051 155.986 84.151 156.001 84.096 156ZM82.368 153.06C82.3172 153.06 82.2673 153.046 82.2239 153.02C82.1805 152.993 82.1452 152.955 82.122 152.91C81.858 152.4 81.594 151.884 81.354 151.368C81.3379 151.335 81.3286 151.3 81.3266 151.264C81.3245 151.227 81.3298 151.191 81.3422 151.157C81.3545 151.123 81.3736 151.091 81.3983 151.065C81.423 151.038 81.4528 151.017 81.486 151.002C81.553 150.971 81.6294 150.967 81.699 150.992C81.7685 151.017 81.8256 151.068 81.858 151.134C82.098 151.638 82.35 152.148 82.614 152.652C82.648 152.716 82.6551 152.792 82.6337 152.861C82.6123 152.931 82.5643 152.99 82.5 153.024C82.4597 153.047 82.4143 153.059 82.368 153.06ZM80.916 149.964C80.8612 149.965 80.8074 149.949 80.7614 149.919C80.7155 149.889 80.6795 149.846 80.658 149.796C80.442 149.274 80.232 148.734 80.058 148.188C80.0456 148.154 80.0402 148.117 80.042 148.081C80.0437 148.044 80.0527 148.009 80.0683 147.976C80.0839 147.943 80.1059 147.914 80.1329 147.889C80.16 147.865 80.1917 147.846 80.226 147.834C80.2953 147.811 80.3709 147.815 80.437 147.846C80.503 147.878 80.5543 147.933 80.58 148.002C80.772 148.536 80.982 149.07 81.18 149.58C81.2084 149.648 81.2092 149.724 81.1823 149.792C81.1555 149.861 81.1029 149.916 81.036 149.946C80.9974 149.959 80.9568 149.965 80.916 149.964ZM79.752 146.754C79.6925 146.754 79.6347 146.734 79.5872 146.699C79.5396 146.663 79.5048 146.613 79.488 146.556C79.32 146.01 79.158 145.452 79.014 144.906C78.9974 144.834 79.0094 144.758 79.0474 144.694C79.0854 144.63 79.1465 144.584 79.218 144.564C79.2888 144.546 79.364 144.556 79.427 144.593C79.49 144.631 79.5357 144.691 79.554 144.762C79.692 145.308 79.848 145.854 80.016 146.394C80.0272 146.429 80.0314 146.465 80.0284 146.501C80.0254 146.538 80.0152 146.573 79.9985 146.605C79.9817 146.638 79.9588 146.666 79.9309 146.69C79.903 146.713 79.8708 146.731 79.836 146.742L79.752 146.754Z" fill="#E0E0E0"/>
<path d="M95.706 167.094C95.6596 167.094 95.614 167.082 95.574 167.058C95.328 166.926 95.082 166.788 94.842 166.644C94.8098 166.627 94.7815 166.603 94.7588 166.574C94.7361 166.545 94.7194 166.512 94.7099 166.477C94.7003 166.442 94.6981 166.405 94.7033 166.368C94.7085 166.332 94.721 166.297 94.74 166.266C94.7581 166.235 94.7822 166.207 94.811 166.185C94.8398 166.162 94.8727 166.146 94.9078 166.136C94.9429 166.127 94.9796 166.125 95.0157 166.129C95.0518 166.134 95.0865 166.146 95.118 166.164C95.358 166.308 95.598 166.44 95.838 166.566C95.892 166.596 95.9346 166.644 95.9592 166.7C95.9837 166.757 95.9889 166.821 95.9738 166.881C95.9588 166.941 95.9245 166.994 95.8761 167.033C95.8277 167.071 95.7679 167.093 95.706 167.094Z" fill="#E0E0E0"/>
<path d="M119.76 86.8561C119.687 86.8561 119.617 86.827 119.565 86.7752C119.513 86.7235 119.484 86.6533 119.484 86.5801C119.484 86.5069 119.513 86.4367 119.565 86.3849C119.617 86.3332 119.687 86.3041 119.76 86.3041C120.042 86.3041 120.318 86.2621 120.6 86.2501C120.673 86.2484 120.743 86.2749 120.797 86.3241C120.851 86.3733 120.883 86.4414 120.888 86.5141C120.89 86.55 120.886 86.5861 120.874 86.6202C120.862 86.6543 120.844 86.6856 120.82 86.7125C120.796 86.7393 120.767 86.7611 120.734 86.7765C120.701 86.7919 120.666 86.8006 120.63 86.8021L119.802 86.8561H119.76Z" fill="#E0E0E0"/>
<path d="M95.598 95.2919C95.5537 95.2921 95.51 95.2819 95.4704 95.2621C95.4308 95.2423 95.3964 95.2135 95.37 95.1779C95.3276 95.1172 95.3108 95.0423 95.3232 94.9694C95.3355 94.8964 95.376 94.8312 95.436 94.7879C95.88 94.4759 96.33 94.1879 96.786 93.8759C96.8476 93.8366 96.9221 93.8227 96.9938 93.8373C97.0654 93.8518 97.1286 93.8936 97.17 93.9539C97.19 93.9845 97.2036 94.0188 97.2102 94.0548C97.2168 94.0908 97.2162 94.1277 97.2083 94.1635C97.2005 94.1992 97.1857 94.233 97.1647 94.2629C97.1437 94.2929 97.1169 94.3184 97.086 94.3379C96.636 94.6319 96.192 94.9379 95.754 95.2439C95.7074 95.274 95.6534 95.2906 95.598 95.2919ZM98.31 93.5279C98.2484 93.5296 98.188 93.5107 98.1384 93.4742C98.0888 93.4376 98.0528 93.3855 98.0363 93.3262C98.0197 93.2668 98.0235 93.2036 98.047 93.1467C98.0705 93.0897 98.1124 93.0423 98.166 93.0119C98.634 92.7299 99.102 92.4599 99.576 92.1959C99.6407 92.1611 99.7163 92.153 99.7869 92.1732C99.8575 92.1933 99.9174 92.2402 99.954 92.3039C99.9728 92.3355 99.985 92.3707 99.9898 92.4072C99.9945 92.4437 99.9917 92.4808 99.9816 92.5162C99.9715 92.5516 99.9543 92.5846 99.9309 92.6131C99.9076 92.6416 99.8787 92.665 99.846 92.6819C99.378 92.9459 98.91 93.2099 98.454 93.4859C98.4111 93.5135 98.3611 93.5281 98.31 93.5279ZM101.142 91.9619C101.09 91.9621 101.04 91.9475 100.996 91.9199C100.953 91.8922 100.918 91.8527 100.896 91.8059C100.864 91.7404 100.859 91.6651 100.881 91.5957C100.903 91.5264 100.952 91.4684 101.016 91.4339C101.502 91.1879 101.988 90.9539 102.486 90.7259C102.552 90.6951 102.628 90.6917 102.696 90.7164C102.765 90.7412 102.821 90.792 102.852 90.8579C102.883 90.9248 102.887 91.0013 102.862 91.0708C102.837 91.1404 102.786 91.1975 102.72 91.2299C102.234 91.4519 101.748 91.6859 101.268 91.9319C101.229 91.9509 101.186 91.9612 101.142 91.9619ZM104.082 90.5999C104.027 90.5986 103.973 90.5816 103.927 90.5507C103.882 90.5199 103.846 90.4766 103.824 90.4259C103.796 90.3583 103.796 90.2823 103.825 90.2149C103.853 90.1474 103.906 90.0938 103.974 90.0659C104.474 89.8499 104.978 89.6499 105.486 89.4659C105.554 89.4406 105.63 89.4435 105.696 89.4738C105.763 89.5042 105.814 89.5596 105.84 89.6279C105.854 89.6612 105.862 89.6972 105.862 89.7335C105.861 89.7698 105.854 89.8057 105.839 89.8389C105.825 89.8721 105.803 89.902 105.776 89.9266C105.75 89.9512 105.718 89.97 105.684 89.9819C105.18 90.1799 104.682 90.3779 104.19 90.5819C104.155 90.5935 104.119 90.5996 104.082 90.5999ZM107.082 89.4359C107.024 89.4356 106.968 89.4177 106.921 89.3844C106.874 89.3512 106.838 89.3042 106.818 89.2499C106.806 89.2152 106.801 89.1785 106.803 89.1418C106.805 89.1052 106.814 89.0693 106.831 89.0363C106.847 89.0033 106.869 88.9739 106.897 88.9498C106.925 88.9257 106.957 88.9074 106.992 88.8959C107.5 88.7159 108.016 88.5479 108.54 88.3919C108.575 88.3807 108.611 88.3765 108.647 88.3795C108.684 88.3825 108.719 88.3927 108.751 88.4094C108.784 88.4262 108.813 88.4491 108.836 88.477C108.859 88.5049 108.877 88.5371 108.888 88.5719C108.909 88.6427 108.901 88.7188 108.866 88.7838C108.831 88.8489 108.772 88.8977 108.702 88.9199C108.186 89.0819 107.676 89.2439 107.172 89.4239L107.082 89.4359ZM110.172 88.4819C110.112 88.4814 110.053 88.4611 110.006 88.4243C109.958 88.3875 109.924 88.336 109.908 88.2779C109.898 88.2428 109.895 88.2061 109.899 88.1699C109.903 88.1337 109.915 88.0987 109.933 88.0669C109.951 88.0351 109.975 88.0071 110.003 87.9846C110.032 87.9621 110.065 87.9456 110.1 87.9359C110.622 87.7919 111.15 87.6599 111.678 87.5339C111.75 87.5175 111.825 87.5296 111.887 87.5677C111.95 87.6058 111.996 87.6668 112.014 87.7379C112.023 87.7734 112.025 87.8102 112.019 87.8464C112.014 87.8826 112.001 87.9173 111.982 87.9486C111.963 87.9798 111.938 88.007 111.909 88.0285C111.879 88.05 111.846 88.0655 111.81 88.0739C111.288 88.1999 110.766 88.3319 110.25 88.4699L110.172 88.4819ZM113.322 87.7319C113.259 87.7306 113.197 87.708 113.148 87.6678C113.099 87.6275 113.065 87.5719 113.052 87.5099C113.038 87.4383 113.053 87.364 113.093 87.3033C113.134 87.2426 113.196 87.2004 113.268 87.1859C113.802 87.0779 114.336 86.9759 114.87 86.8859C114.942 86.8754 115.016 86.8932 115.075 86.9358C115.134 86.9783 115.175 87.0421 115.188 87.1139C115.195 87.1494 115.195 87.1859 115.187 87.2213C115.18 87.2567 115.165 87.2902 115.144 87.3199C115.124 87.3496 115.097 87.3748 115.067 87.394C115.036 87.4132 115.002 87.4261 114.966 87.4319C114.432 87.5219 113.904 87.6239 113.382 87.7259L113.322 87.7319ZM116.52 87.1919C116.453 87.1925 116.387 87.1684 116.337 87.1242C116.286 87.08 116.253 87.0187 116.244 86.9519C116.234 86.8795 116.253 86.806 116.296 86.7475C116.34 86.689 116.406 86.6503 116.478 86.6399C117.018 86.5679 117.558 86.5019 118.098 86.4419C118.167 86.4428 118.234 86.4693 118.285 86.5163C118.336 86.5634 118.368 86.6276 118.375 86.6967C118.382 86.7658 118.363 86.835 118.321 86.8909C118.28 86.9469 118.22 86.9857 118.152 86.9999C117.618 87.0539 117.084 87.1139 116.556 87.1919H116.52Z" fill="#E0E0E0"/>
<path d="M93.6 96.7619C93.5588 96.7614 93.5182 96.752 93.4809 96.7344C93.4436 96.7168 93.4106 96.6914 93.384 96.6599C93.3605 96.6316 93.343 96.5988 93.3327 96.5635C93.3223 96.5281 93.3193 96.4911 93.3238 96.4546C93.3283 96.418 93.3402 96.3828 93.3588 96.3511C93.3774 96.3193 93.4023 96.2917 93.432 96.2699L94.092 95.7539C94.1509 95.7094 94.225 95.69 94.2982 95.7001C94.3713 95.7103 94.4374 95.749 94.482 95.8079C94.5265 95.8668 94.5459 95.941 94.5357 96.0141C94.5256 96.0872 94.4869 96.1534 94.428 96.1979L93.774 96.7019C93.7245 96.7412 93.6631 96.7624 93.6 96.7619Z" fill="#E0E0E0"/>
<path d="M204.492 135.36C204.449 135.359 204.406 135.349 204.368 135.329C204.329 135.309 204.296 135.281 204.27 135.246C204.248 135.216 204.232 135.183 204.223 135.147C204.214 135.112 204.212 135.075 204.218 135.038C204.224 135.002 204.236 134.967 204.256 134.936C204.275 134.904 204.3 134.877 204.33 134.856L204.726 134.562C204.755 134.54 204.788 134.524 204.824 134.514C204.859 134.505 204.896 134.503 204.932 134.508C204.968 134.513 205.003 134.525 205.035 134.544C205.066 134.562 205.094 134.587 205.116 134.616C205.138 134.645 205.154 134.678 205.163 134.714C205.173 134.749 205.175 134.786 205.17 134.822C205.165 134.858 205.153 134.893 205.134 134.925C205.116 134.956 205.091 134.984 205.062 135.006L204.66 135.306C204.611 135.341 204.552 135.36 204.492 135.36ZM206.214 134.046C206.172 134.046 206.131 134.036 206.093 134.017C206.056 133.999 206.023 133.971 205.998 133.938C205.953 133.88 205.932 133.807 205.94 133.734C205.948 133.662 205.984 133.595 206.04 133.548C206.472 133.206 206.904 132.858 207.324 132.498C207.352 132.474 207.384 132.456 207.419 132.445C207.454 132.434 207.491 132.43 207.527 132.433C207.564 132.436 207.599 132.446 207.632 132.463C207.664 132.48 207.693 132.503 207.717 132.531C207.741 132.559 207.758 132.591 207.77 132.626C207.781 132.661 207.785 132.698 207.782 132.734C207.779 132.771 207.769 132.806 207.752 132.839C207.735 132.871 207.712 132.9 207.684 132.924C207.26 133.284 206.828 133.638 206.388 133.986C206.338 134.023 206.277 134.044 206.214 134.046ZM208.764 131.892C208.724 131.891 208.685 131.882 208.649 131.866C208.613 131.849 208.58 131.826 208.554 131.796C208.502 131.744 208.473 131.674 208.473 131.601C208.473 131.528 208.502 131.458 208.554 131.406C208.962 131.034 209.364 130.662 209.754 130.278C209.78 130.251 209.81 130.23 209.845 130.215C209.879 130.2 209.915 130.193 209.952 130.193C209.99 130.193 210.026 130.2 210.061 130.214C210.095 130.229 210.126 130.25 210.152 130.277C210.177 130.303 210.198 130.335 210.211 130.369C210.224 130.404 210.231 130.441 210.229 130.478C210.228 130.515 210.219 130.552 210.204 130.585C210.188 130.619 210.166 130.649 210.138 130.674C209.736 131.064 209.328 131.448 208.938 131.82C208.89 131.863 208.829 131.889 208.764 131.892ZM211.164 129.576C211.128 129.576 211.093 129.569 211.06 129.556C211.027 129.543 210.997 129.523 210.972 129.498C210.92 129.446 210.891 129.376 210.891 129.303C210.891 129.23 210.92 129.16 210.972 129.108C211.356 128.712 211.74 128.304 212.112 127.908C212.161 127.854 212.23 127.821 212.303 127.818C212.376 127.815 212.448 127.841 212.502 127.89C212.556 127.939 212.588 128.008 212.592 128.081C212.595 128.154 212.569 128.226 212.52 128.28C212.142 128.694 211.758 129.102 211.374 129.48C211.349 129.514 211.318 129.542 211.282 129.562C211.246 129.583 211.205 129.596 211.164 129.6V129.576ZM213.408 127.104C213.375 127.105 213.342 127.1 213.311 127.089C213.28 127.078 213.252 127.06 213.228 127.038C213.2 127.015 213.177 126.986 213.16 126.954C213.143 126.922 213.132 126.887 213.129 126.85C213.125 126.814 213.129 126.778 213.14 126.743C213.151 126.708 213.169 126.676 213.192 126.648C213.552 126.228 213.9 125.796 214.236 125.364C214.281 125.306 214.348 125.268 214.421 125.259C214.494 125.25 214.568 125.271 214.626 125.316C214.684 125.361 214.722 125.428 214.731 125.501C214.74 125.574 214.719 125.648 214.674 125.706C214.332 126.144 213.978 126.582 213.618 127.008C213.593 127.039 213.56 127.063 213.524 127.08C213.488 127.097 213.448 127.105 213.408 127.104ZM215.454 124.476C215.396 124.475 215.339 124.456 215.292 124.422C215.233 124.379 215.194 124.314 215.183 124.242C215.172 124.17 215.189 124.097 215.232 124.038C215.556 123.59 215.868 123.134 216.168 122.67C216.21 122.609 216.275 122.567 216.347 122.553C216.42 122.538 216.495 122.552 216.558 122.592C216.618 122.633 216.66 122.696 216.675 122.768C216.689 122.84 216.675 122.914 216.636 122.976C216.324 123.444 216.006 123.906 215.682 124.362C215.656 124.397 215.621 124.426 215.582 124.446C215.542 124.466 215.498 124.476 215.454 124.476ZM217.29 121.692C217.239 121.692 217.189 121.678 217.146 121.65C217.083 121.612 217.038 121.552 217.02 121.481C217.002 121.41 217.013 121.335 217.05 121.272C217.332 120.798 217.608 120.318 217.872 119.832C217.889 119.8 217.913 119.772 217.941 119.749C217.969 119.726 218.002 119.709 218.036 119.699C218.071 119.688 218.108 119.685 218.144 119.689C218.18 119.693 218.215 119.704 218.247 119.721C218.279 119.738 218.307 119.762 218.33 119.79C218.353 119.818 218.37 119.851 218.38 119.885C218.39 119.92 218.394 119.957 218.39 119.993C218.386 120.029 218.375 120.064 218.358 120.096C218.094 120.588 217.818 121.074 217.53 121.554C217.506 121.596 217.471 121.631 217.429 121.655C217.386 121.679 217.339 121.692 217.29 121.692ZM218.874 118.758C218.828 118.757 218.782 118.744 218.742 118.722C218.701 118.699 218.667 118.667 218.642 118.627C218.617 118.588 218.602 118.543 218.599 118.497C218.595 118.451 218.603 118.404 218.622 118.362C218.862 117.864 219.096 117.354 219.306 116.85C219.336 116.783 219.391 116.73 219.46 116.704C219.528 116.677 219.604 116.677 219.672 116.706C219.706 116.72 219.737 116.74 219.763 116.766C219.79 116.792 219.81 116.823 219.824 116.857C219.838 116.891 219.845 116.928 219.845 116.965C219.844 117.002 219.837 117.038 219.822 117.072C219.6 117.582 219.366 118.098 219.126 118.602C219.102 118.648 219.066 118.687 219.022 118.715C218.977 118.742 218.926 118.757 218.874 118.758ZM220.176 115.692H220.08C220.011 115.665 219.956 115.612 219.925 115.545C219.895 115.478 219.892 115.401 219.918 115.332C220.11 114.81 220.29 114.288 220.452 113.766C220.474 113.696 220.523 113.638 220.589 113.604C220.621 113.587 220.656 113.577 220.693 113.574C220.729 113.571 220.765 113.575 220.8 113.586C220.835 113.597 220.867 113.615 220.895 113.638C220.922 113.662 220.945 113.69 220.962 113.723C220.979 113.755 220.989 113.79 220.992 113.826C220.995 113.863 220.991 113.899 220.98 113.934C220.818 114.462 220.632 114.996 220.44 115.524C220.419 115.571 220.386 115.612 220.344 115.641C220.301 115.671 220.252 115.689 220.2 115.692H220.176ZM221.172 112.506H221.1C221.03 112.485 220.97 112.438 220.933 112.374C220.896 112.311 220.885 112.235 220.902 112.164C221.04 111.63 221.16 111.09 221.268 110.556C221.282 110.483 221.325 110.42 221.386 110.379C221.447 110.338 221.523 110.323 221.595 110.337C221.667 110.351 221.731 110.394 221.772 110.455C221.813 110.516 221.828 110.591 221.814 110.664C221.706 111.21 221.58 111.756 221.442 112.302C221.424 112.36 221.389 112.411 221.34 112.448C221.292 112.484 221.233 112.505 221.172 112.506ZM221.826 109.242H221.79C221.754 109.238 221.719 109.226 221.687 109.208C221.656 109.189 221.628 109.165 221.606 109.136C221.585 109.107 221.569 109.073 221.56 109.038C221.551 109.003 221.55 108.966 221.556 108.93C221.634 108.384 221.7 107.832 221.748 107.292C221.758 107.219 221.796 107.153 221.852 107.107C221.909 107.06 221.981 107.036 222.054 107.04C222.127 107.047 222.194 107.083 222.241 107.139C222.288 107.195 222.311 107.267 222.306 107.34C222.252 107.892 222.186 108.456 222.102 109.008C222.092 109.074 222.058 109.133 222.008 109.176C221.957 109.219 221.892 109.243 221.826 109.242ZM222.138 105.924C222.102 105.922 222.066 105.914 222.033 105.898C222 105.883 221.971 105.861 221.946 105.835C221.922 105.808 221.903 105.777 221.89 105.742C221.878 105.708 221.872 105.672 221.874 105.636C221.874 105.21 221.874 104.784 221.874 104.352V103.986C221.872 103.949 221.878 103.913 221.891 103.879C221.904 103.845 221.923 103.814 221.949 103.787C221.974 103.761 222.004 103.74 222.038 103.726C222.071 103.711 222.107 103.704 222.144 103.704C222.217 103.705 222.286 103.735 222.337 103.786C222.389 103.838 222.418 103.907 222.42 103.98V104.346C222.42 104.79 222.42 105.228 222.39 105.66C222.389 105.727 222.362 105.792 222.315 105.841C222.269 105.89 222.205 105.919 222.138 105.924ZM222.102 102.594C222.031 102.594 221.963 102.568 221.911 102.52C221.858 102.472 221.826 102.406 221.82 102.336C221.79 101.79 221.742 101.232 221.676 100.686C221.671 100.613 221.693 100.541 221.739 100.484C221.784 100.428 221.85 100.39 221.922 100.38C221.958 100.376 221.995 100.379 222.03 100.389C222.065 100.399 222.098 100.416 222.126 100.439C222.155 100.462 222.178 100.49 222.196 100.522C222.213 100.554 222.224 100.59 222.228 100.626C222.294 101.178 222.342 101.742 222.378 102.3C222.381 102.373 222.356 102.444 222.308 102.499C222.26 102.554 222.193 102.588 222.12 102.594H222.102ZM221.73 99.2819C221.663 99.2827 221.599 99.2594 221.548 99.2164C221.498 99.1734 221.464 99.1136 221.454 99.0479C221.37 98.5139 221.262 97.9679 221.148 97.4219C221.134 97.3496 221.148 97.2745 221.189 97.2128C221.229 97.1512 221.292 97.1077 221.364 97.0919C221.4 97.084 221.437 97.0833 221.473 97.09C221.509 97.0966 221.544 97.1104 221.574 97.1305C221.605 97.1506 221.632 97.1767 221.652 97.2071C221.673 97.2376 221.687 97.2718 221.694 97.3079C221.808 97.8599 221.916 98.4179 222 98.9579C222.006 98.9937 222.005 99.0304 221.997 99.0659C221.988 99.1013 221.973 99.1347 221.952 99.1643C221.931 99.1938 221.904 99.2189 221.873 99.238C221.842 99.2572 221.808 99.2701 221.772 99.2759L221.73 99.2819Z" fill="#E0E0E0"/>
<path d="M205.326 79.302C205.273 79.3031 205.221 79.2884 205.176 79.26C204.708 78.966 204.234 78.66 203.76 78.408C203.728 78.3905 203.7 78.3667 203.677 78.3382C203.654 78.3096 203.637 78.2768 203.627 78.2416C203.617 78.2064 203.614 78.1696 203.618 78.1333C203.622 78.097 203.634 78.0619 203.652 78.03C203.69 77.9658 203.751 77.919 203.823 77.8999C203.895 77.8808 203.971 77.8909 204.036 77.928C204.516 78.204 204.996 78.492 205.47 78.792C205.532 78.8316 205.576 78.8939 205.593 78.9657C205.61 79.0374 205.598 79.1129 205.56 79.176C205.535 79.215 205.5 79.247 205.459 79.269C205.418 79.2911 205.372 79.3024 205.326 79.302ZM202.434 77.646C202.39 77.6543 202.346 77.6543 202.302 77.646C201.816 77.388 201.318 77.142 200.82 76.908C200.754 76.8768 200.703 76.8208 200.679 76.7522C200.654 76.6837 200.657 76.6081 200.688 76.542C200.72 76.4757 200.777 76.4244 200.846 76.3987C200.916 76.373 200.992 76.3749 201.06 76.404C201.564 76.644 202.062 76.896 202.56 77.154C202.615 77.1822 202.66 77.2281 202.686 77.2845C202.711 77.3409 202.718 77.4044 202.703 77.4648C202.689 77.5251 202.654 77.5788 202.605 77.6171C202.556 77.6555 202.496 77.6762 202.434 77.676V77.646ZM199.434 76.224C199.398 76.2297 199.362 76.2297 199.326 76.224C198.816 76.008 198.306 75.798 197.79 75.624C197.751 75.6152 197.713 75.598 197.681 75.5736C197.649 75.5492 197.622 75.5181 197.603 75.4825C197.584 75.447 197.573 75.4077 197.57 75.3673C197.567 75.327 197.574 75.2866 197.588 75.2488C197.602 75.211 197.624 75.1767 197.653 75.1483C197.682 75.1199 197.716 75.098 197.754 75.0841C197.792 75.0701 197.833 75.0645 197.873 75.0676C197.913 75.0707 197.953 75.0825 197.988 75.102C198.51 75.3 199.032 75.51 199.542 75.702C199.603 75.7251 199.654 75.7693 199.686 75.8267C199.718 75.884 199.728 75.9507 199.715 76.0149C199.702 76.0791 199.667 76.1366 199.615 76.1771C199.564 76.2176 199.499 76.2385 199.434 76.236V76.224ZM196.32 75.024H196.23C195.708 74.844 195.18 74.682 194.652 74.526C194.617 74.5157 194.584 74.4985 194.555 74.4753C194.527 74.4522 194.503 74.4235 194.486 74.3911C194.468 74.3587 194.458 74.3232 194.454 74.2866C194.451 74.25 194.455 74.2131 194.466 74.178C194.476 74.1429 194.492 74.1102 194.515 74.0817C194.537 74.0532 194.565 74.0296 194.597 74.0122C194.629 73.9948 194.664 73.9841 194.701 73.9806C194.737 73.9771 194.773 73.981 194.808 73.992C195.348 74.148 195.876 74.316 196.41 74.496C196.479 74.5206 196.537 74.5714 196.569 74.6375C196.602 74.7037 196.607 74.78 196.584 74.85C196.564 74.9084 196.526 74.9588 196.475 74.9935C196.424 75.0282 196.364 75.0452 196.302 75.042L196.32 75.024ZM193.122 74.082H193.056C192.522 73.944 191.982 73.818 191.442 73.704C191.37 73.6869 191.307 73.642 191.268 73.5791C191.229 73.5162 191.216 73.4404 191.232 73.368C191.24 73.3325 191.255 73.2989 191.275 73.2691C191.296 73.2393 191.323 73.214 191.353 73.1945C191.384 73.1749 191.418 73.1617 191.454 73.1554C191.49 73.1492 191.527 73.15 191.562 73.158C192.108 73.278 192.648 73.404 193.194 73.542C193.264 73.563 193.324 73.6101 193.361 73.6737C193.398 73.7373 193.409 73.8125 193.392 73.884C193.378 73.9485 193.341 74.0058 193.288 74.0454C193.235 74.0851 193.17 74.1044 193.104 74.1L193.122 74.082ZM189.87 73.368H189.816C189.276 73.266 188.73 73.182 188.184 73.104C188.148 73.0989 188.113 73.0867 188.081 73.0681C188.05 73.0495 188.022 73.0248 188 72.9956C187.978 72.9663 187.962 72.933 187.953 72.8976C187.944 72.8621 187.942 72.8252 187.947 72.789C187.952 72.7528 187.964 72.7179 187.983 72.6864C188.002 72.6548 188.026 72.6273 188.055 72.6053C188.085 72.5833 188.118 72.5672 188.153 72.5581C188.189 72.5489 188.226 72.5469 188.262 72.552C188.814 72.628 189.366 72.718 189.918 72.822C189.954 72.8278 189.988 72.8407 190.019 72.8599C190.049 72.8791 190.076 72.9043 190.096 72.934C190.117 72.9637 190.132 72.9972 190.139 73.0326C190.147 73.068 190.147 73.1045 190.14 73.14C190.132 73.21 190.098 73.2745 190.045 73.3202C189.991 73.3659 189.922 73.3895 189.852 73.386L189.87 73.368ZM186.57 72.9H186.54C185.988 72.84 185.436 72.792 184.89 72.75C184.854 72.7477 184.818 72.7383 184.786 72.7223C184.753 72.7062 184.724 72.6839 184.7 72.6566C184.676 72.6293 184.658 72.5975 184.646 72.5631C184.634 72.5287 184.63 72.4923 184.632 72.456C184.633 72.4192 184.641 72.3829 184.656 72.3494C184.672 72.316 184.694 72.2862 184.722 72.2619C184.749 72.2376 184.782 72.2193 184.817 72.2083C184.852 72.1973 184.889 72.1938 184.926 72.198C185.486 72.234 186.044 72.282 186.6 72.342C186.667 72.3548 186.727 72.3915 186.769 72.4452C186.811 72.4989 186.832 72.566 186.828 72.6341C186.825 72.7022 186.797 72.7666 186.749 72.8155C186.702 72.8644 186.638 72.8944 186.57 72.9Z" fill="#E0E0E0"/>
<path d="M230.4 85.248L235.116 82.524C235.211 82.4854 235.289 82.4155 235.338 82.326L236.202 80.814L233.4 79.2L233.484 79.446L230.4 85.248Z" fill="#007A8B"/>
<g opacity="0.1">
<path opacity="0.1" d="M230.4 85.248L235.116 82.524C235.211 82.4854 235.289 82.4155 235.338 82.326L236.202 80.814L233.4 79.2L233.484 79.446L230.4 85.248Z" fill="black"/>
</g>
<path d="M233.802 79.4278L230.538 85.0798C230.492 85.161 230.423 85.2271 230.34 85.2702C230.257 85.3133 230.163 85.3315 230.07 85.3226C229.977 85.3137 229.888 85.2782 229.815 85.2202C229.741 85.1622 229.686 85.0843 229.656 84.9958L226.2 75.0417L233.802 79.4278Z" fill="#007A8B"/>
<path d="M200.292 39.001C200.335 38.2107 200.563 37.4416 200.958 36.7558C201.353 36.0699 201.904 35.4866 202.566 35.053C203.273 34.6951 204.054 34.5085 204.846 34.5085C205.638 34.5085 206.419 34.6951 207.126 35.053L244.038 56.341C244.701 56.774 245.253 57.357 245.649 58.0428C246.045 58.7287 246.274 59.4982 246.318 60.289V78.985C246.275 79.7759 246.046 80.5456 245.65 81.2315C245.254 81.9175 244.702 82.5004 244.038 82.933C243.331 83.291 242.55 83.4775 241.758 83.4775C240.966 83.4775 240.185 83.291 239.478 82.933L202.356 61.489C200.31 60.319 200.292 59.149 200.292 57.697V39.001Z" fill="#007A8B"/>
<path d="M234.048 66.4558L207.684 51.1558C206.922 50.7178 206.304 50.9218 206.304 51.6058C206.359 52.0305 206.513 52.4365 206.753 52.7916C206.992 53.1468 207.311 53.4412 207.684 53.6518L234.048 68.9458C234.81 69.3898 235.428 69.1858 235.428 68.5018C235.373 68.0771 235.219 67.6711 234.979 67.316C234.74 66.9609 234.421 66.6664 234.048 66.4558Z" fill="#455A64"/>
<path d="M226.062 67.1578L207.684 56.5018C206.922 56.0638 206.304 56.2678 206.304 56.9518C206.359 57.3765 206.513 57.7825 206.753 58.1376C206.992 58.4927 207.311 58.7872 207.684 58.9978L226.062 69.6478C226.824 70.0918 227.442 69.8878 227.442 69.2038C227.387 68.779 227.233 68.373 226.993 68.0179C226.754 67.6628 226.435 67.3683 226.062 67.1578Z" fill="#455A64"/>
<path d="M234.048 61.0619L207.684 45.7679C206.922 45.3239 206.304 45.5279 206.304 46.2179C206.36 46.6423 206.514 47.0479 206.754 47.4029C206.993 47.7579 207.312 48.0526 207.684 48.2639L234.048 63.5579C234.81 63.9959 235.428 63.7979 235.428 63.1079C235.372 62.6834 235.218 62.2778 234.978 61.9228C234.739 61.5678 234.42 61.2731 234.048 61.0619Z" fill="#455A64"/>
<path opacity="0.1" d="M246.318 78.9778C246.275 79.7688 246.046 80.5384 245.65 81.2244C245.254 81.9103 244.702 82.4932 244.038 82.9258C243.392 83.2564 242.683 83.4446 241.959 83.4777C241.234 83.5108 240.511 83.3881 239.838 83.1178C240.912 83.5258 241.728 82.9138 241.728 81.6118V62.9098C241.702 62.1172 241.472 61.3445 241.062 60.6658L245.622 58.0378C246.03 58.7177 246.259 59.4896 246.288 60.2818L246.318 78.9778Z" fill="black"/>
<path opacity="0.3" d="M200.365 38.3399C200.629 37.3739 201.511 37.0679 202.567 37.6739L239.485 58.9679C240.158 59.3837 240.711 59.9693 241.087 60.6659L245.641 58.0439C245.263 57.3469 244.711 56.7598 244.039 56.3399L207.133 35.0459C206.424 34.6906 205.642 34.5056 204.85 34.5056C204.057 34.5056 203.275 34.6906 202.567 35.0459C201.996 35.4169 201.506 35.9002 201.127 36.4665C200.749 37.0328 200.489 37.6702 200.365 38.3399Z" fill="white"/>
<path d="M60.156 70.9439L55.644 68.3399C55.555 68.3034 55.481 68.2378 55.434 68.1539L54.6 66.7019L57.276 65.1599L57.192 65.3939L60.156 70.9439Z" fill="#007A8B"/>
<g opacity="0.55">
<path opacity="0.55" d="M60.156 70.9439L55.644 68.3399C55.555 68.3034 55.481 68.2378 55.434 68.1539L54.6 66.7019L57.276 65.1599L57.192 65.3939L60.156 70.9439Z" fill="white"/>
</g>
<path d="M56.874 65.3997L59.994 70.7997C60.0378 70.8774 60.1031 70.9408 60.1822 70.9823C60.2612 71.0237 60.3505 71.0413 60.4393 71.0331C60.5281 71.0248 60.6127 70.991 60.6827 70.9358C60.7528 70.8805 60.8053 70.8062 60.834 70.7217L64.134 61.1997L56.874 65.3997Z" fill="#007A8B"/>
<path opacity="0.7" d="M56.874 65.3997L59.994 70.7997C60.0378 70.8774 60.1031 70.9408 60.1822 70.9823C60.2612 71.0237 60.3505 71.0413 60.4393 71.0331C60.5281 71.0248 60.6127 70.991 60.6827 70.9358C60.7528 70.8805 60.8053 70.8062 60.834 70.7217L64.134 61.1997L56.874 65.3997Z" fill="white"/>
<path d="M68.736 38.1969C68.6974 37.4396 68.4798 36.7022 68.1013 36.0451C67.7227 35.3881 67.1938 34.8301 66.558 34.4169C65.8834 34.0734 65.1371 33.8943 64.38 33.8943C63.623 33.8943 62.8766 34.0734 62.202 34.4169L26.898 54.7869C26.2619 55.1988 25.7323 55.7556 25.3527 56.4116C24.9731 57.0675 24.7542 57.8041 24.714 58.5609V76.4409C24.7542 77.1977 24.9731 77.9342 25.3527 78.5902C25.7323 79.2461 26.2619 79.8029 26.898 80.2149C27.5726 80.5584 28.3189 80.7374 29.076 80.7374C29.833 80.7374 30.5794 80.5584 31.254 80.2149L66.762 59.7009C68.718 58.5849 68.736 57.4629 68.736 56.1009V38.1969Z" fill="#007A8B"/>
<path opacity="0.7" d="M68.742 38.1957V56.0697C68.742 57.4617 68.742 58.5837 66.762 59.6697L31.254 80.2137C31.1336 80.2809 31.0094 80.341 30.882 80.3937H30.834H30.774L30.69 80.4237H30.726C29.778 80.6937 29.076 80.1057 29.076 78.9297V61.0497C29.1035 60.2915 29.3223 59.5526 29.712 58.9017C30.0708 58.2316 30.6008 57.6684 31.248 57.2697L66.558 36.9057C67.566 36.3057 68.406 36.6237 68.664 37.5417C68.5953 37.18 68.4846 36.8276 68.334 36.4917C68.5934 37.0229 68.7327 37.6046 68.742 38.1957Z" fill="white"/>
<path opacity="0.55" d="M24.72 76.4399C24.7595 77.1962 24.9775 77.9324 25.356 78.5883C25.7346 79.2442 26.263 79.8013 26.898 80.2139C27.5113 80.5242 28.1834 80.7012 28.8701 80.7333C29.5567 80.7653 30.2424 80.6517 30.882 80.3999C29.856 80.7899 29.082 80.2019 29.082 78.9599V61.0799C29.1095 60.3217 29.3283 59.5828 29.718 58.9319L25.356 56.3999C24.9616 57.0532 24.7426 57.7972 24.72 58.5599V76.4399Z" fill="white"/>
<path opacity="0.85" d="M68.664 37.5718C68.412 36.6478 67.566 36.3718 66.564 36.9358L31.254 57.2998C30.6097 57.6995 30.0804 58.2598 29.718 58.9258L25.362 56.3998C25.7243 55.7321 26.2535 55.1698 26.898 54.7678L62.196 34.4038C62.8727 34.0635 63.6196 33.8862 64.377 33.8862C65.1344 33.8862 65.8813 34.0635 66.558 34.4038C67.1064 34.7605 67.5761 35.2255 67.9382 35.7703C68.3004 36.3151 68.5474 36.9281 68.664 37.5718Z" fill="white"/>
<path d="M34.932 65.3398L60.132 50.7058C60.864 50.2858 61.452 50.4778 61.452 51.1378C61.3992 51.544 61.2524 51.9323 61.0233 52.2719C60.7942 52.6114 60.489 52.8928 60.132 53.0938L34.932 67.7218C34.206 68.1418 33.612 67.9498 33.612 67.2958C33.6661 66.89 33.8135 66.5022 34.0425 66.1629C34.2715 65.8235 34.5759 65.5418 34.932 65.3398Z" fill="#455A64"/>
<path d="M34.932 70.5117L52.512 60.3117C53.238 59.8917 53.832 60.0837 53.832 60.7437C53.7766 61.1491 53.6287 61.5363 53.3998 61.8755C53.1709 62.2146 52.8672 62.4966 52.512 62.6997L34.932 72.8997C34.206 73.3257 33.612 73.1337 33.612 72.4737C33.6652 72.0669 33.8122 71.6779 34.0412 71.3375C34.2703 70.997 34.5752 70.7144 34.932 70.5117Z" fill="#455A64"/>
<path d="M34.932 60.1797L60.132 45.5517C60.864 45.1317 61.452 45.3237 61.452 45.9837C61.3983 46.3897 61.2512 46.7776 61.0221 47.117C60.7931 47.4564 60.4884 47.7381 60.132 47.9397L34.932 62.5677C34.206 62.9877 33.612 62.7957 33.612 62.1357C33.6661 61.7299 33.8135 61.3422 34.0425 61.0028C34.2715 60.6635 34.5759 60.3818 34.932 60.1797Z" fill="#455A64"/>
<path d="M133.968 29.9999C133.876 29.9495 133.773 29.9227 133.668 29.9219H128.202L125.946 31.1999V38.9999L128.202 37.6979L130.152 35.4419V41.4419L132.408 40.1399L138.324 33.3059C138.381 33.2394 138.422 33.1612 138.446 33.077C138.469 32.9927 138.474 32.9043 138.46 32.818C138.446 32.7316 138.413 32.6495 138.363 32.5773C138.314 32.505 138.249 32.4445 138.174 32.3999L133.968 29.9999Z" fill="#455A64"/>
<path d="M130.152 41.4598L132.408 40.1578L138.324 33.3238C138.396 33.2369 138.443 33.1314 138.458 33.0192C138.473 32.9071 138.456 32.7931 138.409 32.6902C138.362 32.5873 138.286 32.4999 138.192 32.4379C138.097 32.3759 137.987 32.3419 137.874 32.3398H132.408L130.152 33.6418V41.4598Z" fill="#37474F"/>
<path d="M132.408 27.7439C132.371 27.0458 132.169 26.3665 131.82 25.7608C131.471 25.1552 130.984 24.6403 130.398 24.2579C129.776 23.9412 129.087 23.7761 128.388 23.7761C127.69 23.7761 127.001 23.9412 126.378 24.2579L93.8404 43.0319C93.2557 43.4134 92.769 43.9272 92.4198 44.5318C92.0706 45.1364 91.8687 45.8147 91.8304 46.5119V62.9999C91.8682 63.6971 92.0699 64.3756 92.4192 64.9803C92.7684 65.585 93.2554 66.0987 93.8404 66.4799C94.4641 66.7933 95.1524 66.9566 95.8504 66.9566C96.5484 66.9566 97.2368 66.7933 97.8604 66.4799L130.59 47.5739C132.39 46.5419 132.39 45.5099 132.39 44.2259L132.408 27.7439Z" fill="#37474F"/>
<path d="M91.83 62.9997C91.8678 63.697 92.0695 64.3755 92.4187 64.9802C92.768 65.5848 93.2549 66.0986 93.84 66.4797C94.4067 66.7651 95.0272 66.9276 95.6611 66.9565C96.2949 66.9855 96.9277 66.8803 97.518 66.6477C96.57 67.0017 95.85 66.4617 95.85 65.3157V48.8337C95.8763 48.1331 96.0829 47.4511 96.45 46.8537L92.4 44.5317C92.0364 45.1306 91.83 45.8117 91.8 46.5117L91.83 62.9997Z" fill="#263238"/>
<path d="M132.342 27.1679C132.108 26.3159 131.334 26.0459 130.404 26.5679L97.86 45.3539C97.2631 45.7191 96.7743 46.2369 96.444 46.8539L92.4 44.5379C92.7355 43.9247 93.2232 43.4081 93.816 43.0379L126.354 24.2639C126.979 23.9504 127.668 23.7871 128.367 23.7871C129.066 23.7871 129.755 23.9504 130.38 24.2639C130.888 24.5884 131.324 25.0135 131.661 25.5129C131.999 26.0123 132.23 26.5756 132.342 27.1679Z" fill="#455A64"/>
<path d="M102.408 52.1998L125.658 38.7178C126.33 38.3278 126.858 38.5018 126.858 39.1138C126.81 39.4859 126.676 39.8418 126.468 40.1539C126.26 40.4661 125.983 40.7261 125.658 40.9138L102.408 54.4138C101.736 54.7978 101.208 54.6238 101.208 54.0178C101.254 53.6426 101.386 53.2831 101.594 52.9676C101.802 52.6521 102.081 52.3893 102.408 52.1998Z" fill="#007A8B"/>
<path d="M109.452 52.8959L125.652 43.5059C126.324 43.1159 126.852 43.2959 126.852 43.9019C126.805 44.2742 126.672 44.6305 126.463 44.9428C126.255 45.2551 125.977 45.5149 125.652 45.7019L109.452 55.0919C108.78 55.4819 108.252 55.3079 108.252 54.6959C108.3 54.3238 108.434 53.9679 108.642 53.6557C108.85 53.3436 109.127 53.0836 109.452 52.8959Z" fill="#007A8B"/>
<path d="M102.408 47.46L125.658 33.972C126.33 33.588 126.858 33.762 126.858 34.368C126.81 34.74 126.676 35.0959 126.468 35.4081C126.26 35.7203 125.983 35.9803 125.658 36.168L102.408 49.656C101.736 50.046 101.208 49.872 101.208 49.26C101.256 48.8879 101.39 48.532 101.598 48.2198C101.806 47.9077 102.083 47.6476 102.408 47.46Z" fill="#007A8B"/>
<path d="M238.854 118.644C241.944 117.954 245.454 119.244 247.788 124.2C250.044 128.928 256.572 142.842 256.722 146.178C256.878 149.64 242.784 160.422 243.18 160.236C243.3 160.176 240.03 153.57 240.03 153.57L247.2 144.66L243.144 136.674L238.854 118.644Z" fill="#007A8B"/>
<g opacity="0.35">
<path opacity="0.35" d="M238.854 118.644C241.944 117.954 245.454 119.244 247.788 124.2C250.044 128.928 256.572 142.842 256.722 146.178C256.878 149.64 242.784 160.422 243.18 160.236C243.3 160.176 240.03 153.57 240.03 153.57L247.2 144.66L243.144 136.674L238.854 118.644Z" fill="black"/>
</g>
<path d="M244.248 230.838C244.656 230.994 244.89 231.768 245.076 233.658C245.184 234.858 245.586 236.382 243.798 237.33C243.147 237.666 242.425 237.837 241.693 237.83C240.961 237.823 240.242 237.637 239.598 237.288C238.05 236.328 237.264 234.552 235.452 233.13C233.856 231.882 231.852 230.958 230.568 228.684C229.284 226.41 229.488 224.898 232.128 224.898C236.376 224.898 237.648 227.238 239.832 227.298C241.026 227.31 243.834 230.688 244.248 230.838Z" fill="#263238"/>
<path d="M244.242 229.908V231.816C244.242 232.746 240.276 234.138 239.166 232.008C239.082 231.822 238.65 229.206 238.65 229.206L244.242 229.908Z" fill="#FFA8A7"/>
<path d="M225.846 241.95C225.846 241.95 226.602 241.95 226.896 245.028C227.01 246.228 227.292 248.628 226.896 249.48C226.5 250.332 224.328 250.734 221.892 250.95C220.092 251.112 218.436 251.994 216.756 252.942C215.163 253.839 213.375 254.333 211.548 254.382C209.244 254.382 207.294 254.148 205.656 252.852C204.786 252.162 203.676 250.71 204.486 249.612C204.823 249.28 205.251 249.054 205.716 248.964C206.742 248.58 207.774 248.232 208.818 247.902C210.379 247.439 211.902 246.855 213.372 246.156C215.52 245.094 217.914 243.912 219.54 242.1L225.846 241.95Z" fill="#263238"/>
<path d="M225.834 240.36C225.834 240.36 225.834 241.776 225.834 242.586C225.834 243.396 224.898 244.602 222.42 244.53C220.686 244.476 219.468 244.014 219.528 242.58V240.522L225.834 240.36Z" fill="#FFA8A7"/>
<path d="M245.352 204.6C244.911 201.225 244.14 197.901 243.048 194.676C243.048 194.676 243.684 186.096 243.972 177.96C244.222 169.626 243.989 161.284 243.276 152.976C243.276 152.976 215.64 150.36 215.184 160.512C214.728 170.664 215.388 196.512 215.748 200.964C216.108 205.416 216.462 209.598 217.41 217.896C218.22 225.042 219.534 240.552 219.534 240.552C220.516 241.046 221.605 241.289 222.704 241.261C223.803 241.233 224.878 240.934 225.834 240.39C225.834 240.39 227.916 219.564 228.156 214.422C228.468 207.75 226.914 204.072 226.914 204.072C226.914 204.072 227.514 199.872 228.528 191.244C229.254 185.154 230.22 178.212 230.22 178.212C230.22 178.212 231.168 186.804 231.738 191.592C232.272 196.032 233.172 199.542 234.504 207.822C235.662 215.022 238.818 230.202 238.818 230.202C242.064 231.936 244.218 229.938 244.218 229.938C244.218 229.938 246.258 210.804 245.352 204.6Z" fill="#37474F"/>
<path d="M230.22 178.2L231.528 169.716C231.528 169.716 236.928 168 239.64 164.802C239.64 164.802 238.182 168.528 233.172 170.532L231.162 177.678L230.82 183.57L230.22 178.2Z" fill="black"/>
<path d="M225.684 116.172L226.974 125.238L235.134 124.956L234.348 114.36L225.684 116.172Z" fill="#FFA8A7"/>
<path d="M219.828 105C219.828 105 217.638 108.21 217.878 108.534C218.118 108.858 219.678 109.164 219.678 109.164L219.828 105Z" fill="#F28F8F"/>
<path d="M220.542 107.07C220.016 107.061 219.504 106.895 219.071 106.595C218.638 106.295 218.305 105.873 218.112 105.383C217.919 104.893 217.875 104.357 217.987 103.842C218.098 103.327 218.36 102.857 218.739 102.491C219.117 102.125 219.596 101.88 220.114 101.786C220.632 101.691 221.166 101.753 221.65 101.962C222.133 102.172 222.543 102.52 222.829 102.962C223.114 103.405 223.262 103.922 223.254 104.448C223.241 105.155 222.949 105.829 222.44 106.32C221.932 106.812 221.249 107.081 220.542 107.07ZM220.62 102.336C220.211 102.33 219.809 102.446 219.465 102.668C219.122 102.891 218.852 103.21 218.689 103.586C218.527 103.962 218.48 104.378 218.554 104.78C218.628 105.183 218.82 105.555 219.105 105.848C219.391 106.142 219.757 106.344 220.157 106.43C220.557 106.516 220.974 106.481 221.355 106.33C221.735 106.179 222.062 105.918 222.294 105.581C222.527 105.244 222.654 104.846 222.66 104.436C222.664 104.164 222.614 103.894 222.514 103.642C222.414 103.389 222.264 103.159 222.075 102.964C221.886 102.769 221.66 102.613 221.41 102.505C221.16 102.398 220.892 102.34 220.62 102.336Z" fill="#263238"/>
<path d="M225.906 96.096C221.562 96.942 220.284 98.82 219.768 105.696C219.228 112.866 219.924 115.134 220.854 116.118C221.484 116.778 225.018 116.952 226.812 116.49C229.056 115.89 234.132 114.198 236.556 110.628C239.406 106.428 240.228 100.674 237.282 98.262C233.148 94.866 227.67 95.754 225.906 96.096Z" fill="#FFA8A7"/>
<path d="M225.75 116.664C223.884 116.874 221.376 116.664 220.854 116.112C222.445 116.098 224.02 115.789 225.498 115.2L225.75 116.664Z" fill="#F28F8F"/>
<path d="M218.208 97.8001C218.196 98.4274 218.408 99.0384 218.808 99.5221C219.177 99.916 219.645 100.204 220.163 100.357C220.681 100.51 221.23 100.522 221.754 100.392C221.63 100.728 221.598 101.09 221.661 101.442C221.724 101.795 221.881 102.123 222.114 102.395C222.347 102.666 222.649 102.87 222.988 102.985C223.326 103.1 223.69 103.123 224.04 103.05C223.83 103.098 224.382 104.7 224.436 104.85C224.519 105.148 224.663 105.425 224.859 105.664C225.056 105.903 225.3 106.097 225.576 106.236C225.576 106.236 226.338 103.47 228.672 103.836C231.006 104.202 231.294 107.232 229.782 109.032C228.27 110.832 226.896 110.112 226.896 110.112C226.896 110.112 226.896 114.084 228.624 116.358C228.624 116.358 230.616 117.042 234.312 116.31C236.58 115.866 239.826 113.088 241.218 110.118C244.164 103.824 244.452 98.1181 240.432 96.3541C240.276 96.2821 240.216 95.5021 240.168 95.3341C240.057 94.8887 239.881 94.4621 239.646 94.0681C239.101 93.2148 238.322 92.536 237.402 92.1121C236.047 91.538 234.595 91.2284 233.124 91.2001C231.658 91.17 230.198 91.0215 228.756 90.7561C227.466 90.4561 226.254 89.9041 224.994 89.4961C223.752 89.019 222.405 88.8843 221.094 89.1061C220.443 89.23 219.839 89.5349 219.353 89.9859C218.867 90.4369 218.518 91.0158 218.346 91.6561C218.064 93.1141 218.91 94.3261 219.792 95.3941C219.314 95.586 218.904 95.9177 218.617 96.3459C218.331 96.774 218.18 97.2788 218.184 97.7941L218.208 97.8001Z" fill="#263238"/>
<path d="M239.88 97.8001L242.49 96.3121C242.392 96.1408 242.262 95.9903 242.106 95.8694C241.95 95.7484 241.772 95.6594 241.582 95.6073C241.391 95.5552 241.193 95.5411 240.997 95.5658C240.801 95.5904 240.612 95.6534 240.441 95.7511C240.27 95.8489 240.119 95.9793 239.998 96.1352C239.877 96.291 239.788 96.4692 239.736 96.6595C239.684 96.8497 239.67 97.0484 239.695 97.2441C239.719 97.4398 239.782 97.6288 239.88 97.8001Z" fill="#263238"/>
<path d="M225.558 107.784L225.684 104.784C225.478 104.759 225.269 104.777 225.07 104.837C224.871 104.896 224.686 104.997 224.528 105.131C224.369 105.266 224.241 105.432 224.149 105.618C224.058 105.805 224.007 106.008 223.998 106.216C223.989 106.424 224.023 106.631 224.099 106.824C224.174 107.018 224.288 107.194 224.435 107.341C224.581 107.489 224.757 107.604 224.95 107.68C225.143 107.756 225.35 107.792 225.558 107.784Z" fill="#263238"/>
<path d="M218.178 103.812L226.212 104.982L225.876 105.54L218.172 104.418L218.178 103.812Z" fill="#263238"/>
<path d="M244.14 123.666C243.186 119.946 241.842 118.728 238.602 118.644C236.931 118.754 235.267 118.966 233.622 119.28C233.28 120.852 229.218 121.92 225.102 121.08C223.902 121.434 220.644 122.316 219.624 122.682C216.714 123.738 215.304 126.762 215.112 136.362C215.112 136.362 214.554 159.114 215.112 163.044C222.45 165.906 230.07 165.78 234.276 164.844C243.03 162.882 244.068 159.24 244.068 159.24C244.068 159.24 243.612 150.108 243.312 143.16C243.75 138.738 244.41 135.414 244.65 131.886C244.863 129.136 244.691 126.369 244.14 123.666Z" fill="#007A8B"/>
<g opacity="0.2">
<path opacity="0.2" d="M244.14 123.666C243.186 119.946 241.842 118.728 238.602 118.644C236.931 118.754 235.267 118.966 233.622 119.28C233.28 120.852 229.218 121.92 225.102 121.08C223.902 121.434 220.644 122.316 219.624 122.682C216.714 123.738 215.304 126.762 215.112 136.362C215.112 136.362 214.554 159.114 215.112 163.044C222.45 165.906 230.07 165.78 234.276 164.844C243.03 162.882 244.068 159.24 244.068 159.24C244.068 159.24 243.612 150.108 243.312 143.16C243.75 138.738 244.41 135.414 244.65 131.886C244.863 129.136 244.691 126.369 244.14 123.666Z" fill="black"/>
</g>
<path d="M234.54 116.922L234.6 117.798C234.6 117.798 234.174 118.998 231.696 119.49C227.538 120.264 226.08 118.968 226.08 118.968L225.978 118.218C225.978 118.218 225.576 118.056 224.898 118.578C223.872 119.643 222.912 120.769 222.024 121.95C222.024 121.95 222.816 121.716 225.414 122.82C228.008 123.834 230.869 123.942 233.532 123.126C234.275 122.88 234.94 122.444 235.461 121.861C235.982 121.277 236.341 120.568 236.502 119.802C236.604 119.04 235.254 116.616 234.54 116.922Z" fill="#007A8B"/>
<path opacity="0.35" d="M234.54 116.922L234.6 117.798C234.6 117.798 234.174 118.998 231.696 119.49C227.538 120.264 226.08 118.968 226.08 118.968L225.978 118.218C225.978 118.218 225.576 118.056 224.898 118.578C223.872 119.643 222.912 120.769 222.024 121.95C222.024 121.95 222.816 121.716 225.414 122.82C228.008 123.834 230.869 123.942 233.532 123.126C234.275 122.88 234.94 122.444 235.461 121.861C235.982 121.277 236.341 120.568 236.502 119.802C236.604 119.04 235.254 116.616 234.54 116.922Z" fill="black"/>
<path d="M218.706 123.048C215.232 123.72 212.184 125.304 212.244 129.42C212.264 134.678 211.39 139.9 209.658 144.864C208.578 148.278 199.68 158.49 197.484 159.126C195.288 159.762 192.138 158.388 191.376 159.492C190.614 160.596 193.638 161.946 193.776 162.492C193.914 163.038 190.062 164.55 187.728 164.148C185.394 163.746 185.964 166.602 189.48 168.174C192.996 169.746 197.346 167.94 201.516 164.82C205.686 161.7 214.032 155.04 216.186 150.42C218.796 144.852 220.254 139.62 220.572 135.6C221.124 127.362 218.706 123.048 218.706 123.048Z" fill="#FFA8A7"/>
<path d="M219.12 122.838C219.12 122.838 215.52 122.838 213.372 124.98C211.536 126.78 211.296 129.732 210.786 135.516C210.531 138.563 209.976 141.578 209.13 144.516C208.698 145.986 202.596 154.458 202.596 154.458C202.596 154.458 205.08 158.154 207.57 160.128C207.57 160.128 213.168 155.514 216.018 151.644C218.868 147.774 220.8 136.8 220.8 136.8C220.8 136.8 222.258 128.4 219.12 122.838Z" fill="#007A8B"/>
<path opacity="0.35" d="M219.12 122.838C219.12 122.838 215.52 122.838 213.372 124.98C211.536 126.78 211.296 129.732 210.786 135.516C210.531 138.563 209.976 141.578 209.13 144.516C208.698 145.986 202.596 154.458 202.596 154.458C202.596 154.458 205.08 158.154 207.57 160.128C207.57 160.128 213.168 155.514 216.018 151.644C218.868 147.774 220.8 136.8 220.8 136.8C220.8 136.8 222.258 128.4 219.12 122.838Z" fill="black"/>
<path d="M202.884 154.074C204.123 156.351 205.883 158.302 208.02 159.768C208.02 159.768 206.04 161.448 204.972 162.12C204.972 162.12 202.026 161.07 200.238 157.026L202.884 154.074Z" fill="#007A8B"/>
<path opacity="0.5" d="M202.884 154.074C204.123 156.351 205.883 158.302 208.02 159.768C208.02 159.768 206.04 161.448 204.972 162.12C204.972 162.12 202.026 161.07 200.238 157.026L202.884 154.074Z" fill="black"/>
<path d="M201.81 156.81C201.867 156.904 201.957 156.973 202.062 157.004C202.167 157.035 202.28 157.027 202.379 156.98C202.478 156.933 202.556 156.851 202.598 156.75C202.641 156.649 202.644 156.536 202.608 156.432C202.587 156.373 202.555 156.319 202.512 156.274C202.469 156.229 202.418 156.193 202.36 156.169C202.303 156.145 202.241 156.133 202.179 156.135C202.116 156.136 202.055 156.151 201.999 156.177C201.943 156.204 201.892 156.242 201.852 156.289C201.811 156.337 201.781 156.392 201.763 156.452C201.746 156.511 201.741 156.574 201.749 156.636C201.757 156.698 201.778 156.757 201.81 156.81Z" fill="#263238"/>
<path d="M143.364 47.3221H152.55C156.103 47.3221 159.511 45.9105 162.024 43.3979C164.536 40.8853 165.948 37.4775 165.948 33.9241C165.948 31.0948 164.824 28.3813 162.823 26.3807C160.823 24.3801 158.109 23.2561 155.28 23.2561H154.032C151.203 23.2561 148.489 24.3801 146.489 26.3807C144.488 28.3813 143.364 31.0948 143.364 33.9241V47.3221Z" fill="#263238"/>
<path d="M142.308 54.684C140.046 58.992 137.904 64.248 136.23 65.988C133.05 67.47 125.79 70.23 122.874 70.614C122.358 70.6766 121.837 70.5532 121.404 70.266C120.258 69.516 119.37 69.39 118.158 68.976C117.21 68.646 116.808 68.19 116.634 68.376C116.449 68.5882 116.355 68.8649 116.373 69.1458C116.391 69.4266 116.52 69.6891 116.73 69.876C117.183 70.311 117.686 70.6897 118.23 71.004C116.933 71.3205 115.582 71.343 114.276 71.07C111.75 70.404 110.556 71.622 112.266 74.364C112.866 75.348 115.266 76.92 120.174 76.5C121.914 76.4043 123.648 76.2039 125.364 75.9C130.05 74.904 135.054 73.44 138.258 72.486C139.446 72.0137 140.509 71.2747 141.366 70.326C146.766 64.188 149.4 58.746 151.758 54.768L150.042 48.834C146.226 48.69 144.252 51 142.308 54.684Z" fill="#B16668"/>
<path d="M150.042 48.8041C147.102 48.5881 145.986 49.1401 144.642 50.4541C141.432 53.6101 136.536 65.6221 136.458 65.7181C136.38 65.8141 132.822 67.4341 132.822 67.4341C132.822 67.4341 134.718 70.6081 134.28 73.6141C134.28 73.6141 137.754 72.8461 138.996 72.3721C140.238 71.8981 140.682 71.5681 141.852 70.2121C143.022 68.8561 149.562 61.1041 149.562 61.1041L150.042 48.8041Z" fill="#263238"/>
<path d="M143.73 62.238C144.169 64.3399 144.339 66.4893 144.234 68.634C144.042 71.454 142.038 76.62 142.038 76.62C142.038 76.62 143.616 78.054 147.912 77.382C151.41 76.836 150.174 66.288 148.164 64.242C146.995 63.0337 145.409 62.3169 143.73 62.238Z" fill="#37474F"/>
<path d="M167.94 152.226C168.187 153.613 168.319 155.018 168.336 156.426C168.39 158.988 168.858 159.894 168.936 161.994C169.008 164.394 168.594 165.294 167.622 166.644C166.65 167.994 164.088 169.218 163.008 166.932C161.928 164.646 162.066 163.158 162.408 160.806C162.75 158.454 162.81 157.026 163.008 155.172C163.188 153.534 163.404 152.292 163.404 152.292L167.94 152.226Z" fill="#263238"/>
<path d="M160.674 132.102L169.074 131.952C168.948 137.58 168.054 146.952 167.91 152.226C167.91 153.222 167.91 159.954 167.556 162C166.992 165.072 163.356 164.658 163.152 162.816C162.948 160.974 163.386 153.12 163.374 152.31C163.41 148.926 161.82 140.088 160.974 134.004C160.98 133.71 160.71 132.396 160.674 132.102Z" fill="#B16668"/>
<path d="M148.278 147.846C148.278 147.846 148.716 147.876 148.788 148.23C148.86 148.584 148.884 149.316 149.064 150.03C149.346 151.118 149.447 152.245 149.364 153.366C149.214 154.152 147.42 155.328 146.196 155.532C144.972 155.736 143.238 156.948 142.272 157.854C140.731 159.131 138.822 159.881 136.824 159.996C134.778 159.996 133.35 159.318 132.672 158.196C131.994 157.074 133.272 156.966 135.63 155.448L137.43 154.248C141.138 151.848 142.494 150.528 143.544 148.104L148.278 147.846Z" fill="#263238"/>
<path d="M143.532 146.532C143.592 144.786 142.704 131.952 142.704 131.952L149.952 132.768C148.242 142.998 148.098 146.49 148.296 147.978C148.332 148.117 148.348 148.261 148.344 148.404C148.344 150.396 146.088 151.464 144.342 152.79C143.646 153.312 141.87 154.926 139.788 155.64C138.444 156.096 135.948 156.27 135.63 155.454C137.76 153.828 140.658 151.698 142.356 149.844C143.16 148.956 143.472 148.272 143.532 146.532Z" fill="#B16668"/>
<path d="M163.068 71.3521C165.545 74.6073 167.348 78.3238 168.372 82.2841C170.772 91.9501 167.004 112.632 167.004 112.632C167.124 114.03 168.726 116.79 169.326 122.964C170.028 130.254 168.024 149.778 168.024 149.778C168.024 149.778 166.092 151.218 163.302 149.874C163.302 149.874 158.196 121.194 157.302 113.946C156.504 107.616 154.902 94.47 154.902 94.47L151.2 113.91C151.2 113.91 151.71 117.456 151.968 120.156C152.382 124.416 148.23 145.824 148.23 145.824C147.482 146.134 146.678 146.286 145.868 146.269C145.058 146.253 144.261 146.068 143.526 145.728C143.526 145.728 141.69 118.08 141.3 112.944C140.904 107.658 142.278 95.334 143.292 85.524C143.598 82.566 145.002 74.7241 145.524 72.1681L163.068 71.3521Z" fill="#455A64"/>
<path opacity="0.6" d="M154.86 94.4703L153.99 88.4703C151.486 88.3192 149.061 87.5369 146.94 86.1963C148.404 88.0221 150.522 89.2057 152.844 89.4963L153.39 94.8483L151.65 111.546L154.86 94.4703Z" fill="#263238"/>
<path d="M145.2 64.9682C145.29 66.7262 145.542 72.1682 145.542 72.1682C152.742 77.0282 163.08 71.3522 163.08 71.3522L164.574 61.1522C164.574 61.1522 160.824 55.9082 164.34 50.3522L158.73 49.2422L152.04 48.6902L150.054 48.7802C147.858 50.3942 144.492 53.9222 143.784 55.7282C143.076 57.5342 141.996 61.2002 145.2 64.9682Z" fill="#007A8B"/>
<g opacity="0.6">
<path opacity="0.6" d="M145.2 64.9682C145.29 66.7262 145.542 72.1682 145.542 72.1682C152.742 77.0282 163.08 71.3522 163.08 71.3522L164.574 61.1522C164.574 61.1522 160.824 55.9082 164.34 50.3522L158.73 49.2422L152.04 48.6902L150.054 48.7802C147.858 50.3942 144.492 53.9222 143.784 55.7282C143.076 57.5342 141.996 61.2002 145.2 64.9682Z" fill="white"/>
</g>
<path d="M159.084 49.3381C159.084 49.3381 165.438 49.6201 166.644 50.1961C167.85 50.7721 169.86 54.2401 168.06 59.2921C166.26 64.3441 164.634 70.2661 164.82 71.4601C165.006 72.6541 169.29 78.8161 169.29 78.8161C168.105 79.6914 166.766 80.3347 165.342 80.7121L163.146 75.9121L163.662 81.0181C163.662 81.0181 159.702 81.9781 156.876 81.7321C156.876 81.7261 154.596 62.4001 159.084 49.3381Z" fill="#37474F"/>
<path d="M162.792 23.2561L162.06 26.0521C162.242 26.1125 162.435 26.1348 162.626 26.1178C162.817 26.1008 163.003 26.0447 163.172 25.953C163.341 25.8613 163.489 25.7361 163.607 25.5849C163.725 25.4337 163.811 25.2599 163.86 25.0741C163.951 24.6918 163.89 24.2893 163.691 23.9506C163.492 23.6119 163.17 23.3631 162.792 23.2561Z" fill="#263238"/>
<path d="M165.192 25.8L162.306 25.902C162.303 26.0918 162.338 26.2802 162.41 26.4558C162.481 26.6314 162.588 26.7906 162.724 26.9237C162.859 27.0567 163.02 27.1608 163.197 27.2296C163.373 27.2985 163.562 27.3306 163.752 27.324C164.142 27.304 164.509 27.1344 164.777 26.8506C165.046 26.5668 165.194 26.1905 165.192 25.8Z" fill="#263238"/>
<path d="M147.552 28.3262C146.352 29.0282 144.888 32.0282 145.032 38.3162C145.158 43.6442 146.88 44.9642 147.75 45.3422C148.62 45.7202 150.288 45.4922 151.914 45.2162V48.4142C151.914 48.4142 149.67 51.0242 149.808 52.4942C149.946 53.9642 153.054 54.2942 155.16 52.8722C156.522 51.8953 157.692 50.6748 158.61 49.2722V40.9742C158.61 40.9742 159.498 41.9162 161.076 40.8362C161.412 40.6191 161.7 40.335 161.922 40.0016C162.144 39.6682 162.294 39.2926 162.364 38.8984C162.434 38.5042 162.421 38.0998 162.328 37.7106C162.234 37.3213 162.061 36.9556 161.82 36.6362C161.591 36.4222 161.319 36.2607 161.021 36.1632C160.724 36.0656 160.408 36.0343 160.097 36.0715C159.786 36.1086 159.487 36.2133 159.221 36.3783C158.955 36.5432 158.728 36.7643 158.556 37.0262C158.556 37.0262 156.372 36.8342 152.916 34.9382C150.323 33.5312 148.394 31.1534 147.552 28.3262Z" fill="#B16668"/>
<path d="M151.578 36.978C151.577 37.1099 151.615 37.2391 151.687 37.3497C151.758 37.4602 151.861 37.5472 151.982 37.5997C152.103 37.6522 152.237 37.668 152.367 37.6451C152.497 37.6222 152.617 37.5616 152.712 37.4708C152.808 37.3801 152.875 37.2632 152.905 37.1347C152.934 37.0063 152.926 36.8719 152.88 36.7484C152.833 36.6248 152.752 36.5176 152.645 36.44C152.539 36.3624 152.412 36.3179 152.28 36.312C152.19 36.3096 152.101 36.3249 152.017 36.3571C151.933 36.3893 151.856 36.4377 151.791 36.4995C151.726 36.5614 151.673 36.6355 151.637 36.7176C151.6 36.7997 151.58 36.8882 151.578 36.978Z" fill="#263238"/>
<path d="M150.804 41.4961L149.244 41.9881C149.272 42.0925 149.321 42.1901 149.388 42.2753C149.455 42.3604 149.538 42.4314 149.632 42.484C149.727 42.5365 149.831 42.5696 149.938 42.5813C150.046 42.593 150.154 42.5831 150.258 42.5521C150.468 42.4806 150.642 42.3308 150.744 42.134C150.845 41.9371 150.867 41.7086 150.804 41.4961Z" fill="#9A4A4D"/>
<path d="M145.638 34.9202L147 33.9782C146.942 33.8875 146.867 33.8094 146.778 33.7485C146.69 33.6876 146.59 33.6453 146.485 33.624C146.379 33.6027 146.271 33.6029 146.165 33.6246C146.06 33.6463 145.96 33.689 145.872 33.7502C145.691 33.8787 145.566 34.0713 145.523 34.2888C145.479 34.5062 145.521 34.7321 145.638 34.9202Z" fill="#263238"/>
<path d="M145.95 36.492C145.948 36.6241 145.985 36.7539 146.056 36.8653C146.127 36.9766 146.229 37.0645 146.35 37.1179C146.471 37.1714 146.605 37.188 146.735 37.1658C146.865 37.1436 146.986 37.0835 147.082 36.993C147.178 36.9025 147.246 36.7856 147.276 36.657C147.306 36.5284 147.298 36.3937 147.252 36.2699C147.206 36.146 147.125 36.0384 147.018 35.9605C146.911 35.8826 146.784 35.838 146.652 35.832C146.472 35.8272 146.297 35.8938 146.165 36.0174C146.034 36.1411 145.956 36.3117 145.95 36.492Z" fill="#263238"/>
<path d="M149.67 36.1082L149.562 40.1462L147.438 39.4862L149.67 36.1082Z" fill="#9A4A4D"/>
<path d="M151.914 45.2161C153.63 44.9941 157.158 43.9801 157.704 42.5881C157.488 43.3016 157.056 43.9306 156.468 44.3881C155.418 45.2941 151.914 46.3081 151.914 46.3081V45.2161Z" fill="#9A4A4D"/>
<path d="M178.2 72.366C177.09 68.04 172.386 58.566 171.048 55.098C169.524 51.126 166.896 49.698 164.058 49.698C163.014 51.042 162.576 57.804 165.792 61.698C167.16 64.584 171.264 72.648 171.264 72.648C171.162 73.428 168.294 83.448 167.064 86.112C166.844 86.5778 166.459 86.9454 165.984 87.144C164.718 87.696 163.23 89.082 162.222 89.868C161.43 90.468 160.824 90.57 160.878 90.816C160.974 91.0862 161.168 91.3106 161.421 91.445C161.674 91.5795 161.969 91.614 162.246 91.542C163.106 91.2653 163.944 90.9264 164.754 90.528C163.999 91.729 163.161 92.8758 162.246 93.96C160.542 95.928 160.602 97.608 163.92 97.662C166.428 97.698 167.754 96.288 169.98 91.986C170.616 90.75 171.324 88.884 172.092 87.294C174.03 83.268 175.254 81.594 176.292 79.02C177.996 74.922 178.632 74.034 178.2 72.366Z" fill="#B16668"/>
<path d="M162.792 49.5842C165.936 49.5842 168.258 49.8362 170.07 52.4942C171.882 55.1522 177.486 69.1382 178.11 70.9502C178.734 72.7622 179.142 74.2442 176.532 78.4862C174.301 78.2756 172.156 77.5194 170.286 76.2842L170.916 72.6482L165.426 62.0102C163.16 58.2883 162.231 53.9052 162.792 49.5842Z" fill="#263238"/>
<path d="M66.06 103.662C69.66 104.862 70.506 105.108 72.978 108.954C75.378 112.644 77.778 119.472 79.92 124.944C83.85 123.828 92.184 121.89 94.92 120.294C97.656 118.698 97.398 117.588 98.52 116.568C99.816 115.368 101.172 112.524 102.228 114.09C102.936 115.146 101.466 115.854 101.556 117.192C101.646 118.53 105.69 115.392 107.388 114.192C108.51 113.406 111.114 115.872 110.07 118.542C109.146 120.942 107.67 122.412 105.006 123.534C102.204 124.734 100.74 125.334 97.206 126.894C93.528 128.55 78.366 135.258 76.866 134.322C73.452 132.636 70.326 122.07 68.256 117.522C66.186 112.974 67.56 108.222 66.06 103.662Z" fill="#FFA8A7"/>
<path d="M65.202 103.2C66.732 105.21 66.102 104.4 66.57 107.508C66.954 110.01 72.216 134.124 76.986 135.108C79.074 135.546 94.164 128.64 97.824 126.624C96.4422 124.716 95.4587 122.549 94.932 120.252C90.546 121.962 82.986 123.654 80.274 124.5C79.014 120.996 77.478 117.396 76.038 113.862C73.296 107.172 71.742 102.384 65.202 103.2Z" fill="#37474F"/>
<path d="M44.736 222.546H50.616V212.484H44.736V222.546Z" fill="#FFA8A7"/>
<path d="M66.582 216.294L72.996 216.516L73.314 204.888L66.048 204.648L66.582 216.294Z" fill="#FFA8A7"/>
<path d="M45.456 144C45.456 149.352 45.084 180.462 45.084 180.462C44.958 182.004 43.476 184.74 43.356 190.284C43.194 198.33 44.43 217.284 44.43 217.284C45.3978 217.76 46.4584 218.017 47.5367 218.038C48.6149 218.059 49.6846 217.842 50.67 217.404C50.67 217.404 55.068 190.608 56.07 182.652C56.946 175.704 59.454 157.524 59.454 157.524L63.234 181.14C62.8223 183.968 62.7177 186.833 62.922 189.684C63.186 193.362 65.97 211.668 65.97 211.668C68.3967 212.466 71.0116 212.489 73.452 211.734C73.452 211.734 74.052 183.216 74.1 179.838C74.172 175.986 72.492 142.854 72.492 142.854L45.456 144Z" fill="#263238"/>
<path d="M50.61 219.648V218.808C50.928 218.808 51.12 219.114 51.24 219.87C51.33 220.416 51.408 220.824 51.588 221.538C51.8477 222.564 52.1908 223.568 52.614 224.538C53.442 226.584 54.144 227.352 56.046 229.74C56.6875 230.406 57.2886 231.109 57.846 231.846C58.2 232.476 58.326 234.246 57.72 234.642C55.506 236.118 52.134 236.16 49.746 235.464C48.8638 235.215 48.0713 234.719 47.4621 234.035C46.8528 233.35 46.4524 232.505 46.308 231.6C46.224 231.054 46.254 230.502 46.194 229.956C45.9847 228.717 45.4805 227.546 44.724 226.542C44.2807 225.964 43.9005 225.341 43.59 224.682C43.098 223.482 43.494 222.114 43.812 220.914C44.082 219.87 44.376 218.73 44.73 218.826C44.73 218.952 44.73 219.468 44.73 219.468C45.5673 220.126 46.6054 220.475 47.67 220.458C48.534 220.476 50.616 220.308 50.61 219.648Z" fill="#263238"/>
<path d="M73.062 214.536C73.398 214.536 73.662 215.016 74.4 215.814C75.5009 216.921 76.7784 217.838 78.18 218.526C80.58 219.726 85.254 221.58 87.372 222.534C88.692 223.134 88.626 224.724 87.264 225.636C85.902 226.548 82.602 227.196 78.642 226.314C76.482 225.828 73.68 223.836 71.898 223.944C70.116 224.052 66.798 224.028 65.484 223.122C64.17 222.216 64.698 220.284 65.07 218.628C65.472 216.828 65.88 213.996 66.48 214.116V214.794C67.254 215.958 71.28 216.384 73.002 215.526L73.062 214.536Z" fill="#263238"/>
<path d="M59.454 157.524C59.454 157.524 64.452 155.892 67.776 152.682C67.776 152.682 66.27 155.502 61.776 158.124L62.868 178.8L59.454 157.524Z" fill="black"/>
<path d="M55.116 103.128C53.916 103.416 51.054 103.764 48.948 104.37C47.4 104.814 46.746 106.704 46.422 108.132C45.384 112.692 45.222 122.262 45.222 122.262L45.162 144.546C49.026 147.354 64.884 148.782 73.002 142.854C73.002 142.854 72.012 116.31 72.012 112.182C72.012 108.054 69.714 103.086 63.378 102.72L55.116 103.128Z" fill="#455A64"/>
<path d="M38.184 134.46C38.184 134.46 43.104 141.93 43.95 142.902C44.796 143.874 45.372 143.556 46.284 143.124C47.3917 142.643 48.5327 142.242 49.698 141.924C51.204 141.522 51.498 143.01 50.04 144.066C48.96 144.828 47.73 145.164 48.24 145.794C49.2808 146.798 50.5023 147.596 51.84 148.146C55.44 149.676 55.596 150.606 54.924 151.866C54.324 152.958 52.182 155.946 45.69 153.162C43.014 152.01 39.3 147.948 37.524 145.842C34.956 142.8 31.44 136.884 31.44 136.884L38.184 134.46Z" fill="#FFA8A7"/>
<path d="M48.948 104.4C43.032 103.89 41.508 106.932 37.308 114.384C33.6 120.888 28.8 129 28.644 132.384C28.602 133.476 33.348 141.06 36.744 144.912C39.684 144.774 41.814 143.64 43.206 141.912C42.396 140.562 38.028 132.654 38.028 132.654L45.828 120.618C47.3554 118.766 48.4427 116.591 49.008 114.258C50.016 109.8 49.62 105.396 48.948 104.4Z" fill="#37474F"/>
<path d="M56.472 85.35C56.4708 86.8218 56.9061 88.2608 57.7229 89.4851C58.5397 90.7094 59.7013 91.6639 61.0607 92.228C62.42 92.792 63.9162 92.9402 65.3598 92.6538C66.8034 92.3674 68.1296 91.6593 69.1707 90.619C70.2118 89.5788 70.921 88.2531 71.2086 86.8097C71.4962 85.3663 71.3492 83.8701 70.7862 82.5102C70.2233 81.1504 69.2697 79.9881 68.0461 79.1703C66.8224 78.3525 65.3837 77.916 63.912 77.916C61.9398 77.916 60.0483 78.699 58.6532 80.093C57.2581 81.487 56.4736 83.3778 56.472 85.35Z" fill="#263238"/>
<path d="M51.054 90.636C51.054 90.636 52.254 96.3 52.74 97.236C53.0617 97.8114 53.5923 98.241 54.222 98.436L54.138 94.452L51.054 90.636Z" fill="#263238"/>
<path d="M52.494 81.708C52.0801 81.7101 51.6709 81.7962 51.2914 81.9612C50.9118 82.1263 50.5698 82.3667 50.286 82.668C49.296 83.682 49.818 87.528 51.054 90.636L53.322 90.9L52.494 81.708Z" fill="#263238"/>
<path d="M54 90.9C53.544 91.176 52.896 90.3 52.332 89.7C51.768 89.1 49.932 88.308 49.026 90.234C48.12 92.16 49.83 94.794 51.276 95.244C53.76 96.024 54.132 94.428 54.132 94.428L54.318 103.674C56.034 105.876 59.898 108.474 61.98 108.096C63.636 107.802 64.002 105 62.412 103.164V100.434C63.5206 100.611 64.6452 100.668 65.766 100.602C67.566 100.32 68.766 98.88 69.3 96.9C70.188 93.72 70.5 91.152 69.768 84.9C68.94 78.048 60.972 77.976 56.67 80.7C52.368 83.424 54 90.9 54 90.9Z" fill="#FFA8A7"/>
<path d="M70.572 82.1281C70.2127 82.7621 69.6798 83.2804 69.036 83.6221C67.432 84.4993 65.5976 84.8637 63.78 84.6661C61.89 84.4561 60.18 83.5441 58.488 82.6981C58.3852 83.3997 58.088 84.0586 57.63 84.6001C57.0547 85.1882 56.3587 85.6447 55.59 85.9381C55.434 87.1681 55.44 88.7521 55.362 89.9941C55.362 90.4141 55.362 92.5921 54.348 91.9681C54.0183 91.6837 53.7278 91.3569 53.484 90.9961C53.126 90.553 52.7434 90.1303 52.338 89.7301C52.044 89.4601 52.062 88.8421 52.05 88.4881C52.026 87.7453 52.05 87.0017 52.122 86.2621C52.188 85.4941 52.314 84.7321 52.38 83.9701C52.3598 83.5305 52.2559 83.0988 52.074 82.6981C51.9322 82.2276 51.8674 81.7373 51.882 81.2461C51.966 79.7101 53.142 78.4081 54.522 77.7301C56.5247 76.8633 58.7211 76.5424 60.888 76.8001C62.772 76.9561 64.716 77.1721 66.51 76.5841C67.2 76.3561 67.854 75.9841 68.556 75.8161C68.9012 75.6967 69.2667 75.647 69.6312 75.6696C69.9958 75.6923 70.3522 75.7869 70.68 75.9481C72.036 76.7341 72.12 79.1521 70.782 79.9741C70.692 80.0281 70.584 80.0881 70.554 80.1901C70.5336 80.3091 70.5593 80.4314 70.626 80.5321C70.7404 80.7843 70.7951 81.0596 70.7857 81.3364C70.7763 81.6132 70.7032 81.8841 70.572 82.1281Z" fill="#263238"/>
<path d="M52.044 82.5061L49.29 81.0301C49.3786 80.8448 49.5037 80.6792 49.6578 80.5435C49.8119 80.4077 49.9919 80.3045 50.187 80.24C50.382 80.1756 50.588 80.1512 50.7927 80.1684C50.9974 80.1856 51.1965 80.244 51.378 80.3401C51.7457 80.5468 52.0199 80.8869 52.1438 81.29C52.2678 81.6932 52.2321 82.1286 52.044 82.5061Z" fill="#263238"/>
<path d="M62.4 100.446C62.4 100.446 58.32 99.6241 56.892 98.8621C56.0532 98.4251 55.3653 97.7456 54.918 96.9121C55.1349 97.7471 55.5164 98.5305 56.04 99.2161C57.084 100.548 62.4 101.532 62.4 101.532V100.446Z" fill="#F28F8F"/>
<path d="M61.998 89.454C61.991 89.6255 61.9337 89.7912 61.8332 89.9305C61.7328 90.0697 61.5936 90.1764 61.4331 90.2372C61.2725 90.298 61.0976 90.3103 60.9301 90.2725C60.7626 90.2348 60.6099 90.1486 60.491 90.0248C60.3721 89.901 60.2921 89.745 60.2611 89.5761C60.2302 89.4072 60.2495 89.2329 60.3167 89.075C60.3839 88.917 60.4961 88.7822 60.6393 88.6875C60.7825 88.5927 60.9503 88.5421 61.122 88.542C61.2397 88.5435 61.3558 88.5684 61.4638 88.6153C61.5717 88.6621 61.6693 88.7299 61.7508 88.8148C61.8323 88.8996 61.8961 88.9998 61.9386 89.1096C61.981 89.2193 62.0012 89.3364 61.998 89.454Z" fill="#263238"/>
<path d="M61.122 86.484L59.322 87.486C59.1934 87.238 59.1652 86.95 59.2435 86.6818C59.3217 86.4136 59.5002 86.1859 59.742 86.046C59.8611 85.9828 59.9916 85.944 60.1259 85.9319C60.2601 85.9197 60.3955 85.9345 60.524 85.9752C60.6525 86.016 60.7715 86.082 60.8742 86.1694C60.9769 86.2567 61.0611 86.3637 61.122 86.484Z" fill="#263238"/>
<path d="M62.07 95.4001L64.092 96.1561C64.0482 96.292 63.9774 96.4177 63.8839 96.5256C63.7904 96.6335 63.6761 96.7215 63.5478 96.7842C63.4196 96.847 63.28 96.8832 63.1374 96.8907C62.9948 96.8983 62.8522 96.877 62.718 96.8282C62.4459 96.7207 62.2262 96.5116 62.1053 96.2452C61.9844 95.9787 61.9717 95.6757 62.07 95.4001Z" fill="#F28F8F"/>
<path d="M69.222 87.2159L67.572 85.944C67.6495 85.8326 67.7487 85.738 67.8638 85.6661C67.9789 85.5942 68.1074 85.5465 68.2415 85.5257C68.3755 85.505 68.5125 85.5116 68.6439 85.5454C68.7753 85.5791 68.8985 85.6392 69.006 85.722C69.2275 85.8953 69.3735 86.1473 69.4137 86.4256C69.454 86.7039 69.3853 86.987 69.222 87.2159Z" fill="#263238"/>
<path d="M68.85 89.2861C68.8429 89.4517 68.7874 89.6115 68.6902 89.7459C68.5931 89.8802 68.4586 89.983 68.3036 90.0415C68.1485 90.1001 67.9796 90.1118 67.818 90.0752C67.6563 90.0386 67.509 89.9553 67.3942 89.8357C67.2795 89.7161 67.2024 89.5654 67.1726 89.4023C67.1427 89.2393 67.1615 89.071 67.2264 88.9185C67.2914 88.766 67.3997 88.636 67.5379 88.5445C67.6762 88.453 67.8382 88.4042 68.004 88.4041C68.1175 88.4064 68.2294 88.4311 68.3333 88.4767C68.4372 88.5223 68.5311 88.5879 68.6097 88.6698C68.6883 88.7517 68.7499 88.8483 68.7912 88.954C68.8324 89.0598 68.8524 89.1726 68.85 89.2861Z" fill="#263238"/>
<path d="M64.314 88.5901L64.608 93.9241L67.392 92.9761L64.314 88.5901Z" fill="#F28F8F"/>
<path d="M65.322 107.526C64.8 108.726 63.84 109.26 62.106 109.458C61.2343 109.519 60.3593 109.402 59.5342 109.114C58.709 108.826 57.951 108.374 57.306 107.784L59.466 105.63L62.208 107.7L62.442 105.396L65.322 107.526Z" fill="#007A8B"/>
<path opacity="0.2" d="M65.322 107.526C64.8 108.726 63.84 109.26 62.106 109.458C61.2343 109.519 60.3593 109.402 59.5342 109.114C58.709 108.826 57.951 108.374 57.306 107.784L59.466 105.63L62.208 107.7L62.442 105.396L65.322 107.526Z" fill="black"/>
<path d="M63.96 106.848C64.2107 107.593 64.3066 108.381 64.242 109.164C64.1627 109.863 63.8975 110.528 63.474 111.09C63.1983 111.265 62.8862 111.374 62.5617 111.41C62.2372 111.445 61.9089 111.405 61.602 111.294C61.0408 110.817 60.5895 110.224 60.2788 109.556C59.9681 108.888 59.8055 108.161 59.802 107.424L62.202 107.7L63.96 106.848Z" fill="#007A8B"/>
<path d="M63.474 111.09C63.474 111.09 66.288 126.612 66.402 127.89C66.516 129.168 64.782 133.59 63.714 133.632C62.646 133.674 60.534 129.642 60.504 128.502C60.474 127.362 61.602 111.318 61.602 111.318L63.474 111.09Z" fill="#007A8B"/>
<path d="M61.602 111.294C61.9045 111.427 62.2368 111.479 62.5653 111.443C62.8939 111.407 63.2073 111.285 63.474 111.09L63.516 111.336C63.2471 111.552 62.9298 111.7 62.5912 111.767C62.2527 111.834 61.903 111.818 61.572 111.72L61.602 111.294Z" fill="#37474F"/>
<path d="M62.202 107.7L54.282 101.658V100.08C54.282 100.08 52.428 100.572 52.014 103.818C53.2865 106.642 55.4601 108.963 58.194 110.418L59.856 107.418L62.202 107.7Z" fill="#37474F"/>
<path d="M62.4 100.836C63.4519 101.332 64.365 102.08 65.058 103.014C65.85 104.322 65.844 108.57 65.844 108.57L63.948 106.848L62.19 107.7C62.358 106.032 62.406 103.176 62.406 103.176L62.4 100.836Z" fill="#37474F"/>
</svg>
