<svg width="35" height="136" viewBox="0 0 35 136" fill="none" xmlns="http://www.w3.org/2000/svg">
<path d="M6.09774 73.5783L6.61438 73.8543L6.09774 73.5783ZM32.0766 134.621C32.0184 134.939 31.7131 135.15 31.3948 135.092L26.2071 134.148C25.8887 134.091 25.6779 133.786 25.7361 133.467C25.7943 133.149 26.0995 132.938 26.4179 132.996L31.0292 133.834L31.8723 129.223C31.9305 128.904 32.2357 128.693 32.5541 128.751C32.8724 128.809 33.0833 129.114 33.0251 129.433L32.0766 134.621ZM24.1135 1.10197C24.5475 1.99158 24.9593 2.86411 25.3493 3.72029L24.2827 4.20685C23.8971 3.36043 23.4898 2.49722 23.0602 1.61648L24.1135 1.10197ZM27.5745 9.03421C28.2969 10.9387 28.9007 12.7577 29.3939 14.5012L28.2662 14.8211C27.7831 13.113 27.1902 11.3264 26.4787 9.45067L27.5745 9.03421ZM30.6547 20.1445C30.9774 22.1656 31.1353 24.0827 31.1452 25.9168L29.9733 25.9242C29.9637 24.1533 29.8113 22.2959 29.4974 20.3303L30.6547 20.1445ZM30.66 31.7155C30.3163 33.6605 29.7995 35.5195 29.1389 37.3254L28.0383 36.9238C28.6773 35.177 29.1752 33.3845 29.5059 31.5127L30.66 31.7155ZM26.7585 42.6116C25.8768 44.2756 24.8899 45.9213 23.8243 47.5772L22.8389 46.9438C23.8918 45.3075 24.8608 43.691 25.723 42.0637L26.7585 42.6116ZM20.6074 52.335C19.5454 53.8523 18.4355 55.4067 17.3022 57.0093L16.3455 56.3334C17.4832 54.7245 18.5873 53.1783 19.6474 51.6637L20.6074 52.335ZM14.0388 61.7026C13.002 63.2298 11.9567 64.8147 10.9147 66.4721L9.92265 65.8491C10.9735 64.1777 12.0266 62.5811 13.0693 61.0451L14.0388 61.7026ZM7.98956 71.3594C7.52788 72.173 7.06913 73.0042 6.61438 73.8543L5.58111 73.3023C6.04062 72.4433 6.50409 71.6036 6.97038 70.7819L7.98956 71.3594ZM6.61438 73.8543C6.13066 74.7585 5.68944 75.6448 5.28884 76.5142L4.22454 76.0246C4.63531 75.1332 5.08695 74.226 5.58111 73.3023L6.61438 73.8543ZM3.20076 82.0625C2.62095 84.0794 2.2741 85.9999 2.13029 87.838L0.961921 87.7477C1.11227 85.826 1.4742 83.8277 2.07446 81.7397L3.20076 82.0625ZM2.36287 93.6869C2.6791 95.6399 3.22804 97.5105 3.96812 99.3204L2.88329 99.7648C2.11273 97.8803 1.53772 95.924 1.20599 93.8752L2.36287 93.6869ZM6.6936 104.547C7.72492 106.183 8.89298 107.783 10.1613 109.364L9.2468 110.098C7.95742 108.49 6.76204 106.854 5.70201 105.173L6.6936 104.547ZM14.0579 113.886C15.383 115.339 16.7608 116.789 18.1626 118.253L17.3157 119.064C15.9128 117.598 14.5268 116.14 13.1916 114.676L14.0579 113.886ZM22.3118 122.6C23.6823 124.055 25.0457 125.536 26.3722 127.056L25.489 127.827C24.1756 126.322 22.823 124.853 21.4583 123.404L22.3118 122.6ZM30.2024 131.731C30.813 132.535 31.4076 133.351 31.9823 134.182L31.0181 134.849C30.4542 134.034 29.8701 133.231 29.2692 132.441L30.2024 131.731ZM6.09774 73.5783L7.13101 74.1303L6.09774 73.5783ZM32.653 134.725C32.5366 135.362 31.9261 135.784 31.2894 135.669L20.914 133.781C20.2773 133.665 19.8555 133.055 19.9719 132.419C20.0884 131.782 20.6989 131.36 21.3356 131.475L30.5581 133.153L32.2444 123.93C32.3608 123.293 32.9713 122.871 33.608 122.987C34.2447 123.103 34.6665 123.713 34.55 124.349L32.653 134.725ZM24.6402 0.844711C25.0764 1.73875 25.4903 2.61594 25.8826 3.47701L23.7494 4.45013C23.3661 3.60859 22.961 2.75005 22.5335 1.87374L24.6402 0.844711ZM28.1224 8.82598C28.8503 10.7449 29.4596 12.58 29.9577 14.3413L27.7023 14.981C27.2242 13.2907 26.6369 11.5202 25.9308 9.6589L28.1224 8.82598ZM31.2334 20.0517C31.5605 22.1004 31.7211 24.0474 31.7312 25.9131L29.3874 25.9279C29.3779 24.1886 29.2282 22.3611 28.9188 20.4232L31.2334 20.0517ZM31.237 31.8169C30.8869 33.7985 30.3606 35.6907 29.6892 37.5262L27.488 36.723C28.1162 35.0058 28.6046 33.2466 28.9289 31.4112L31.237 31.8169ZM27.2762 42.8855C26.3848 44.5679 25.3889 46.2282 24.317 47.8939L22.3462 46.6271C23.3928 45.0005 24.3528 43.3987 25.2053 41.7898L27.2762 42.8855ZM21.0873 52.6707C20.0244 54.1894 18.9116 55.7478 17.7805 57.3473L15.8671 55.9954C17.0071 54.3834 18.1083 52.8412 19.1675 51.328L21.0873 52.6707ZM14.5235 62.0314C13.4898 63.5542 12.4484 65.1332 11.4107 66.7837L9.42665 65.5376C10.4819 63.8592 11.5389 62.2568 12.5846 60.7163L14.5235 62.0314ZM8.49914 71.6482C8.03978 72.4577 7.58338 73.2847 7.13101 74.1303L5.06447 73.0263C5.52636 72.1629 5.99219 71.3189 6.46079 70.4931L8.49914 71.6482ZM7.13101 74.1303C6.65252 75.0247 6.2165 75.9007 5.82099 76.7589L3.69239 75.7798C4.10824 74.8773 4.56509 73.9598 5.06447 73.0263L7.13101 74.1303ZM3.76392 82.2239C3.19432 84.2052 2.85502 86.0868 2.71447 87.8832L0.377738 87.7025C0.531352 85.7391 0.900828 83.7018 1.51131 81.5783L3.76392 82.2239ZM2.94131 93.5928C3.24979 95.4979 3.78569 97.3256 4.51053 99.0983L2.34088 99.9869C1.55507 98.0652 0.967036 96.066 0.627557 93.9694L2.94131 93.5928ZM7.18939 104.235C8.20636 105.848 9.36076 107.429 10.6186 108.998L8.78953 110.465C7.48964 108.844 6.2806 107.19 5.20622 105.486L7.18939 104.235ZM14.491 113.491C15.8111 114.938 17.1848 116.384 18.586 117.847L16.8922 119.469C15.4888 118.003 14.0987 116.54 12.7584 115.071L14.491 113.491ZM22.7385 122.198C24.1119 123.656 25.4807 125.143 26.8138 126.67L25.0473 128.212C23.7405 126.715 22.3934 125.251 21.0316 123.806L22.7385 122.198ZM30.669 131.376C31.2845 132.186 31.8842 133.01 32.4644 133.849L30.536 135.183C29.9775 134.375 29.3986 133.58 28.8026 132.796L30.669 131.376Z" fill="#A6EB54"/>
</svg>
