<svg width="330" height="237" viewBox="0 0 330 237" fill="none" xmlns="http://www.w3.org/2000/svg">
<path d="M253.5 59.9999L252.848 59.2416L253.5 59.9999ZM173.5 128.493L173.326 129.478L173.5 128.493ZM53 128.493L53.5825 129.306L53 128.493ZM18.5556 235.896C19.0504 236.141 19.6504 235.939 19.8958 235.444L23.8953 227.382C24.1408 226.887 23.9386 226.287 23.4439 226.042C22.9491 225.796 22.3491 225.998 22.1037 226.493L18.5486 233.66L11.3819 230.105C10.8871 229.859 10.2871 230.061 10.0417 230.556C9.79624 231.051 9.99836 231.651 10.4931 231.896L18.5556 235.896ZM326.5 0.499968C326.5 3.26451 326.021 5.80972 325.134 8.18393L327.008 8.88361C327.979 6.28488 328.5 3.50265 328.5 0.499954L326.5 0.499968ZM315.587 20.6572C311.8 23.8371 307.219 26.7818 302.143 29.6847L303.136 31.4209C308.256 28.4926 312.954 25.4796 316.873 22.1889L315.587 20.6572ZM287.725 37.4248C282.971 39.9086 278.08 42.4776 273.26 45.2403L274.254 46.9755C279.036 44.2346 283.895 41.6821 288.651 39.1975L287.725 37.4248ZM259.352 54.1187C257.113 55.7435 254.936 57.4464 252.848 59.2416L254.152 60.7582C256.194 59.0031 258.326 57.3341 260.526 55.7374L259.352 54.1187ZM252.848 59.2416C250.978 60.8493 249.252 62.5789 247.644 64.4037L249.145 65.7259C250.698 63.9635 252.358 62.3 254.152 60.7582L252.848 59.2416ZM239.214 76.2743C236.765 80.4238 234.568 84.753 232.434 89.0497L234.225 89.9394C236.357 85.6466 238.527 81.3732 240.936 77.2907L239.214 76.2743ZM225.924 101.844C223.577 106.141 221.083 110.184 218.213 113.767L219.774 115.017C222.746 111.307 225.303 107.153 227.679 102.803L225.924 101.844ZM207.864 123.163C204.159 125.454 199.884 127.14 194.827 128.021L195.171 129.991C200.473 129.067 204.99 127.292 208.916 124.863L207.864 123.163ZM180.762 128.459C178.518 128.262 176.158 127.948 173.674 127.508L173.326 129.478C175.862 129.927 178.28 130.249 180.587 130.451L180.762 128.459ZM173.674 127.508C171.082 127.05 168.537 126.587 166.037 126.126L165.674 128.092C168.178 128.555 170.728 129.018 173.326 129.478L173.674 127.508ZM150.811 123.236C145.528 122.218 140.457 121.236 135.582 120.331L135.217 122.298C140.083 123.201 145.146 124.181 150.432 125.2L150.811 123.236ZM120.263 117.692C114.88 116.863 109.74 116.207 104.807 115.795L104.641 117.788C109.515 118.195 114.607 118.844 119.958 119.668L120.263 117.692ZM89.1946 115.417C83.8059 115.669 78.6507 116.379 73.6712 117.669L74.1727 119.605C78.9991 118.355 84.0154 117.662 89.2882 117.415L89.1946 115.417ZM59.0712 123.471C56.8257 124.71 54.6101 126.109 52.4175 127.68L53.5825 129.306C55.7132 127.779 57.8625 126.422 60.0374 125.222L59.0712 123.471ZM52.4175 127.68C50.3631 129.153 48.3548 130.7 46.401 132.319L47.6774 133.859C49.5946 132.27 51.5656 130.751 53.5825 129.306L52.4175 127.68ZM35.4443 142.842C32.0723 146.604 28.9769 150.637 26.2221 154.926L27.9049 156.007C30.5996 151.812 33.6297 147.863 36.9336 144.177L35.4443 142.842ZM19.1165 168.376C17.1704 172.985 15.6003 177.817 14.4633 182.86L16.4143 183.3C17.5246 178.376 19.0579 173.656 20.9589 169.154L19.1165 168.376ZM12.4379 197.938C12.2089 202.847 12.3785 207.915 12.9878 213.131L14.9743 212.899C14.3774 207.789 14.2119 202.83 14.4357 198.031L12.4379 197.938ZM15.8551 228.039C16.4949 230.439 17.2261 232.866 18.0523 235.319L19.9477 234.681C19.1349 232.268 18.4161 229.882 17.7877 227.524L15.8551 228.039ZM253.5 59.9999L252.196 58.4833L253.5 59.9999ZM173.5 128.493L173.151 130.462L173.5 128.493ZM53 128.493L54.1651 130.119L53 128.493ZM18.1112 236.792C19.1007 237.283 20.3008 236.878 20.7917 235.889L28.7907 219.764C29.2815 218.774 28.8773 217.574 27.8878 217.083C26.8983 216.592 25.6982 216.997 25.2073 217.986L18.0971 232.32L3.76378 225.209C2.77425 224.718 1.57419 225.123 1.08332 226.112C0.592467 227.102 0.996698 228.302 1.98622 228.793L18.1112 236.792ZM325.5 0.499974C325.5 3.14545 325.042 5.57214 324.198 7.83408L327.945 9.23346C328.957 6.52246 329.5 3.62172 329.5 0.499947L325.5 0.499974ZM314.944 19.8914C311.223 23.0158 306.7 25.9264 301.647 28.8166L303.632 32.2889C308.775 29.348 313.531 26.3009 317.516 22.9548L314.944 19.8914ZM287.262 36.5385C282.508 39.0219 277.601 41.5991 272.762 44.3728L274.751 47.8431C279.514 45.113 284.357 42.5688 289.114 40.0838L287.262 36.5385ZM258.764 53.3093C256.506 54.9483 254.308 56.6681 252.196 58.4833L254.804 61.5166C256.822 59.7814 258.933 58.1293 261.114 56.5467L258.764 53.3093ZM252.196 58.4833C250.288 60.1239 248.529 61.8866 246.894 63.7426L249.895 66.387C251.42 64.6558 253.049 63.0254 254.804 61.5166L252.196 58.4833ZM238.352 75.7661C235.884 79.9491 233.673 84.3061 231.538 88.6049L235.121 90.3842C237.252 86.0934 239.408 81.848 241.797 77.7989L238.352 75.7661ZM225.046 101.365C222.714 105.635 220.252 109.622 217.432 113.142L220.554 115.642C223.577 111.869 226.166 107.659 228.556 103.282L225.046 101.365ZM207.338 122.312C203.744 124.535 199.589 126.176 194.656 127.036L195.342 130.976C200.768 130.031 205.406 128.21 209.442 125.714L207.338 122.312ZM180.85 127.463C178.637 127.269 176.306 126.959 173.849 126.524L173.151 130.462C175.715 130.916 178.162 131.242 180.5 131.448L180.85 127.463ZM173.849 126.524C171.259 126.065 168.717 125.604 166.219 125.142L165.492 129.076C167.998 129.539 170.551 130.002 173.151 130.462L173.849 126.524ZM151 122.254C145.719 121.236 140.643 120.254 135.765 119.348L135.035 123.281C139.897 124.183 144.955 125.163 150.243 126.182L151 122.254ZM120.415 116.703C115.017 115.872 109.853 115.213 104.891 114.799L104.558 118.785C109.402 119.189 114.47 119.835 119.806 120.657L120.415 116.703ZM89.1478 114.418C83.7011 114.673 78.4765 115.391 73.4205 116.701L74.4234 120.573C79.1733 119.343 84.1201 118.658 89.335 118.413L89.1478 114.418ZM58.588 122.595C56.3073 123.854 54.0586 125.274 51.835 126.867L54.1651 130.119C56.2648 128.614 58.381 127.278 60.5204 126.098L58.588 122.595ZM51.835 126.867C49.7618 128.353 47.735 129.914 45.7628 131.549L48.3156 134.629C50.2144 133.055 52.1669 131.551 54.1651 130.119L51.835 126.867ZM34.6996 142.175C31.2936 145.975 28.1655 150.05 25.3807 154.386L28.7463 156.548C31.4109 152.399 34.4084 148.493 37.6783 144.844L34.6996 142.175ZM18.1952 167.987C16.2266 172.649 14.6381 177.538 13.4878 182.64L17.3899 183.52C18.4868 178.655 20.0017 173.992 21.8802 169.543L18.1952 167.987ZM11.439 197.891C11.2074 202.855 11.3791 207.978 11.9945 213.247L15.9675 212.783C15.3768 207.726 15.2134 202.821 15.4346 198.077L11.439 197.891ZM14.8889 228.296C15.5342 230.718 16.2717 233.166 17.1046 235.638L20.8954 234.362C20.0893 231.969 19.3768 229.603 18.754 227.266L14.8889 228.296Z" fill="#A6EB54"/>
</svg>
