<svg width="49" height="121" viewBox="0 0 49 121" fill="none" xmlns="http://www.w3.org/2000/svg">
<path d="M4.69161 63.6631L5.20825 63.9391L4.69161 63.6631ZM46.03 119.433C45.9718 119.751 45.6666 119.962 45.3482 119.904L40.1605 118.961C39.8422 118.903 39.6313 118.598 39.6895 118.279C39.7477 117.961 40.053 117.75 40.3713 117.808L44.9826 118.647L45.8257 114.035C45.8839 113.717 46.1892 113.506 46.5075 113.563C46.8259 113.621 47.0368 113.926 46.9786 114.245L46.03 119.433ZM14.0797 0.710573C14.5172 1.60738 14.9372 2.48087 15.34 3.33209L14.2806 3.83411C13.8799 2.98735 13.4619 2.11803 13.0263 1.22508L14.0797 0.710573ZM17.7364 8.59747C18.5643 10.503 19.2896 12.2832 19.9177 13.9544L18.8206 14.3675C18.2005 12.7176 17.4829 10.9557 16.6614 9.06524L17.7364 8.59747ZM21.7469 19.4512C22.3327 21.523 22.731 23.412 22.9567 25.1664L21.7944 25.317C21.5772 23.6296 21.1922 21.7978 20.6192 19.7709L21.7469 19.4512ZM23.0435 31.0435C22.8138 33.0596 22.3063 34.9242 21.5692 36.7562L20.482 36.3197C21.1845 34.5736 21.6627 32.8115 21.8791 30.9119L23.0435 31.0435ZM18.9092 41.9574C17.9818 43.502 16.9277 45.1049 15.7765 46.8278L14.8022 46.1774C15.9525 44.4559 16.9929 42.8733 17.9046 41.3549L18.9092 41.9574ZM12.5856 51.6134C11.5985 53.1162 10.5653 54.7245 9.49622 56.468L8.49729 55.8561C9.57443 54.0996 10.6144 52.4807 11.6063 50.9707L12.5856 51.6134ZM6.58828 61.4203C6.13252 62.2328 5.67228 63.0717 5.20825 63.9391L4.17497 63.3872C4.6428 62.5127 5.1068 61.6668 5.56629 60.8478L6.58828 61.4203ZM5.20825 63.9391C4.76608 64.7657 4.37284 65.5721 4.02616 66.3594L2.95366 65.888C3.3131 65.0718 3.71958 64.2384 4.17497 63.3872L5.20825 63.9391ZM2.36072 71.4199C1.96886 73.2864 1.86516 75.0353 2.00693 76.6854L0.839294 76.7867C0.68712 75.0156 0.799886 73.1517 1.21379 71.1801L2.36072 71.4199ZM3.29477 81.7647C3.97713 83.3501 4.90064 84.856 6.02312 86.3032L5.0968 87.0219C3.92413 85.51 2.94592 83.9194 2.21824 82.2288L3.29477 81.7647ZM9.66206 90.228C10.936 91.4121 12.3274 92.5621 13.8056 93.6923L13.0932 94.6234C11.593 93.4763 10.1714 92.3021 8.86372 91.0866L9.66206 90.228ZM18.214 96.8632C19.6886 97.8728 21.2072 98.8747 22.7467 99.881L22.1048 100.862C20.5633 99.8544 19.0364 98.8471 17.5513 97.8303L18.214 96.8632ZM27.3172 102.868C28.8419 103.873 30.3622 104.892 31.8527 105.935L31.1802 106.895C29.7021 105.861 28.1917 104.848 26.6716 103.847L27.3172 102.868ZM36.2717 109.193C37.7359 110.342 39.1428 111.528 40.4641 112.765L39.6627 113.621C38.371 112.412 36.9909 111.247 35.548 110.116L36.2717 109.193ZM44.2613 116.782C44.853 117.501 45.4126 118.238 45.9357 118.995L44.9715 119.661C44.4682 118.933 43.9285 118.222 43.3561 117.527L44.2613 116.782ZM4.69161 63.6631L5.72488 64.2151L4.69161 63.6631ZM46.6065 119.538C46.49 120.174 45.8795 120.597 45.2428 120.481L34.8674 118.593C34.2308 118.478 33.809 117.868 33.9254 117.231C34.0418 116.594 34.6523 116.172 35.289 116.288L44.5116 117.965L46.1978 108.742C46.3143 108.105 46.9248 107.683 47.5615 107.799C48.1981 107.915 48.6199 108.525 48.5035 109.162L46.6065 119.538ZM14.6064 0.453317C15.0448 1.35205 15.4658 2.22763 15.8697 3.08108L13.7509 4.08512C13.3513 3.24059 12.9343 2.37335 12.4996 1.48234L14.6064 0.453317ZM18.2738 8.36358C19.1051 10.2766 19.8342 12.066 20.4662 13.7479L18.2721 14.574C17.656 12.9348 16.9422 11.1821 16.124 9.29912L18.2738 8.36358ZM22.3108 19.2913C22.9029 21.3856 23.3078 23.3032 23.5379 25.0911L21.2132 25.3923C21.0004 23.7384 20.622 21.9351 20.0553 19.9308L22.3108 19.2913ZM23.6257 31.1093C23.3894 33.1837 22.8672 35.0995 22.1128 36.9745L19.9384 36.1014C20.6236 34.3984 21.0871 32.6875 21.2969 30.8461L23.6257 31.1093ZM19.4115 42.2586C18.4762 43.8163 17.4153 45.4294 16.2636 47.153L14.3151 45.8522C15.4648 44.1315 16.4985 42.5589 17.4023 41.0536L19.4115 42.2586ZM13.0753 51.9347C12.0905 53.434 11.0608 55.037 9.99568 56.7739L7.99782 55.5502C9.07897 53.7871 10.1224 52.1629 11.1166 50.6493L13.0753 51.9347ZM7.09928 61.7066C6.64538 62.5157 6.18703 63.3512 5.72488 64.2151L3.65834 63.1112C4.12805 62.2331 4.59394 61.3839 5.0553 60.5615L7.09928 61.7066ZM5.72488 64.2151C5.28933 65.0293 4.90271 65.8223 4.56241 66.5951L2.4174 65.6523C2.78323 64.8216 3.19633 63.9748 3.65834 63.1112L5.72488 64.2151ZM2.93418 71.5397C2.55335 73.3537 2.45417 75.0451 2.59075 76.6347L0.255477 76.8374C0.0981022 75.0057 0.215397 73.0843 0.64033 71.0602L2.93418 71.5397ZM3.83304 81.5327C4.49274 83.0654 5.38889 84.5291 6.48627 85.9439L4.63364 87.3812C3.43588 85.837 2.43031 84.2041 1.67997 82.4608L3.83304 81.5327ZM10.0612 89.7987C11.3182 90.9671 12.6946 92.105 14.1618 93.2267L12.737 95.0889C11.2258 93.9335 9.78915 92.7471 8.46456 91.5159L10.0612 89.7987ZM18.5454 96.3797C20.0147 97.3857 21.5292 98.3849 23.0676 99.3905L21.7838 101.353C20.2414 100.344 18.7102 99.3342 17.2199 98.3138L18.5454 96.3797ZM27.64 102.379C29.167 103.385 30.6923 104.408 32.1889 105.455L30.8439 107.375C29.372 106.345 27.8666 105.336 26.3488 104.336L27.64 102.379ZM36.6336 108.732C38.1084 109.889 39.5287 111.087 40.8648 112.337L39.262 114.049C37.9851 112.853 36.6184 111.7 35.1861 110.577L36.6336 108.732ZM44.714 116.409C45.3152 117.14 45.8847 117.89 46.4178 118.661L44.4894 119.995C43.996 119.281 43.4662 118.583 42.9035 117.899L44.714 116.409Z" fill="#A6EB54"/>
</svg>
