<svg width="292" height="198" viewBox="0 0 292 198" fill="none" xmlns="http://www.w3.org/2000/svg">
<path d="M3.50746 196.122C3.57498 196.67 4.07411 197.06 4.62225 196.993L13.5547 195.892C14.1028 195.824 14.4924 195.325 14.4249 194.777C14.3573 194.229 13.8583 193.839 13.3101 193.907L5.37016 194.885L4.39182 186.945C4.32426 186.397 3.82516 186.008 3.27702 186.075C2.72889 186.143 2.33928 186.642 2.40681 187.19L3.50746 196.122ZM273.9 3.13608C275.693 4.84102 277.306 6.6713 278.747 8.60948L280.352 7.41622C278.844 5.38791 277.155 3.47181 275.279 1.68695L273.9 3.13608ZM285.436 21.5635C286.961 26.1222 287.866 30.97 288.197 35.9711L290.193 35.839C289.852 30.6843 288.917 25.6659 287.332 20.9289L285.436 21.5635ZM287.6 50.6926C286.919 55.5102 285.779 60.3393 284.219 65.0664L286.118 65.6932C287.714 60.8575 288.882 55.9124 289.581 50.9725L287.6 50.6926ZM278.413 78.6586C276.085 83.0371 273.386 87.2002 270.359 91.0374L271.929 92.2761C275.033 88.341 277.797 84.0771 280.179 79.5977L278.413 78.6586ZM260.124 101.638C256.317 104.827 252.202 107.537 247.827 109.647L248.696 111.449C253.232 109.26 257.485 106.457 261.408 103.172L260.124 101.638ZM233.889 114.073C229.218 114.827 224.341 114.915 219.297 114.224L219.026 116.205C224.267 116.924 229.343 116.833 234.208 116.047L233.889 114.073ZM205.141 110.316C202.943 109.406 200.721 108.344 198.478 107.122L197.522 108.878C199.824 110.132 202.11 111.225 204.375 112.164L205.141 110.316ZM198.478 107.122C196.303 105.937 194.122 104.845 191.938 103.843L191.105 105.661C193.247 106.643 195.386 107.715 197.522 108.878L198.478 107.122ZM178.223 98.743C173.451 97.371 168.67 96.4058 163.885 95.8232L163.643 97.8085C168.323 98.3784 173.001 99.3225 177.67 100.665L178.223 98.743ZM149.272 95.2077C144.418 95.3814 139.57 95.9234 134.736 96.8073L135.096 98.7747C139.84 97.9073 144.591 97.3765 149.343 97.2064L149.272 95.2077ZM120.575 100.365C116.011 101.818 111.466 103.556 106.945 105.558L107.755 107.386C112.214 105.412 116.692 103.7 121.182 102.271L120.575 100.365ZM93.9104 112.076C89.7392 114.398 85.5931 116.931 81.4768 119.656L82.5807 121.324C86.6574 118.625 90.7598 116.119 94.8833 113.823L93.9104 112.076ZM69.6165 128.088C65.8095 130.98 62.0322 134.026 58.2883 137.212L59.5843 138.735C63.3019 135.572 67.0505 132.549 70.8263 129.681L69.6165 128.088ZM47.4475 146.903C43.9496 150.18 40.485 153.57 37.0571 157.062L38.4842 158.463C41.8937 154.99 45.3384 151.619 48.8149 148.362L47.4475 146.903ZM27.081 167.612C23.8417 171.164 20.6394 174.799 17.4771 178.504L18.9985 179.803C22.1472 176.113 25.335 172.495 28.5588 168.959L27.081 167.612ZM8.21851 189.692C6.70579 191.576 5.20339 193.474 3.71168 195.385L5.28821 196.615C6.77438 194.712 8.27102 192.821 9.77782 190.945L8.21851 189.692ZM2.51497 196.245C2.65002 197.341 3.64825 198.12 4.74452 197.985L22.6094 195.784C23.7057 195.649 24.4849 194.65 24.3498 193.554C24.2148 192.458 23.2165 191.679 22.1203 191.814L6.24034 193.77L4.28366 177.891C4.14857 176.794 3.15038 176.015 2.05407 176.15C0.9578 176.285 0.178593 177.283 0.313677 178.38L2.51497 196.245ZM273.211 3.86064C274.961 5.52562 276.537 7.313 277.944 9.20611L281.154 6.81958C279.613 4.74622 277.886 2.78721 275.968 0.962391L273.211 3.86064ZM284.487 21.8808C285.983 26.3503 286.873 31.1129 287.199 36.0371L291.19 35.773C290.844 30.5414 289.896 25.4377 288.281 20.6116L284.487 21.8808ZM286.61 50.5526C285.938 55.309 284.811 60.0802 283.269 64.7531L287.068 66.0065C288.681 61.1166 289.864 56.1135 290.571 51.1125L286.61 50.5526ZM277.53 78.1891C275.228 82.5172 272.562 86.6297 269.574 90.4181L272.714 92.8955C275.857 88.9114 278.653 84.5971 281.062 80.0672L277.53 78.1891ZM259.482 100.872C255.732 104.012 251.686 106.675 247.392 108.747L249.13 112.349C253.747 110.122 258.069 107.272 262.05 103.939L259.482 100.872ZM233.73 113.085C229.156 113.824 224.379 113.911 219.433 113.233L218.89 117.196C224.229 117.928 229.405 117.836 234.368 117.034L233.73 113.085ZM205.524 109.393C203.36 108.496 201.17 107.449 198.957 106.244L197.043 109.756C199.376 111.027 201.693 112.135 203.993 113.088L205.524 109.393ZM198.957 106.244C196.761 105.048 194.56 103.945 192.355 102.934L190.688 106.571C192.809 107.542 194.927 108.604 197.043 109.756L198.957 106.244ZM178.499 97.7819C173.676 96.3952 168.843 95.4195 164.006 94.8305L163.522 98.8012C168.15 99.3646 172.775 100.298 177.394 101.626L178.499 97.7819ZM149.236 94.2084C144.331 94.3838 139.436 94.9314 134.557 95.8236L135.276 99.7584C139.974 98.8993 144.677 98.374 149.379 98.2058L149.236 94.2084ZM120.272 99.4119C115.671 100.877 111.092 102.628 106.54 104.643L108.159 108.301C112.588 106.34 117.032 104.641 121.485 103.223L120.272 99.4119ZM93.424 111.202C89.2289 113.538 85.0609 116.084 80.9248 118.822L83.1327 122.157C87.1895 119.472 91.2701 116.98 95.3698 114.697L93.424 111.202ZM69.0117 127.292C65.189 130.196 61.3973 133.253 57.6402 136.45L60.2324 139.497C63.9367 136.345 67.6709 133.333 71.4312 130.477L69.0117 127.292ZM46.7638 146.173C43.2552 149.46 39.7807 152.86 36.3435 156.361L39.1977 159.164C42.598 155.7 46.0328 152.339 49.4986 149.092L46.7638 146.173ZM26.3421 166.938C23.0951 170.499 19.8855 174.141 16.7164 177.855L19.7592 180.452C22.9011 176.77 26.0816 173.16 29.2977 169.633L26.3421 166.938ZM7.43884 189.066C5.92318 190.953 4.41792 192.855 2.92339 194.769L6.0765 197.231C7.55985 195.33 9.05363 193.443 10.5575 191.571L7.43884 189.066Z" fill="#A6EB54"/>
</svg>
