<svg width="392" height="228" viewBox="0 0 392 228" fill="none" xmlns="http://www.w3.org/2000/svg">
<path d="M186 144.493L186.174 143.508L186 144.493ZM8.57158 225.864C8.77675 226.377 9.35874 226.626 9.87151 226.421L18.2274 223.077C18.7402 222.872 18.9896 222.29 18.7844 221.778C18.5792 221.265 17.9972 221.015 17.4845 221.221L10.057 224.193L7.08504 216.765C6.87987 216.252 6.29788 216.003 5.78513 216.208C5.27236 216.413 5.023 216.995 5.22817 217.508L8.57158 225.864ZM389 0.992872C389 3.50137 388.274 5.76166 386.92 7.84132L388.596 8.93266C390.145 6.5527 391 3.91699 391 0.992858L389 0.992872ZM375.133 17.0549C370.977 19.1227 366.079 20.9835 360.692 22.7387L361.312 24.6403C366.746 22.8698 371.745 20.9742 376.024 18.8455L375.133 17.0549ZM345.687 27.1492C340.743 28.4987 335.665 29.8267 330.552 31.205L331.073 33.1361C336.159 31.7649 341.273 30.4272 346.213 29.0786L345.687 27.1492ZM315.438 35.4975C310.274 37.075 305.255 38.7636 300.551 40.6287L301.288 42.4879C305.926 40.6489 310.891 38.9778 316.022 37.4103L315.438 35.4975ZM286.318 47.5631C283.961 49.0135 281.79 50.5647 279.848 52.2338L281.152 53.7504C283 52.1616 285.083 50.6714 287.366 49.2665L286.318 47.5631ZM279.848 52.2338C278.085 53.7493 276.4 55.4552 274.777 57.3166L276.284 58.631C277.855 56.8294 279.473 55.1937 281.152 53.7504L279.848 52.2338ZM266.432 68.8368C264.021 72.6956 261.692 76.8373 259.383 81.1146L261.142 82.065C263.443 77.804 265.749 73.704 268.128 69.8966L266.432 68.8368ZM252.779 93.5779C250.586 97.7198 248.353 101.866 246.024 105.908L247.757 106.906C250.104 102.833 252.35 98.6619 254.547 94.5138L252.779 93.5779ZM238.578 117.77C235.855 121.685 232.971 125.347 229.86 128.627L231.312 130.004C234.507 126.634 237.455 122.889 240.22 118.911L238.578 117.77ZM219.287 137.52C215.452 139.977 211.296 141.864 206.742 143.032L207.238 144.969C212.016 143.744 216.367 141.766 220.366 139.204L219.287 137.52ZM193.081 144.312C190.864 144.195 188.564 143.931 186.174 143.508L185.826 145.477C188.292 145.914 190.673 146.188 192.976 146.309L193.081 144.312ZM186.174 143.508C183.706 143.071 181.295 142.6 178.939 142.102L178.525 144.059C180.902 144.562 183.335 145.036 185.826 145.477L186.174 143.508ZM164.653 138.606C159.713 137.237 155.031 135.783 150.572 134.31L149.945 136.209C154.428 137.69 159.141 139.154 164.119 140.533L164.653 138.606ZM136.639 129.484C131.734 127.738 127.091 126.072 122.664 124.622L122.041 126.523C126.438 127.963 131.053 129.618 135.968 131.369L136.639 129.484ZM108.304 120.694C103.155 119.67 98.2077 119.224 93.3425 119.639L93.5125 121.632C98.1414 121.237 102.894 121.657 107.914 122.655L108.304 120.694ZM78.8646 123.755C76.72 124.833 74.5749 126.134 72.4176 127.68L73.5826 129.306C75.6613 127.816 77.7175 126.57 79.7627 125.542L78.8646 123.755ZM72.4176 127.68C70.4995 129.055 68.5798 130.627 66.6664 132.366L68.0113 133.846C69.8771 132.151 71.7369 130.629 73.5826 129.306L72.4176 127.68ZM56.543 143.058C53.5077 146.683 50.5141 150.612 47.596 154.719L49.2264 155.878C52.12 151.805 55.0814 147.919 58.0765 144.342L56.543 143.058ZM39.441 166.913C36.8078 171.073 34.2717 175.29 31.8626 179.454L33.5938 180.456C35.9915 176.311 38.5139 172.117 41.1309 167.982L39.441 166.913ZM24.732 192.26C22.2532 196.878 19.9921 201.266 17.997 205.244L19.7849 206.141C21.7726 202.177 24.0253 197.806 26.4943 193.206L24.732 192.26ZM11.6046 218.441C9.88513 222.126 8.83026 224.516 8.58083 225.099L10.4192 225.886C10.6576 225.33 11.703 222.96 13.4171 219.287L11.6046 218.441ZM186 144.493L186.349 142.523L186 144.493ZM7.64316 226.235C8.0535 227.261 9.21749 227.76 10.243 227.349L26.9549 220.663C27.9804 220.252 28.4791 219.088 28.0687 218.063C27.6584 217.037 26.4944 216.538 25.4689 216.949L10.6139 222.893L4.67006 208.038C4.25972 207.012 3.09573 206.513 2.07021 206.924C1.04468 207.334 0.545979 208.498 0.956321 209.524L7.64316 226.235ZM388 0.992879C388 3.29355 387.338 5.36614 386.082 7.29565L389.434 9.47833C391.081 6.94823 392 4.1248 392 0.992852L388 0.992879ZM374.688 16.1595C370.592 18.1969 365.746 20.0403 360.383 21.7879L361.622 25.5911C367.079 23.813 372.129 21.8999 376.47 19.7409L374.688 16.1595ZM345.423 26.1845C340.478 27.5344 335.418 28.8576 330.292 30.2395L331.333 34.1016C336.406 32.734 341.538 31.3915 346.477 30.0433L345.423 26.1845ZM315.146 34.5412C309.966 36.1236 304.919 37.8209 300.183 39.6992L301.657 43.4175C306.262 41.5916 311.2 39.9292 316.314 38.3666L315.146 34.5412ZM285.794 46.7115C283.4 48.1846 281.185 49.7663 279.196 51.4755L281.804 54.5088C283.605 52.96 285.644 51.5004 287.89 50.1181L285.794 46.7115ZM279.196 51.4755C277.391 53.0271 275.672 54.768 274.023 56.6595L277.038 59.2882C278.583 57.5166 280.167 55.9159 281.804 54.5088L279.196 51.4755ZM265.584 68.3069C263.157 72.1914 260.817 76.354 258.503 80.6394L262.022 82.5401C264.319 78.2874 266.613 74.2081 268.976 70.4264L265.584 68.3069ZM251.895 93.11C249.704 97.2487 247.478 101.382 245.157 105.408L248.623 107.406C250.98 103.317 253.232 99.1329 255.43 94.9817L251.895 93.11ZM237.757 117.199C235.056 121.084 232.202 124.704 229.135 127.939L232.037 130.692C235.275 127.277 238.254 123.491 241.041 119.482L237.757 117.199ZM218.748 136.678C214.995 139.083 210.936 140.924 206.493 142.063L207.487 145.938C212.376 144.684 216.825 142.661 220.906 140.046L218.748 136.678ZM193.134 143.314C190.96 143.199 188.7 142.939 186.349 142.523L185.651 146.462C188.156 146.905 190.578 147.184 192.923 147.308L193.134 143.314ZM186.349 142.523C183.892 142.088 181.492 141.62 179.146 141.124L178.318 145.037C180.706 145.542 183.149 146.019 185.651 146.462L186.349 142.523ZM164.92 137.642C159.999 136.279 155.333 134.829 150.885 133.36L149.631 137.159C154.126 138.643 158.855 140.113 163.852 141.497L164.92 137.642ZM136.975 128.542C132.074 126.797 127.417 125.127 122.975 123.672L121.73 127.473C126.112 128.909 130.713 130.559 135.633 132.311L136.975 128.542ZM108.499 119.713C103.286 118.676 98.2408 118.218 93.2576 118.643L93.5975 122.628C98.1083 122.243 102.764 122.651 107.719 123.636L108.499 119.713ZM78.4156 122.861C76.2212 123.964 74.0317 125.293 71.835 126.867L74.1651 130.119C76.2046 128.657 78.2163 127.438 80.2118 126.435L78.4156 122.861ZM71.835 126.867C69.8808 128.268 67.9311 129.866 65.994 131.626L68.6837 134.586C70.5258 132.913 72.3556 131.415 74.1651 130.119L71.835 126.867ZM55.7763 142.416C52.7209 146.065 49.7111 150.016 46.7808 154.14L50.0416 156.457C52.923 152.401 55.8682 148.537 58.8432 144.984L55.7763 142.416ZM38.596 166.378C35.9548 170.551 33.4118 174.78 30.9971 178.953L34.4593 180.956C36.8514 176.822 39.3669 172.639 41.9759 168.517L38.596 166.378ZM23.8509 191.787C21.3672 196.415 19.1018 200.81 17.1031 204.796L20.6788 206.589C22.6629 202.632 24.9113 198.27 27.3754 193.678L23.8509 191.787ZM10.6985 218.018C8.97619 221.709 7.9166 224.11 7.66165 224.705L11.3384 226.28C11.5712 225.737 12.612 223.377 14.3233 219.71L10.6985 218.018Z" fill="#A6EB54"/>
</svg>
