<svg width="213" height="188" viewBox="0 0 213 188" fill="none" xmlns="http://www.w3.org/2000/svg">
<path d="M211.12 180.747C211.26 181.281 210.941 181.827 210.406 181.967L201.7 184.248C201.166 184.388 200.619 184.068 200.479 183.534C200.339 182.999 200.659 182.453 201.193 182.313L208.932 180.286L206.905 172.547C206.765 172.013 207.085 171.466 207.619 171.326C208.154 171.186 208.7 171.506 208.84 172.04L211.12 180.747ZM1.7048 1.06898C4.19956 2.04692 6.51058 3.08981 8.6509 4.19419L7.73381 5.97153C5.65882 4.90086 3.41066 3.88585 0.974883 2.93102L1.7048 1.06898ZM21.0488 12.9229C24.952 16.7202 27.7631 20.9071 29.7741 25.3892L27.9494 26.2079C26.0365 21.9445 23.3676 17.9691 19.6541 14.3564L21.0488 12.9229ZM33.758 40.0249C34.4212 44.8864 34.6144 49.9323 34.6202 55.0666L32.6202 55.0689C32.6144 49.9768 32.4224 45.0308 31.7763 40.2952L33.758 40.0249ZM34.3648 70.031C34.2712 74.99 34.2466 79.9623 34.5188 84.8952L32.5218 85.0054C32.2455 79.9971 32.2713 74.9658 32.3652 69.9933L34.3648 70.031ZM36.4571 99.5201C37.536 104.236 39.1237 108.844 41.4364 113.287L39.6624 114.21C37.2601 109.596 35.6187 104.823 34.5074 99.9661L36.4571 99.5201ZM49.9166 125.178C51.5368 126.901 53.3235 128.587 55.2939 130.232L54.0121 131.768C51.982 130.073 50.1365 128.331 48.4596 126.548L49.9166 125.178ZM55.2939 130.232C57.0394 131.69 58.831 133.086 60.6645 134.426L59.4848 136.041C57.6176 134.677 55.7919 133.254 54.0121 131.768L55.2939 130.232ZM72.1326 141.799C76.0817 144.035 80.1618 146.068 84.3385 147.926L83.5256 149.754C79.2958 147.872 75.1576 145.81 71.1473 143.539L72.1326 141.799ZM97.0502 152.972C101.352 154.494 105.715 155.867 110.103 157.117L109.555 159.04C105.132 157.78 100.729 156.395 96.3832 154.857L97.0502 152.972ZM123.377 160.538C127.874 161.588 132.361 162.535 136.802 163.408L136.416 165.37C131.957 164.494 127.446 163.542 122.922 162.486L123.377 160.538ZM150.311 165.892C154.947 166.697 159.482 167.447 163.877 168.178L163.549 170.151C159.157 169.421 154.613 168.669 149.969 167.862L150.311 165.892ZM177.444 170.498C182.253 171.365 186.794 172.256 190.985 173.229L190.532 175.177C186.387 174.214 181.882 173.33 177.09 172.466L177.444 170.498ZM204.311 177.148C206.654 178.052 208.782 179.04 210.658 180.137L209.648 181.863C207.887 180.833 205.861 179.889 203.591 179.014L204.311 177.148ZM212.088 180.493C212.368 181.562 211.728 182.655 210.66 182.935L193.247 187.495C192.178 187.775 191.085 187.136 190.806 186.067C190.526 184.999 191.165 183.906 192.234 183.626L207.712 179.572L203.658 164.094C203.378 163.025 204.017 161.932 205.086 161.653C206.154 161.373 207.247 162.012 207.527 163.081L212.088 180.493ZM2.06977 0.137954C4.59401 1.12746 6.93646 2.18428 9.10944 3.30552L7.27526 6.86021C5.23294 5.80639 3.01621 4.80531 0.609922 3.86205L2.06977 0.137954ZM21.7461 12.2061C25.7442 16.0957 28.6264 20.3884 30.6865 24.9799L27.037 26.6173C25.1732 22.4632 22.5754 18.5936 18.9568 15.0732L21.7461 12.2061ZM34.7488 39.8897C35.4206 44.8142 35.6143 49.91 35.6202 55.0655L31.6202 55.0701C31.6144 49.9991 31.423 45.103 30.7855 40.4304L34.7488 39.8897ZM35.3646 70.0499C35.2712 75.0021 35.2472 79.9448 35.5173 84.8401L31.5233 85.0605C31.2449 80.0146 31.2714 74.9537 31.3653 69.9744L35.3646 70.0499ZM37.4319 99.297C38.4947 103.943 40.0556 108.469 42.3235 112.825L38.7754 114.672C36.3283 109.971 34.66 105.117 33.5326 100.189L37.4319 99.297ZM50.6451 124.493C52.2369 126.186 53.9943 127.845 55.9348 129.465L53.3712 132.535C51.3112 130.815 49.4364 129.047 47.7312 127.233L50.6451 124.493ZM55.9348 129.465C57.6631 130.908 59.4377 132.291 61.2544 133.618L58.895 136.848C57.011 135.472 55.1681 134.035 53.3712 132.535L55.9348 129.465ZM72.6253 140.929C76.5437 143.147 80.5948 145.167 84.7449 147.013L83.1192 150.667C78.8628 148.774 74.6956 146.697 70.6547 144.41L72.6253 140.929ZM97.3836 152.029C101.664 153.543 106.006 154.91 110.377 156.155L109.281 160.002C104.84 158.737 100.418 157.345 96.0497 155.8L97.3836 152.029ZM123.604 159.564C128.087 160.611 132.563 161.556 136.994 162.427L136.223 166.351C131.755 165.473 127.232 164.519 122.695 163.46L123.604 159.564ZM150.482 164.907C155.113 165.711 159.645 166.46 164.041 167.191L163.385 171.137C158.994 170.407 154.446 169.655 149.798 168.848L150.482 164.907ZM177.622 169.514C182.439 170.382 186.998 171.276 191.211 172.255L190.306 176.151C186.183 175.194 181.696 174.313 176.913 173.451L177.622 169.514ZM204.67 176.215C207.051 177.133 209.23 178.143 211.163 179.274L209.143 182.726C207.439 181.73 205.464 180.808 203.231 179.947L204.67 176.215Z" fill="#A6EB54"/>
</svg>
