<svg width="40" height="40" viewBox="0 0 40 40" fill="none" xmlns="http://www.w3.org/2000/svg">
<g clip-path="url(#clip0_1_2222)">
<path d="M28.9526 13.2269C28.7686 12.7282 28.475 12.2769 28.0936 11.9064C27.7231 11.5249 27.272 11.2313 26.7731 11.0473C26.3684 10.8901 25.7605 10.7031 24.6408 10.6521C23.4296 10.5969 23.0664 10.585 20 10.585C16.9333 10.585 16.5701 10.5966 15.3592 10.6518C14.2395 10.7031 13.6313 10.8901 13.2269 11.0473C12.728 11.2313 12.2766 11.5249 11.9064 11.9064C11.525 12.2769 11.2314 12.7279 11.0471 13.2269C10.8899 13.6315 10.7028 14.2397 10.6519 15.3594C10.5966 16.5704 10.5847 16.9335 10.5847 20.0002C10.5847 23.0667 10.5966 23.4298 10.6519 24.6411C10.7028 25.7607 10.8899 26.3687 11.0471 26.7733C11.2314 27.2723 11.5247 27.7233 11.9061 28.0938C12.2766 28.4753 12.7277 28.7689 13.2266 28.9529C13.6313 29.1104 14.2395 29.2974 15.3592 29.3484C16.5701 29.4036 16.933 29.4152 19.9997 29.4152C23.0667 29.4152 23.4299 29.4036 24.6405 29.3484C25.7602 29.2974 26.3684 29.1104 26.7731 28.9529C27.7747 28.5665 28.5663 27.7749 28.9526 26.7733C29.1098 26.3687 29.2969 25.7607 29.3481 24.6411C29.4034 23.4298 29.415 23.0667 29.415 20.0002C29.415 16.9335 29.4034 16.5704 29.3481 15.3594C29.2972 14.2397 29.1101 13.6315 28.9526 13.2269ZM20 25.8972C16.7429 25.8972 14.1025 23.2571 14.1025 19.9999C14.1025 16.7428 16.7429 14.1027 20 14.1027C23.2568 14.1027 25.8972 16.7428 25.8972 19.9999C25.8972 23.2571 23.2568 25.8972 20 25.8972ZM26.1304 15.2477C25.3693 15.2477 24.7522 14.6307 24.7522 13.8696C24.7522 13.1085 25.3693 12.4914 26.1304 12.4914C26.8915 12.4914 27.5085 13.1085 27.5085 13.8696C27.5082 14.6307 26.8915 15.2477 26.1304 15.2477Z" fill="#39738B"/>
<path d="M23.8281 20C23.8281 22.1143 22.1143 23.8281 20 23.8281C17.8857 23.8281 16.1719 22.1143 16.1719 20C16.1719 17.8857 17.8857 16.1719 20 16.1719C22.1143 16.1719 23.8281 17.8857 23.8281 20Z" fill="#39738B"/>
<path d="M37.1152 0.000217676H2.88483L0 5.97835e-05V37.1154C0 38.7087 7.45058e-06 40.0002 7.45058e-06 40.0002H37.1152C38.7085 40.0002 40 40 40 40V0C40 0 38.7085 0.000217676 37.1152 0.000217676ZM31.4151 24.735C31.3596 25.9576 31.1652 26.7922 30.8813 27.5228C30.2847 29.0655 29.0652 30.2849 27.5226 30.8816C26.7923 31.1654 25.9573 31.3595 24.7351 31.4153C23.5104 31.4712 23.1192 31.4846 20.0003 31.4846C16.8811 31.4846 16.4902 31.4712 15.2652 31.4153C14.043 31.3595 13.208 31.1654 12.4777 30.8816C11.7111 30.5932 11.0172 30.1412 10.4434 29.5568C9.85931 28.9834 9.40735 28.2891 9.11896 27.5228C8.83514 26.7925 8.64075 25.9576 8.58521 24.7353C8.52875 23.5103 8.51563 23.1191 8.51563 20.0002C8.51563 16.8813 8.52875 16.4901 8.5849 15.2654C8.64044 14.0429 8.83453 13.2082 9.11835 12.4776C9.40674 11.7113 9.85901 11.0171 10.4434 10.4436C11.0168 9.85922 11.7111 9.40726 12.4774 9.11887C13.208 8.83505 14.0427 8.64096 15.2652 8.58512C16.4899 8.52927 16.8811 8.51584 20 8.51584C23.1189 8.51584 23.5101 8.52927 24.7348 8.58542C25.9573 8.64096 26.792 8.83505 27.5226 9.11856C28.2889 9.40695 28.9832 9.85922 29.5569 10.4436C30.141 11.0174 30.5933 11.7113 30.8813 12.4776C31.1655 13.2082 31.3596 14.0429 31.4154 15.2654C31.4713 16.4901 31.4844 16.8813 31.4844 20.0002C31.4844 23.1191 31.4713 23.5103 31.4151 24.735Z" fill="#39738B"/>
</g>
<defs>
<clipPath id="clip0_1_2222">
<rect width="40" height="40" fill="white"/>
</clipPath>
</defs>
</svg>
