<svg width="109" height="38" viewBox="0 0 109 38" fill="none" xmlns="http://www.w3.org/2000/svg">
<g clip-path="url(#clip0_1_14)">
<path d="M32.0833 33.8333V30.8128C33.2036 30.3405 33.9046 29.2136 33.8333 28C33.8333 26.3917 32.7868 25.0833 31.5 25.0833C30.2132 25.0833 29.1667 26.3917 29.1667 28C29.0954 29.2136 29.7964 30.3405 30.9167 30.8128V33.8333H28V15.75C28.0001 15.5289 27.8752 15.3267 27.6774 15.2279L23.3333 13.0562V9.91667C23.3335 9.65614 23.1609 9.4271 22.9104 9.3555L15.1667 7.14292V0.583333C15.1667 0.261187 14.9055 0 14.5833 0H2.91667C2.59452 0 2.33333 0.261187 2.33333 0.583333V33.8333H0V35H35V33.8333H32.0833ZM14 33.8333H3.5V32.6667H8.75V31.5H3.5V29.1667H8.75V28H3.5V25.6667H8.75V24.5H3.5V22.1667H8.75V21H3.5V18.6667H8.75V17.5H3.5V15.1667H8.75V14H3.5V11.6667H8.75V10.5H3.5V8.16667H8.75V7H3.5V4.66667H8.75V3.5H3.5V1.16667H14V33.8333ZM22.1667 33.8333H15.1667V32.6667H19.25V31.5H15.1667V29.1667H19.25V28H15.1667V25.6667H19.25V24.5H15.1667V22.1667H19.25V21H15.1667V18.6667H19.25V17.5H15.1667V15.1667H19.25V14H15.1667V11.6667H19.25V10.5H15.1667V8.35683L22.1667 10.3565V33.8333ZM26.8333 33.8333H23.3333V32.6667H25.0833V31.5H23.3333V29.1667H25.0833V28H23.3333V25.6667H25.0833V24.5H23.3333V22.1667H25.0833V21H23.3333V18.6667H25.0833V17.5H23.3333V14.3605L26.8333 16.1105V33.8333ZM30.9167 29.4992C30.5249 29.1005 30.314 28.5585 30.3333 28C30.3333 27.0515 30.8677 26.25 31.5 26.25C32.1323 26.25 32.6667 27.0515 32.6667 28C32.6856 28.5585 32.4748 29.1003 32.0833 29.4992V28.5833H30.9167V29.4992Z" fill="white"/>
</g>
<path d="M41.6147 3.12988V15H40.7432V3.12988H41.6147ZM44.6943 15V6.28418H45.3169L45.4248 7.39648C46.5371 6.65495 47.6273 6.28418 48.6953 6.28418C50.8148 6.28418 51.8745 7.20003 51.8745 9.03174V15H51.0029V9.00684C51.0029 7.71191 50.2199 7.06445 48.6538 7.06445C47.6079 7.06445 46.5786 7.43245 45.5659 8.16846V15H44.6943ZM60.8892 7.5625C60.048 7.26367 59.1737 7.11426 58.2661 7.11426C56.1245 7.11426 55.0537 8.21273 55.0537 10.4097C55.0537 12.9497 56.1245 14.2197 58.2661 14.2197C59.1737 14.2197 60.048 14.1118 60.8892 13.896V7.5625ZM61.7607 14.4771C60.8145 14.8257 59.6219 15 58.1831 15C55.4771 15 54.124 13.4893 54.124 10.4678C54.124 7.67871 55.502 6.28418 58.2578 6.28418C59.1211 6.28418 59.9982 6.42253 60.8892 6.69922V3.12988H61.7607V14.4771ZM71.5972 6.28418V15H70.958L70.8584 13.8877C69.8568 14.6292 68.7389 15 67.5049 15C65.4463 15 64.417 13.9181 64.417 11.7544V6.28418H65.2886V11.7793C65.2886 13.4062 66.0412 14.2197 67.5464 14.2197C68.6476 14.2197 69.7074 13.8517 70.7256 13.1157V6.28418H71.5972ZM74.0957 14.585V13.7549C75.0641 14.0869 76.016 14.2529 76.9512 14.2529C78.7829 14.2529 79.6987 13.6719 79.6987 12.5098C79.6987 11.569 79.0208 11.0986 77.665 11.0986H76.5527C74.7266 11.0986 73.8135 10.3239 73.8135 8.77441C73.8135 7.11426 75.0226 6.28418 77.4409 6.28418C78.3706 6.28418 79.3197 6.42253 80.2881 6.69922V7.5293C79.3197 7.19727 78.3706 7.03125 77.4409 7.03125C75.6037 7.03125 74.6851 7.6123 74.6851 8.77441C74.6851 9.77051 75.3076 10.2686 76.5527 10.2686H77.665C79.6019 10.2686 80.5703 11.0156 80.5703 12.5098C80.5703 14.1699 79.3639 15 76.9512 15C76.016 15 75.0641 14.8617 74.0957 14.585ZM82.7783 4.87305H83.3926L83.5503 6.28418H86.165V7.03125H83.625V12.5347C83.625 13.6802 84.0456 14.2529 84.8867 14.2529H86.165V15H84.9033C83.4867 15 82.7783 14.217 82.7783 12.6509V4.87305ZM88.0244 15V6.28418H88.647L88.7549 7.72852C89.6292 6.76562 90.6032 6.28418 91.6768 6.28418V6.98145C90.6364 6.98145 89.7095 7.48779 88.896 8.50049V15H88.0244ZM94.4243 3.12988V4.12598H93.3867V3.12988H94.4243ZM94.3413 6.28418V15H93.4697V6.28418H94.3413ZM96.6738 12.5347C96.6738 10.8026 97.8249 9.93652 100.127 9.93652C100.94 9.93652 101.809 9.99186 102.733 10.1025V9.03174C102.733 7.69808 101.895 7.03125 100.218 7.03125C99.3218 7.03125 98.4032 7.1696 97.4624 7.44629V6.69922C98.4032 6.42253 99.3218 6.28418 100.218 6.28418C102.476 6.28418 103.605 7.1862 103.605 8.99023V15H103.074L102.875 14.1367C101.784 14.7122 100.727 15 99.7036 15C97.6838 15 96.6738 14.1782 96.6738 12.5347ZM100.127 10.6836C98.4059 10.6836 97.5454 11.2923 97.5454 12.5098C97.5454 13.6719 98.2648 14.2529 99.7036 14.2529C100.766 14.2529 101.776 13.9707 102.733 13.4062V10.8496C101.809 10.7389 100.94 10.6836 100.127 10.6836ZM107.307 3.12988V15H106.436V3.12988H107.307ZM40.2202 34H39.2905L44.6611 22.1299H45.6987L51.0942 34H50.0566L48.2969 30.0156H42.9761L43.2334 29.2686H47.9731L45.126 22.8105L40.2202 34ZM53.7505 22.1299V34H52.8789V22.1299H53.7505ZM57.4526 32.7217C58.3325 33.0205 59.1432 33.1699 59.8848 33.1699C62.137 33.1699 63.2632 31.9165 63.2632 29.4097C63.2632 27.1795 62.1426 26.0645 59.9014 26.0645C59.1266 26.0645 58.3104 26.1309 57.4526 26.2637V32.7217ZM56.5811 25.6411C57.5716 25.4032 58.6839 25.2842 59.918 25.2842C62.7126 25.2842 64.1099 26.6649 64.1099 29.4263C64.1099 32.4754 62.7043 34 59.8931 34C59.1958 34 58.3823 33.8617 57.4526 33.585V37.1543H56.5811V25.6411ZM67.48 22.1299V23.126H66.4424V22.1299H67.48ZM67.397 25.2842V34H66.5254V25.2842H67.397ZM70.2275 34V25.2842H70.8501L70.958 26.3965C72.0703 25.6549 73.1605 25.2842 74.2285 25.2842C76.348 25.2842 77.4077 26.2 77.4077 28.0317V34H76.5361V28.0068C76.5361 26.7119 75.7531 26.0645 74.187 26.0645C73.1411 26.0645 72.1118 26.4325 71.0991 27.1685V34H70.2275ZM81.1929 22.1299V23.126H80.1553V22.1299H81.1929ZM81.1099 25.2842V34H80.2383V25.2842H81.1099ZM83.7744 33.585V32.7549C84.7428 33.0869 85.6947 33.2529 86.6299 33.2529C88.4616 33.2529 89.3774 32.6719 89.3774 31.5098C89.3774 30.569 88.6995 30.0986 87.3438 30.0986H86.2314C84.4053 30.0986 83.4922 29.3239 83.4922 27.7744C83.4922 26.1143 84.7013 25.2842 87.1196 25.2842C88.0493 25.2842 88.9984 25.4225 89.9668 25.6992V26.5293C88.9984 26.1973 88.0493 26.0312 87.1196 26.0312C85.2824 26.0312 84.3638 26.6123 84.3638 27.7744C84.3638 28.7705 84.9863 29.2686 86.2314 29.2686H87.3438C89.2806 29.2686 90.249 30.0156 90.249 31.5098C90.249 33.1699 89.0426 34 86.6299 34C85.6947 34 84.7428 33.8617 83.7744 33.585ZM92.4902 34V25.2842H93.1128L93.2041 26.3799C94.0951 25.6494 95.0607 25.2842 96.1011 25.2842C97.4735 25.2842 98.3617 25.6826 98.7656 26.4795C99.7673 25.6826 100.783 25.2842 101.812 25.2842C103.76 25.2842 104.734 26.2498 104.734 28.1812V34H103.862V28.1812C103.862 26.77 103.176 26.0645 101.804 26.0645C100.708 26.0645 99.8032 26.4408 99.0894 27.1934V34H98.2178V28.04C98.2178 26.723 97.5094 26.0645 96.0928 26.0645C95.0635 26.0645 94.1532 26.4408 93.3618 27.1934V34H92.4902Z" fill="white"/>
<defs>
<clipPath id="clip0_1_14">
<rect width="35" height="35" fill="white"/>
</clipPath>
</defs>
</svg>
