<svg width="40" height="40" viewBox="0 0 40 40" fill="none" xmlns="http://www.w3.org/2000/svg">
<g clip-path="url(#clip0_1_2219)">
<path d="M40 0L-3.05176e-05 9.11951e-06V39.9999H2.88481H40V37.1151V0ZM20.1562 30.7057C18.9181 30.7057 17.7231 30.5309 16.5988 30.2071L12.5656 32.4999V28.1865C9.86419 26.1309 8.13903 23.0001 8.13903 19.4936C8.13903 13.301 13.5193 8.28113 20.1562 8.28113C26.7935 8.28113 32.1735 13.301 32.1735 19.4936C32.1735 25.6856 26.7935 30.7057 20.1562 30.7057Z" fill="#39738B"/>
<path d="M18.873 16.4229L12.3923 23.2844L18.2901 20.0483L21.3718 23.2844L27.8162 16.4229L21.9836 19.6022L18.873 16.4229Z" fill="#39738B"/>
</g>
<defs>
<clipPath id="clip0_1_2219">
<rect width="40" height="40" fill="white"/>
</clipPath>
</defs>
</svg>
