<svg width="20" height="20" viewBox="0 0 20 20" fill="none" xmlns="http://www.w3.org/2000/svg">
<path d="M13.2575 10.1027L20 14.3652V5.66016L13.2575 10.1027Z" fill="#093038"/>
<path d="M0 5.66016V14.3652L6.7425 10.1027L0 5.66016Z" fill="#093038"/>
<path d="M18.75 3.125H1.25001C0.626256 3.125 0.131256 3.59 0.0375061 4.18875L10 10.7525L19.9625 4.18875C19.8688 3.59 19.3738 3.125 18.75 3.125Z" fill="#093038"/>
<path d="M12.1125 10.8577L10.3438 12.0227C10.2388 12.0914 10.12 12.1252 10 12.1252C9.88001 12.1252 9.76126 12.0914 9.65626 12.0227L7.88751 10.8564L0.0400085 15.8202C0.136259 16.4139 0.628759 16.8752 1.25001 16.8752H18.75C19.3713 16.8752 19.8638 16.4139 19.96 15.8202L12.1125 10.8577Z" fill="#093038"/>
</svg>
