<svg width="24" height="24" viewBox="0 0 24 24" fill="none" xmlns="http://www.w3.org/2000/svg">
<g clip-path="url(#clip0_8_165)">
<path d="M20.4754 15.4713C19.3122 15.4713 18.17 15.2894 17.0877 14.9317C16.5573 14.7508 15.9053 14.9168 15.5816 15.2492L13.4453 16.8619C10.9677 15.5394 9.44154 14.0138 8.13708 11.5548L9.70235 9.4741C10.109 9.06798 10.2549 8.47472 10.0801 7.91808C9.7209 6.83003 9.53842 5.6884 9.53842 4.52465C9.53847 3.68395 8.85452 3 8.01387 3H4.5246C3.68395 3 3 3.68395 3 4.5246C3 14.1607 10.8394 22 20.4754 22C21.3161 22 22 21.316 22 20.4754V16.9959C22 16.1553 21.316 15.4713 20.4754 15.4713Z" fill="white"/>
</g>
<defs>
<clipPath id="clip0_8_165">
<rect width="19" height="19" fill="white" transform="translate(3 3)"/>
</clipPath>
</defs>
</svg>
