<svg width="24" height="25" viewBox="0 0 24 25" fill="none" xmlns="http://www.w3.org/2000/svg">
<g clip-path="url(#clip0_6_11)">
<path d="M20.4754 15.9713C19.3122 15.9713 18.17 15.7894 17.0877 15.4317C16.5573 15.2508 15.9053 15.4168 15.5816 15.7492L13.4453 17.3619C10.9677 16.0394 9.44154 14.5138 8.13708 12.0548L9.70235 9.9741C10.109 9.56798 10.2549 8.97472 10.0801 8.41808C9.7209 7.33003 9.53842 6.1884 9.53842 5.02465C9.53847 4.18395 8.85452 3.5 8.01387 3.5H4.5246C3.68395 3.5 3 4.18395 3 5.0246C3 14.6607 10.8394 22.5 20.4754 22.5C21.3161 22.5 22.0001 21.8161 22.0001 20.9754V17.4959C22 16.6553 21.316 15.9713 20.4754 15.9713Z" fill="#093038"/>
</g>
<defs>
<clipPath id="clip0_6_11">
<rect width="19" height="19" fill="white" transform="translate(3 3.5)"/>
</clipPath>
</defs>
</svg>
