<svg width="40" height="40" viewBox="0 0 40 40" fill="none" xmlns="http://www.w3.org/2000/svg">
<path d="M6.70353 3.09279L21.5542 18.6831C21.8412 18.9236 22.0086 19.3086 22.0564 19.8379C22.1042 20.3672 21.9368 20.8243 21.5542 21.2093L6.34481 36.8717C6.1535 37.0642 5.9861 37.0401 5.84262 36.7995L1.10762 31.3862C0.964131 31.1456 0.964131 30.9532 1.10762 30.8088L12.6582 20.0544L1.2511 8.86696C1.05979 8.72261 1.0837 8.53014 1.32284 8.28955L6.20133 3.16497C6.39265 2.9725 6.56005 2.94844 6.70353 3.09279ZM24.6391 3.09279L39.4898 18.6831C39.7768 18.9236 39.9442 19.3086 39.992 19.8379C40.0399 20.3672 39.8725 20.8243 39.4898 21.2093L24.2804 36.8717C24.0891 37.0642 23.9217 37.0401 23.7782 36.7995L19.0432 31.3862C18.8997 31.1456 18.8997 30.9532 19.0432 30.8088L30.5938 20.0544L19.1867 8.86697C18.9954 8.72261 19.0193 8.53014 19.2585 8.28955L24.1369 3.16497C24.3283 2.9725 24.4957 2.94844 24.6391 3.09279Z" fill="#A6EB54"/>
</svg>
